<svg width="299" height="146" viewBox="0 0 299 146" fill="none" xmlns="http://www.w3.org/2000/svg">
<mask id="path-1-outside-1_16_2" maskUnits="userSpaceOnUse" x="2.26776" y="32" width="292" height="107" fill="black">
<rect fill="white" x="2.26776" y="32" width="292" height="107"/>
<path d="M7.33839 61.8588H11.409V65.9294H7.33839V61.8588ZM15.4796 33.3644H35.8328V37.435H31.7621V65.9294H27.6915V70H11.409V65.9294H23.6209V37.435H15.4796V33.3644ZM43.974 33.3644H60.2565V37.435H64.3271V70H56.1859V57.7881H48.0446V70H39.9034V37.435H43.974V33.3644ZM56.1859 37.435H48.0446V53.7175H56.1859V37.435ZM72.4684 33.3644H80.6096V41.5056H84.6803V45.5763H88.7509V49.6469H92.8215V33.3644H96.8921V70H92.8215V57.7881H88.7509V53.7175H84.6803V49.6469H80.6096V70H72.4684V33.3644ZM137.598 37.435H141.669V41.5056H137.598V37.435ZM141.669 33.3644H157.952V37.435H162.022V45.5763H157.952V49.6469H153.881V53.7175H149.81V57.7881H145.74V65.9294H162.022V70H137.598V57.7881H141.669V53.7175H145.74V49.6469H149.81V45.5763H153.881V37.435H141.669V33.3644ZM178.305 41.5056H182.375V45.5763H178.305V41.5056ZM186.446 33.3644H194.587V70H186.446V57.7881H170.163V49.6469H174.234V45.5763H178.305V53.7175H186.446V41.5056H182.375V37.435H186.446V33.3644ZM206.799 49.6469H223.081V53.7175H206.799V49.6469ZM235.293 37.435H239.364V41.5056H235.293V37.435ZM239.364 33.3644H255.646V37.435H259.717V45.5763H255.646V49.6469H251.576V53.7175H247.505V57.7881H243.435V65.9294H259.717V70H235.293V57.7881H239.364V53.7175H243.435V49.6469H247.505V45.5763H251.576V37.435H239.364V33.3644ZM288.211 37.435H292.282V41.5056H288.211V37.435ZM271.929 33.3644H288.211V37.435H276V49.6469H288.211V53.7175H292.282V65.9294H288.211V70H271.929V65.9294H267.858V37.435H271.929V33.3644ZM284.141 53.7175H276V65.9294H284.141V53.7175Z"/>
<path d="M7.28401 91.9512H9.29214V97.9756H7.28401V91.9512ZM9.29214 89.9431H13.3084V97.9756H15.3165V99.9837H9.29214V97.9756H11.3003V91.9512H9.29214V89.9431ZM15.3165 87.935H17.3246V97.9756H15.3165V87.935ZM5.27589 101.992H15.3165V104H5.27589V101.992ZM3.26776 87.935H5.27589V101.992H3.26776V87.935ZM5.27589 85.9269H15.3165V87.935H5.27589V85.9269ZM21.3409 87.935H23.349V93.9594H21.3409V87.935ZM29.3734 95.9675H31.3815V101.992H29.3734V95.9675ZM23.349 101.992H29.3734V104H23.349V101.992ZM21.3409 99.9837H23.349V101.992H21.3409V99.9837ZM23.349 93.9594H29.3734V95.9675H23.349V93.9594ZM29.3734 87.935H31.3815V89.9431H29.3734V87.935ZM23.349 85.9269H29.3734V87.935H23.349V85.9269ZM37.4059 87.935H39.414V93.9594H37.4059V87.935ZM45.4384 95.9675H47.4465V101.992H45.4384V95.9675ZM39.414 101.992H45.4384V104H39.414V101.992ZM37.4059 99.9837H39.414V101.992H37.4059V99.9837ZM39.414 93.9594H45.4384V95.9675H39.414V93.9594ZM45.4384 87.935H47.4465V89.9431H45.4384V87.935ZM39.414 85.9269H45.4384V87.935H39.414V85.9269ZM53.4709 85.9269H55.479V101.992H63.5115V104H53.4709V85.9269ZM71.544 97.9756H73.5521V104H71.544V97.9756ZM73.5521 91.9512H75.5603V97.9756H73.5521V91.9512ZM75.5603 85.9269H77.5684V91.9512H75.5603V85.9269ZM93.6334 85.9269H95.6415V104H93.6334V97.9756H91.6253V95.9675H93.6334V85.9269ZM89.6171 93.9594H91.6253V95.9675H89.6171V93.9594ZM85.6009 85.9269H87.609V91.9512H89.6171V93.9594H87.609V104H85.6009V85.9269ZM101.666 87.935H103.674V93.9594H101.666V87.935ZM109.698 95.9675H111.707V101.992H109.698V95.9675ZM103.674 101.992H109.698V104H103.674V101.992ZM101.666 99.9837H103.674V101.992H101.666V99.9837ZM103.674 93.9594H109.698V95.9675H103.674V93.9594ZM109.698 87.935H111.707V89.9431H109.698V87.935ZM103.674 85.9269H109.698V87.935H103.674V85.9269ZM117.731 85.9269H119.739V101.992H127.772V104H117.731V85.9269ZM11.8786 138L5.80603 127.397V125.983H6.51289C7.64815 125.983 8.60134 125.876 9.37246 125.662C10.165 125.448 10.7862 125.094 11.236 124.602C11.6858 124.109 11.9536 123.434 12.0393 122.578H5.80603V120.521H12.0071C11.8572 119.729 11.5573 119.086 11.1075 118.593C10.6577 118.079 10.0472 117.705 9.27607 117.469C8.52637 117.233 7.60531 117.115 6.51289 117.115H5.80603V115.059H19.1079V117.115H13.0353C13.5279 117.522 13.9349 118.004 14.2562 118.561C14.5775 119.118 14.781 119.772 14.8667 120.521H19.1079V122.578H14.931C14.781 124.141 14.1813 125.362 13.1317 126.24C12.1035 127.097 10.7326 127.643 9.01903 127.879L15.1559 138H11.8786ZM23.6628 133.984H25.6709V135.992H23.6628V133.984ZM25.6709 135.992H31.6953V138H25.6709V135.992ZM31.6953 127.959H33.7034V135.992H31.6953V127.959ZM23.6628 119.927H33.7034V121.935H25.6709V125.951H31.6953V127.959H23.6628V119.927ZM41.7359 135.992H47.7603V138H41.7359V135.992ZM47.7603 121.935H49.7684V135.992H47.7603V127.959H45.7522V125.951H47.7603V121.935ZM43.744 127.959H45.7522V129.967H43.744V127.959ZM39.7278 121.935H41.7359V129.967H43.744V131.976H41.7359V135.992H39.7278V121.935ZM41.7359 119.927H47.7603V121.935H41.7359V119.927ZM57.8009 131.976H59.809V138H57.8009V131.976ZM59.809 125.951H61.8172V131.976H59.809V125.951ZM61.8172 119.927H63.8253V125.951H61.8172V119.927ZM73.8659 127.959H81.8984V129.967H73.8659V127.959ZM112.02 121.935H114.028V127.959H112.02V121.935ZM103.988 119.927H112.02V121.935H105.996V127.959H112.02V129.967H105.996V138H103.988V119.927ZM128.085 133.984H130.093V135.992H128.085V133.984ZM122.061 135.992H128.085V138H122.061V135.992ZM120.053 125.951H122.061V129.967H128.085V125.951H130.093V131.976H122.061V135.992H120.053V125.951ZM122.061 123.943H128.085V125.951H122.061V123.943ZM142.142 123.943H146.158V125.951H142.142V123.943ZM140.134 125.951H142.142V127.959H140.134V125.951ZM136.118 123.943H138.126V127.959H140.134V129.967H138.126V138H136.118V123.943ZM176.28 121.935H178.288V127.959H176.28V121.935ZM168.248 119.927H176.28V121.935H170.256V127.959H176.28V129.967H170.256V138H168.248V119.927ZM192.345 133.984H194.353V135.992H192.345V133.984ZM186.321 135.992H192.345V138H186.321V135.992ZM184.313 125.951H186.321V129.967H192.345V125.951H194.353V131.976H186.321V135.992H184.313V125.951ZM186.321 123.943H192.345V125.951H186.321V123.943ZM206.402 123.943H210.418V125.951H206.402V123.943ZM204.394 125.951H206.402V127.959H204.394V125.951ZM200.378 123.943H202.386V127.959H204.394V129.967H202.386V138H200.378V123.943ZM216.443 125.951H218.451V129.967H216.443V125.951ZM224.475 131.976H226.483V135.992H224.475V131.976ZM218.451 135.992H224.475V138H218.451V135.992ZM216.443 133.984H218.451V135.992H216.443V133.984ZM218.451 129.967H224.475V131.976H218.451V129.967ZM224.475 125.951H226.483V127.959H224.475V125.951ZM218.451 123.943H224.475V125.951H218.451V123.943ZM240.54 125.951H242.548V135.992H240.54V125.951ZM234.516 135.992H240.54V138H234.516V135.992ZM232.508 125.951H234.516V135.992H232.508V125.951ZM234.516 123.943H240.54V125.951H234.516V123.943ZM256.605 125.951H258.613V138H256.605V125.951ZM248.573 123.943H256.605V125.951H250.581V138H248.573V123.943Z"/>
</mask>
<path d="M7.33839 61.8588H11.409V65.9294H7.33839V61.8588ZM15.4796 33.3644H35.8328V37.435H31.7621V65.9294H27.6915V70H11.409V65.9294H23.6209V37.435H15.4796V33.3644ZM43.974 33.3644H60.2565V37.435H64.3271V70H56.1859V57.7881H48.0446V70H39.9034V37.435H43.974V33.3644ZM56.1859 37.435H48.0446V53.7175H56.1859V37.435ZM72.4684 33.3644H80.6096V41.5056H84.6803V45.5763H88.7509V49.6469H92.8215V33.3644H96.8921V70H92.8215V57.7881H88.7509V53.7175H84.6803V49.6469H80.6096V70H72.4684V33.3644ZM137.598 37.435H141.669V41.5056H137.598V37.435ZM141.669 33.3644H157.952V37.435H162.022V45.5763H157.952V49.6469H153.881V53.7175H149.81V57.7881H145.74V65.9294H162.022V70H137.598V57.7881H141.669V53.7175H145.74V49.6469H149.81V45.5763H153.881V37.435H141.669V33.3644ZM178.305 41.5056H182.375V45.5763H178.305V41.5056ZM186.446 33.3644H194.587V70H186.446V57.7881H170.163V49.6469H174.234V45.5763H178.305V53.7175H186.446V41.5056H182.375V37.435H186.446V33.3644ZM206.799 49.6469H223.081V53.7175H206.799V49.6469ZM235.293 37.435H239.364V41.5056H235.293V37.435ZM239.364 33.3644H255.646V37.435H259.717V45.5763H255.646V49.6469H251.576V53.7175H247.505V57.7881H243.435V65.9294H259.717V70H235.293V57.7881H239.364V53.7175H243.435V49.6469H247.505V45.5763H251.576V37.435H239.364V33.3644ZM288.211 37.435H292.282V41.5056H288.211V37.435ZM271.929 33.3644H288.211V37.435H276V49.6469H288.211V53.7175H292.282V65.9294H288.211V70H271.929V65.9294H267.858V37.435H271.929V33.3644ZM284.141 53.7175H276V65.9294H284.141V53.7175Z" fill="#D9D9D9"/>
<path d="M7.28401 91.9512H9.29214V97.9756H7.28401V91.9512ZM9.29214 89.9431H13.3084V97.9756H15.3165V99.9837H9.29214V97.9756H11.3003V91.9512H9.29214V89.9431ZM15.3165 87.935H17.3246V97.9756H15.3165V87.935ZM5.27589 101.992H15.3165V104H5.27589V101.992ZM3.26776 87.935H5.27589V101.992H3.26776V87.935ZM5.27589 85.9269H15.3165V87.935H5.27589V85.9269ZM21.3409 87.935H23.349V93.9594H21.3409V87.935ZM29.3734 95.9675H31.3815V101.992H29.3734V95.9675ZM23.349 101.992H29.3734V104H23.349V101.992ZM21.3409 99.9837H23.349V101.992H21.3409V99.9837ZM23.349 93.9594H29.3734V95.9675H23.349V93.9594ZM29.3734 87.935H31.3815V89.9431H29.3734V87.935ZM23.349 85.9269H29.3734V87.935H23.349V85.9269ZM37.4059 87.935H39.414V93.9594H37.4059V87.935ZM45.4384 95.9675H47.4465V101.992H45.4384V95.9675ZM39.414 101.992H45.4384V104H39.414V101.992ZM37.4059 99.9837H39.414V101.992H37.4059V99.9837ZM39.414 93.9594H45.4384V95.9675H39.414V93.9594ZM45.4384 87.935H47.4465V89.9431H45.4384V87.935ZM39.414 85.9269H45.4384V87.935H39.414V85.9269ZM53.4709 85.9269H55.479V101.992H63.5115V104H53.4709V85.9269ZM71.544 97.9756H73.5521V104H71.544V97.9756ZM73.5521 91.9512H75.5603V97.9756H73.5521V91.9512ZM75.5603 85.9269H77.5684V91.9512H75.5603V85.9269ZM93.6334 85.9269H95.6415V104H93.6334V97.9756H91.6253V95.9675H93.6334V85.9269ZM89.6171 93.9594H91.6253V95.9675H89.6171V93.9594ZM85.6009 85.9269H87.609V91.9512H89.6171V93.9594H87.609V104H85.6009V85.9269ZM101.666 87.935H103.674V93.9594H101.666V87.935ZM109.698 95.9675H111.707V101.992H109.698V95.9675ZM103.674 101.992H109.698V104H103.674V101.992ZM101.666 99.9837H103.674V101.992H101.666V99.9837ZM103.674 93.9594H109.698V95.9675H103.674V93.9594ZM109.698 87.935H111.707V89.9431H109.698V87.935ZM103.674 85.9269H109.698V87.935H103.674V85.9269ZM117.731 85.9269H119.739V101.992H127.772V104H117.731V85.9269ZM11.8786 138L5.80603 127.397V125.983H6.51289C7.64815 125.983 8.60134 125.876 9.37246 125.662C10.165 125.448 10.7862 125.094 11.236 124.602C11.6858 124.109 11.9536 123.434 12.0393 122.578H5.80603V120.521H12.0071C11.8572 119.729 11.5573 119.086 11.1075 118.593C10.6577 118.079 10.0472 117.705 9.27607 117.469C8.52637 117.233 7.60531 117.115 6.51289 117.115H5.80603V115.059H19.1079V117.115H13.0353C13.5279 117.522 13.9349 118.004 14.2562 118.561C14.5775 119.118 14.781 119.772 14.8667 120.521H19.1079V122.578H14.931C14.781 124.141 14.1813 125.362 13.1317 126.24C12.1035 127.097 10.7326 127.643 9.01903 127.879L15.1559 138H11.8786ZM23.6628 133.984H25.6709V135.992H23.6628V133.984ZM25.6709 135.992H31.6953V138H25.6709V135.992ZM31.6953 127.959H33.7034V135.992H31.6953V127.959ZM23.6628 119.927H33.7034V121.935H25.6709V125.951H31.6953V127.959H23.6628V119.927ZM41.7359 135.992H47.7603V138H41.7359V135.992ZM47.7603 121.935H49.7684V135.992H47.7603V127.959H45.7522V125.951H47.7603V121.935ZM43.744 127.959H45.7522V129.967H43.744V127.959ZM39.7278 121.935H41.7359V129.967H43.744V131.976H41.7359V135.992H39.7278V121.935ZM41.7359 119.927H47.7603V121.935H41.7359V119.927ZM57.8009 131.976H59.809V138H57.8009V131.976ZM59.809 125.951H61.8172V131.976H59.809V125.951ZM61.8172 119.927H63.8253V125.951H61.8172V119.927ZM73.8659 127.959H81.8984V129.967H73.8659V127.959ZM112.02 121.935H114.028V127.959H112.02V121.935ZM103.988 119.927H112.02V121.935H105.996V127.959H112.02V129.967H105.996V138H103.988V119.927ZM128.085 133.984H130.093V135.992H128.085V133.984ZM122.061 135.992H128.085V138H122.061V135.992ZM120.053 125.951H122.061V129.967H128.085V125.951H130.093V131.976H122.061V135.992H120.053V125.951ZM122.061 123.943H128.085V125.951H122.061V123.943ZM142.142 123.943H146.158V125.951H142.142V123.943ZM140.134 125.951H142.142V127.959H140.134V125.951ZM136.118 123.943H138.126V127.959H140.134V129.967H138.126V138H136.118V123.943ZM176.28 121.935H178.288V127.959H176.28V121.935ZM168.248 119.927H176.28V121.935H170.256V127.959H176.28V129.967H170.256V138H168.248V119.927ZM192.345 133.984H194.353V135.992H192.345V133.984ZM186.321 135.992H192.345V138H186.321V135.992ZM184.313 125.951H186.321V129.967H192.345V125.951H194.353V131.976H186.321V135.992H184.313V125.951ZM186.321 123.943H192.345V125.951H186.321V123.943ZM206.402 123.943H210.418V125.951H206.402V123.943ZM204.394 125.951H206.402V127.959H204.394V125.951ZM200.378 123.943H202.386V127.959H204.394V129.967H202.386V138H200.378V123.943ZM216.443 125.951H218.451V129.967H216.443V125.951ZM224.475 131.976H226.483V135.992H224.475V131.976ZM218.451 135.992H224.475V138H218.451V135.992ZM216.443 133.984H218.451V135.992H216.443V133.984ZM218.451 129.967H224.475V131.976H218.451V129.967ZM224.475 125.951H226.483V127.959H224.475V125.951ZM218.451 123.943H224.475V125.951H218.451V123.943ZM240.54 125.951H242.548V135.992H240.54V125.951ZM234.516 135.992H240.54V138H234.516V135.992ZM232.508 125.951H234.516V135.992H232.508V125.951ZM234.516 123.943H240.54V125.951H234.516V123.943ZM256.605 125.951H258.613V138H256.605V125.951ZM248.573 123.943H256.605V125.951H250.581V138H248.573V123.943Z" fill="white"/>
<path d="M7.33839 61.8587V60.8587H6.33839V61.8587H7.33839ZM11.409 61.8587H12.409V60.8587H11.409V61.8587ZM11.409 65.9294V66.9294H12.409V65.9294H11.409ZM7.33839 65.9294H6.33839V66.9294H7.33839V65.9294ZM15.4796 33.3644V32.3644H14.4796V33.3644H15.4796ZM35.8328 33.3644H36.8328V32.3644H35.8328V33.3644ZM35.8328 37.435V38.435H36.8328V37.435H35.8328ZM31.7621 37.435V36.435H30.7621V37.435H31.7621ZM31.7621 65.9294V66.9294H32.7621V65.9294H31.7621ZM27.6915 65.9294V64.9294H26.6915V65.9294H27.6915ZM27.6915 70V71H28.6915V70H27.6915ZM11.409 70H10.409V71H11.409V70ZM11.409 65.9294V64.9294H10.409V65.9294H11.409ZM23.6209 65.9294V66.9294H24.6209V65.9294H23.6209ZM23.6209 37.435H24.6209V36.435H23.6209V37.435ZM15.4796 37.435H14.4796V38.435H15.4796V37.435ZM7.33839 62.8587H11.409V60.8587H7.33839V62.8587ZM10.409 61.8587V65.9294H12.409V61.8587H10.409ZM11.409 64.9294H7.33839V66.9294H11.409V64.9294ZM8.33839 65.9294V61.8587H6.33839V65.9294H8.33839ZM15.4796 34.3644H35.8328V32.3644H15.4796V34.3644ZM34.8328 33.3644V37.435H36.8328V33.3644H34.8328ZM35.8328 36.435H31.7621V38.435H35.8328V36.435ZM30.7621 37.435V65.9294H32.7621V37.435H30.7621ZM31.7621 64.9294H27.6915V66.9294H31.7621V64.9294ZM26.6915 65.9294V70H28.6915V65.9294H26.6915ZM27.6915 69H11.409V71H27.6915V69ZM12.409 70V65.9294H10.409V70H12.409ZM11.409 66.9294H23.6209V64.9294H11.409V66.9294ZM24.6209 65.9294V37.435H22.6209V65.9294H24.6209ZM23.6209 36.435H15.4796V38.435H23.6209V36.435ZM16.4796 37.435V33.3644H14.4796V37.435H16.4796ZM43.974 33.3644V32.3644H42.974V33.3644H43.974ZM60.2565 33.3644H61.2565V32.3644H60.2565V33.3644ZM60.2565 37.435H59.2565V38.435H60.2565V37.435ZM64.3271 37.435H65.3271V36.435H64.3271V37.435ZM64.3271 70V71H65.3271V70H64.3271ZM56.1859 70H55.1859V71H56.1859V70ZM56.1859 57.7881H57.1859V56.7881H56.1859V57.7881ZM48.0446 57.7881V56.7881H47.0446V57.7881H48.0446ZM48.0446 70V71H49.0446V70H48.0446ZM39.9034 70H38.9034V71H39.9034V70ZM39.9034 37.435V36.435H38.9034V37.435H39.9034ZM43.974 37.435V38.435H44.974V37.435H43.974ZM56.1859 37.435H57.1859V36.435H56.1859V37.435ZM48.0446 37.435V36.435H47.0446V37.435H48.0446ZM48.0446 53.7175H47.0446V54.7175H48.0446V53.7175ZM56.1859 53.7175V54.7175H57.1859V53.7175H56.1859ZM43.974 34.3644H60.2565V32.3644H43.974V34.3644ZM59.2565 33.3644V37.435H61.2565V33.3644H59.2565ZM60.2565 38.435H64.3271V36.435H60.2565V38.435ZM63.3271 37.435V70H65.3271V37.435H63.3271ZM64.3271 69H56.1859V71H64.3271V69ZM57.1859 70V57.7881H55.1859V70H57.1859ZM56.1859 56.7881H48.0446V58.7881H56.1859V56.7881ZM47.0446 57.7881V70H49.0446V57.7881H47.0446ZM48.0446 69H39.9034V71H48.0446V69ZM40.9034 70V37.435H38.9034V70H40.9034ZM39.9034 38.435H43.974V36.435H39.9034V38.435ZM44.974 37.435V33.3644H42.974V37.435H44.974ZM56.1859 36.435H48.0446V38.435H56.1859V36.435ZM47.0446 37.435V53.7175H49.0446V37.435H47.0446ZM48.0446 54.7175H56.1859V52.7175H48.0446V54.7175ZM57.1859 53.7175V37.435H55.1859V53.7175H57.1859ZM72.4684 33.3644V32.3644H71.4684V33.3644H72.4684ZM80.6096 33.3644H81.6096V32.3644H80.6096V33.3644ZM80.6096 41.5056H79.6096V42.5056H80.6096V41.5056ZM84.6803 41.5056H85.6803V40.5056H84.6803V41.5056ZM84.6803 45.5763H83.6803V46.5763H84.6803V45.5763ZM88.7509 45.5763H89.7509V44.5763H88.7509V45.5763ZM88.7509 49.6469H87.7509V50.6469H88.7509V49.6469ZM92.8215 49.6469V50.6469H93.8215V49.6469H92.8215ZM92.8215 33.3644V32.3644H91.8215V33.3644H92.8215ZM96.8921 33.3644H97.8921V32.3644H96.8921V33.3644ZM96.8921 70V71H97.8921V70H96.8921ZM92.8215 70H91.8215V71H92.8215V70ZM92.8215 57.7881H93.8215V56.7881H92.8215V57.7881ZM88.7509 57.7881H87.7509V58.7881H88.7509V57.7881ZM88.7509 53.7175H89.7509V52.7175H88.7509V53.7175ZM84.6803 53.7175H83.6803V54.7175H84.6803V53.7175ZM84.6803 49.6469H85.6803V48.6469H84.6803V49.6469ZM80.6096 49.6469V48.6469H79.6096V49.6469H80.6096ZM80.6096 70V71H81.6096V70H80.6096ZM72.4684 70H71.4684V71H72.4684V70ZM72.4684 34.3644H80.6096V32.3644H72.4684V34.3644ZM79.6096 33.3644V41.5056H81.6096V33.3644H79.6096ZM80.6096 42.5056H84.6803V40.5056H80.6096V42.5056ZM83.6803 41.5056V45.5763H85.6803V41.5056H83.6803ZM84.6803 46.5763H88.7509V44.5763H84.6803V46.5763ZM87.7509 45.5763V49.6469H89.7509V45.5763H87.7509ZM88.7509 50.6469H92.8215V48.6469H88.7509V50.6469ZM93.8215 49.6469V33.3644H91.8215V49.6469H93.8215ZM92.8215 34.3644H96.8921V32.3644H92.8215V34.3644ZM95.8921 33.3644V70H97.8921V33.3644H95.8921ZM96.8921 69H92.8215V71H96.8921V69ZM93.8215 70V57.7881H91.8215V70H93.8215ZM92.8215 56.7881H88.7509V58.7881H92.8215V56.7881ZM89.7509 57.7881V53.7175H87.7509V57.7881H89.7509ZM88.7509 52.7175H84.6803V54.7175H88.7509V52.7175ZM85.6803 53.7175V49.6469H83.6803V53.7175H85.6803ZM84.6803 48.6469H80.6096V50.6469H84.6803V48.6469ZM79.6096 49.6469V70H81.6096V49.6469H79.6096ZM80.6096 69H72.4684V71H80.6096V69ZM73.4684 70V33.3644H71.4684V70H73.4684ZM137.598 37.435V36.435H136.598V37.435H137.598ZM141.669 37.435H142.669V36.435H141.669V37.435ZM141.669 41.5056V42.5056H142.669V41.5056H141.669ZM137.598 41.5056H136.598V42.5056H137.598V41.5056ZM141.669 33.3644V32.3644H140.669V33.3644H141.669ZM157.952 33.3644H158.952V32.3644H157.952V33.3644ZM157.952 37.435H156.952V38.435H157.952V37.435ZM162.022 37.435H163.022V36.435H162.022V37.435ZM162.022 45.5763V46.5763H163.022V45.5763H162.022ZM157.952 45.5763V44.5763H156.952V45.5763H157.952ZM157.952 49.6469V50.6469H158.952V49.6469H157.952ZM153.881 49.6469V48.6469H152.881V49.6469H153.881ZM153.881 53.7175V54.7175H154.881V53.7175H153.881ZM149.81 53.7175V52.7175H148.81V53.7175H149.81ZM149.81 57.7881V58.7881H150.81V57.7881H149.81ZM145.74 57.7881V56.7881H144.74V57.7881H145.74ZM145.74 65.9294H144.74V66.9294H145.74V65.9294ZM162.022 65.9294H163.022V64.9294H162.022V65.9294ZM162.022 70V71H163.022V70H162.022ZM137.598 70H136.598V71H137.598V70ZM137.598 57.7881V56.7881H136.598V57.7881H137.598ZM141.669 57.7881V58.7881H142.669V57.7881H141.669ZM141.669 53.7175V52.7175H140.669V53.7175H141.669ZM145.74 53.7175V54.7175H146.74V53.7175H145.74ZM145.74 49.6469V48.6469H144.74V49.6469H145.74ZM149.81 49.6469V50.6469H150.81V49.6469H149.81ZM149.81 45.5763V44.5763H148.81V45.5763H149.81ZM153.881 45.5763V46.5763H154.881V45.5763H153.881ZM153.881 37.435H154.881V36.435H153.881V37.435ZM141.669 37.435H140.669V38.435H141.669V37.435ZM137.598 38.435H141.669V36.435H137.598V38.435ZM140.669 37.435V41.5056H142.669V37.435H140.669ZM141.669 40.5056H137.598V42.5056H141.669V40.5056ZM138.598 41.5056V37.435H136.598V41.5056H138.598ZM141.669 34.3644H157.952V32.3644H141.669V34.3644ZM156.952 33.3644V37.435H158.952V33.3644H156.952ZM157.952 38.435H162.022V36.435H157.952V38.435ZM161.022 37.435V45.5763H163.022V37.435H161.022ZM162.022 44.5763H157.952V46.5763H162.022V44.5763ZM156.952 45.5763V49.6469H158.952V45.5763H156.952ZM157.952 48.6469H153.881V50.6469H157.952V48.6469ZM152.881 49.6469V53.7175H154.881V49.6469H152.881ZM153.881 52.7175H149.81V54.7175H153.881V52.7175ZM148.81 53.7175V57.7881H150.81V53.7175H148.81ZM149.81 56.7881H145.74V58.7881H149.81V56.7881ZM144.74 57.7881V65.9294H146.74V57.7881H144.74ZM145.74 66.9294H162.022V64.9294H145.74V66.9294ZM161.022 65.9294V70H163.022V65.9294H161.022ZM162.022 69H137.598V71H162.022V69ZM138.598 70V57.7881H136.598V70H138.598ZM137.598 58.7881H141.669V56.7881H137.598V58.7881ZM142.669 57.7881V53.7175H140.669V57.7881H142.669ZM141.669 54.7175H145.74V52.7175H141.669V54.7175ZM146.74 53.7175V49.6469H144.74V53.7175H146.74ZM145.74 50.6469H149.81V48.6469H145.74V50.6469ZM150.81 49.6469V45.5763H148.81V49.6469H150.81ZM149.81 46.5763H153.881V44.5763H149.81V46.5763ZM154.881 45.5763V37.435H152.881V45.5763H154.881ZM153.881 36.435H141.669V38.435H153.881V36.435ZM142.669 37.435V33.3644H140.669V37.435H142.669ZM178.305 41.5056V40.5056H177.305V41.5056H178.305ZM182.375 41.5056H183.375V40.5056H182.375V41.5056ZM182.375 45.5763V46.5763H183.375V45.5763H182.375ZM178.305 45.5763H177.305V46.5763H178.305V45.5763ZM186.446 33.3644V32.3644H185.446V33.3644H186.446ZM194.587 33.3644H195.587V32.3644H194.587V33.3644ZM194.587 70V71H195.587V70H194.587ZM186.446 70H185.446V71H186.446V70ZM186.446 57.7881H187.446V56.7881H186.446V57.7881ZM170.163 57.7881H169.163V58.7881H170.163V57.7881ZM170.163 49.6469V48.6469H169.163V49.6469H170.163ZM174.234 49.6469V50.6469H175.234V49.6469H174.234ZM174.234 45.5763V44.5763H173.234V45.5763H174.234ZM178.305 45.5763H179.305V44.5763H178.305V45.5763ZM178.305 53.7175H177.305V54.7175H178.305V53.7175ZM186.446 53.7175V54.7175H187.446V53.7175H186.446ZM186.446 41.5056H187.446V40.5056H186.446V41.5056ZM182.375 41.5056H181.375V42.5056H182.375V41.5056ZM182.375 37.435V36.435H181.375V37.435H182.375ZM186.446 37.435V38.435H187.446V37.435H186.446ZM178.305 42.5056H182.375V40.5056H178.305V42.5056ZM181.375 41.5056V45.5763H183.375V41.5056H181.375ZM182.375 44.5763H178.305V46.5763H182.375V44.5763ZM179.305 45.5763V41.5056H177.305V45.5763H179.305ZM186.446 34.3644H194.587V32.3644H186.446V34.3644ZM193.587 33.3644V70H195.587V33.3644H193.587ZM194.587 69H186.446V71H194.587V69ZM187.446 70V57.7881H185.446V70H187.446ZM186.446 56.7881H170.163V58.7881H186.446V56.7881ZM171.163 57.7881V49.6469H169.163V57.7881H171.163ZM170.163 50.6469H174.234V48.6469H170.163V50.6469ZM175.234 49.6469V45.5763H173.234V49.6469H175.234ZM174.234 46.5763H178.305V44.5763H174.234V46.5763ZM177.305 45.5763V53.7175H179.305V45.5763H177.305ZM178.305 54.7175H186.446V52.7175H178.305V54.7175ZM187.446 53.7175V41.5056H185.446V53.7175H187.446ZM186.446 40.5056H182.375V42.5056H186.446V40.5056ZM183.375 41.5056V37.435H181.375V41.5056H183.375ZM182.375 38.435H186.446V36.435H182.375V38.435ZM187.446 37.435V33.3644H185.446V37.435H187.446ZM206.799 49.6469V48.6469H205.799V49.6469H206.799ZM223.081 49.6469H224.081V48.6469H223.081V49.6469ZM223.081 53.7175V54.7175H224.081V53.7175H223.081ZM206.799 53.7175H205.799V54.7175H206.799V53.7175ZM206.799 50.6469H223.081V48.6469H206.799V50.6469ZM222.081 49.6469V53.7175H224.081V49.6469H222.081ZM223.081 52.7175H206.799V54.7175H223.081V52.7175ZM207.799 53.7175V49.6469H205.799V53.7175H207.799ZM235.293 37.435V36.435H234.293V37.435H235.293ZM239.364 37.435H240.364V36.435H239.364V37.435ZM239.364 41.5056V42.5056H240.364V41.5056H239.364ZM235.293 41.5056H234.293V42.5056H235.293V41.5056ZM239.364 33.3644V32.3644H238.364V33.3644H239.364ZM255.646 33.3644H256.646V32.3644H255.646V33.3644ZM255.646 37.435H254.646V38.435H255.646V37.435ZM259.717 37.435H260.717V36.435H259.717V37.435ZM259.717 45.5763V46.5763H260.717V45.5763H259.717ZM255.646 45.5763V44.5763H254.646V45.5763H255.646ZM255.646 49.6469V50.6469H256.646V49.6469H255.646ZM251.576 49.6469V48.6469H250.576V49.6469H251.576ZM251.576 53.7175V54.7175H252.576V53.7175H251.576ZM247.505 53.7175V52.7175H246.505V53.7175H247.505ZM247.505 57.7881V58.7881H248.505V57.7881H247.505ZM243.435 57.7881V56.7881H242.435V57.7881H243.435ZM243.435 65.9294H242.435V66.9294H243.435V65.9294ZM259.717 65.9294H260.717V64.9294H259.717V65.9294ZM259.717 70V71H260.717V70H259.717ZM235.293 70H234.293V71H235.293V70ZM235.293 57.7881V56.7881H234.293V57.7881H235.293ZM239.364 57.7881V58.7881H240.364V57.7881H239.364ZM239.364 53.7175V52.7175H238.364V53.7175H239.364ZM243.435 53.7175V54.7175H244.435V53.7175H243.435ZM243.435 49.6469V48.6469H242.435V49.6469H243.435ZM247.505 49.6469V50.6469H248.505V49.6469H247.505ZM247.505 45.5763V44.5763H246.505V45.5763H247.505ZM251.576 45.5763V46.5763H252.576V45.5763H251.576ZM251.576 37.435H252.576V36.435H251.576V37.435ZM239.364 37.435H238.364V38.435H239.364V37.435ZM235.293 38.435H239.364V36.435H235.293V38.435ZM238.364 37.435V41.5056H240.364V37.435H238.364ZM239.364 40.5056H235.293V42.5056H239.364V40.5056ZM236.293 41.5056V37.435H234.293V41.5056H236.293ZM239.364 34.3644H255.646V32.3644H239.364V34.3644ZM254.646 33.3644V37.435H256.646V33.3644H254.646ZM255.646 38.435H259.717V36.435H255.646V38.435ZM258.717 37.435V45.5763H260.717V37.435H258.717ZM259.717 44.5763H255.646V46.5763H259.717V44.5763ZM254.646 45.5763V49.6469H256.646V45.5763H254.646ZM255.646 48.6469H251.576V50.6469H255.646V48.6469ZM250.576 49.6469V53.7175H252.576V49.6469H250.576ZM251.576 52.7175H247.505V54.7175H251.576V52.7175ZM246.505 53.7175V57.7881H248.505V53.7175H246.505ZM247.505 56.7881H243.435V58.7881H247.505V56.7881ZM242.435 57.7881V65.9294H244.435V57.7881H242.435ZM243.435 66.9294H259.717V64.9294H243.435V66.9294ZM258.717 65.9294V70H260.717V65.9294H258.717ZM259.717 69H235.293V71H259.717V69ZM236.293 70V57.7881H234.293V70H236.293ZM235.293 58.7881H239.364V56.7881H235.293V58.7881ZM240.364 57.7881V53.7175H238.364V57.7881H240.364ZM239.364 54.7175H243.435V52.7175H239.364V54.7175ZM244.435 53.7175V49.6469H242.435V53.7175H244.435ZM243.435 50.6469H247.505V48.6469H243.435V50.6469ZM248.505 49.6469V45.5763H246.505V49.6469H248.505ZM247.505 46.5763H251.576V44.5763H247.505V46.5763ZM252.576 45.5763V37.435H250.576V45.5763H252.576ZM251.576 36.435H239.364V38.435H251.576V36.435ZM240.364 37.435V33.3644H238.364V37.435H240.364ZM288.211 37.435V36.435H287.211V37.435H288.211ZM292.282 37.435H293.282V36.435H292.282V37.435ZM292.282 41.5056V42.5056H293.282V41.5056H292.282ZM288.211 41.5056H287.211V42.5056H288.211V41.5056ZM271.929 33.3644V32.3644H270.929V33.3644H271.929ZM288.211 33.3644H289.211V32.3644H288.211V33.3644ZM288.211 37.435V38.435H289.211V37.435H288.211ZM276 37.435V36.435H275V37.435H276ZM276 49.6469H275V50.6469H276V49.6469ZM288.211 49.6469H289.211V48.6469H288.211V49.6469ZM288.211 53.7175H287.211V54.7175H288.211V53.7175ZM292.282 53.7175H293.282V52.7175H292.282V53.7175ZM292.282 65.9294V66.9294H293.282V65.9294H292.282ZM288.211 65.9294V64.9294H287.211V65.9294H288.211ZM288.211 70V71H289.211V70H288.211ZM271.929 70H270.929V71H271.929V70ZM271.929 65.9294H272.929V64.9294H271.929V65.9294ZM267.858 65.9294H266.858V66.9294H267.858V65.9294ZM267.858 37.435V36.435H266.858V37.435H267.858ZM271.929 37.435V38.435H272.929V37.435H271.929ZM284.141 53.7175H285.141V52.7175H284.141V53.7175ZM276 53.7175V52.7175H275V53.7175H276ZM276 65.9294H275V66.9294H276V65.9294ZM284.141 65.9294V66.9294H285.141V65.9294H284.141ZM288.211 38.435H292.282V36.435H288.211V38.435ZM291.282 37.435V41.5056H293.282V37.435H291.282ZM292.282 40.5056H288.211V42.5056H292.282V40.5056ZM289.211 41.5056V37.435H287.211V41.5056H289.211ZM271.929 34.3644H288.211V32.3644H271.929V34.3644ZM287.211 33.3644V37.435H289.211V33.3644H287.211ZM288.211 36.435H276V38.435H288.211V36.435ZM275 37.435V49.6469H277V37.435H275ZM276 50.6469H288.211V48.6469H276V50.6469ZM287.211 49.6469V53.7175H289.211V49.6469H287.211ZM288.211 54.7175H292.282V52.7175H288.211V54.7175ZM291.282 53.7175V65.9294H293.282V53.7175H291.282ZM292.282 64.9294H288.211V66.9294H292.282V64.9294ZM287.211 65.9294V70H289.211V65.9294H287.211ZM288.211 69H271.929V71H288.211V69ZM272.929 70V65.9294H270.929V70H272.929ZM271.929 64.9294H267.858V66.9294H271.929V64.9294ZM268.858 65.9294V37.435H266.858V65.9294H268.858ZM267.858 38.435H271.929V36.435H267.858V38.435ZM272.929 37.435V33.3644H270.929V37.435H272.929ZM284.141 52.7175H276V54.7175H284.141V52.7175ZM275 53.7175V65.9294H277V53.7175H275ZM276 66.9294H284.141V64.9294H276V66.9294ZM285.141 65.9294V53.7175H283.141V65.9294H285.141ZM7.28401 91.9512V90.9512H6.28401V91.9512H7.28401ZM9.29214 91.9512H10.2921V90.9512H9.29214V91.9512ZM9.29214 97.9756V98.9756H10.2921V97.9756H9.29214ZM7.28401 97.9756H6.28401V98.9756H7.28401V97.9756ZM9.29214 89.9431V88.9431H8.29214V89.9431H9.29214ZM13.3084 89.9431H14.3084V88.9431H13.3084V89.9431ZM13.3084 97.9756H12.3084V98.9756H13.3084V97.9756ZM15.3165 97.9756H16.3165V96.9756H15.3165V97.9756ZM15.3165 99.9837V100.984H16.3165V99.9837H15.3165ZM9.29214 99.9837H8.29214V100.984H9.29214V99.9837ZM9.29214 97.9756V96.9756H8.29214V97.9756H9.29214ZM11.3003 97.9756V98.9756H12.3003V97.9756H11.3003ZM11.3003 91.9512H12.3003V90.9512H11.3003V91.9512ZM9.29214 91.9512H8.29214V92.9512H9.29214V91.9512ZM15.3165 87.935V86.935H14.3165V87.935H15.3165ZM17.3246 87.935H18.3246V86.935H17.3246V87.935ZM17.3246 97.9756V98.9756H18.3246V97.9756H17.3246ZM15.3165 97.9756H14.3165V98.9756H15.3165V97.9756ZM5.27589 101.992V100.992H4.27589V101.992H5.27589ZM15.3165 101.992H16.3165V100.992H15.3165V101.992ZM15.3165 104V105H16.3165V104H15.3165ZM5.27589 104H4.27589V105H5.27589V104ZM3.26776 87.935V86.935H2.26776V87.935H3.26776ZM5.27589 87.935H6.27589V86.935H5.27589V87.935ZM5.27589 101.992V102.992H6.27589V101.992H5.27589ZM3.26776 101.992H2.26776V102.992H3.26776V101.992ZM5.27589 85.9269V84.9269H4.27589V85.9269H5.27589ZM15.3165 85.9269H16.3165V84.9269H15.3165V85.9269ZM15.3165 87.935V88.935H16.3165V87.935H15.3165ZM5.27589 87.935H4.27589V88.935H5.27589V87.935ZM7.28401 92.9512H9.29214V90.9512H7.28401V92.9512ZM8.29214 91.9512V97.9756H10.2921V91.9512H8.29214ZM9.29214 96.9756H7.28401V98.9756H9.29214V96.9756ZM8.28401 97.9756V91.9512H6.28401V97.9756H8.28401ZM9.29214 90.9431H13.3084V88.9431H9.29214V90.9431ZM12.3084 89.9431V97.9756H14.3084V89.9431H12.3084ZM13.3084 98.9756H15.3165V96.9756H13.3084V98.9756ZM14.3165 97.9756V99.9837H16.3165V97.9756H14.3165ZM15.3165 98.9837H9.29214V100.984H15.3165V98.9837ZM10.2921 99.9837V97.9756H8.29214V99.9837H10.2921ZM9.29214 98.9756H11.3003V96.9756H9.29214V98.9756ZM12.3003 97.9756V91.9512H10.3003V97.9756H12.3003ZM11.3003 90.9512H9.29214V92.9512H11.3003V90.9512ZM10.2921 91.9512V89.9431H8.29214V91.9512H10.2921ZM15.3165 88.935H17.3246V86.935H15.3165V88.935ZM16.3246 87.935V97.9756H18.3246V87.935H16.3246ZM17.3246 96.9756H15.3165V98.9756H17.3246V96.9756ZM16.3165 97.9756V87.935H14.3165V97.9756H16.3165ZM5.27589 102.992H15.3165V100.992H5.27589V102.992ZM14.3165 101.992V104H16.3165V101.992H14.3165ZM15.3165 103H5.27589V105H15.3165V103ZM6.27589 104V101.992H4.27589V104H6.27589ZM3.26776 88.935H5.27589V86.935H3.26776V88.935ZM4.27589 87.935V101.992H6.27589V87.935H4.27589ZM5.27589 100.992H3.26776V102.992H5.27589V100.992ZM4.26776 101.992V87.935H2.26776V101.992H4.26776ZM5.27589 86.9269H15.3165V84.9269H5.27589V86.9269ZM14.3165 85.9269V87.935H16.3165V85.9269H14.3165ZM15.3165 86.935H5.27589V88.935H15.3165V86.935ZM6.27589 87.935V85.9269H4.27589V87.935H6.27589ZM21.3409 87.935V86.935H20.3409V87.935H21.3409ZM23.349 87.935H24.349V86.935H23.349V87.935ZM23.349 93.9594V94.9594H24.349V93.9594H23.349ZM21.3409 93.9594H20.3409V94.9594H21.3409V93.9594ZM29.3734 95.9675V94.9675H28.3734V95.9675H29.3734ZM31.3815 95.9675H32.3815V94.9675H31.3815V95.9675ZM31.3815 101.992V102.992H32.3815V101.992H31.3815ZM29.3734 101.992H28.3734V102.992H29.3734V101.992ZM23.349 101.992V100.992H22.349V101.992H23.349ZM29.3734 101.992H30.3734V100.992H29.3734V101.992ZM29.3734 104V105H30.3734V104H29.3734ZM23.349 104H22.349V105H23.349V104ZM21.3409 99.9837V98.9837H20.3409V99.9837H21.3409ZM23.349 99.9837H24.349V98.9837H23.349V99.9837ZM23.349 101.992V102.992H24.349V101.992H23.349ZM21.3409 101.992H20.3409V102.992H21.3409V101.992ZM23.349 93.9594V92.9594H22.349V93.9594H23.349ZM29.3734 93.9594H30.3734V92.9594H29.3734V93.9594ZM29.3734 95.9675V96.9675H30.3734V95.9675H29.3734ZM23.349 95.9675H22.349V96.9675H23.349V95.9675ZM29.3734 87.935V86.935H28.3734V87.935H29.3734ZM31.3815 87.935H32.3815V86.935H31.3815V87.935ZM31.3815 89.9431V90.9431H32.3815V89.9431H31.3815ZM29.3734 89.9431H28.3734V90.9431H29.3734V89.9431ZM23.349 85.9269V84.9269H22.349V85.9269H23.349ZM29.3734 85.9269H30.3734V84.9269H29.3734V85.9269ZM29.3734 87.935V88.935H30.3734V87.935H29.3734ZM23.349 87.935H22.349V88.935H23.349V87.935ZM21.3409 88.935H23.349V86.935H21.3409V88.935ZM22.349 87.935V93.9594H24.349V87.935H22.349ZM23.349 92.9594H21.3409V94.9594H23.349V92.9594ZM22.3409 93.9594V87.935H20.3409V93.9594H22.3409ZM29.3734 96.9675H31.3815V94.9675H29.3734V96.9675ZM30.3815 95.9675V101.992H32.3815V95.9675H30.3815ZM31.3815 100.992H29.3734V102.992H31.3815V100.992ZM30.3734 101.992V95.9675H28.3734V101.992H30.3734ZM23.349 102.992H29.3734V100.992H23.349V102.992ZM28.3734 101.992V104H30.3734V101.992H28.3734ZM29.3734 103H23.349V105H29.3734V103ZM24.349 104V101.992H22.349V104H24.349ZM21.3409 100.984H23.349V98.9837H21.3409V100.984ZM22.349 99.9837V101.992H24.349V99.9837H22.349ZM23.349 100.992H21.3409V102.992H23.349V100.992ZM22.3409 101.992V99.9837H20.3409V101.992H22.3409ZM23.349 94.9594H29.3734V92.9594H23.349V94.9594ZM28.3734 93.9594V95.9675H30.3734V93.9594H28.3734ZM29.3734 94.9675H23.349V96.9675H29.3734V94.9675ZM24.349 95.9675V93.9594H22.349V95.9675H24.349ZM29.3734 88.935H31.3815V86.935H29.3734V88.935ZM30.3815 87.935V89.9431H32.3815V87.935H30.3815ZM31.3815 88.9431H29.3734V90.9431H31.3815V88.9431ZM30.3734 89.9431V87.935H28.3734V89.9431H30.3734ZM23.349 86.9269H29.3734V84.9269H23.349V86.9269ZM28.3734 85.9269V87.935H30.3734V85.9269H28.3734ZM29.3734 86.935H23.349V88.935H29.3734V86.935ZM24.349 87.935V85.9269H22.349V87.935H24.349ZM37.4059 87.935V86.935H36.4059V87.935H37.4059ZM39.414 87.935H40.414V86.935H39.414V87.935ZM39.414 93.9594V94.9594H40.414V93.9594H39.414ZM37.4059 93.9594H36.4059V94.9594H37.4059V93.9594ZM45.4384 95.9675V94.9675H44.4384V95.9675H45.4384ZM47.4465 95.9675H48.4465V94.9675H47.4465V95.9675ZM47.4465 101.992V102.992H48.4465V101.992H47.4465ZM45.4384 101.992H44.4384V102.992H45.4384V101.992ZM39.414 101.992V100.992H38.414V101.992H39.414ZM45.4384 101.992H46.4384V100.992H45.4384V101.992ZM45.4384 104V105H46.4384V104H45.4384ZM39.414 104H38.414V105H39.414V104ZM37.4059 99.9837V98.9837H36.4059V99.9837H37.4059ZM39.414 99.9837H40.414V98.9837H39.414V99.9837ZM39.414 101.992V102.992H40.414V101.992H39.414ZM37.4059 101.992H36.4059V102.992H37.4059V101.992ZM39.414 93.9594V92.9594H38.414V93.9594H39.414ZM45.4384 93.9594H46.4384V92.9594H45.4384V93.9594ZM45.4384 95.9675V96.9675H46.4384V95.9675H45.4384ZM39.414 95.9675H38.414V96.9675H39.414V95.9675ZM45.4384 87.935V86.935H44.4384V87.935H45.4384ZM47.4465 87.935H48.4465V86.935H47.4465V87.935ZM47.4465 89.9431V90.9431H48.4465V89.9431H47.4465ZM45.4384 89.9431H44.4384V90.9431H45.4384V89.9431ZM39.414 85.9269V84.9269H38.414V85.9269H39.414ZM45.4384 85.9269H46.4384V84.9269H45.4384V85.9269ZM45.4384 87.935V88.935H46.4384V87.935H45.4384ZM39.414 87.935H38.414V88.935H39.414V87.935ZM37.4059 88.935H39.414V86.935H37.4059V88.935ZM38.414 87.935V93.9594H40.414V87.935H38.414ZM39.414 92.9594H37.4059V94.9594H39.414V92.9594ZM38.4059 93.9594V87.935H36.4059V93.9594H38.4059ZM45.4384 96.9675H47.4465V94.9675H45.4384V96.9675ZM46.4465 95.9675V101.992H48.4465V95.9675H46.4465ZM47.4465 100.992H45.4384V102.992H47.4465V100.992ZM46.4384 101.992V95.9675H44.4384V101.992H46.4384ZM39.414 102.992H45.4384V100.992H39.414V102.992ZM44.4384 101.992V104H46.4384V101.992H44.4384ZM45.4384 103H39.414V105H45.4384V103ZM40.414 104V101.992H38.414V104H40.414ZM37.4059 100.984H39.414V98.9837H37.4059V100.984ZM38.414 99.9837V101.992H40.414V99.9837H38.414ZM39.414 100.992H37.4059V102.992H39.414V100.992ZM38.4059 101.992V99.9837H36.4059V101.992H38.4059ZM39.414 94.9594H45.4384V92.9594H39.414V94.9594ZM44.4384 93.9594V95.9675H46.4384V93.9594H44.4384ZM45.4384 94.9675H39.414V96.9675H45.4384V94.9675ZM40.414 95.9675V93.9594H38.414V95.9675H40.414ZM45.4384 88.935H47.4465V86.935H45.4384V88.935ZM46.4465 87.935V89.9431H48.4465V87.935H46.4465ZM47.4465 88.9431H45.4384V90.9431H47.4465V88.9431ZM46.4384 89.9431V87.935H44.4384V89.9431H46.4384ZM39.414 86.9269H45.4384V84.9269H39.414V86.9269ZM44.4384 85.9269V87.935H46.4384V85.9269H44.4384ZM45.4384 86.935H39.414V88.935H45.4384V86.935ZM40.414 87.935V85.9269H38.414V87.935H40.414ZM53.4709 85.9269V84.9269H52.4709V85.9269H53.4709ZM55.479 85.9269H56.479V84.9269H55.479V85.9269ZM55.479 101.992H54.479V102.992H55.479V101.992ZM63.5115 101.992H64.5115V100.992H63.5115V101.992ZM63.5115 104V105H64.5115V104H63.5115ZM53.4709 104H52.4709V105H53.4709V104ZM53.4709 86.9269H55.479V84.9269H53.4709V86.9269ZM54.479 85.9269V101.992H56.479V85.9269H54.479ZM55.479 102.992H63.5115V100.992H55.479V102.992ZM62.5115 101.992V104H64.5115V101.992H62.5115ZM63.5115 103H53.4709V105H63.5115V103ZM54.4709 104V85.9269H52.4709V104H54.4709ZM71.544 97.9756V96.9756H70.544V97.9756H71.544ZM73.5521 97.9756H74.5521V96.9756H73.5521V97.9756ZM73.5521 104V105H74.5521V104H73.5521ZM71.544 104H70.544V105H71.544V104ZM73.5521 91.9512V90.9512H72.5521V91.9512H73.5521ZM75.5603 91.9512H76.5603V90.9512H75.5603V91.9512ZM75.5603 97.9756V98.9756H76.5603V97.9756H75.5603ZM73.5521 97.9756H72.5521V98.9756H73.5521V97.9756ZM75.5603 85.9269V84.9269H74.5603V85.9269H75.5603ZM77.5684 85.9269H78.5684V84.9269H77.5684V85.9269ZM77.5684 91.9512V92.9512H78.5684V91.9512H77.5684ZM75.5603 91.9512H74.5603V92.9512H75.5603V91.9512ZM71.544 98.9756H73.5521V96.9756H71.544V98.9756ZM72.5521 97.9756V104H74.5521V97.9756H72.5521ZM73.5521 103H71.544V105H73.5521V103ZM72.544 104V97.9756H70.544V104H72.544ZM73.5521 92.9512H75.5603V90.9512H73.5521V92.9512ZM74.5603 91.9512V97.9756H76.5603V91.9512H74.5603ZM75.5603 96.9756H73.5521V98.9756H75.5603V96.9756ZM74.5521 97.9756V91.9512H72.5521V97.9756H74.5521ZM75.5603 86.9269H77.5684V84.9269H75.5603V86.9269ZM76.5684 85.9269V91.9512H78.5684V85.9269H76.5684ZM77.5684 90.9512H75.5603V92.9512H77.5684V90.9512ZM76.5603 91.9512V85.9269H74.5603V91.9512H76.5603ZM93.6334 85.9269V84.9269H92.6334V85.9269H93.6334ZM95.6415 85.9269H96.6415V84.9269H95.6415V85.9269ZM95.6415 104V105H96.6415V104H95.6415ZM93.6334 104H92.6334V105H93.6334V104ZM93.6334 97.9756H94.6334V96.9756H93.6334V97.9756ZM91.6253 97.9756H90.6253V98.9756H91.6253V97.9756ZM91.6253 95.9675V94.9675H90.6253V95.9675H91.6253ZM93.6334 95.9675V96.9675H94.6334V95.9675H93.6334ZM89.6171 93.9594V92.9594H88.6171V93.9594H89.6171ZM91.6253 93.9594H92.6253V92.9594H91.6253V93.9594ZM91.6253 95.9675V96.9675H92.6253V95.9675H91.6253ZM89.6171 95.9675H88.6171V96.9675H89.6171V95.9675ZM85.6009 85.9269V84.9269H84.6009V85.9269H85.6009ZM87.609 85.9269H88.609V84.9269H87.609V85.9269ZM87.609 91.9512H86.609V92.9512H87.609V91.9512ZM89.6171 91.9512H90.6171V90.9512H89.6171V91.9512ZM89.6171 93.9594V94.9594H90.6171V93.9594H89.6171ZM87.609 93.9594V92.9594H86.609V93.9594H87.609ZM87.609 104V105H88.609V104H87.609ZM85.6009 104H84.6009V105H85.6009V104ZM93.6334 86.9269H95.6415V84.9269H93.6334V86.9269ZM94.6415 85.9269V104H96.6415V85.9269H94.6415ZM95.6415 103H93.6334V105H95.6415V103ZM94.6334 104V97.9756H92.6334V104H94.6334ZM93.6334 96.9756H91.6253V98.9756H93.6334V96.9756ZM92.6253 97.9756V95.9675H90.6253V97.9756H92.6253ZM91.6253 96.9675H93.6334V94.9675H91.6253V96.9675ZM94.6334 95.9675V85.9269H92.6334V95.9675H94.6334ZM89.6171 94.9594H91.6253V92.9594H89.6171V94.9594ZM90.6253 93.9594V95.9675H92.6253V93.9594H90.6253ZM91.6253 94.9675H89.6171V96.9675H91.6253V94.9675ZM90.6171 95.9675V93.9594H88.6171V95.9675H90.6171ZM85.6009 86.9269H87.609V84.9269H85.6009V86.9269ZM86.609 85.9269V91.9512H88.609V85.9269H86.609ZM87.609 92.9512H89.6171V90.9512H87.609V92.9512ZM88.6171 91.9512V93.9594H90.6171V91.9512H88.6171ZM89.6171 92.9594H87.609V94.9594H89.6171V92.9594ZM86.609 93.9594V104H88.609V93.9594H86.609ZM87.609 103H85.6009V105H87.609V103ZM86.6009 104V85.9269H84.6009V104H86.6009ZM101.666 87.935V86.935H100.666V87.935H101.666ZM103.674 87.935H104.674V86.935H103.674V87.935ZM103.674 93.9594V94.9594H104.674V93.9594H103.674ZM101.666 93.9594H100.666V94.9594H101.666V93.9594ZM109.698 95.9675V94.9675H108.698V95.9675H109.698ZM111.707 95.9675H112.707V94.9675H111.707V95.9675ZM111.707 101.992V102.992H112.707V101.992H111.707ZM109.698 101.992H108.698V102.992H109.698V101.992ZM103.674 101.992V100.992H102.674V101.992H103.674ZM109.698 101.992H110.698V100.992H109.698V101.992ZM109.698 104V105H110.698V104H109.698ZM103.674 104H102.674V105H103.674V104ZM101.666 99.9837V98.9837H100.666V99.9837H101.666ZM103.674 99.9837H104.674V98.9837H103.674V99.9837ZM103.674 101.992V102.992H104.674V101.992H103.674ZM101.666 101.992H100.666V102.992H101.666V101.992ZM103.674 93.9594V92.9594H102.674V93.9594H103.674ZM109.698 93.9594H110.698V92.9594H109.698V93.9594ZM109.698 95.9675V96.9675H110.698V95.9675H109.698ZM103.674 95.9675H102.674V96.9675H103.674V95.9675ZM109.698 87.935V86.935H108.698V87.935H109.698ZM111.707 87.935H112.707V86.935H111.707V87.935ZM111.707 89.9431V90.9431H112.707V89.9431H111.707ZM109.698 89.9431H108.698V90.9431H109.698V89.9431ZM103.674 85.9269V84.9269H102.674V85.9269H103.674ZM109.698 85.9269H110.698V84.9269H109.698V85.9269ZM109.698 87.935V88.935H110.698V87.935H109.698ZM103.674 87.935H102.674V88.935H103.674V87.935ZM101.666 88.935H103.674V86.935H101.666V88.935ZM102.674 87.935V93.9594H104.674V87.935H102.674ZM103.674 92.9594H101.666V94.9594H103.674V92.9594ZM102.666 93.9594V87.935H100.666V93.9594H102.666ZM109.698 96.9675H111.707V94.9675H109.698V96.9675ZM110.707 95.9675V101.992H112.707V95.9675H110.707ZM111.707 100.992H109.698V102.992H111.707V100.992ZM110.698 101.992V95.9675H108.698V101.992H110.698ZM103.674 102.992H109.698V100.992H103.674V102.992ZM108.698 101.992V104H110.698V101.992H108.698ZM109.698 103H103.674V105H109.698V103ZM104.674 104V101.992H102.674V104H104.674ZM101.666 100.984H103.674V98.9837H101.666V100.984ZM102.674 99.9837V101.992H104.674V99.9837H102.674ZM103.674 100.992H101.666V102.992H103.674V100.992ZM102.666 101.992V99.9837H100.666V101.992H102.666ZM103.674 94.9594H109.698V92.9594H103.674V94.9594ZM108.698 93.9594V95.9675H110.698V93.9594H108.698ZM109.698 94.9675H103.674V96.9675H109.698V94.9675ZM104.674 95.9675V93.9594H102.674V95.9675H104.674ZM109.698 88.935H111.707V86.935H109.698V88.935ZM110.707 87.935V89.9431H112.707V87.935H110.707ZM111.707 88.9431H109.698V90.9431H111.707V88.9431ZM110.698 89.9431V87.935H108.698V89.9431H110.698ZM103.674 86.9269H109.698V84.9269H103.674V86.9269ZM108.698 85.9269V87.935H110.698V85.9269H108.698ZM109.698 86.935H103.674V88.935H109.698V86.935ZM104.674 87.935V85.9269H102.674V87.935H104.674ZM117.731 85.9269V84.9269H116.731V85.9269H117.731ZM119.739 85.9269H120.739V84.9269H119.739V85.9269ZM119.739 101.992H118.739V102.992H119.739V101.992ZM127.772 101.992H128.772V100.992H127.772V101.992ZM127.772 104V105H128.772V104H127.772ZM117.731 104H116.731V105H117.731V104ZM117.731 86.9269H119.739V84.9269H117.731V86.9269ZM118.739 85.9269V101.992H120.739V85.9269H118.739ZM119.739 102.992H127.772V100.992H119.739V102.992ZM126.772 101.992V104H128.772V101.992H126.772ZM127.772 103H117.731V105H127.772V103ZM118.731 104V85.9269H116.731V104H118.731ZM21.3409 133.984V132.984H20.3409V133.984H21.3409ZM23.349 133.984H24.349V132.984H23.349V133.984ZM23.349 135.992V136.992H24.349V135.992H23.349ZM21.3409 135.992H20.3409V136.992H21.3409V135.992ZM23.349 135.992V134.992H22.349V135.992H23.349ZM29.3734 135.992H30.3734V134.992H29.3734V135.992ZM29.3734 138V139H30.3734V138H29.3734ZM23.349 138H22.349V139H23.349V138ZM29.3734 127.959V126.959H28.3734V127.959H29.3734ZM31.3815 127.959H32.3815V126.959H31.3815V127.959ZM31.3815 135.992V136.992H32.3815V135.992H31.3815ZM29.3734 135.992H28.3734V136.992H29.3734V135.992ZM21.3409 119.927V118.927H20.3409V119.927H21.3409ZM31.3815 119.927H32.3815V118.927H31.3815V119.927ZM31.3815 121.935V122.935H32.3815V121.935H31.3815ZM23.349 121.935V120.935H22.349V121.935H23.349ZM23.349 125.951H22.349V126.951H23.349V125.951ZM29.3734 125.951H30.3734V124.951H29.3734V125.951ZM29.3734 127.959V128.959H30.3734V127.959H29.3734ZM21.3409 127.959H20.3409V128.959H21.3409V127.959ZM21.3409 134.984H23.349V132.984H21.3409V134.984ZM22.349 133.984V135.992H24.349V133.984H22.349ZM23.349 134.992H21.3409V136.992H23.349V134.992ZM22.3409 135.992V133.984H20.3409V135.992H22.3409ZM23.349 136.992H29.3734V134.992H23.349V136.992ZM28.3734 135.992V138H30.3734V135.992H28.3734ZM29.3734 137H23.349V139H29.3734V137ZM24.349 138V135.992H22.349V138H24.349ZM29.3734 128.959H31.3815V126.959H29.3734V128.959ZM30.3815 127.959V135.992H32.3815V127.959H30.3815ZM31.3815 134.992H29.3734V136.992H31.3815V134.992ZM30.3734 135.992V127.959H28.3734V135.992H30.3734ZM21.3409 120.927H31.3815V118.927H21.3409V120.927ZM30.3815 119.927V121.935H32.3815V119.927H30.3815ZM31.3815 120.935H23.349V122.935H31.3815V120.935ZM22.349 121.935V125.951H24.349V121.935H22.349ZM23.349 126.951H29.3734V124.951H23.349V126.951ZM28.3734 125.951V127.959H30.3734V125.951H28.3734ZM29.3734 126.959H21.3409V128.959H29.3734V126.959ZM22.3409 127.959V119.927H20.3409V127.959H22.3409ZM39.414 135.992V134.992H38.414V135.992H39.414ZM45.4384 135.992H46.4384V134.992H45.4384V135.992ZM45.4384 138V139H46.4384V138H45.4384ZM39.414 138H38.414V139H39.414V138ZM45.4384 121.935V120.935H44.4384V121.935H45.4384ZM47.4465 121.935H48.4465V120.935H47.4465V121.935ZM47.4465 135.992V136.992H48.4465V135.992H47.4465ZM45.4384 135.992H44.4384V136.992H45.4384V135.992ZM45.4384 127.959H46.4384V126.959H45.4384V127.959ZM43.4303 127.959H42.4303V128.959H43.4303V127.959ZM43.4303 125.951V124.951H42.4303V125.951H43.4303ZM45.4384 125.951V126.951H46.4384V125.951H45.4384ZM41.4221 127.959V126.959H40.4221V127.959H41.4221ZM43.4303 127.959H44.4303V126.959H43.4303V127.959ZM43.4303 129.967V130.967H44.4303V129.967H43.4303ZM41.4221 129.967H40.4221V130.967H41.4221V129.967ZM37.4059 121.935V120.935H36.4059V121.935H37.4059ZM39.414 121.935H40.414V120.935H39.414V121.935ZM39.414 129.967H38.414V130.967H39.414V129.967ZM41.4221 129.967H42.4221V128.967H41.4221V129.967ZM41.4221 131.976V132.976H42.4221V131.976H41.4221ZM39.414 131.976V130.976H38.414V131.976H39.414ZM39.414 135.992V136.992H40.414V135.992H39.414ZM37.4059 135.992H36.4059V136.992H37.4059V135.992ZM39.414 119.927V118.927H38.414V119.927H39.414ZM45.4384 119.927H46.4384V118.927H45.4384V119.927ZM45.4384 121.935V122.935H46.4384V121.935H45.4384ZM39.414 121.935H38.414V122.935H39.414V121.935ZM39.414 136.992H45.4384V134.992H39.414V136.992ZM44.4384 135.992V138H46.4384V135.992H44.4384ZM45.4384 137H39.414V139H45.4384V137ZM40.414 138V135.992H38.414V138H40.414ZM45.4384 122.935H47.4465V120.935H45.4384V122.935ZM46.4465 121.935V135.992H48.4465V121.935H46.4465ZM47.4465 134.992H45.4384V136.992H47.4465V134.992ZM46.4384 135.992V127.959H44.4384V135.992H46.4384ZM45.4384 126.959H43.4303V128.959H45.4384V126.959ZM44.4303 127.959V125.951H42.4303V127.959H44.4303ZM43.4303 126.951H45.4384V124.951H43.4303V126.951ZM46.4384 125.951V121.935H44.4384V125.951H46.4384ZM41.4221 128.959H43.4303V126.959H41.4221V128.959ZM42.4303 127.959V129.967H44.4303V127.959H42.4303ZM43.4303 128.967H41.4221V130.967H43.4303V128.967ZM42.4221 129.967V127.959H40.4221V129.967H42.4221ZM37.4059 122.935H39.414V120.935H37.4059V122.935ZM38.414 121.935V129.967H40.414V121.935H38.414ZM39.414 130.967H41.4221V128.967H39.414V130.967ZM40.4221 129.967V131.976H42.4221V129.967H40.4221ZM41.4221 130.976H39.414V132.976H41.4221V130.976ZM38.414 131.976V135.992H40.414V131.976H38.414ZM39.414 134.992H37.4059V136.992H39.414V134.992ZM38.4059 135.992V121.935H36.4059V135.992H38.4059ZM39.414 120.927H45.4384V118.927H39.414V120.927ZM44.4384 119.927V121.935H46.4384V119.927H44.4384ZM45.4384 120.935H39.414V122.935H45.4384V120.935ZM40.414 121.935V119.927H38.414V121.935H40.414ZM55.479 131.976V130.976H54.479V131.976H55.479ZM57.4871 131.976H58.4871V130.976H57.4871V131.976ZM57.4871 138V139H58.4871V138H57.4871ZM55.479 138H54.479V139H55.479V138ZM57.4871 125.951V124.951H56.4871V125.951H57.4871ZM59.4953 125.951H60.4953V124.951H59.4953V125.951ZM59.4953 131.976V132.976H60.4953V131.976H59.4953ZM57.4871 131.976H56.4871V132.976H57.4871V131.976ZM59.4953 119.927V118.927H58.4953V119.927H59.4953ZM61.5034 119.927H62.5034V118.927H61.5034V119.927ZM61.5034 125.951V126.951H62.5034V125.951H61.5034ZM59.4953 125.951H58.4953V126.951H59.4953V125.951ZM55.479 132.976H57.4871V130.976H55.479V132.976ZM56.4871 131.976V138H58.4871V131.976H56.4871ZM57.4871 137H55.479V139H57.4871V137ZM56.479 138V131.976H54.479V138H56.479ZM57.4871 126.951H59.4953V124.951H57.4871V126.951ZM58.4953 125.951V131.976H60.4953V125.951H58.4953ZM59.4953 130.976H57.4871V132.976H59.4953V130.976ZM58.4871 131.976V125.951H56.4871V131.976H58.4871ZM59.4953 120.927H61.5034V118.927H59.4953V120.927ZM60.5034 119.927V125.951H62.5034V119.927H60.5034ZM61.5034 124.951H59.4953V126.951H61.5034V124.951ZM60.4953 125.951V119.927H58.4953V125.951H60.4953ZM71.544 127.959V126.959H70.544V127.959H71.544ZM79.5765 127.959H80.5765V126.959H79.5765V127.959ZM79.5765 129.967V130.967H80.5765V129.967H79.5765ZM71.544 129.967H70.544V130.967H71.544V129.967ZM71.544 128.959H79.5765V126.959H71.544V128.959ZM78.5765 127.959V129.967H80.5765V127.959H78.5765ZM79.5765 128.967H71.544V130.967H79.5765V128.967ZM72.544 129.967V127.959H70.544V129.967H72.544ZM109.698 121.935V120.935H108.698V121.935H109.698ZM111.707 121.935H112.707V120.935H111.707V121.935ZM111.707 127.959V128.959H112.707V127.959H111.707ZM109.698 127.959H108.698V128.959H109.698V127.959ZM101.666 119.927V118.927H100.666V119.927H101.666ZM109.698 119.927H110.698V118.927H109.698V119.927ZM109.698 121.935V122.935H110.698V121.935H109.698ZM103.674 121.935V120.935H102.674V121.935H103.674ZM103.674 127.959H102.674V128.959H103.674V127.959ZM109.698 127.959H110.698V126.959H109.698V127.959ZM109.698 129.967V130.967H110.698V129.967H109.698ZM103.674 129.967V128.967H102.674V129.967H103.674ZM103.674 138V139H104.674V138H103.674ZM101.666 138H100.666V139H101.666V138ZM109.698 122.935H111.707V120.935H109.698V122.935ZM110.707 121.935V127.959H112.707V121.935H110.707ZM111.707 126.959H109.698V128.959H111.707V126.959ZM110.698 127.959V121.935H108.698V127.959H110.698ZM101.666 120.927H109.698V118.927H101.666V120.927ZM108.698 119.927V121.935H110.698V119.927H108.698ZM109.698 120.935H103.674V122.935H109.698V120.935ZM102.674 121.935V127.959H104.674V121.935H102.674ZM103.674 128.959H109.698V126.959H103.674V128.959ZM108.698 127.959V129.967H110.698V127.959H108.698ZM109.698 128.967H103.674V130.967H109.698V128.967ZM102.674 129.967V138H104.674V129.967H102.674ZM103.674 137H101.666V139H103.674V137ZM102.666 138V119.927H100.666V138H102.666ZM125.763 133.984V132.984H124.763V133.984H125.763ZM127.772 133.984H128.772V132.984H127.772V133.984ZM127.772 135.992V136.992H128.772V135.992H127.772ZM125.763 135.992H124.763V136.992H125.763V135.992ZM119.739 135.992V134.992H118.739V135.992H119.739ZM125.763 135.992H126.763V134.992H125.763V135.992ZM125.763 138V139H126.763V138H125.763ZM119.739 138H118.739V139H119.739V138ZM117.731 125.951V124.951H116.731V125.951H117.731ZM119.739 125.951H120.739V124.951H119.739V125.951ZM119.739 129.967H118.739V130.967H119.739V129.967ZM125.763 129.967V130.967H126.763V129.967H125.763ZM125.763 125.951V124.951H124.763V125.951H125.763ZM127.772 125.951H128.772V124.951H127.772V125.951ZM127.772 131.976V132.976H128.772V131.976H127.772ZM119.739 131.976V130.976H118.739V131.976H119.739ZM119.739 135.992V136.992H120.739V135.992H119.739ZM117.731 135.992H116.731V136.992H117.731V135.992ZM119.739 123.943V122.943H118.739V123.943H119.739ZM125.763 123.943H126.763V122.943H125.763V123.943ZM125.763 125.951V126.951H126.763V125.951H125.763ZM119.739 125.951H118.739V126.951H119.739V125.951ZM125.763 134.984H127.772V132.984H125.763V134.984ZM126.772 133.984V135.992H128.772V133.984H126.772ZM127.772 134.992H125.763V136.992H127.772V134.992ZM126.763 135.992V133.984H124.763V135.992H126.763ZM119.739 136.992H125.763V134.992H119.739V136.992ZM124.763 135.992V138H126.763V135.992H124.763ZM125.763 137H119.739V139H125.763V137ZM120.739 138V135.992H118.739V138H120.739ZM117.731 126.951H119.739V124.951H117.731V126.951ZM118.739 125.951V129.967H120.739V125.951H118.739ZM119.739 130.967H125.763V128.967H119.739V130.967ZM126.763 129.967V125.951H124.763V129.967H126.763ZM125.763 126.951H127.772V124.951H125.763V126.951ZM126.772 125.951V131.976H128.772V125.951H126.772ZM127.772 130.976H119.739V132.976H127.772V130.976ZM118.739 131.976V135.992H120.739V131.976H118.739ZM119.739 134.992H117.731V136.992H119.739V134.992ZM118.731 135.992V125.951H116.731V135.992H118.731ZM119.739 124.943H125.763V122.943H119.739V124.943ZM124.763 123.943V125.951H126.763V123.943H124.763ZM125.763 124.951H119.739V126.951H125.763V124.951ZM120.739 125.951V123.943H118.739V125.951H120.739ZM139.82 123.943V122.943H138.82V123.943H139.82ZM143.837 123.943H144.837V122.943H143.837V123.943ZM143.837 125.951V126.951H144.837V125.951H143.837ZM139.82 125.951H138.82V126.951H139.82V125.951ZM137.812 125.951V124.951H136.812V125.951H137.812ZM139.82 125.951H140.82V124.951H139.82V125.951ZM139.82 127.959V128.959H140.82V127.959H139.82ZM137.812 127.959H136.812V128.959H137.812V127.959ZM133.796 123.943V122.943H132.796V123.943H133.796ZM135.804 123.943H136.804V122.943H135.804V123.943ZM135.804 127.959H134.804V128.959H135.804V127.959ZM137.812 127.959H138.812V126.959H137.812V127.959ZM137.812 129.967V130.967H138.812V129.967H137.812ZM135.804 129.967V128.967H134.804V129.967H135.804ZM135.804 138V139H136.804V138H135.804ZM133.796 138H132.796V139H133.796V138ZM139.82 124.943H143.837V122.943H139.82V124.943ZM142.837 123.943V125.951H144.837V123.943H142.837ZM143.837 124.951H139.82V126.951H143.837V124.951ZM140.82 125.951V123.943H138.82V125.951H140.82ZM137.812 126.951H139.82V124.951H137.812V126.951ZM138.82 125.951V127.959H140.82V125.951H138.82ZM139.82 126.959H137.812V128.959H139.82V126.959ZM138.812 127.959V125.951H136.812V127.959H138.812ZM133.796 124.943H135.804V122.943H133.796V124.943ZM134.804 123.943V127.959H136.804V123.943H134.804ZM135.804 128.959H137.812V126.959H135.804V128.959ZM136.812 127.959V129.967H138.812V127.959H136.812ZM137.812 128.967H135.804V130.967H137.812V128.967ZM134.804 129.967V138H136.804V129.967H134.804ZM135.804 137H133.796V139H135.804V137ZM134.796 138V123.943H132.796V138H134.796ZM173.958 121.935V120.935H172.958V121.935H173.958ZM175.967 121.935H176.967V120.935H175.967V121.935ZM175.967 127.959V128.959H176.967V127.959H175.967ZM173.958 127.959H172.958V128.959H173.958V127.959ZM165.926 119.927V118.927H164.926V119.927H165.926ZM173.958 119.927H174.958V118.927H173.958V119.927ZM173.958 121.935V122.935H174.958V121.935H173.958ZM167.934 121.935V120.935H166.934V121.935H167.934ZM167.934 127.959H166.934V128.959H167.934V127.959ZM173.958 127.959H174.958V126.959H173.958V127.959ZM173.958 129.967V130.967H174.958V129.967H173.958ZM167.934 129.967V128.967H166.934V129.967H167.934ZM167.934 138V139H168.934V138H167.934ZM165.926 138H164.926V139H165.926V138ZM173.958 122.935H175.967V120.935H173.958V122.935ZM174.967 121.935V127.959H176.967V121.935H174.967ZM175.967 126.959H173.958V128.959H175.967V126.959ZM174.958 127.959V121.935H172.958V127.959H174.958ZM165.926 120.927H173.958V118.927H165.926V120.927ZM172.958 119.927V121.935H174.958V119.927H172.958ZM173.958 120.935H167.934V122.935H173.958V120.935ZM166.934 121.935V127.959H168.934V121.935H166.934ZM167.934 128.959H173.958V126.959H167.934V128.959ZM172.958 127.959V129.967H174.958V127.959H172.958ZM173.958 128.967H167.934V130.967H173.958V128.967ZM166.934 129.967V138H168.934V129.967H166.934ZM167.934 137H165.926V139H167.934V137ZM166.926 138V119.927H164.926V138H166.926ZM190.023 133.984V132.984H189.023V133.984H190.023ZM192.032 133.984H193.032V132.984H192.032V133.984ZM192.032 135.992V136.992H193.032V135.992H192.032ZM190.023 135.992H189.023V136.992H190.023V135.992ZM183.999 135.992V134.992H182.999V135.992H183.999ZM190.023 135.992H191.023V134.992H190.023V135.992ZM190.023 138V139H191.023V138H190.023ZM183.999 138H182.999V139H183.999V138ZM181.991 125.951V124.951H180.991V125.951H181.991ZM183.999 125.951H184.999V124.951H183.999V125.951ZM183.999 129.967H182.999V130.967H183.999V129.967ZM190.023 129.967V130.967H191.023V129.967H190.023ZM190.023 125.951V124.951H189.023V125.951H190.023ZM192.032 125.951H193.032V124.951H192.032V125.951ZM192.032 131.976V132.976H193.032V131.976H192.032ZM183.999 131.976V130.976H182.999V131.976H183.999ZM183.999 135.992V136.992H184.999V135.992H183.999ZM181.991 135.992H180.991V136.992H181.991V135.992ZM183.999 123.943V122.943H182.999V123.943H183.999ZM190.023 123.943H191.023V122.943H190.023V123.943ZM190.023 125.951V126.951H191.023V125.951H190.023ZM183.999 125.951H182.999V126.951H183.999V125.951ZM190.023 134.984H192.032V132.984H190.023V134.984ZM191.032 133.984V135.992H193.032V133.984H191.032ZM192.032 134.992H190.023V136.992H192.032V134.992ZM191.023 135.992V133.984H189.023V135.992H191.023ZM183.999 136.992H190.023V134.992H183.999V136.992ZM189.023 135.992V138H191.023V135.992H189.023ZM190.023 137H183.999V139H190.023V137ZM184.999 138V135.992H182.999V138H184.999ZM181.991 126.951H183.999V124.951H181.991V126.951ZM182.999 125.951V129.967H184.999V125.951H182.999ZM183.999 130.967H190.023V128.967H183.999V130.967ZM191.023 129.967V125.951H189.023V129.967H191.023ZM190.023 126.951H192.032V124.951H190.023V126.951ZM191.032 125.951V131.976H193.032V125.951H191.032ZM192.032 130.976H183.999V132.976H192.032V130.976ZM182.999 131.976V135.992H184.999V131.976H182.999ZM183.999 134.992H181.991V136.992H183.999V134.992ZM182.991 135.992V125.951H180.991V135.992H182.991ZM183.999 124.943H190.023V122.943H183.999V124.943ZM189.023 123.943V125.951H191.023V123.943H189.023ZM190.023 124.951H183.999V126.951H190.023V124.951ZM184.999 125.951V123.943H182.999V125.951H184.999ZM204.08 123.943V122.943H203.08V123.943H204.08ZM208.097 123.943H209.097V122.943H208.097V123.943ZM208.097 125.951V126.951H209.097V125.951H208.097ZM204.08 125.951H203.08V126.951H204.08V125.951ZM202.072 125.951V124.951H201.072V125.951H202.072ZM204.08 125.951H205.08V124.951H204.08V125.951ZM204.08 127.959V128.959H205.08V127.959H204.08ZM202.072 127.959H201.072V128.959H202.072V127.959ZM198.056 123.943V122.943H197.056V123.943H198.056ZM200.064 123.943H201.064V122.943H200.064V123.943ZM200.064 127.959H199.064V128.959H200.064V127.959ZM202.072 127.959H203.072V126.959H202.072V127.959ZM202.072 129.967V130.967H203.072V129.967H202.072ZM200.064 129.967V128.967H199.064V129.967H200.064ZM200.064 138V139H201.064V138H200.064ZM198.056 138H197.056V139H198.056V138ZM204.08 124.943H208.097V122.943H204.08V124.943ZM207.097 123.943V125.951H209.097V123.943H207.097ZM208.097 124.951H204.08V126.951H208.097V124.951ZM205.08 125.951V123.943H203.08V125.951H205.08ZM202.072 126.951H204.08V124.951H202.072V126.951ZM203.08 125.951V127.959H205.08V125.951H203.08ZM204.08 126.959H202.072V128.959H204.08V126.959ZM203.072 127.959V125.951H201.072V127.959H203.072ZM198.056 124.943H200.064V122.943H198.056V124.943ZM199.064 123.943V127.959H201.064V123.943H199.064ZM200.064 128.959H202.072V126.959H200.064V128.959ZM201.072 127.959V129.967H203.072V127.959H201.072ZM202.072 128.967H200.064V130.967H202.072V128.967ZM199.064 129.967V138H201.064V129.967H199.064ZM200.064 137H198.056V139H200.064V137ZM199.056 138V123.943H197.056V138H199.056ZM214.121 125.951V124.951H213.121V125.951H214.121ZM216.129 125.951H217.129V124.951H216.129V125.951ZM216.129 129.967V130.967H217.129V129.967H216.129ZM214.121 129.967H213.121V130.967H214.121V129.967ZM222.153 131.976V130.976H221.153V131.976H222.153ZM224.162 131.976H225.162V130.976H224.162V131.976ZM224.162 135.992V136.992H225.162V135.992H224.162ZM222.153 135.992H221.153V136.992H222.153V135.992ZM216.129 135.992V134.992H215.129V135.992H216.129ZM222.153 135.992H223.153V134.992H222.153V135.992ZM222.153 138V139H223.153V138H222.153ZM216.129 138H215.129V139H216.129V138ZM214.121 133.984V132.984H213.121V133.984H214.121ZM216.129 133.984H217.129V132.984H216.129V133.984ZM216.129 135.992V136.992H217.129V135.992H216.129ZM214.121 135.992H213.121V136.992H214.121V135.992ZM216.129 129.967V128.967H215.129V129.967H216.129ZM222.153 129.967H223.153V128.967H222.153V129.967ZM222.153 131.976V132.976H223.153V131.976H222.153ZM216.129 131.976H215.129V132.976H216.129V131.976ZM222.153 125.951V124.951H221.153V125.951H222.153ZM224.162 125.951H225.162V124.951H224.162V125.951ZM224.162 127.959V128.959H225.162V127.959H224.162ZM222.153 127.959H221.153V128.959H222.153V127.959ZM216.129 123.943V122.943H215.129V123.943H216.129ZM222.153 123.943H223.153V122.943H222.153V123.943ZM222.153 125.951V126.951H223.153V125.951H222.153ZM216.129 125.951H215.129V126.951H216.129V125.951ZM214.121 126.951H216.129V124.951H214.121V126.951ZM215.129 125.951V129.967H217.129V125.951H215.129ZM216.129 128.967H214.121V130.967H216.129V128.967ZM215.121 129.967V125.951H213.121V129.967H215.121ZM222.153 132.976H224.162V130.976H222.153V132.976ZM223.162 131.976V135.992H225.162V131.976H223.162ZM224.162 134.992H222.153V136.992H224.162V134.992ZM223.153 135.992V131.976H221.153V135.992H223.153ZM216.129 136.992H222.153V134.992H216.129V136.992ZM221.153 135.992V138H223.153V135.992H221.153ZM222.153 137H216.129V139H222.153V137ZM217.129 138V135.992H215.129V138H217.129ZM214.121 134.984H216.129V132.984H214.121V134.984ZM215.129 133.984V135.992H217.129V133.984H215.129ZM216.129 134.992H214.121V136.992H216.129V134.992ZM215.121 135.992V133.984H213.121V135.992H215.121ZM216.129 130.967H222.153V128.967H216.129V130.967ZM221.153 129.967V131.976H223.153V129.967H221.153ZM222.153 130.976H216.129V132.976H222.153V130.976ZM217.129 131.976V129.967H215.129V131.976H217.129ZM222.153 126.951H224.162V124.951H222.153V126.951ZM223.162 125.951V127.959H225.162V125.951H223.162ZM224.162 126.959H222.153V128.959H224.162V126.959ZM223.153 127.959V125.951H221.153V127.959H223.153ZM216.129 124.943H222.153V122.943H216.129V124.943ZM221.153 123.943V125.951H223.153V123.943H221.153ZM222.153 124.951H216.129V126.951H222.153V124.951ZM217.129 125.951V123.943H215.129V125.951H217.129ZM238.218 125.951V124.951H237.218V125.951H238.218ZM240.227 125.951H241.227V124.951H240.227V125.951ZM240.227 135.992V136.992H241.227V135.992H240.227ZM238.218 135.992H237.218V136.992H238.218V135.992ZM232.194 135.992V134.992H231.194V135.992H232.194ZM238.218 135.992H239.218V134.992H238.218V135.992ZM238.218 138V139H239.218V138H238.218ZM232.194 138H231.194V139H232.194V138ZM230.186 125.951V124.951H229.186V125.951H230.186ZM232.194 125.951H233.194V124.951H232.194V125.951ZM232.194 135.992V136.992H233.194V135.992H232.194ZM230.186 135.992H229.186V136.992H230.186V135.992ZM232.194 123.943V122.943H231.194V123.943H232.194ZM238.218 123.943H239.218V122.943H238.218V123.943ZM238.218 125.951V126.951H239.218V125.951H238.218ZM232.194 125.951H231.194V126.951H232.194V125.951ZM238.218 126.951H240.227V124.951H238.218V126.951ZM239.227 125.951V135.992H241.227V125.951H239.227ZM240.227 134.992H238.218V136.992H240.227V134.992ZM239.218 135.992V125.951H237.218V135.992H239.218ZM232.194 136.992H238.218V134.992H232.194V136.992ZM237.218 135.992V138H239.218V135.992H237.218ZM238.218 137H232.194V139H238.218V137ZM233.194 138V135.992H231.194V138H233.194ZM230.186 126.951H232.194V124.951H230.186V126.951ZM231.194 125.951V135.992H233.194V125.951H231.194ZM232.194 134.992H230.186V136.992H232.194V134.992ZM231.186 135.992V125.951H229.186V135.992H231.186ZM232.194 124.943H238.218V122.943H232.194V124.943ZM237.218 123.943V125.951H239.218V123.943H237.218ZM238.218 124.951H232.194V126.951H238.218V124.951ZM233.194 125.951V123.943H231.194V125.951H233.194ZM254.283 125.951V124.951H253.283V125.951H254.283ZM256.292 125.951H257.292V124.951H256.292V125.951ZM256.292 138V139H257.292V138H256.292ZM254.283 138H253.283V139H254.283V138ZM246.251 123.943V122.943H245.251V123.943H246.251ZM254.283 123.943H255.283V122.943H254.283V123.943ZM254.283 125.951V126.951H255.283V125.951H254.283ZM248.259 125.951V124.951H247.259V125.951H248.259ZM248.259 138V139H249.259V138H248.259ZM246.251 138H245.251V139H246.251V138ZM254.283 126.951H256.292V124.951H254.283V126.951ZM255.292 125.951V138H257.292V125.951H255.292ZM256.292 137H254.283V139H256.292V137ZM255.283 138V125.951H253.283V138H255.283ZM246.251 124.943H254.283V122.943H246.251V124.943ZM253.283 123.943V125.951H255.283V123.943H253.283ZM254.283 124.951H248.259V126.951H254.283V124.951ZM247.259 125.951V138H249.259V125.951H247.259ZM248.259 137H246.251V139H248.259V137ZM247.251 138V123.943H245.251V138H247.251Z" fill="black" mask="url(#path-1-outside-1_16_2)"/>
<rect x="71.5738" y="0.5" width="226.926" height="12" stroke="#42CF71"/>
<path d="M0.5 0.5H64.8552V12.5H0.5V0.5Z" fill="#42CF71" stroke="#42CF71"/>
</svg>
