<svg width="366" height="146" viewBox="0 0 366 146" fill="none" xmlns="http://www.w3.org/2000/svg">
<mask id="path-1-outside-1_1_112" maskUnits="userSpaceOnUse" x="3" y="32" width="357" height="107" fill="black">
<rect fill="white" x="3" y="32" width="357" height="107"/>
<path d="M4 33.3644H8.07062V37.435H12.1412V41.5056H16.2119V45.5763H20.2825V41.5056H24.3531V37.435H28.4237V33.3644H36.565V70H28.4237V45.5763H24.3531V49.6469H20.2825V53.7175H16.2119V49.6469H12.1412V45.5763H8.07062V70H4V33.3644ZM40.6356 45.5763H44.7062V49.6469H40.6356V45.5763ZM44.7062 41.5056H60.9887V45.5763H65.0594V70H44.7062V65.9294H40.6356V57.7881H44.7062V53.7175H56.9181V45.5763H44.7062V41.5056ZM56.9181 57.7881H48.7769V65.9294H56.9181V57.7881ZM73.2006 41.5056H81.3419V49.6469H85.4125V53.7175H81.3419V70H73.2006V41.5056ZM89.4831 41.5056H97.6244V49.6469H85.4125V45.5763H89.4831V41.5056ZM126.119 45.5763H130.189V49.6469H126.119V45.5763ZM126.119 61.8588H130.189V65.9294H126.119V61.8588ZM109.836 41.5056H126.119V45.5763H113.907V65.9294H126.119V70H109.836V65.9294H105.766V45.5763H109.836V41.5056ZM138.331 33.3644H146.472V41.5056H158.684V45.5763H162.754V70H154.613V45.5763H146.472V70H138.331V33.3644ZM203.461 41.5056H207.531V45.5763H203.461V41.5056ZM211.602 33.3644H219.743V65.9294H227.884V70H203.461V65.9294H211.602V41.5056H207.531V37.435H211.602V33.3644ZM236.026 61.8588H240.096V65.9294H236.026V61.8588ZM236.026 33.3644H260.449V37.435H244.167V45.5763H256.379V49.6469H260.449V65.9294H256.379V70H240.096V65.9294H252.308V49.6469H236.026V33.3644ZM272.661 49.6469H288.944V53.7175H272.661V49.6469ZM301.156 41.5056H305.226V45.5763H301.156V41.5056ZM309.297 33.3644H317.438V65.9294H325.579V70H301.156V65.9294H309.297V41.5056H305.226V37.435H309.297V33.3644ZM333.721 33.3644H358.144V45.5763H354.074V49.6469H350.003V53.7175H345.932V57.7881H341.862V70H333.721V57.7881H337.791V53.7175H341.862V49.6469H345.932V45.5763H350.003V37.435H333.721V33.3644Z"/>
<path d="M8.01625 91.9512H10.0244V97.9756H8.01625V91.9512ZM10.0244 89.9431H14.0406V97.9756H16.0488V99.9837H10.0244V97.9756H12.0325V91.9512H10.0244V89.9431ZM16.0488 87.935H18.0569V97.9756H16.0488V87.935ZM6.00813 101.992H16.0488V104H6.00813V101.992ZM4 87.935H6.00813V101.992H4V87.935ZM6.00813 85.9269H16.0488V87.935H6.00813V85.9269ZM30.1056 99.9837H32.1138V101.992H30.1056V99.9837ZM24.0813 101.992H30.1056V104H24.0813V101.992ZM22.0731 87.935H24.0813V101.992H22.0731V87.935ZM24.0813 85.9269H30.1056V87.935H24.0813V85.9269ZM30.1056 87.935H32.1138V89.9431H30.1056V87.935ZM38.1381 87.935H40.1463V93.9594H38.1381V87.935ZM46.1706 95.9675H48.1788V101.992H46.1706V95.9675ZM40.1463 101.992H46.1706V104H40.1463V101.992ZM38.1381 99.9837H40.1463V101.992H38.1381V99.9837ZM40.1463 93.9594H46.1706V95.9675H40.1463V93.9594ZM46.1706 87.935H48.1788V89.9431H46.1706V87.935ZM40.1463 85.9269H46.1706V87.935H40.1463V85.9269ZM54.2031 85.9269H64.2438V87.935H56.2112V93.9594H60.2275V95.9675H56.2112V101.992H64.2438V104H54.2031V85.9269ZM78.3006 87.935H80.3088V101.992H78.3006V87.935ZM70.2681 85.9269H78.3006V87.935H72.2763V101.992H78.3006V104H70.2681V85.9269ZM102.398 87.935H104.406V93.9594H102.398V87.935ZM110.431 95.9675H112.439V101.992H110.431V95.9675ZM104.406 101.992H110.431V104H104.406V101.992ZM102.398 99.9837H104.406V101.992H102.398V99.9837ZM104.406 93.9594H110.431V95.9675H104.406V93.9594ZM110.431 87.935H112.439V89.9431H110.431V87.935ZM104.406 85.9269H110.431V87.935H104.406V85.9269ZM126.496 99.9837H128.504V101.992H126.496V99.9837ZM120.471 101.992H126.496V104H120.471V101.992ZM118.463 91.9512H120.471V95.9675H126.496V91.9512H128.504V97.9756H120.471V101.992H118.463V91.9512ZM120.471 89.9431H126.496V91.9512H120.471V89.9431ZM144.569 91.9512H146.577V104H144.569V91.9512ZM140.553 89.9431H144.569V91.9512H140.553V89.9431ZM138.544 91.9512H140.553V99.9837H138.544V91.9512ZM132.52 89.9431H138.544V91.9512H134.528V104H132.52V89.9431ZM150.593 89.9431H156.618V101.992H160.634V104H150.593V101.992H154.609V91.9512H150.593V89.9431ZM154.609 85.9269H156.618V87.935H154.609V85.9269ZM174.691 91.9512H176.699V104H174.691V91.9512ZM166.658 89.9431H174.691V91.9512H168.666V104H166.658V89.9431ZM182.723 91.9512H184.731V93.9594H182.723V91.9512ZM182.723 97.9756H184.731V101.992H182.723V97.9756ZM190.756 91.9512H192.764V104H184.731V101.992H190.756V97.9756H184.731V95.9675H190.756V91.9512ZM184.731 89.9431H190.756V91.9512H184.731V89.9431ZM204.812 89.9431H208.829V91.9512H204.812V89.9431ZM202.804 91.9512H204.812V93.9594H202.804V91.9512ZM198.788 89.9431H200.796V93.9594H202.804V95.9675H200.796V104H198.788V89.9431ZM230.918 85.9269H232.926V93.9594H238.951V85.9269H240.959V104H238.951V95.9675H232.926V104H230.918V85.9269ZM246.983 91.9512H248.991V93.9594H246.983V91.9512ZM246.983 97.9756H248.991V101.992H246.983V97.9756ZM255.016 91.9512H257.024V104H248.991V101.992H255.016V97.9756H248.991V95.9675H255.016V91.9512ZM248.991 89.9431H255.016V91.9512H248.991V89.9431ZM263.048 85.9269H269.073V101.992H273.089V104H263.048V101.992H267.064V87.935H263.048V85.9269ZM279.113 85.9269H285.138V101.992H289.154V104H279.113V101.992H283.129V87.935H279.113V85.9269ZM297.186 97.9756H299.194V104H297.186V97.9756ZM299.194 91.9512H301.203V97.9756H299.194V91.9512ZM301.203 85.9269H303.211V91.9512H301.203V85.9269ZM319.276 87.935H321.284V93.9594H319.276V87.935ZM319.276 95.9675H321.284V101.992H319.276V95.9675ZM311.243 85.9269H319.276V87.935H313.251V93.9594H319.276V95.9675H313.251V101.992H319.276V104H311.243V85.9269ZM335.341 87.935H337.349V101.992H335.341V87.935ZM327.308 85.9269H335.341V87.935H329.316V101.992H335.341V104H327.308V85.9269ZM343.373 85.9269H345.381V101.992H353.414V104H343.373V85.9269ZM12.6108 138L6.53827 127.397V125.983H7.24513C8.38039 125.983 9.33358 125.876 10.1047 125.662C10.8972 125.448 11.5184 125.094 11.9682 124.602C12.4181 124.109 12.6858 123.434 12.7715 122.578H6.53827V120.521H12.7394C12.5894 119.729 12.2895 119.086 11.8397 118.593C11.3899 118.079 10.7794 117.705 10.0083 117.469C9.25861 117.233 8.33755 117.115 7.24513 117.115H6.53827V115.059H19.8401V117.115H13.7675C14.2602 117.522 14.6672 118.004 14.9885 118.561C15.3098 119.118 15.5133 119.772 15.5989 120.521H19.8401V122.578H15.6632C15.5133 124.141 14.9135 125.362 13.8639 126.24C12.8358 127.097 11.4649 127.643 9.75127 127.879L15.8881 138H12.6108ZM24.395 123.943H26.4031V125.951H24.395V123.943ZM28.4113 119.927H30.4194V135.992H34.4356V138H24.395V135.992H28.4113V123.943H26.4031V121.935H28.4113V119.927ZM40.46 133.984H42.4681V135.992H40.46V133.984ZM42.4681 135.992H48.4925V138H42.4681V135.992ZM48.4925 127.959H50.5006V135.992H48.4925V127.959ZM40.46 119.927H50.5006V121.935H42.4681V125.951H48.4925V127.959H40.46V119.927ZM58.5331 135.992H64.5575V138H58.5331V135.992ZM64.5575 121.935H66.5656V135.992H64.5575V127.959H62.5494V125.951H64.5575V121.935ZM60.5413 127.959H62.5494V129.967H60.5413V127.959ZM56.525 121.935H58.5331V129.967H60.5413V131.976H58.5331V135.992H56.525V121.935ZM58.5331 119.927H64.5575V121.935H58.5331V119.927ZM74.5981 131.976H76.6063V138H74.5981V131.976ZM76.6063 125.951H78.6144V131.976H76.6063V125.951ZM78.6144 119.927H80.6225V125.951H78.6144V119.927ZM90.6631 127.959H98.6956V129.967H90.6631V127.959ZM128.818 121.935H130.826V127.959H128.818V121.935ZM120.785 119.927H128.818V121.935H122.793V127.959H128.818V129.967H122.793V138H120.785V119.927ZM144.883 133.984H146.891V135.992H144.883V133.984ZM138.858 135.992H144.883V138H138.858V135.992ZM136.85 125.951H138.858V129.967H144.883V125.951H146.891V131.976H138.858V135.992H136.85V125.951ZM138.858 123.943H144.883V125.951H138.858V123.943ZM158.939 123.943H162.956V125.951H158.939V123.943ZM156.931 125.951H158.939V127.959H156.931V125.951ZM152.915 123.943H154.923V127.959H156.931V129.967H154.923V138H152.915V123.943ZM193.078 121.935H195.086V127.959H193.078V121.935ZM185.045 119.927H193.078V121.935H187.053V127.959H193.078V129.967H187.053V138H185.045V119.927ZM209.143 133.984H211.151V135.992H209.143V133.984ZM203.118 135.992H209.143V138H203.118V135.992ZM201.11 125.951H203.118V129.967H209.143V125.951H211.151V131.976H203.118V135.992H201.11V125.951ZM203.118 123.943H209.143V125.951H203.118V123.943ZM223.199 123.943H227.216V125.951H223.199V123.943ZM221.191 125.951H223.199V127.959H221.191V125.951ZM217.175 123.943H219.183V127.959H221.191V129.967H219.183V138H217.175V123.943ZM233.24 125.951H235.248V129.967H233.24V125.951ZM241.273 131.976H243.281V135.992H241.273V131.976ZM235.248 135.992H241.273V138H235.248V135.992ZM233.24 133.984H235.248V135.992H233.24V133.984ZM235.248 129.967H241.273V131.976H235.248V129.967ZM241.273 125.951H243.281V127.959H241.273V125.951ZM235.248 123.943H241.273V125.951H235.248V123.943ZM257.338 125.951H259.346V135.992H257.338V125.951ZM251.313 135.992H257.338V138H251.313V135.992ZM249.305 125.951H251.313V135.992H249.305V125.951ZM251.313 123.943H257.338V125.951H251.313V123.943ZM273.403 125.951H275.411V138H273.403V125.951ZM265.37 123.943H273.403V125.951H267.378V138H265.37V123.943Z"/>
</mask>
<path d="M4 33.3644H8.07062V37.435H12.1412V41.5056H16.2119V45.5763H20.2825V41.5056H24.3531V37.435H28.4237V33.3644H36.565V70H28.4237V45.5763H24.3531V49.6469H20.2825V53.7175H16.2119V49.6469H12.1412V45.5763H8.07062V70H4V33.3644ZM40.6356 45.5763H44.7062V49.6469H40.6356V45.5763ZM44.7062 41.5056H60.9887V45.5763H65.0594V70H44.7062V65.9294H40.6356V57.7881H44.7062V53.7175H56.9181V45.5763H44.7062V41.5056ZM56.9181 57.7881H48.7769V65.9294H56.9181V57.7881ZM73.2006 41.5056H81.3419V49.6469H85.4125V53.7175H81.3419V70H73.2006V41.5056ZM89.4831 41.5056H97.6244V49.6469H85.4125V45.5763H89.4831V41.5056ZM126.119 45.5763H130.189V49.6469H126.119V45.5763ZM126.119 61.8588H130.189V65.9294H126.119V61.8588ZM109.836 41.5056H126.119V45.5763H113.907V65.9294H126.119V70H109.836V65.9294H105.766V45.5763H109.836V41.5056ZM138.331 33.3644H146.472V41.5056H158.684V45.5763H162.754V70H154.613V45.5763H146.472V70H138.331V33.3644ZM203.461 41.5056H207.531V45.5763H203.461V41.5056ZM211.602 33.3644H219.743V65.9294H227.884V70H203.461V65.9294H211.602V41.5056H207.531V37.435H211.602V33.3644ZM236.026 61.8588H240.096V65.9294H236.026V61.8588ZM236.026 33.3644H260.449V37.435H244.167V45.5763H256.379V49.6469H260.449V65.9294H256.379V70H240.096V65.9294H252.308V49.6469H236.026V33.3644ZM272.661 49.6469H288.944V53.7175H272.661V49.6469ZM301.156 41.5056H305.226V45.5763H301.156V41.5056ZM309.297 33.3644H317.438V65.9294H325.579V70H301.156V65.9294H309.297V41.5056H305.226V37.435H309.297V33.3644ZM333.721 33.3644H358.144V45.5763H354.074V49.6469H350.003V53.7175H345.932V57.7881H341.862V70H333.721V57.7881H337.791V53.7175H341.862V49.6469H345.932V45.5763H350.003V37.435H333.721V33.3644Z" fill="#D9D9D9"/>
<path d="M8.01625 91.9512H10.0244V97.9756H8.01625V91.9512ZM10.0244 89.9431H14.0406V97.9756H16.0488V99.9837H10.0244V97.9756H12.0325V91.9512H10.0244V89.9431ZM16.0488 87.935H18.0569V97.9756H16.0488V87.935ZM6.00813 101.992H16.0488V104H6.00813V101.992ZM4 87.935H6.00813V101.992H4V87.935ZM6.00813 85.9269H16.0488V87.935H6.00813V85.9269ZM30.1056 99.9837H32.1138V101.992H30.1056V99.9837ZM24.0813 101.992H30.1056V104H24.0813V101.992ZM22.0731 87.935H24.0813V101.992H22.0731V87.935ZM24.0813 85.9269H30.1056V87.935H24.0813V85.9269ZM30.1056 87.935H32.1138V89.9431H30.1056V87.935ZM38.1381 87.935H40.1463V93.9594H38.1381V87.935ZM46.1706 95.9675H48.1788V101.992H46.1706V95.9675ZM40.1463 101.992H46.1706V104H40.1463V101.992ZM38.1381 99.9837H40.1463V101.992H38.1381V99.9837ZM40.1463 93.9594H46.1706V95.9675H40.1463V93.9594ZM46.1706 87.935H48.1788V89.9431H46.1706V87.935ZM40.1463 85.9269H46.1706V87.935H40.1463V85.9269ZM54.2031 85.9269H64.2438V87.935H56.2112V93.9594H60.2275V95.9675H56.2112V101.992H64.2438V104H54.2031V85.9269ZM78.3006 87.935H80.3088V101.992H78.3006V87.935ZM70.2681 85.9269H78.3006V87.935H72.2763V101.992H78.3006V104H70.2681V85.9269ZM102.398 87.935H104.406V93.9594H102.398V87.935ZM110.431 95.9675H112.439V101.992H110.431V95.9675ZM104.406 101.992H110.431V104H104.406V101.992ZM102.398 99.9837H104.406V101.992H102.398V99.9837ZM104.406 93.9594H110.431V95.9675H104.406V93.9594ZM110.431 87.935H112.439V89.9431H110.431V87.935ZM104.406 85.9269H110.431V87.935H104.406V85.9269ZM126.496 99.9837H128.504V101.992H126.496V99.9837ZM120.471 101.992H126.496V104H120.471V101.992ZM118.463 91.9512H120.471V95.9675H126.496V91.9512H128.504V97.9756H120.471V101.992H118.463V91.9512ZM120.471 89.9431H126.496V91.9512H120.471V89.9431ZM144.569 91.9512H146.577V104H144.569V91.9512ZM140.553 89.9431H144.569V91.9512H140.553V89.9431ZM138.544 91.9512H140.553V99.9837H138.544V91.9512ZM132.52 89.9431H138.544V91.9512H134.528V104H132.52V89.9431ZM150.593 89.9431H156.618V101.992H160.634V104H150.593V101.992H154.609V91.9512H150.593V89.9431ZM154.609 85.9269H156.618V87.935H154.609V85.9269ZM174.691 91.9512H176.699V104H174.691V91.9512ZM166.658 89.9431H174.691V91.9512H168.666V104H166.658V89.9431ZM182.723 91.9512H184.731V93.9594H182.723V91.9512ZM182.723 97.9756H184.731V101.992H182.723V97.9756ZM190.756 91.9512H192.764V104H184.731V101.992H190.756V97.9756H184.731V95.9675H190.756V91.9512ZM184.731 89.9431H190.756V91.9512H184.731V89.9431ZM204.812 89.9431H208.829V91.9512H204.812V89.9431ZM202.804 91.9512H204.812V93.9594H202.804V91.9512ZM198.788 89.9431H200.796V93.9594H202.804V95.9675H200.796V104H198.788V89.9431ZM230.918 85.9269H232.926V93.9594H238.951V85.9269H240.959V104H238.951V95.9675H232.926V104H230.918V85.9269ZM246.983 91.9512H248.991V93.9594H246.983V91.9512ZM246.983 97.9756H248.991V101.992H246.983V97.9756ZM255.016 91.9512H257.024V104H248.991V101.992H255.016V97.9756H248.991V95.9675H255.016V91.9512ZM248.991 89.9431H255.016V91.9512H248.991V89.9431ZM263.048 85.9269H269.073V101.992H273.089V104H263.048V101.992H267.064V87.935H263.048V85.9269ZM279.113 85.9269H285.138V101.992H289.154V104H279.113V101.992H283.129V87.935H279.113V85.9269ZM297.186 97.9756H299.194V104H297.186V97.9756ZM299.194 91.9512H301.203V97.9756H299.194V91.9512ZM301.203 85.9269H303.211V91.9512H301.203V85.9269ZM319.276 87.935H321.284V93.9594H319.276V87.935ZM319.276 95.9675H321.284V101.992H319.276V95.9675ZM311.243 85.9269H319.276V87.935H313.251V93.9594H319.276V95.9675H313.251V101.992H319.276V104H311.243V85.9269ZM335.341 87.935H337.349V101.992H335.341V87.935ZM327.308 85.9269H335.341V87.935H329.316V101.992H335.341V104H327.308V85.9269ZM343.373 85.9269H345.381V101.992H353.414V104H343.373V85.9269ZM12.6108 138L6.53827 127.397V125.983H7.24513C8.38039 125.983 9.33358 125.876 10.1047 125.662C10.8972 125.448 11.5184 125.094 11.9682 124.602C12.4181 124.109 12.6858 123.434 12.7715 122.578H6.53827V120.521H12.7394C12.5894 119.729 12.2895 119.086 11.8397 118.593C11.3899 118.079 10.7794 117.705 10.0083 117.469C9.25861 117.233 8.33755 117.115 7.24513 117.115H6.53827V115.059H19.8401V117.115H13.7675C14.2602 117.522 14.6672 118.004 14.9885 118.561C15.3098 119.118 15.5133 119.772 15.5989 120.521H19.8401V122.578H15.6632C15.5133 124.141 14.9135 125.362 13.8639 126.24C12.8358 127.097 11.4649 127.643 9.75127 127.879L15.8881 138H12.6108ZM24.395 123.943H26.4031V125.951H24.395V123.943ZM28.4113 119.927H30.4194V135.992H34.4356V138H24.395V135.992H28.4113V123.943H26.4031V121.935H28.4113V119.927ZM40.46 133.984H42.4681V135.992H40.46V133.984ZM42.4681 135.992H48.4925V138H42.4681V135.992ZM48.4925 127.959H50.5006V135.992H48.4925V127.959ZM40.46 119.927H50.5006V121.935H42.4681V125.951H48.4925V127.959H40.46V119.927ZM58.5331 135.992H64.5575V138H58.5331V135.992ZM64.5575 121.935H66.5656V135.992H64.5575V127.959H62.5494V125.951H64.5575V121.935ZM60.5413 127.959H62.5494V129.967H60.5413V127.959ZM56.525 121.935H58.5331V129.967H60.5413V131.976H58.5331V135.992H56.525V121.935ZM58.5331 119.927H64.5575V121.935H58.5331V119.927ZM74.5981 131.976H76.6063V138H74.5981V131.976ZM76.6063 125.951H78.6144V131.976H76.6063V125.951ZM78.6144 119.927H80.6225V125.951H78.6144V119.927ZM90.6631 127.959H98.6956V129.967H90.6631V127.959ZM128.818 121.935H130.826V127.959H128.818V121.935ZM120.785 119.927H128.818V121.935H122.793V127.959H128.818V129.967H122.793V138H120.785V119.927ZM144.883 133.984H146.891V135.992H144.883V133.984ZM138.858 135.992H144.883V138H138.858V135.992ZM136.85 125.951H138.858V129.967H144.883V125.951H146.891V131.976H138.858V135.992H136.85V125.951ZM138.858 123.943H144.883V125.951H138.858V123.943ZM158.939 123.943H162.956V125.951H158.939V123.943ZM156.931 125.951H158.939V127.959H156.931V125.951ZM152.915 123.943H154.923V127.959H156.931V129.967H154.923V138H152.915V123.943ZM193.078 121.935H195.086V127.959H193.078V121.935ZM185.045 119.927H193.078V121.935H187.053V127.959H193.078V129.967H187.053V138H185.045V119.927ZM209.143 133.984H211.151V135.992H209.143V133.984ZM203.118 135.992H209.143V138H203.118V135.992ZM201.11 125.951H203.118V129.967H209.143V125.951H211.151V131.976H203.118V135.992H201.11V125.951ZM203.118 123.943H209.143V125.951H203.118V123.943ZM223.199 123.943H227.216V125.951H223.199V123.943ZM221.191 125.951H223.199V127.959H221.191V125.951ZM217.175 123.943H219.183V127.959H221.191V129.967H219.183V138H217.175V123.943ZM233.24 125.951H235.248V129.967H233.24V125.951ZM241.273 131.976H243.281V135.992H241.273V131.976ZM235.248 135.992H241.273V138H235.248V135.992ZM233.24 133.984H235.248V135.992H233.24V133.984ZM235.248 129.967H241.273V131.976H235.248V129.967ZM241.273 125.951H243.281V127.959H241.273V125.951ZM235.248 123.943H241.273V125.951H235.248V123.943ZM257.338 125.951H259.346V135.992H257.338V125.951ZM251.313 135.992H257.338V138H251.313V135.992ZM249.305 125.951H251.313V135.992H249.305V125.951ZM251.313 123.943H257.338V125.951H251.313V123.943ZM273.403 125.951H275.411V138H273.403V125.951ZM265.37 123.943H273.403V125.951H267.378V138H265.37V123.943Z" fill="white"/>
<path d="M4 33.3644V32.3644H3V33.3644H4ZM8.07062 33.3644H9.07062V32.3644H8.07062V33.3644ZM8.07062 37.435H7.07062V38.435H8.07062V37.435ZM12.1412 37.435H13.1412V36.435H12.1412V37.435ZM12.1412 41.5056H11.1412V42.5056H12.1412V41.5056ZM16.2119 41.5056H17.2119V40.5056H16.2119V41.5056ZM16.2119 45.5763H15.2119V46.5763H16.2119V45.5763ZM20.2825 45.5763V46.5763H21.2825V45.5763H20.2825ZM20.2825 41.5056V40.5056H19.2825V41.5056H20.2825ZM24.3531 41.5056V42.5056H25.3531V41.5056H24.3531ZM24.3531 37.435V36.435H23.3531V37.435H24.3531ZM28.4237 37.435V38.435H29.4237V37.435H28.4237ZM28.4237 33.3644V32.3644H27.4237V33.3644H28.4237ZM36.565 33.3644H37.565V32.3644H36.565V33.3644ZM36.565 70V71H37.565V70H36.565ZM28.4237 70H27.4237V71H28.4237V70ZM28.4237 45.5763H29.4237V44.5763H28.4237V45.5763ZM24.3531 45.5763V44.5763H23.3531V45.5763H24.3531ZM24.3531 49.6469V50.6469H25.3531V49.6469H24.3531ZM20.2825 49.6469V48.6469H19.2825V49.6469H20.2825ZM20.2825 53.7175V54.7175H21.2825V53.7175H20.2825ZM16.2119 53.7175H15.2119V54.7175H16.2119V53.7175ZM16.2119 49.6469H17.2119V48.6469H16.2119V49.6469ZM12.1412 49.6469H11.1412V50.6469H12.1412V49.6469ZM12.1412 45.5763H13.1412V44.5763H12.1412V45.5763ZM8.07062 45.5763V44.5763H7.07062V45.5763H8.07062ZM8.07062 70V71H9.07062V70H8.07062ZM4 70H3V71H4V70ZM4 34.3644H8.07062V32.3644H4V34.3644ZM7.07062 33.3644V37.435H9.07062V33.3644H7.07062ZM8.07062 38.435H12.1412V36.435H8.07062V38.435ZM11.1412 37.435V41.5056H13.1412V37.435H11.1412ZM12.1412 42.5056H16.2119V40.5056H12.1412V42.5056ZM15.2119 41.5056V45.5763H17.2119V41.5056H15.2119ZM16.2119 46.5763H20.2825V44.5763H16.2119V46.5763ZM21.2825 45.5763V41.5056H19.2825V45.5763H21.2825ZM20.2825 42.5056H24.3531V40.5056H20.2825V42.5056ZM25.3531 41.5056V37.435H23.3531V41.5056H25.3531ZM24.3531 38.435H28.4237V36.435H24.3531V38.435ZM29.4237 37.435V33.3644H27.4237V37.435H29.4237ZM28.4237 34.3644H36.565V32.3644H28.4237V34.3644ZM35.565 33.3644V70H37.565V33.3644H35.565ZM36.565 69H28.4237V71H36.565V69ZM29.4237 70V45.5763H27.4237V70H29.4237ZM28.4237 44.5763H24.3531V46.5763H28.4237V44.5763ZM23.3531 45.5763V49.6469H25.3531V45.5763H23.3531ZM24.3531 48.6469H20.2825V50.6469H24.3531V48.6469ZM19.2825 49.6469V53.7175H21.2825V49.6469H19.2825ZM20.2825 52.7175H16.2119V54.7175H20.2825V52.7175ZM17.2119 53.7175V49.6469H15.2119V53.7175H17.2119ZM16.2119 48.6469H12.1412V50.6469H16.2119V48.6469ZM13.1412 49.6469V45.5763H11.1412V49.6469H13.1412ZM12.1412 44.5763H8.07062V46.5763H12.1412V44.5763ZM7.07062 45.5763V70H9.07062V45.5763H7.07062ZM8.07062 69H4V71H8.07062V69ZM5 70V33.3644H3V70H5ZM40.6356 45.5763V44.5763H39.6356V45.5763H40.6356ZM44.7062 45.5763H45.7062V44.5763H44.7062V45.5763ZM44.7062 49.6469V50.6469H45.7062V49.6469H44.7062ZM40.6356 49.6469H39.6356V50.6469H40.6356V49.6469ZM44.7062 41.5056V40.5056H43.7062V41.5056H44.7062ZM60.9887 41.5056H61.9887V40.5056H60.9887V41.5056ZM60.9887 45.5763H59.9887V46.5763H60.9887V45.5763ZM65.0594 45.5763H66.0594V44.5763H65.0594V45.5763ZM65.0594 70V71H66.0594V70H65.0594ZM44.7062 70H43.7062V71H44.7062V70ZM44.7062 65.9294H45.7062V64.9294H44.7062V65.9294ZM40.6356 65.9294H39.6356V66.9294H40.6356V65.9294ZM40.6356 57.7881V56.7881H39.6356V57.7881H40.6356ZM44.7062 57.7881V58.7881H45.7062V57.7881H44.7062ZM44.7062 53.7175V52.7175H43.7062V53.7175H44.7062ZM56.9181 53.7175V54.7175H57.9181V53.7175H56.9181ZM56.9181 45.5763H57.9181V44.5763H56.9181V45.5763ZM44.7062 45.5763H43.7062V46.5763H44.7062V45.5763ZM56.9181 57.7881H57.9181V56.7881H56.9181V57.7881ZM48.7769 57.7881V56.7881H47.7769V57.7881H48.7769ZM48.7769 65.9294H47.7769V66.9294H48.7769V65.9294ZM56.9181 65.9294V66.9294H57.9181V65.9294H56.9181ZM40.6356 46.5763H44.7062V44.5763H40.6356V46.5763ZM43.7062 45.5763V49.6469H45.7062V45.5763H43.7062ZM44.7062 48.6469H40.6356V50.6469H44.7062V48.6469ZM41.6356 49.6469V45.5763H39.6356V49.6469H41.6356ZM44.7062 42.5056H60.9887V40.5056H44.7062V42.5056ZM59.9887 41.5056V45.5763H61.9887V41.5056H59.9887ZM60.9887 46.5763H65.0594V44.5763H60.9887V46.5763ZM64.0594 45.5763V70H66.0594V45.5763H64.0594ZM65.0594 69H44.7062V71H65.0594V69ZM45.7062 70V65.9294H43.7062V70H45.7062ZM44.7062 64.9294H40.6356V66.9294H44.7062V64.9294ZM41.6356 65.9294V57.7881H39.6356V65.9294H41.6356ZM40.6356 58.7881H44.7062V56.7881H40.6356V58.7881ZM45.7062 57.7881V53.7175H43.7062V57.7881H45.7062ZM44.7062 54.7175H56.9181V52.7175H44.7062V54.7175ZM57.9181 53.7175V45.5763H55.9181V53.7175H57.9181ZM56.9181 44.5763H44.7062V46.5763H56.9181V44.5763ZM45.7062 45.5763V41.5056H43.7062V45.5763H45.7062ZM56.9181 56.7881H48.7769V58.7881H56.9181V56.7881ZM47.7769 57.7881V65.9294H49.7769V57.7881H47.7769ZM48.7769 66.9294H56.9181V64.9294H48.7769V66.9294ZM57.9181 65.9294V57.7881H55.9181V65.9294H57.9181ZM73.2006 41.5056V40.5056H72.2006V41.5056H73.2006ZM81.3419 41.5056H82.3419V40.5056H81.3419V41.5056ZM81.3419 49.6469H80.3419V50.6469H81.3419V49.6469ZM85.4125 49.6469H86.4125V48.6469H85.4125V49.6469ZM85.4125 53.7175V54.7175H86.4125V53.7175H85.4125ZM81.3419 53.7175V52.7175H80.3419V53.7175H81.3419ZM81.3419 70V71H82.3419V70H81.3419ZM73.2006 70H72.2006V71H73.2006V70ZM89.4831 41.5056V40.5056H88.4831V41.5056H89.4831ZM97.6244 41.5056H98.6244V40.5056H97.6244V41.5056ZM97.6244 49.6469V50.6469H98.6244V49.6469H97.6244ZM85.4125 49.6469H84.4125V50.6469H85.4125V49.6469ZM85.4125 45.5763V44.5763H84.4125V45.5763H85.4125ZM89.4831 45.5763V46.5763H90.4831V45.5763H89.4831ZM73.2006 42.5056H81.3419V40.5056H73.2006V42.5056ZM80.3419 41.5056V49.6469H82.3419V41.5056H80.3419ZM81.3419 50.6469H85.4125V48.6469H81.3419V50.6469ZM84.4125 49.6469V53.7175H86.4125V49.6469H84.4125ZM85.4125 52.7175H81.3419V54.7175H85.4125V52.7175ZM80.3419 53.7175V70H82.3419V53.7175H80.3419ZM81.3419 69H73.2006V71H81.3419V69ZM74.2006 70V41.5056H72.2006V70H74.2006ZM89.4831 42.5056H97.6244V40.5056H89.4831V42.5056ZM96.6244 41.5056V49.6469H98.6244V41.5056H96.6244ZM97.6244 48.6469H85.4125V50.6469H97.6244V48.6469ZM86.4125 49.6469V45.5763H84.4125V49.6469H86.4125ZM85.4125 46.5763H89.4831V44.5763H85.4125V46.5763ZM90.4831 45.5763V41.5056H88.4831V45.5763H90.4831ZM126.119 45.5763V44.5763H125.119V45.5763H126.119ZM130.189 45.5763H131.189V44.5763H130.189V45.5763ZM130.189 49.6469V50.6469H131.189V49.6469H130.189ZM126.119 49.6469H125.119V50.6469H126.119V49.6469ZM126.119 61.8588V60.8588H125.119V61.8588H126.119ZM130.189 61.8588H131.189V60.8588H130.189V61.8588ZM130.189 65.9294V66.9294H131.189V65.9294H130.189ZM126.119 65.9294H125.119V66.9294H126.119V65.9294ZM109.836 41.5056V40.5056H108.836V41.5056H109.836ZM126.119 41.5056H127.119V40.5056H126.119V41.5056ZM126.119 45.5763V46.5763H127.119V45.5763H126.119ZM113.907 45.5763V44.5763H112.907V45.5763H113.907ZM113.907 65.9294H112.907V66.9294H113.907V65.9294ZM126.119 65.9294H127.119V64.9294H126.119V65.9294ZM126.119 70V71H127.119V70H126.119ZM109.836 70H108.836V71H109.836V70ZM109.836 65.9294H110.836V64.9294H109.836V65.9294ZM105.766 65.9294H104.766V66.9294H105.766V65.9294ZM105.766 45.5763V44.5763H104.766V45.5763H105.766ZM109.836 45.5763V46.5763H110.836V45.5763H109.836ZM126.119 46.5763H130.189V44.5763H126.119V46.5763ZM129.189 45.5763V49.6469H131.189V45.5763H129.189ZM130.189 48.6469H126.119V50.6469H130.189V48.6469ZM127.119 49.6469V45.5763H125.119V49.6469H127.119ZM126.119 62.8588H130.189V60.8588H126.119V62.8588ZM129.189 61.8588V65.9294H131.189V61.8588H129.189ZM130.189 64.9294H126.119V66.9294H130.189V64.9294ZM127.119 65.9294V61.8588H125.119V65.9294H127.119ZM109.836 42.5056H126.119V40.5056H109.836V42.5056ZM125.119 41.5056V45.5763H127.119V41.5056H125.119ZM126.119 44.5763H113.907V46.5763H126.119V44.5763ZM112.907 45.5763V65.9294H114.907V45.5763H112.907ZM113.907 66.9294H126.119V64.9294H113.907V66.9294ZM125.119 65.9294V70H127.119V65.9294H125.119ZM126.119 69H109.836V71H126.119V69ZM110.836 70V65.9294H108.836V70H110.836ZM109.836 64.9294H105.766V66.9294H109.836V64.9294ZM106.766 65.9294V45.5763H104.766V65.9294H106.766ZM105.766 46.5763H109.836V44.5763H105.766V46.5763ZM110.836 45.5763V41.5056H108.836V45.5763H110.836ZM138.331 33.3644V32.3644H137.331V33.3644H138.331ZM146.472 33.3644H147.472V32.3644H146.472V33.3644ZM146.472 41.5056H145.472V42.5056H146.472V41.5056ZM158.684 41.5056H159.684V40.5056H158.684V41.5056ZM158.684 45.5763H157.684V46.5763H158.684V45.5763ZM162.754 45.5763H163.754V44.5763H162.754V45.5763ZM162.754 70V71H163.754V70H162.754ZM154.613 70H153.613V71H154.613V70ZM154.613 45.5763H155.613V44.5763H154.613V45.5763ZM146.472 45.5763V44.5763H145.472V45.5763H146.472ZM146.472 70V71H147.472V70H146.472ZM138.331 70H137.331V71H138.331V70ZM138.331 34.3644H146.472V32.3644H138.331V34.3644ZM145.472 33.3644V41.5056H147.472V33.3644H145.472ZM146.472 42.5056H158.684V40.5056H146.472V42.5056ZM157.684 41.5056V45.5763H159.684V41.5056H157.684ZM158.684 46.5763H162.754V44.5763H158.684V46.5763ZM161.754 45.5763V70H163.754V45.5763H161.754ZM162.754 69H154.613V71H162.754V69ZM155.613 70V45.5763H153.613V70H155.613ZM154.613 44.5763H146.472V46.5763H154.613V44.5763ZM145.472 45.5763V70H147.472V45.5763H145.472ZM146.472 69H138.331V71H146.472V69ZM139.331 70V33.3644H137.331V70H139.331ZM203.461 41.5056V40.5056H202.461V41.5056H203.461ZM207.531 41.5056H208.531V40.5056H207.531V41.5056ZM207.531 45.5763V46.5763H208.531V45.5763H207.531ZM203.461 45.5763H202.461V46.5763H203.461V45.5763ZM211.602 33.3644V32.3644H210.602V33.3644H211.602ZM219.743 33.3644H220.743V32.3644H219.743V33.3644ZM219.743 65.9294H218.743V66.9294H219.743V65.9294ZM227.884 65.9294H228.884V64.9294H227.884V65.9294ZM227.884 70V71H228.884V70H227.884ZM203.461 70H202.461V71H203.461V70ZM203.461 65.9294V64.9294H202.461V65.9294H203.461ZM211.602 65.9294V66.9294H212.602V65.9294H211.602ZM211.602 41.5056H212.602V40.5056H211.602V41.5056ZM207.531 41.5056H206.531V42.5056H207.531V41.5056ZM207.531 37.435V36.435H206.531V37.435H207.531ZM211.602 37.435V38.435H212.602V37.435H211.602ZM203.461 42.5056H207.531V40.5056H203.461V42.5056ZM206.531 41.5056V45.5763H208.531V41.5056H206.531ZM207.531 44.5763H203.461V46.5763H207.531V44.5763ZM204.461 45.5763V41.5056H202.461V45.5763H204.461ZM211.602 34.3644H219.743V32.3644H211.602V34.3644ZM218.743 33.3644V65.9294H220.743V33.3644H218.743ZM219.743 66.9294H227.884V64.9294H219.743V66.9294ZM226.884 65.9294V70H228.884V65.9294H226.884ZM227.884 69H203.461V71H227.884V69ZM204.461 70V65.9294H202.461V70H204.461ZM203.461 66.9294H211.602V64.9294H203.461V66.9294ZM212.602 65.9294V41.5056H210.602V65.9294H212.602ZM211.602 40.5056H207.531V42.5056H211.602V40.5056ZM208.531 41.5056V37.435H206.531V41.5056H208.531ZM207.531 38.435H211.602V36.435H207.531V38.435ZM212.602 37.435V33.3644H210.602V37.435H212.602ZM236.026 61.8588V60.8588H235.026V61.8588H236.026ZM240.096 61.8588H241.096V60.8588H240.096V61.8588ZM240.096 65.9294V66.9294H241.096V65.9294H240.096ZM236.026 65.9294H235.026V66.9294H236.026V65.9294ZM236.026 33.3644V32.3644H235.026V33.3644H236.026ZM260.449 33.3644H261.449V32.3644H260.449V33.3644ZM260.449 37.435V38.435H261.449V37.435H260.449ZM244.167 37.435V36.435H243.167V37.435H244.167ZM244.167 45.5763H243.167V46.5763H244.167V45.5763ZM256.379 45.5763H257.379V44.5763H256.379V45.5763ZM256.379 49.6469H255.379V50.6469H256.379V49.6469ZM260.449 49.6469H261.449V48.6469H260.449V49.6469ZM260.449 65.9294V66.9294H261.449V65.9294H260.449ZM256.379 65.9294V64.9294H255.379V65.9294H256.379ZM256.379 70V71H257.379V70H256.379ZM240.096 70H239.096V71H240.096V70ZM240.096 65.9294V64.9294H239.096V65.9294H240.096ZM252.308 65.9294V66.9294H253.308V65.9294H252.308ZM252.308 49.6469H253.308V48.6469H252.308V49.6469ZM236.026 49.6469H235.026V50.6469H236.026V49.6469ZM236.026 62.8588H240.096V60.8588H236.026V62.8588ZM239.096 61.8588V65.9294H241.096V61.8588H239.096ZM240.096 64.9294H236.026V66.9294H240.096V64.9294ZM237.026 65.9294V61.8588H235.026V65.9294H237.026ZM236.026 34.3644H260.449V32.3644H236.026V34.3644ZM259.449 33.3644V37.435H261.449V33.3644H259.449ZM260.449 36.435H244.167V38.435H260.449V36.435ZM243.167 37.435V45.5763H245.167V37.435H243.167ZM244.167 46.5763H256.379V44.5763H244.167V46.5763ZM255.379 45.5763V49.6469H257.379V45.5763H255.379ZM256.379 50.6469H260.449V48.6469H256.379V50.6469ZM259.449 49.6469V65.9294H261.449V49.6469H259.449ZM260.449 64.9294H256.379V66.9294H260.449V64.9294ZM255.379 65.9294V70H257.379V65.9294H255.379ZM256.379 69H240.096V71H256.379V69ZM241.096 70V65.9294H239.096V70H241.096ZM240.096 66.9294H252.308V64.9294H240.096V66.9294ZM253.308 65.9294V49.6469H251.308V65.9294H253.308ZM252.308 48.6469H236.026V50.6469H252.308V48.6469ZM237.026 49.6469V33.3644H235.026V49.6469H237.026ZM272.661 49.6469V48.6469H271.661V49.6469H272.661ZM288.944 49.6469H289.944V48.6469H288.944V49.6469ZM288.944 53.7175V54.7175H289.944V53.7175H288.944ZM272.661 53.7175H271.661V54.7175H272.661V53.7175ZM272.661 50.6469H288.944V48.6469H272.661V50.6469ZM287.944 49.6469V53.7175H289.944V49.6469H287.944ZM288.944 52.7175H272.661V54.7175H288.944V52.7175ZM273.661 53.7175V49.6469H271.661V53.7175H273.661ZM301.156 41.5056V40.5056H300.156V41.5056H301.156ZM305.226 41.5056H306.226V40.5056H305.226V41.5056ZM305.226 45.5763V46.5763H306.226V45.5763H305.226ZM301.156 45.5763H300.156V46.5763H301.156V45.5763ZM309.297 33.3644V32.3644H308.297V33.3644H309.297ZM317.438 33.3644H318.438V32.3644H317.438V33.3644ZM317.438 65.9294H316.438V66.9294H317.438V65.9294ZM325.579 65.9294H326.579V64.9294H325.579V65.9294ZM325.579 70V71H326.579V70H325.579ZM301.156 70H300.156V71H301.156V70ZM301.156 65.9294V64.9294H300.156V65.9294H301.156ZM309.297 65.9294V66.9294H310.297V65.9294H309.297ZM309.297 41.5056H310.297V40.5056H309.297V41.5056ZM305.226 41.5056H304.226V42.5056H305.226V41.5056ZM305.226 37.435V36.435H304.226V37.435H305.226ZM309.297 37.435V38.435H310.297V37.435H309.297ZM301.156 42.5056H305.226V40.5056H301.156V42.5056ZM304.226 41.5056V45.5763H306.226V41.5056H304.226ZM305.226 44.5763H301.156V46.5763H305.226V44.5763ZM302.156 45.5763V41.5056H300.156V45.5763H302.156ZM309.297 34.3644H317.438V32.3644H309.297V34.3644ZM316.438 33.3644V65.9294H318.438V33.3644H316.438ZM317.438 66.9294H325.579V64.9294H317.438V66.9294ZM324.579 65.9294V70H326.579V65.9294H324.579ZM325.579 69H301.156V71H325.579V69ZM302.156 70V65.9294H300.156V70H302.156ZM301.156 66.9294H309.297V64.9294H301.156V66.9294ZM310.297 65.9294V41.5056H308.297V65.9294H310.297ZM309.297 40.5056H305.226V42.5056H309.297V40.5056ZM306.226 41.5056V37.435H304.226V41.5056H306.226ZM305.226 38.435H309.297V36.435H305.226V38.435ZM310.297 37.435V33.3644H308.297V37.435H310.297ZM333.721 33.3644V32.3644H332.721V33.3644H333.721ZM358.144 33.3644H359.144V32.3644H358.144V33.3644ZM358.144 45.5763V46.5763H359.144V45.5763H358.144ZM354.074 45.5763V44.5763H353.074V45.5763H354.074ZM354.074 49.6469V50.6469H355.074V49.6469H354.074ZM350.003 49.6469V48.6469H349.003V49.6469H350.003ZM350.003 53.7175V54.7175H351.003V53.7175H350.003ZM345.932 53.7175V52.7175H344.932V53.7175H345.932ZM345.932 57.7881V58.7881H346.932V57.7881H345.932ZM341.862 57.7881V56.7881H340.862V57.7881H341.862ZM341.862 70V71H342.862V70H341.862ZM333.721 70H332.721V71H333.721V70ZM333.721 57.7881V56.7881H332.721V57.7881H333.721ZM337.791 57.7881V58.7881H338.791V57.7881H337.791ZM337.791 53.7175V52.7175H336.791V53.7175H337.791ZM341.862 53.7175V54.7175H342.862V53.7175H341.862ZM341.862 49.6469V48.6469H340.862V49.6469H341.862ZM345.932 49.6469V50.6469H346.932V49.6469H345.932ZM345.932 45.5763V44.5763H344.932V45.5763H345.932ZM350.003 45.5763V46.5763H351.003V45.5763H350.003ZM350.003 37.435H351.003V36.435H350.003V37.435ZM333.721 37.435H332.721V38.435H333.721V37.435ZM333.721 34.3644H358.144V32.3644H333.721V34.3644ZM357.144 33.3644V45.5763H359.144V33.3644H357.144ZM358.144 44.5763H354.074V46.5763H358.144V44.5763ZM353.074 45.5763V49.6469H355.074V45.5763H353.074ZM354.074 48.6469H350.003V50.6469H354.074V48.6469ZM349.003 49.6469V53.7175H351.003V49.6469H349.003ZM350.003 52.7175H345.932V54.7175H350.003V52.7175ZM344.932 53.7175V57.7881H346.932V53.7175H344.932ZM345.932 56.7881H341.862V58.7881H345.932V56.7881ZM340.862 57.7881V70H342.862V57.7881H340.862ZM341.862 69H333.721V71H341.862V69ZM334.721 70V57.7881H332.721V70H334.721ZM333.721 58.7881H337.791V56.7881H333.721V58.7881ZM338.791 57.7881V53.7175H336.791V57.7881H338.791ZM337.791 54.7175H341.862V52.7175H337.791V54.7175ZM342.862 53.7175V49.6469H340.862V53.7175H342.862ZM341.862 50.6469H345.932V48.6469H341.862V50.6469ZM346.932 49.6469V45.5763H344.932V49.6469H346.932ZM345.932 46.5763H350.003V44.5763H345.932V46.5763ZM351.003 45.5763V37.435H349.003V45.5763H351.003ZM350.003 36.435H333.721V38.435H350.003V36.435ZM334.721 37.435V33.3644H332.721V37.435H334.721ZM8.01625 91.9512V90.9512H7.01625V91.9512H8.01625ZM10.0244 91.9512H11.0244V90.9512H10.0244V91.9512ZM10.0244 97.9756V98.9756H11.0244V97.9756H10.0244ZM8.01625 97.9756H7.01625V98.9756H8.01625V97.9756ZM10.0244 89.9431V88.9431H9.02438V89.9431H10.0244ZM14.0406 89.9431H15.0406V88.9431H14.0406V89.9431ZM14.0406 97.9756H13.0406V98.9756H14.0406V97.9756ZM16.0488 97.9756H17.0488V96.9756H16.0488V97.9756ZM16.0488 99.9837V100.984H17.0488V99.9837H16.0488ZM10.0244 99.9837H9.02438V100.984H10.0244V99.9837ZM10.0244 97.9756V96.9756H9.02438V97.9756H10.0244ZM12.0325 97.9756V98.9756H13.0325V97.9756H12.0325ZM12.0325 91.9512H13.0325V90.9512H12.0325V91.9512ZM10.0244 91.9512H9.02438V92.9512H10.0244V91.9512ZM16.0488 87.935V86.935H15.0488V87.935H16.0488ZM18.0569 87.935H19.0569V86.935H18.0569V87.935ZM18.0569 97.9756V98.9756H19.0569V97.9756H18.0569ZM16.0488 97.9756H15.0488V98.9756H16.0488V97.9756ZM6.00813 101.992V100.992H5.00813V101.992H6.00813ZM16.0488 101.992H17.0488V100.992H16.0488V101.992ZM16.0488 104V105H17.0488V104H16.0488ZM6.00813 104H5.00813V105H6.00813V104ZM4 87.935V86.935H3V87.935H4ZM6.00813 87.935H7.00813V86.935H6.00813V87.935ZM6.00813 101.992V102.992H7.00813V101.992H6.00813ZM4 101.992H3V102.992H4V101.992ZM6.00813 85.9269V84.9269H5.00813V85.9269H6.00813ZM16.0488 85.9269H17.0488V84.9269H16.0488V85.9269ZM16.0488 87.935V88.935H17.0488V87.935H16.0488ZM6.00813 87.935H5.00813V88.935H6.00813V87.935ZM8.01625 92.9512H10.0244V90.9512H8.01625V92.9512ZM9.02438 91.9512V97.9756H11.0244V91.9512H9.02438ZM10.0244 96.9756H8.01625V98.9756H10.0244V96.9756ZM9.01625 97.9756V91.9512H7.01625V97.9756H9.01625ZM10.0244 90.9431H14.0406V88.9431H10.0244V90.9431ZM13.0406 89.9431V97.9756H15.0406V89.9431H13.0406ZM14.0406 98.9756H16.0488V96.9756H14.0406V98.9756ZM15.0488 97.9756V99.9837H17.0488V97.9756H15.0488ZM16.0488 98.9837H10.0244V100.984H16.0488V98.9837ZM11.0244 99.9837V97.9756H9.02438V99.9837H11.0244ZM10.0244 98.9756H12.0325V96.9756H10.0244V98.9756ZM13.0325 97.9756V91.9512H11.0325V97.9756H13.0325ZM12.0325 90.9512H10.0244V92.9512H12.0325V90.9512ZM11.0244 91.9512V89.9431H9.02438V91.9512H11.0244ZM16.0488 88.935H18.0569V86.935H16.0488V88.935ZM17.0569 87.935V97.9756H19.0569V87.935H17.0569ZM18.0569 96.9756H16.0488V98.9756H18.0569V96.9756ZM17.0488 97.9756V87.935H15.0488V97.9756H17.0488ZM6.00813 102.992H16.0488V100.992H6.00813V102.992ZM15.0488 101.992V104H17.0488V101.992H15.0488ZM16.0488 103H6.00813V105H16.0488V103ZM7.00813 104V101.992H5.00813V104H7.00813ZM4 88.935H6.00813V86.935H4V88.935ZM5.00813 87.935V101.992H7.00813V87.935H5.00813ZM6.00813 100.992H4V102.992H6.00813V100.992ZM5 101.992V87.935H3V101.992H5ZM6.00813 86.9269H16.0488V84.9269H6.00813V86.9269ZM15.0488 85.9269V87.935H17.0488V85.9269H15.0488ZM16.0488 86.935H6.00813V88.935H16.0488V86.935ZM7.00813 87.935V85.9269H5.00813V87.935H7.00813ZM30.1056 99.9837V98.9837H29.1056V99.9837H30.1056ZM32.1138 99.9837H33.1138V98.9837H32.1138V99.9837ZM32.1138 101.992V102.992H33.1138V101.992H32.1138ZM30.1056 101.992H29.1056V102.992H30.1056V101.992ZM24.0813 101.992V100.992H23.0813V101.992H24.0813ZM30.1056 101.992H31.1056V100.992H30.1056V101.992ZM30.1056 104V105H31.1056V104H30.1056ZM24.0813 104H23.0813V105H24.0813V104ZM22.0731 87.935V86.935H21.0731V87.935H22.0731ZM24.0813 87.935H25.0813V86.935H24.0813V87.935ZM24.0813 101.992V102.992H25.0813V101.992H24.0813ZM22.0731 101.992H21.0731V102.992H22.0731V101.992ZM24.0813 85.9269V84.9269H23.0813V85.9269H24.0813ZM30.1056 85.9269H31.1056V84.9269H30.1056V85.9269ZM30.1056 87.935V88.935H31.1056V87.935H30.1056ZM24.0813 87.935H23.0813V88.935H24.0813V87.935ZM30.1056 87.935V86.935H29.1056V87.935H30.1056ZM32.1138 87.935H33.1138V86.935H32.1138V87.935ZM32.1138 89.9431V90.9431H33.1138V89.9431H32.1138ZM30.1056 89.9431H29.1056V90.9431H30.1056V89.9431ZM30.1056 100.984H32.1138V98.9837H30.1056V100.984ZM31.1138 99.9837V101.992H33.1138V99.9837H31.1138ZM32.1138 100.992H30.1056V102.992H32.1138V100.992ZM31.1056 101.992V99.9837H29.1056V101.992H31.1056ZM24.0813 102.992H30.1056V100.992H24.0813V102.992ZM29.1056 101.992V104H31.1056V101.992H29.1056ZM30.1056 103H24.0813V105H30.1056V103ZM25.0813 104V101.992H23.0813V104H25.0813ZM22.0731 88.935H24.0813V86.935H22.0731V88.935ZM23.0813 87.935V101.992H25.0813V87.935H23.0813ZM24.0813 100.992H22.0731V102.992H24.0813V100.992ZM23.0731 101.992V87.935H21.0731V101.992H23.0731ZM24.0813 86.9269H30.1056V84.9269H24.0813V86.9269ZM29.1056 85.9269V87.935H31.1056V85.9269H29.1056ZM30.1056 86.935H24.0813V88.935H30.1056V86.935ZM25.0813 87.935V85.9269H23.0813V87.935H25.0813ZM30.1056 88.935H32.1138V86.935H30.1056V88.935ZM31.1138 87.935V89.9431H33.1138V87.935H31.1138ZM32.1138 88.9431H30.1056V90.9431H32.1138V88.9431ZM31.1056 89.9431V87.935H29.1056V89.9431H31.1056ZM38.1381 87.935V86.935H37.1381V87.935H38.1381ZM40.1463 87.935H41.1463V86.935H40.1463V87.935ZM40.1463 93.9594V94.9594H41.1463V93.9594H40.1463ZM38.1381 93.9594H37.1381V94.9594H38.1381V93.9594ZM46.1706 95.9675V94.9675H45.1706V95.9675H46.1706ZM48.1788 95.9675H49.1788V94.9675H48.1788V95.9675ZM48.1788 101.992V102.992H49.1788V101.992H48.1788ZM46.1706 101.992H45.1706V102.992H46.1706V101.992ZM40.1463 101.992V100.992H39.1463V101.992H40.1463ZM46.1706 101.992H47.1706V100.992H46.1706V101.992ZM46.1706 104V105H47.1706V104H46.1706ZM40.1463 104H39.1463V105H40.1463V104ZM38.1381 99.9837V98.9837H37.1381V99.9837H38.1381ZM40.1463 99.9837H41.1463V98.9837H40.1463V99.9837ZM40.1463 101.992V102.992H41.1463V101.992H40.1463ZM38.1381 101.992H37.1381V102.992H38.1381V101.992ZM40.1463 93.9594V92.9594H39.1463V93.9594H40.1463ZM46.1706 93.9594H47.1706V92.9594H46.1706V93.9594ZM46.1706 95.9675V96.9675H47.1706V95.9675H46.1706ZM40.1463 95.9675H39.1463V96.9675H40.1463V95.9675ZM46.1706 87.935V86.935H45.1706V87.935H46.1706ZM48.1788 87.935H49.1788V86.935H48.1788V87.935ZM48.1788 89.9431V90.9431H49.1788V89.9431H48.1788ZM46.1706 89.9431H45.1706V90.9431H46.1706V89.9431ZM40.1463 85.9269V84.9269H39.1463V85.9269H40.1463ZM46.1706 85.9269H47.1706V84.9269H46.1706V85.9269ZM46.1706 87.935V88.935H47.1706V87.935H46.1706ZM40.1463 87.935H39.1463V88.935H40.1463V87.935ZM38.1381 88.935H40.1463V86.935H38.1381V88.935ZM39.1463 87.935V93.9594H41.1463V87.935H39.1463ZM40.1463 92.9594H38.1381V94.9594H40.1463V92.9594ZM39.1381 93.9594V87.935H37.1381V93.9594H39.1381ZM46.1706 96.9675H48.1788V94.9675H46.1706V96.9675ZM47.1788 95.9675V101.992H49.1788V95.9675H47.1788ZM48.1788 100.992H46.1706V102.992H48.1788V100.992ZM47.1706 101.992V95.9675H45.1706V101.992H47.1706ZM40.1463 102.992H46.1706V100.992H40.1463V102.992ZM45.1706 101.992V104H47.1706V101.992H45.1706ZM46.1706 103H40.1463V105H46.1706V103ZM41.1463 104V101.992H39.1463V104H41.1463ZM38.1381 100.984H40.1463V98.9837H38.1381V100.984ZM39.1463 99.9837V101.992H41.1463V99.9837H39.1463ZM40.1463 100.992H38.1381V102.992H40.1463V100.992ZM39.1381 101.992V99.9837H37.1381V101.992H39.1381ZM40.1463 94.9594H46.1706V92.9594H40.1463V94.9594ZM45.1706 93.9594V95.9675H47.1706V93.9594H45.1706ZM46.1706 94.9675H40.1463V96.9675H46.1706V94.9675ZM41.1463 95.9675V93.9594H39.1463V95.9675H41.1463ZM46.1706 88.935H48.1788V86.935H46.1706V88.935ZM47.1788 87.935V89.9431H49.1788V87.935H47.1788ZM48.1788 88.9431H46.1706V90.9431H48.1788V88.9431ZM47.1706 89.9431V87.935H45.1706V89.9431H47.1706ZM40.1463 86.9269H46.1706V84.9269H40.1463V86.9269ZM45.1706 85.9269V87.935H47.1706V85.9269H45.1706ZM46.1706 86.935H40.1463V88.935H46.1706V86.935ZM41.1463 87.935V85.9269H39.1463V87.935H41.1463ZM54.2031 85.9269V84.9269H53.2031V85.9269H54.2031ZM64.2438 85.9269H65.2438V84.9269H64.2438V85.9269ZM64.2438 87.935V88.935H65.2438V87.935H64.2438ZM56.2112 87.935V86.935H55.2112V87.935H56.2112ZM56.2112 93.9594H55.2112V94.9594H56.2112V93.9594ZM60.2275 93.9594H61.2275V92.9594H60.2275V93.9594ZM60.2275 95.9675V96.9675H61.2275V95.9675H60.2275ZM56.2112 95.9675V94.9675H55.2112V95.9675H56.2112ZM56.2112 101.992H55.2112V102.992H56.2112V101.992ZM64.2438 101.992H65.2438V100.992H64.2438V101.992ZM64.2438 104V105H65.2438V104H64.2438ZM54.2031 104H53.2031V105H54.2031V104ZM54.2031 86.9269H64.2438V84.9269H54.2031V86.9269ZM63.2438 85.9269V87.935H65.2438V85.9269H63.2438ZM64.2438 86.935H56.2112V88.935H64.2438V86.935ZM55.2112 87.935V93.9594H57.2112V87.935H55.2112ZM56.2112 94.9594H60.2275V92.9594H56.2112V94.9594ZM59.2275 93.9594V95.9675H61.2275V93.9594H59.2275ZM60.2275 94.9675H56.2112V96.9675H60.2275V94.9675ZM55.2112 95.9675V101.992H57.2112V95.9675H55.2112ZM56.2112 102.992H64.2438V100.992H56.2112V102.992ZM63.2438 101.992V104H65.2438V101.992H63.2438ZM64.2438 103H54.2031V105H64.2438V103ZM55.2031 104V85.9269H53.2031V104H55.2031ZM78.3006 87.935V86.935H77.3006V87.935H78.3006ZM80.3088 87.935H81.3088V86.935H80.3088V87.935ZM80.3088 101.992V102.992H81.3088V101.992H80.3088ZM78.3006 101.992H77.3006V102.992H78.3006V101.992ZM70.2681 85.9269V84.9269H69.2681V85.9269H70.2681ZM78.3006 85.9269H79.3006V84.9269H78.3006V85.9269ZM78.3006 87.935V88.935H79.3006V87.935H78.3006ZM72.2763 87.935V86.935H71.2763V87.935H72.2763ZM72.2763 101.992H71.2763V102.992H72.2763V101.992ZM78.3006 101.992H79.3006V100.992H78.3006V101.992ZM78.3006 104V105H79.3006V104H78.3006ZM70.2681 104H69.2681V105H70.2681V104ZM78.3006 88.935H80.3088V86.935H78.3006V88.935ZM79.3088 87.935V101.992H81.3088V87.935H79.3088ZM80.3088 100.992H78.3006V102.992H80.3088V100.992ZM79.3006 101.992V87.935H77.3006V101.992H79.3006ZM70.2681 86.9269H78.3006V84.9269H70.2681V86.9269ZM77.3006 85.9269V87.935H79.3006V85.9269H77.3006ZM78.3006 86.935H72.2763V88.935H78.3006V86.935ZM71.2763 87.935V101.992H73.2763V87.935H71.2763ZM72.2763 102.992H78.3006V100.992H72.2763V102.992ZM77.3006 101.992V104H79.3006V101.992H77.3006ZM78.3006 103H70.2681V105H78.3006V103ZM71.2681 104V85.9269H69.2681V104H71.2681ZM102.398 87.935V86.935H101.398V87.935H102.398ZM104.406 87.935H105.406V86.935H104.406V87.935ZM104.406 93.9594V94.9594H105.406V93.9594H104.406ZM102.398 93.9594H101.398V94.9594H102.398V93.9594ZM110.431 95.9675V94.9675H109.431V95.9675H110.431ZM112.439 95.9675H113.439V94.9675H112.439V95.9675ZM112.439 101.992V102.992H113.439V101.992H112.439ZM110.431 101.992H109.431V102.992H110.431V101.992ZM104.406 101.992V100.992H103.406V101.992H104.406ZM110.431 101.992H111.431V100.992H110.431V101.992ZM110.431 104V105H111.431V104H110.431ZM104.406 104H103.406V105H104.406V104ZM102.398 99.9837V98.9837H101.398V99.9837H102.398ZM104.406 99.9837H105.406V98.9837H104.406V99.9837ZM104.406 101.992V102.992H105.406V101.992H104.406ZM102.398 101.992H101.398V102.992H102.398V101.992ZM104.406 93.9594V92.9594H103.406V93.9594H104.406ZM110.431 93.9594H111.431V92.9594H110.431V93.9594ZM110.431 95.9675V96.9675H111.431V95.9675H110.431ZM104.406 95.9675H103.406V96.9675H104.406V95.9675ZM110.431 87.935V86.935H109.431V87.935H110.431ZM112.439 87.935H113.439V86.935H112.439V87.935ZM112.439 89.9431V90.9431H113.439V89.9431H112.439ZM110.431 89.9431H109.431V90.9431H110.431V89.9431ZM104.406 85.9269V84.9269H103.406V85.9269H104.406ZM110.431 85.9269H111.431V84.9269H110.431V85.9269ZM110.431 87.935V88.935H111.431V87.935H110.431ZM104.406 87.935H103.406V88.935H104.406V87.935ZM102.398 88.935H104.406V86.935H102.398V88.935ZM103.406 87.935V93.9594H105.406V87.935H103.406ZM104.406 92.9594H102.398V94.9594H104.406V92.9594ZM103.398 93.9594V87.935H101.398V93.9594H103.398ZM110.431 96.9675H112.439V94.9675H110.431V96.9675ZM111.439 95.9675V101.992H113.439V95.9675H111.439ZM112.439 100.992H110.431V102.992H112.439V100.992ZM111.431 101.992V95.9675H109.431V101.992H111.431ZM104.406 102.992H110.431V100.992H104.406V102.992ZM109.431 101.992V104H111.431V101.992H109.431ZM110.431 103H104.406V105H110.431V103ZM105.406 104V101.992H103.406V104H105.406ZM102.398 100.984H104.406V98.9837H102.398V100.984ZM103.406 99.9837V101.992H105.406V99.9837H103.406ZM104.406 100.992H102.398V102.992H104.406V100.992ZM103.398 101.992V99.9837H101.398V101.992H103.398ZM104.406 94.9594H110.431V92.9594H104.406V94.9594ZM109.431 93.9594V95.9675H111.431V93.9594H109.431ZM110.431 94.9675H104.406V96.9675H110.431V94.9675ZM105.406 95.9675V93.9594H103.406V95.9675H105.406ZM110.431 88.935H112.439V86.935H110.431V88.935ZM111.439 87.935V89.9431H113.439V87.935H111.439ZM112.439 88.9431H110.431V90.9431H112.439V88.9431ZM111.431 89.9431V87.935H109.431V89.9431H111.431ZM104.406 86.9269H110.431V84.9269H104.406V86.9269ZM109.431 85.9269V87.935H111.431V85.9269H109.431ZM110.431 86.935H104.406V88.935H110.431V86.935ZM105.406 87.935V85.9269H103.406V87.935H105.406ZM126.496 99.9837V98.9837H125.496V99.9837H126.496ZM128.504 99.9837H129.504V98.9837H128.504V99.9837ZM128.504 101.992V102.992H129.504V101.992H128.504ZM126.496 101.992H125.496V102.992H126.496V101.992ZM120.471 101.992V100.992H119.471V101.992H120.471ZM126.496 101.992H127.496V100.992H126.496V101.992ZM126.496 104V105H127.496V104H126.496ZM120.471 104H119.471V105H120.471V104ZM118.463 91.9512V90.9512H117.463V91.9512H118.463ZM120.471 91.9512H121.471V90.9512H120.471V91.9512ZM120.471 95.9675H119.471V96.9675H120.471V95.9675ZM126.496 95.9675V96.9675H127.496V95.9675H126.496ZM126.496 91.9512V90.9512H125.496V91.9512H126.496ZM128.504 91.9512H129.504V90.9512H128.504V91.9512ZM128.504 97.9756V98.9756H129.504V97.9756H128.504ZM120.471 97.9756V96.9756H119.471V97.9756H120.471ZM120.471 101.992V102.992H121.471V101.992H120.471ZM118.463 101.992H117.463V102.992H118.463V101.992ZM120.471 89.9431V88.9431H119.471V89.9431H120.471ZM126.496 89.9431H127.496V88.9431H126.496V89.9431ZM126.496 91.9512V92.9512H127.496V91.9512H126.496ZM120.471 91.9512H119.471V92.9512H120.471V91.9512ZM126.496 100.984H128.504V98.9837H126.496V100.984ZM127.504 99.9837V101.992H129.504V99.9837H127.504ZM128.504 100.992H126.496V102.992H128.504V100.992ZM127.496 101.992V99.9837H125.496V101.992H127.496ZM120.471 102.992H126.496V100.992H120.471V102.992ZM125.496 101.992V104H127.496V101.992H125.496ZM126.496 103H120.471V105H126.496V103ZM121.471 104V101.992H119.471V104H121.471ZM118.463 92.9512H120.471V90.9512H118.463V92.9512ZM119.471 91.9512V95.9675H121.471V91.9512H119.471ZM120.471 96.9675H126.496V94.9675H120.471V96.9675ZM127.496 95.9675V91.9512H125.496V95.9675H127.496ZM126.496 92.9512H128.504V90.9512H126.496V92.9512ZM127.504 91.9512V97.9756H129.504V91.9512H127.504ZM128.504 96.9756H120.471V98.9756H128.504V96.9756ZM119.471 97.9756V101.992H121.471V97.9756H119.471ZM120.471 100.992H118.463V102.992H120.471V100.992ZM119.463 101.992V91.9512H117.463V101.992H119.463ZM120.471 90.9431H126.496V88.9431H120.471V90.9431ZM125.496 89.9431V91.9512H127.496V89.9431H125.496ZM126.496 90.9512H120.471V92.9512H126.496V90.9512ZM121.471 91.9512V89.9431H119.471V91.9512H121.471ZM144.569 91.9512V90.9512H143.569V91.9512H144.569ZM146.577 91.9512H147.577V90.9512H146.577V91.9512ZM146.577 104V105H147.577V104H146.577ZM144.569 104H143.569V105H144.569V104ZM140.553 89.9431V88.9431H139.553V89.9431H140.553ZM144.569 89.9431H145.569V88.9431H144.569V89.9431ZM144.569 91.9512V92.9512H145.569V91.9512H144.569ZM140.553 91.9512H139.553V92.9512H140.553V91.9512ZM138.544 91.9512V90.9512H137.544V91.9512H138.544ZM140.553 91.9512H141.553V90.9512H140.553V91.9512ZM140.553 99.9837V100.984H141.553V99.9837H140.553ZM138.544 99.9837H137.544V100.984H138.544V99.9837ZM132.52 89.9431V88.9431H131.52V89.9431H132.52ZM138.544 89.9431H139.544V88.9431H138.544V89.9431ZM138.544 91.9512V92.9512H139.544V91.9512H138.544ZM134.528 91.9512V90.9512H133.528V91.9512H134.528ZM134.528 104V105H135.528V104H134.528ZM132.52 104H131.52V105H132.52V104ZM144.569 92.9512H146.577V90.9512H144.569V92.9512ZM145.577 91.9512V104H147.577V91.9512H145.577ZM146.577 103H144.569V105H146.577V103ZM145.569 104V91.9512H143.569V104H145.569ZM140.553 90.9431H144.569V88.9431H140.553V90.9431ZM143.569 89.9431V91.9512H145.569V89.9431H143.569ZM144.569 90.9512H140.553V92.9512H144.569V90.9512ZM141.553 91.9512V89.9431H139.553V91.9512H141.553ZM138.544 92.9512H140.553V90.9512H138.544V92.9512ZM139.553 91.9512V99.9837H141.553V91.9512H139.553ZM140.553 98.9837H138.544V100.984H140.553V98.9837ZM139.544 99.9837V91.9512H137.544V99.9837H139.544ZM132.52 90.9431H138.544V88.9431H132.52V90.9431ZM137.544 89.9431V91.9512H139.544V89.9431H137.544ZM138.544 90.9512H134.528V92.9512H138.544V90.9512ZM133.528 91.9512V104H135.528V91.9512H133.528ZM134.528 103H132.52V105H134.528V103ZM133.52 104V89.9431H131.52V104H133.52ZM150.593 89.9431V88.9431H149.593V89.9431H150.593ZM156.618 89.9431H157.618V88.9431H156.618V89.9431ZM156.618 101.992H155.618V102.992H156.618V101.992ZM160.634 101.992H161.634V100.992H160.634V101.992ZM160.634 104V105H161.634V104H160.634ZM150.593 104H149.593V105H150.593V104ZM150.593 101.992V100.992H149.593V101.992H150.593ZM154.609 101.992V102.992H155.609V101.992H154.609ZM154.609 91.9512H155.609V90.9512H154.609V91.9512ZM150.593 91.9512H149.593V92.9512H150.593V91.9512ZM154.609 85.9269V84.9269H153.609V85.9269H154.609ZM156.618 85.9269H157.618V84.9269H156.618V85.9269ZM156.618 87.935V88.935H157.618V87.935H156.618ZM154.609 87.935H153.609V88.935H154.609V87.935ZM150.593 90.9431H156.618V88.9431H150.593V90.9431ZM155.618 89.9431V101.992H157.618V89.9431H155.618ZM156.618 102.992H160.634V100.992H156.618V102.992ZM159.634 101.992V104H161.634V101.992H159.634ZM160.634 103H150.593V105H160.634V103ZM151.593 104V101.992H149.593V104H151.593ZM150.593 102.992H154.609V100.992H150.593V102.992ZM155.609 101.992V91.9512H153.609V101.992H155.609ZM154.609 90.9512H150.593V92.9512H154.609V90.9512ZM151.593 91.9512V89.9431H149.593V91.9512H151.593ZM154.609 86.9269H156.618V84.9269H154.609V86.9269ZM155.618 85.9269V87.935H157.618V85.9269H155.618ZM156.618 86.935H154.609V88.935H156.618V86.935ZM155.609 87.935V85.9269H153.609V87.935H155.609ZM174.691 91.9512V90.9512H173.691V91.9512H174.691ZM176.699 91.9512H177.699V90.9512H176.699V91.9512ZM176.699 104V105H177.699V104H176.699ZM174.691 104H173.691V105H174.691V104ZM166.658 89.9431V88.9431H165.658V89.9431H166.658ZM174.691 89.9431H175.691V88.9431H174.691V89.9431ZM174.691 91.9512V92.9512H175.691V91.9512H174.691ZM168.666 91.9512V90.9512H167.666V91.9512H168.666ZM168.666 104V105H169.666V104H168.666ZM166.658 104H165.658V105H166.658V104ZM174.691 92.9512H176.699V90.9512H174.691V92.9512ZM175.699 91.9512V104H177.699V91.9512H175.699ZM176.699 103H174.691V105H176.699V103ZM175.691 104V91.9512H173.691V104H175.691ZM166.658 90.9431H174.691V88.9431H166.658V90.9431ZM173.691 89.9431V91.9512H175.691V89.9431H173.691ZM174.691 90.9512H168.666V92.9512H174.691V90.9512ZM167.666 91.9512V104H169.666V91.9512H167.666ZM168.666 103H166.658V105H168.666V103ZM167.658 104V89.9431H165.658V104H167.658ZM182.723 91.9512V90.9512H181.723V91.9512H182.723ZM184.731 91.9512H185.731V90.9512H184.731V91.9512ZM184.731 93.9594V94.9594H185.731V93.9594H184.731ZM182.723 93.9594H181.723V94.9594H182.723V93.9594ZM182.723 97.9756V96.9756H181.723V97.9756H182.723ZM184.731 97.9756H185.731V96.9756H184.731V97.9756ZM184.731 101.992V102.992H185.731V101.992H184.731ZM182.723 101.992H181.723V102.992H182.723V101.992ZM190.756 91.9512V90.9512H189.756V91.9512H190.756ZM192.764 91.9512H193.764V90.9512H192.764V91.9512ZM192.764 104V105H193.764V104H192.764ZM184.731 104H183.731V105H184.731V104ZM184.731 101.992V100.992H183.731V101.992H184.731ZM190.756 101.992V102.992H191.756V101.992H190.756ZM190.756 97.9756H191.756V96.9756H190.756V97.9756ZM184.731 97.9756H183.731V98.9756H184.731V97.9756ZM184.731 95.9675V94.9675H183.731V95.9675H184.731ZM190.756 95.9675V96.9675H191.756V95.9675H190.756ZM184.731 89.9431V88.9431H183.731V89.9431H184.731ZM190.756 89.9431H191.756V88.9431H190.756V89.9431ZM190.756 91.9512V92.9512H191.756V91.9512H190.756ZM184.731 91.9512H183.731V92.9512H184.731V91.9512ZM182.723 92.9512H184.731V90.9512H182.723V92.9512ZM183.731 91.9512V93.9594H185.731V91.9512H183.731ZM184.731 92.9594H182.723V94.9594H184.731V92.9594ZM183.723 93.9594V91.9512H181.723V93.9594H183.723ZM182.723 98.9756H184.731V96.9756H182.723V98.9756ZM183.731 97.9756V101.992H185.731V97.9756H183.731ZM184.731 100.992H182.723V102.992H184.731V100.992ZM183.723 101.992V97.9756H181.723V101.992H183.723ZM190.756 92.9512H192.764V90.9512H190.756V92.9512ZM191.764 91.9512V104H193.764V91.9512H191.764ZM192.764 103H184.731V105H192.764V103ZM185.731 104V101.992H183.731V104H185.731ZM184.731 102.992H190.756V100.992H184.731V102.992ZM191.756 101.992V97.9756H189.756V101.992H191.756ZM190.756 96.9756H184.731V98.9756H190.756V96.9756ZM185.731 97.9756V95.9675H183.731V97.9756H185.731ZM184.731 96.9675H190.756V94.9675H184.731V96.9675ZM191.756 95.9675V91.9512H189.756V95.9675H191.756ZM184.731 90.9431H190.756V88.9431H184.731V90.9431ZM189.756 89.9431V91.9512H191.756V89.9431H189.756ZM190.756 90.9512H184.731V92.9512H190.756V90.9512ZM185.731 91.9512V89.9431H183.731V91.9512H185.731ZM204.812 89.9431V88.9431H203.812V89.9431H204.812ZM208.829 89.9431H209.829V88.9431H208.829V89.9431ZM208.829 91.9512V92.9512H209.829V91.9512H208.829ZM204.812 91.9512H203.812V92.9512H204.812V91.9512ZM202.804 91.9512V90.9512H201.804V91.9512H202.804ZM204.812 91.9512H205.812V90.9512H204.812V91.9512ZM204.812 93.9594V94.9594H205.812V93.9594H204.812ZM202.804 93.9594H201.804V94.9594H202.804V93.9594ZM198.788 89.9431V88.9431H197.788V89.9431H198.788ZM200.796 89.9431H201.796V88.9431H200.796V89.9431ZM200.796 93.9594H199.796V94.9594H200.796V93.9594ZM202.804 93.9594H203.804V92.9594H202.804V93.9594ZM202.804 95.9675V96.9675H203.804V95.9675H202.804ZM200.796 95.9675V94.9675H199.796V95.9675H200.796ZM200.796 104V105H201.796V104H200.796ZM198.788 104H197.788V105H198.788V104ZM204.812 90.9431H208.829V88.9431H204.812V90.9431ZM207.829 89.9431V91.9512H209.829V89.9431H207.829ZM208.829 90.9512H204.812V92.9512H208.829V90.9512ZM205.812 91.9512V89.9431H203.812V91.9512H205.812ZM202.804 92.9512H204.812V90.9512H202.804V92.9512ZM203.812 91.9512V93.9594H205.812V91.9512H203.812ZM204.812 92.9594H202.804V94.9594H204.812V92.9594ZM203.804 93.9594V91.9512H201.804V93.9594H203.804ZM198.788 90.9431H200.796V88.9431H198.788V90.9431ZM199.796 89.9431V93.9594H201.796V89.9431H199.796ZM200.796 94.9594H202.804V92.9594H200.796V94.9594ZM201.804 93.9594V95.9675H203.804V93.9594H201.804ZM202.804 94.9675H200.796V96.9675H202.804V94.9675ZM199.796 95.9675V104H201.796V95.9675H199.796ZM200.796 103H198.788V105H200.796V103ZM199.788 104V89.9431H197.788V104H199.788ZM230.918 85.9269V84.9269H229.918V85.9269H230.918ZM232.926 85.9269H233.926V84.9269H232.926V85.9269ZM232.926 93.9594H231.926V94.9594H232.926V93.9594ZM238.951 93.9594V94.9594H239.951V93.9594H238.951ZM238.951 85.9269V84.9269H237.951V85.9269H238.951ZM240.959 85.9269H241.959V84.9269H240.959V85.9269ZM240.959 104V105H241.959V104H240.959ZM238.951 104H237.951V105H238.951V104ZM238.951 95.9675H239.951V94.9675H238.951V95.9675ZM232.926 95.9675V94.9675H231.926V95.9675H232.926ZM232.926 104V105H233.926V104H232.926ZM230.918 104H229.918V105H230.918V104ZM230.918 86.9269H232.926V84.9269H230.918V86.9269ZM231.926 85.9269V93.9594H233.926V85.9269H231.926ZM232.926 94.9594H238.951V92.9594H232.926V94.9594ZM239.951 93.9594V85.9269H237.951V93.9594H239.951ZM238.951 86.9269H240.959V84.9269H238.951V86.9269ZM239.959 85.9269V104H241.959V85.9269H239.959ZM240.959 103H238.951V105H240.959V103ZM239.951 104V95.9675H237.951V104H239.951ZM238.951 94.9675H232.926V96.9675H238.951V94.9675ZM231.926 95.9675V104H233.926V95.9675H231.926ZM232.926 103H230.918V105H232.926V103ZM231.918 104V85.9269H229.918V104H231.918ZM246.983 91.9512V90.9512H245.983V91.9512H246.983ZM248.991 91.9512H249.991V90.9512H248.991V91.9512ZM248.991 93.9594V94.9594H249.991V93.9594H248.991ZM246.983 93.9594H245.983V94.9594H246.983V93.9594ZM246.983 97.9756V96.9756H245.983V97.9756H246.983ZM248.991 97.9756H249.991V96.9756H248.991V97.9756ZM248.991 101.992V102.992H249.991V101.992H248.991ZM246.983 101.992H245.983V102.992H246.983V101.992ZM255.016 91.9512V90.9512H254.016V91.9512H255.016ZM257.024 91.9512H258.024V90.9512H257.024V91.9512ZM257.024 104V105H258.024V104H257.024ZM248.991 104H247.991V105H248.991V104ZM248.991 101.992V100.992H247.991V101.992H248.991ZM255.016 101.992V102.992H256.016V101.992H255.016ZM255.016 97.9756H256.016V96.9756H255.016V97.9756ZM248.991 97.9756H247.991V98.9756H248.991V97.9756ZM248.991 95.9675V94.9675H247.991V95.9675H248.991ZM255.016 95.9675V96.9675H256.016V95.9675H255.016ZM248.991 89.9431V88.9431H247.991V89.9431H248.991ZM255.016 89.9431H256.016V88.9431H255.016V89.9431ZM255.016 91.9512V92.9512H256.016V91.9512H255.016ZM248.991 91.9512H247.991V92.9512H248.991V91.9512ZM246.983 92.9512H248.991V90.9512H246.983V92.9512ZM247.991 91.9512V93.9594H249.991V91.9512H247.991ZM248.991 92.9594H246.983V94.9594H248.991V92.9594ZM247.983 93.9594V91.9512H245.983V93.9594H247.983ZM246.983 98.9756H248.991V96.9756H246.983V98.9756ZM247.991 97.9756V101.992H249.991V97.9756H247.991ZM248.991 100.992H246.983V102.992H248.991V100.992ZM247.983 101.992V97.9756H245.983V101.992H247.983ZM255.016 92.9512H257.024V90.9512H255.016V92.9512ZM256.024 91.9512V104H258.024V91.9512H256.024ZM257.024 103H248.991V105H257.024V103ZM249.991 104V101.992H247.991V104H249.991ZM248.991 102.992H255.016V100.992H248.991V102.992ZM256.016 101.992V97.9756H254.016V101.992H256.016ZM255.016 96.9756H248.991V98.9756H255.016V96.9756ZM249.991 97.9756V95.9675H247.991V97.9756H249.991ZM248.991 96.9675H255.016V94.9675H248.991V96.9675ZM256.016 95.9675V91.9512H254.016V95.9675H256.016ZM248.991 90.9431H255.016V88.9431H248.991V90.9431ZM254.016 89.9431V91.9512H256.016V89.9431H254.016ZM255.016 90.9512H248.991V92.9512H255.016V90.9512ZM249.991 91.9512V89.9431H247.991V91.9512H249.991ZM263.048 85.9269V84.9269H262.048V85.9269H263.048ZM269.073 85.9269H270.073V84.9269H269.073V85.9269ZM269.073 101.992H268.073V102.992H269.073V101.992ZM273.089 101.992H274.089V100.992H273.089V101.992ZM273.089 104V105H274.089V104H273.089ZM263.048 104H262.048V105H263.048V104ZM263.048 101.992V100.992H262.048V101.992H263.048ZM267.064 101.992V102.992H268.064V101.992H267.064ZM267.064 87.935H268.064V86.935H267.064V87.935ZM263.048 87.935H262.048V88.935H263.048V87.935ZM263.048 86.9269H269.073V84.9269H263.048V86.9269ZM268.073 85.9269V101.992H270.073V85.9269H268.073ZM269.073 102.992H273.089V100.992H269.073V102.992ZM272.089 101.992V104H274.089V101.992H272.089ZM273.089 103H263.048V105H273.089V103ZM264.048 104V101.992H262.048V104H264.048ZM263.048 102.992H267.064V100.992H263.048V102.992ZM268.064 101.992V87.935H266.064V101.992H268.064ZM267.064 86.935H263.048V88.935H267.064V86.935ZM264.048 87.935V85.9269H262.048V87.935H264.048ZM279.113 85.9269V84.9269H278.113V85.9269H279.113ZM285.138 85.9269H286.138V84.9269H285.138V85.9269ZM285.138 101.992H284.138V102.992H285.138V101.992ZM289.154 101.992H290.154V100.992H289.154V101.992ZM289.154 104V105H290.154V104H289.154ZM279.113 104H278.113V105H279.113V104ZM279.113 101.992V100.992H278.113V101.992H279.113ZM283.129 101.992V102.992H284.129V101.992H283.129ZM283.129 87.935H284.129V86.935H283.129V87.935ZM279.113 87.935H278.113V88.935H279.113V87.935ZM279.113 86.9269H285.138V84.9269H279.113V86.9269ZM284.138 85.9269V101.992H286.138V85.9269H284.138ZM285.138 102.992H289.154V100.992H285.138V102.992ZM288.154 101.992V104H290.154V101.992H288.154ZM289.154 103H279.113V105H289.154V103ZM280.113 104V101.992H278.113V104H280.113ZM279.113 102.992H283.129V100.992H279.113V102.992ZM284.129 101.992V87.935H282.129V101.992H284.129ZM283.129 86.935H279.113V88.935H283.129V86.935ZM280.113 87.935V85.9269H278.113V87.935H280.113ZM297.186 97.9756V96.9756H296.186V97.9756H297.186ZM299.194 97.9756H300.194V96.9756H299.194V97.9756ZM299.194 104V105H300.194V104H299.194ZM297.186 104H296.186V105H297.186V104ZM299.194 91.9512V90.9512H298.194V91.9512H299.194ZM301.203 91.9512H302.203V90.9512H301.203V91.9512ZM301.203 97.9756V98.9756H302.203V97.9756H301.203ZM299.194 97.9756H298.194V98.9756H299.194V97.9756ZM301.203 85.9269V84.9269H300.203V85.9269H301.203ZM303.211 85.9269H304.211V84.9269H303.211V85.9269ZM303.211 91.9512V92.9512H304.211V91.9512H303.211ZM301.203 91.9512H300.203V92.9512H301.203V91.9512ZM297.186 98.9756H299.194V96.9756H297.186V98.9756ZM298.194 97.9756V104H300.194V97.9756H298.194ZM299.194 103H297.186V105H299.194V103ZM298.186 104V97.9756H296.186V104H298.186ZM299.194 92.9512H301.203V90.9512H299.194V92.9512ZM300.203 91.9512V97.9756H302.203V91.9512H300.203ZM301.203 96.9756H299.194V98.9756H301.203V96.9756ZM300.194 97.9756V91.9512H298.194V97.9756H300.194ZM301.203 86.9269H303.211V84.9269H301.203V86.9269ZM302.211 85.9269V91.9512H304.211V85.9269H302.211ZM303.211 90.9512H301.203V92.9512H303.211V90.9512ZM302.203 91.9512V85.9269H300.203V91.9512H302.203ZM319.276 87.935V86.935H318.276V87.935H319.276ZM321.284 87.935H322.284V86.935H321.284V87.935ZM321.284 93.9594V94.9594H322.284V93.9594H321.284ZM319.276 93.9594H318.276V94.9594H319.276V93.9594ZM319.276 95.9675V94.9675H318.276V95.9675H319.276ZM321.284 95.9675H322.284V94.9675H321.284V95.9675ZM321.284 101.992V102.992H322.284V101.992H321.284ZM319.276 101.992H318.276V102.992H319.276V101.992ZM311.243 85.9269V84.9269H310.243V85.9269H311.243ZM319.276 85.9269H320.276V84.9269H319.276V85.9269ZM319.276 87.935V88.935H320.276V87.935H319.276ZM313.251 87.935V86.935H312.251V87.935H313.251ZM313.251 93.9594H312.251V94.9594H313.251V93.9594ZM319.276 93.9594H320.276V92.9594H319.276V93.9594ZM319.276 95.9675V96.9675H320.276V95.9675H319.276ZM313.251 95.9675V94.9675H312.251V95.9675H313.251ZM313.251 101.992H312.251V102.992H313.251V101.992ZM319.276 101.992H320.276V100.992H319.276V101.992ZM319.276 104V105H320.276V104H319.276ZM311.243 104H310.243V105H311.243V104ZM319.276 88.935H321.284V86.935H319.276V88.935ZM320.284 87.935V93.9594H322.284V87.935H320.284ZM321.284 92.9594H319.276V94.9594H321.284V92.9594ZM320.276 93.9594V87.935H318.276V93.9594H320.276ZM319.276 96.9675H321.284V94.9675H319.276V96.9675ZM320.284 95.9675V101.992H322.284V95.9675H320.284ZM321.284 100.992H319.276V102.992H321.284V100.992ZM320.276 101.992V95.9675H318.276V101.992H320.276ZM311.243 86.9269H319.276V84.9269H311.243V86.9269ZM318.276 85.9269V87.935H320.276V85.9269H318.276ZM319.276 86.935H313.251V88.935H319.276V86.935ZM312.251 87.935V93.9594H314.251V87.935H312.251ZM313.251 94.9594H319.276V92.9594H313.251V94.9594ZM318.276 93.9594V95.9675H320.276V93.9594H318.276ZM319.276 94.9675H313.251V96.9675H319.276V94.9675ZM312.251 95.9675V101.992H314.251V95.9675H312.251ZM313.251 102.992H319.276V100.992H313.251V102.992ZM318.276 101.992V104H320.276V101.992H318.276ZM319.276 103H311.243V105H319.276V103ZM312.243 104V85.9269H310.243V104H312.243ZM335.341 87.935V86.935H334.341V87.935H335.341ZM337.349 87.935H338.349V86.935H337.349V87.935ZM337.349 101.992V102.992H338.349V101.992H337.349ZM335.341 101.992H334.341V102.992H335.341V101.992ZM327.308 85.9269V84.9269H326.308V85.9269H327.308ZM335.341 85.9269H336.341V84.9269H335.341V85.9269ZM335.341 87.935V88.935H336.341V87.935H335.341ZM329.316 87.935V86.935H328.316V87.935H329.316ZM329.316 101.992H328.316V102.992H329.316V101.992ZM335.341 101.992H336.341V100.992H335.341V101.992ZM335.341 104V105H336.341V104H335.341ZM327.308 104H326.308V105H327.308V104ZM335.341 88.935H337.349V86.935H335.341V88.935ZM336.349 87.935V101.992H338.349V87.935H336.349ZM337.349 100.992H335.341V102.992H337.349V100.992ZM336.341 101.992V87.935H334.341V101.992H336.341ZM327.308 86.9269H335.341V84.9269H327.308V86.9269ZM334.341 85.9269V87.935H336.341V85.9269H334.341ZM335.341 86.935H329.316V88.935H335.341V86.935ZM328.316 87.935V101.992H330.316V87.935H328.316ZM329.316 102.992H335.341V100.992H329.316V102.992ZM334.341 101.992V104H336.341V101.992H334.341ZM335.341 103H327.308V105H335.341V103ZM328.308 104V85.9269H326.308V104H328.308ZM343.373 85.9269V84.9269H342.373V85.9269H343.373ZM345.381 85.9269H346.381V84.9269H345.381V85.9269ZM345.381 101.992H344.381V102.992H345.381V101.992ZM353.414 101.992H354.414V100.992H353.414V101.992ZM353.414 104V105H354.414V104H353.414ZM343.373 104H342.373V105H343.373V104ZM343.373 86.9269H345.381V84.9269H343.373V86.9269ZM344.381 85.9269V101.992H346.381V85.9269H344.381ZM345.381 102.992H353.414V100.992H345.381V102.992ZM352.414 101.992V104H354.414V101.992H352.414ZM353.414 103H343.373V105H353.414V103ZM344.373 104V85.9269H342.373V104H344.373ZM12.6108 138L11.7431 138.497L12.0312 139H12.6108V138ZM6.53827 127.397H5.53827V127.663L5.67051 127.894L6.53827 127.397ZM6.53827 125.983V124.983H5.53827V125.983H6.53827ZM10.1047 125.662L9.84378 124.697L9.83706 124.699L10.1047 125.662ZM11.9682 124.602L11.2298 123.928L11.2298 123.928L11.9682 124.602ZM12.7715 122.578L13.7665 122.677L13.8765 121.578H12.7715V122.578ZM6.53827 122.578H5.53827V123.578H6.53827V122.578ZM6.53827 120.521V119.521H5.53827V120.521H6.53827ZM12.7394 120.521V121.521H13.9463L13.7219 120.335L12.7394 120.521ZM11.8397 118.593L11.0871 119.252L11.0941 119.26L11.1012 119.268L11.8397 118.593ZM10.0083 117.469L9.70847 118.423L9.71609 118.425L10.0083 117.469ZM6.53827 117.115H5.53827V118.115H6.53827V117.115ZM6.53827 115.059V114.059H5.53827V115.059H6.53827ZM19.8401 115.059H20.8401V114.059H19.8401V115.059ZM19.8401 117.115V118.115H20.8401V117.115H19.8401ZM13.7675 117.115V116.115H10.9868L13.1306 117.886L13.7675 117.115ZM14.9885 118.561L14.1223 119.061L14.1223 119.061L14.9885 118.561ZM15.5989 120.521L14.6054 120.635L14.7067 121.521H15.5989V120.521ZM19.8401 120.521H20.8401V119.521H19.8401V120.521ZM19.8401 122.578V123.578H20.8401V122.578H19.8401ZM15.6632 122.578V121.578H14.7545L14.6678 122.482L15.6632 122.578ZM13.8639 126.24L14.5041 127.009L14.5056 127.007L13.8639 126.24ZM9.75127 127.879L9.61505 126.888L8.10685 127.096L8.89618 128.398L9.75127 127.879ZM15.8881 138V139H17.6639L16.7432 137.482L15.8881 138ZM13.4786 137.503L7.40603 126.9L5.67051 127.894L11.7431 138.497L13.4786 137.503ZM7.53827 127.397V125.983H5.53827V127.397H7.53827ZM6.53827 126.983H7.24513V124.983H6.53827V126.983ZM7.24513 126.983C8.43637 126.983 9.48614 126.872 10.3723 126.626L9.83706 124.699C9.18102 124.881 8.32441 124.983 7.24513 124.983V126.983ZM10.3656 126.627C11.2993 126.375 12.1019 125.938 12.7067 125.276L11.2298 123.928C10.9349 124.25 10.4951 124.521 9.84379 124.697L10.3656 126.627ZM12.7067 125.276C13.339 124.584 13.6657 123.686 13.7665 122.677L11.7765 122.478C11.7059 123.183 11.4971 123.635 11.2298 123.928L12.7067 125.276ZM12.7715 121.578H6.53827V123.578H12.7715V121.578ZM7.53827 122.578V120.521H5.53827V122.578H7.53827ZM6.53827 121.521H12.7394V119.521H6.53827V121.521ZM13.7219 120.335C13.5447 119.399 13.177 118.575 12.5782 117.919L11.1012 119.268C11.4021 119.597 11.6341 120.059 11.7568 120.707L13.7219 120.335ZM12.5923 117.935C11.9991 117.257 11.2173 116.793 10.3005 116.513L9.71609 118.425C10.3416 118.616 10.7807 118.902 11.0871 119.252L12.5923 117.935ZM10.3081 116.515C9.43183 116.24 8.40272 116.115 7.24513 116.115V118.115C8.27238 118.115 9.0854 118.227 9.70848 118.423L10.3081 116.515ZM7.24513 116.115H6.53827V118.115H7.24513V116.115ZM7.53827 117.115V115.059H5.53827V117.115H7.53827ZM6.53827 116.059H19.8401V114.059H6.53827V116.059ZM18.8401 115.059V117.115H20.8401V115.059H18.8401ZM19.8401 116.115H13.7675V118.115H19.8401V116.115ZM13.1306 117.886C13.5307 118.217 13.8602 118.607 14.1223 119.061L15.8546 118.062C15.4741 117.402 14.9896 116.828 14.4044 116.345L13.1306 117.886ZM14.1223 119.061C14.3643 119.481 14.5326 119.998 14.6054 120.635L16.5925 120.408C16.4939 119.545 16.2552 118.756 15.8546 118.062L14.1223 119.061ZM15.5989 121.521H19.8401V119.521H15.5989V121.521ZM18.8401 120.521V122.578H20.8401V120.521H18.8401ZM19.8401 121.578H15.6632V123.578H19.8401V121.578ZM14.6678 122.482C14.5389 123.826 14.0401 124.789 13.2222 125.473L14.5056 127.007C15.7869 125.935 16.4876 124.456 16.6586 122.673L14.6678 122.482ZM13.2237 125.472C12.3758 126.179 11.1965 126.671 9.61505 126.888L9.88749 128.87C11.7332 128.616 13.2957 128.016 14.5041 127.009L13.2237 125.472ZM8.89618 128.398L15.033 138.518L16.7432 137.482L10.6064 127.361L8.89618 128.398ZM15.8881 137H12.6108V139H15.8881V137ZM24.395 123.943V122.943H23.395V123.943H24.395ZM26.4031 123.943H27.4031V122.943H26.4031V123.943ZM26.4031 125.951V126.951H27.4031V125.951H26.4031ZM24.395 125.951H23.395V126.951H24.395V125.951ZM28.4113 119.927V118.927H27.4113V119.927H28.4113ZM30.4194 119.927H31.4194V118.927H30.4194V119.927ZM30.4194 135.992H29.4194V136.992H30.4194V135.992ZM34.4356 135.992H35.4356V134.992H34.4356V135.992ZM34.4356 138V139H35.4356V138H34.4356ZM24.395 138H23.395V139H24.395V138ZM24.395 135.992V134.992H23.395V135.992H24.395ZM28.4113 135.992V136.992H29.4113V135.992H28.4113ZM28.4113 123.943H29.4113V122.943H28.4113V123.943ZM26.4031 123.943H25.4031V124.943H26.4031V123.943ZM26.4031 121.935V120.935H25.4031V121.935H26.4031ZM28.4113 121.935V122.935H29.4113V121.935H28.4113ZM24.395 124.943H26.4031V122.943H24.395V124.943ZM25.4031 123.943V125.951H27.4031V123.943H25.4031ZM26.4031 124.951H24.395V126.951H26.4031V124.951ZM25.395 125.951V123.943H23.395V125.951H25.395ZM28.4113 120.927H30.4194V118.927H28.4113V120.927ZM29.4194 119.927V135.992H31.4194V119.927H29.4194ZM30.4194 136.992H34.4356V134.992H30.4194V136.992ZM33.4356 135.992V138H35.4356V135.992H33.4356ZM34.4356 137H24.395V139H34.4356V137ZM25.395 138V135.992H23.395V138H25.395ZM24.395 136.992H28.4113V134.992H24.395V136.992ZM29.4113 135.992V123.943H27.4113V135.992H29.4113ZM28.4113 122.943H26.4031V124.943H28.4113V122.943ZM27.4031 123.943V121.935H25.4031V123.943H27.4031ZM26.4031 122.935H28.4113V120.935H26.4031V122.935ZM29.4113 121.935V119.927H27.4113V121.935H29.4113ZM40.46 133.984V132.984H39.46V133.984H40.46ZM42.4681 133.984H43.4681V132.984H42.4681V133.984ZM42.4681 135.992V136.992H43.4681V135.992H42.4681ZM40.46 135.992H39.46V136.992H40.46V135.992ZM42.4681 135.992V134.992H41.4681V135.992H42.4681ZM48.4925 135.992H49.4925V134.992H48.4925V135.992ZM48.4925 138V139H49.4925V138H48.4925ZM42.4681 138H41.4681V139H42.4681V138ZM48.4925 127.959V126.959H47.4925V127.959H48.4925ZM50.5006 127.959H51.5006V126.959H50.5006V127.959ZM50.5006 135.992V136.992H51.5006V135.992H50.5006ZM48.4925 135.992H47.4925V136.992H48.4925V135.992ZM40.46 119.927V118.927H39.46V119.927H40.46ZM50.5006 119.927H51.5006V118.927H50.5006V119.927ZM50.5006 121.935V122.935H51.5006V121.935H50.5006ZM42.4681 121.935V120.935H41.4681V121.935H42.4681ZM42.4681 125.951H41.4681V126.951H42.4681V125.951ZM48.4925 125.951H49.4925V124.951H48.4925V125.951ZM48.4925 127.959V128.959H49.4925V127.959H48.4925ZM40.46 127.959H39.46V128.959H40.46V127.959ZM40.46 134.984H42.4681V132.984H40.46V134.984ZM41.4681 133.984V135.992H43.4681V133.984H41.4681ZM42.4681 134.992H40.46V136.992H42.4681V134.992ZM41.46 135.992V133.984H39.46V135.992H41.46ZM42.4681 136.992H48.4925V134.992H42.4681V136.992ZM47.4925 135.992V138H49.4925V135.992H47.4925ZM48.4925 137H42.4681V139H48.4925V137ZM43.4681 138V135.992H41.4681V138H43.4681ZM48.4925 128.959H50.5006V126.959H48.4925V128.959ZM49.5006 127.959V135.992H51.5006V127.959H49.5006ZM50.5006 134.992H48.4925V136.992H50.5006V134.992ZM49.4925 135.992V127.959H47.4925V135.992H49.4925ZM40.46 120.927H50.5006V118.927H40.46V120.927ZM49.5006 119.927V121.935H51.5006V119.927H49.5006ZM50.5006 120.935H42.4681V122.935H50.5006V120.935ZM41.4681 121.935V125.951H43.4681V121.935H41.4681ZM42.4681 126.951H48.4925V124.951H42.4681V126.951ZM47.4925 125.951V127.959H49.4925V125.951H47.4925ZM48.4925 126.959H40.46V128.959H48.4925V126.959ZM41.46 127.959V119.927H39.46V127.959H41.46ZM58.5331 135.992V134.992H57.5331V135.992H58.5331ZM64.5575 135.992H65.5575V134.992H64.5575V135.992ZM64.5575 138V139H65.5575V138H64.5575ZM58.5331 138H57.5331V139H58.5331V138ZM64.5575 121.935V120.935H63.5575V121.935H64.5575ZM66.5656 121.935H67.5656V120.935H66.5656V121.935ZM66.5656 135.992V136.992H67.5656V135.992H66.5656ZM64.5575 135.992H63.5575V136.992H64.5575V135.992ZM64.5575 127.959H65.5575V126.959H64.5575V127.959ZM62.5494 127.959H61.5494V128.959H62.5494V127.959ZM62.5494 125.951V124.951H61.5494V125.951H62.5494ZM64.5575 125.951V126.951H65.5575V125.951H64.5575ZM60.5413 127.959V126.959H59.5413V127.959H60.5413ZM62.5494 127.959H63.5494V126.959H62.5494V127.959ZM62.5494 129.967V130.967H63.5494V129.967H62.5494ZM60.5413 129.967H59.5413V130.967H60.5413V129.967ZM56.525 121.935V120.935H55.525V121.935H56.525ZM58.5331 121.935H59.5331V120.935H58.5331V121.935ZM58.5331 129.967H57.5331V130.967H58.5331V129.967ZM60.5413 129.967H61.5413V128.967H60.5413V129.967ZM60.5413 131.976V132.976H61.5413V131.976H60.5413ZM58.5331 131.976V130.976H57.5331V131.976H58.5331ZM58.5331 135.992V136.992H59.5331V135.992H58.5331ZM56.525 135.992H55.525V136.992H56.525V135.992ZM58.5331 119.927V118.927H57.5331V119.927H58.5331ZM64.5575 119.927H65.5575V118.927H64.5575V119.927ZM64.5575 121.935V122.935H65.5575V121.935H64.5575ZM58.5331 121.935H57.5331V122.935H58.5331V121.935ZM58.5331 136.992H64.5575V134.992H58.5331V136.992ZM63.5575 135.992V138H65.5575V135.992H63.5575ZM64.5575 137H58.5331V139H64.5575V137ZM59.5331 138V135.992H57.5331V138H59.5331ZM64.5575 122.935H66.5656V120.935H64.5575V122.935ZM65.5656 121.935V135.992H67.5656V121.935H65.5656ZM66.5656 134.992H64.5575V136.992H66.5656V134.992ZM65.5575 135.992V127.959H63.5575V135.992H65.5575ZM64.5575 126.959H62.5494V128.959H64.5575V126.959ZM63.5494 127.959V125.951H61.5494V127.959H63.5494ZM62.5494 126.951H64.5575V124.951H62.5494V126.951ZM65.5575 125.951V121.935H63.5575V125.951H65.5575ZM60.5413 128.959H62.5494V126.959H60.5413V128.959ZM61.5494 127.959V129.967H63.5494V127.959H61.5494ZM62.5494 128.967H60.5413V130.967H62.5494V128.967ZM61.5413 129.967V127.959H59.5413V129.967H61.5413ZM56.525 122.935H58.5331V120.935H56.525V122.935ZM57.5331 121.935V129.967H59.5331V121.935H57.5331ZM58.5331 130.967H60.5413V128.967H58.5331V130.967ZM59.5413 129.967V131.976H61.5413V129.967H59.5413ZM60.5413 130.976H58.5331V132.976H60.5413V130.976ZM57.5331 131.976V135.992H59.5331V131.976H57.5331ZM58.5331 134.992H56.525V136.992H58.5331V134.992ZM57.525 135.992V121.935H55.525V135.992H57.525ZM58.5331 120.927H64.5575V118.927H58.5331V120.927ZM63.5575 119.927V121.935H65.5575V119.927H63.5575ZM64.5575 120.935H58.5331V122.935H64.5575V120.935ZM59.5331 121.935V119.927H57.5331V121.935H59.5331ZM74.5981 131.976V130.976H73.5981V131.976H74.5981ZM76.6063 131.976H77.6063V130.976H76.6063V131.976ZM76.6063 138V139H77.6063V138H76.6063ZM74.5981 138H73.5981V139H74.5981V138ZM76.6063 125.951V124.951H75.6063V125.951H76.6063ZM78.6144 125.951H79.6144V124.951H78.6144V125.951ZM78.6144 131.976V132.976H79.6144V131.976H78.6144ZM76.6063 131.976H75.6063V132.976H76.6063V131.976ZM78.6144 119.927V118.927H77.6144V119.927H78.6144ZM80.6225 119.927H81.6225V118.927H80.6225V119.927ZM80.6225 125.951V126.951H81.6225V125.951H80.6225ZM78.6144 125.951H77.6144V126.951H78.6144V125.951ZM74.5981 132.976H76.6063V130.976H74.5981V132.976ZM75.6063 131.976V138H77.6063V131.976H75.6063ZM76.6063 137H74.5981V139H76.6063V137ZM75.5981 138V131.976H73.5981V138H75.5981ZM76.6063 126.951H78.6144V124.951H76.6063V126.951ZM77.6144 125.951V131.976H79.6144V125.951H77.6144ZM78.6144 130.976H76.6063V132.976H78.6144V130.976ZM77.6063 131.976V125.951H75.6063V131.976H77.6063ZM78.6144 120.927H80.6225V118.927H78.6144V120.927ZM79.6225 119.927V125.951H81.6225V119.927H79.6225ZM80.6225 124.951H78.6144V126.951H80.6225V124.951ZM79.6144 125.951V119.927H77.6144V125.951H79.6144ZM90.6631 127.959V126.959H89.6631V127.959H90.6631ZM98.6956 127.959H99.6956V126.959H98.6956V127.959ZM98.6956 129.967V130.967H99.6956V129.967H98.6956ZM90.6631 129.967H89.6631V130.967H90.6631V129.967ZM90.6631 128.959H98.6956V126.959H90.6631V128.959ZM97.6956 127.959V129.967H99.6956V127.959H97.6956ZM98.6956 128.967H90.6631V130.967H98.6956V128.967ZM91.6631 129.967V127.959H89.6631V129.967H91.6631ZM128.818 121.935V120.935H127.818V121.935H128.818ZM130.826 121.935H131.826V120.935H130.826V121.935ZM130.826 127.959V128.959H131.826V127.959H130.826ZM128.818 127.959H127.818V128.959H128.818V127.959ZM120.785 119.927V118.927H119.785V119.927H120.785ZM128.818 119.927H129.818V118.927H128.818V119.927ZM128.818 121.935V122.935H129.818V121.935H128.818ZM122.793 121.935V120.935H121.793V121.935H122.793ZM122.793 127.959H121.793V128.959H122.793V127.959ZM128.818 127.959H129.818V126.959H128.818V127.959ZM128.818 129.967V130.967H129.818V129.967H128.818ZM122.793 129.967V128.967H121.793V129.967H122.793ZM122.793 138V139H123.793V138H122.793ZM120.785 138H119.785V139H120.785V138ZM128.818 122.935H130.826V120.935H128.818V122.935ZM129.826 121.935V127.959H131.826V121.935H129.826ZM130.826 126.959H128.818V128.959H130.826V126.959ZM129.818 127.959V121.935H127.818V127.959H129.818ZM120.785 120.927H128.818V118.927H120.785V120.927ZM127.818 119.927V121.935H129.818V119.927H127.818ZM128.818 120.935H122.793V122.935H128.818V120.935ZM121.793 121.935V127.959H123.793V121.935H121.793ZM122.793 128.959H128.818V126.959H122.793V128.959ZM127.818 127.959V129.967H129.818V127.959H127.818ZM128.818 128.967H122.793V130.967H128.818V128.967ZM121.793 129.967V138H123.793V129.967H121.793ZM122.793 137H120.785V139H122.793V137ZM121.785 138V119.927H119.785V138H121.785ZM144.883 133.984V132.984H143.883V133.984H144.883ZM146.891 133.984H147.891V132.984H146.891V133.984ZM146.891 135.992V136.992H147.891V135.992H146.891ZM144.883 135.992H143.883V136.992H144.883V135.992ZM138.858 135.992V134.992H137.858V135.992H138.858ZM144.883 135.992H145.883V134.992H144.883V135.992ZM144.883 138V139H145.883V138H144.883ZM138.858 138H137.858V139H138.858V138ZM136.85 125.951V124.951H135.85V125.951H136.85ZM138.858 125.951H139.858V124.951H138.858V125.951ZM138.858 129.967H137.858V130.967H138.858V129.967ZM144.883 129.967V130.967H145.883V129.967H144.883ZM144.883 125.951V124.951H143.883V125.951H144.883ZM146.891 125.951H147.891V124.951H146.891V125.951ZM146.891 131.976V132.976H147.891V131.976H146.891ZM138.858 131.976V130.976H137.858V131.976H138.858ZM138.858 135.992V136.992H139.858V135.992H138.858ZM136.85 135.992H135.85V136.992H136.85V135.992ZM138.858 123.943V122.943H137.858V123.943H138.858ZM144.883 123.943H145.883V122.943H144.883V123.943ZM144.883 125.951V126.951H145.883V125.951H144.883ZM138.858 125.951H137.858V126.951H138.858V125.951ZM144.883 134.984H146.891V132.984H144.883V134.984ZM145.891 133.984V135.992H147.891V133.984H145.891ZM146.891 134.992H144.883V136.992H146.891V134.992ZM145.883 135.992V133.984H143.883V135.992H145.883ZM138.858 136.992H144.883V134.992H138.858V136.992ZM143.883 135.992V138H145.883V135.992H143.883ZM144.883 137H138.858V139H144.883V137ZM139.858 138V135.992H137.858V138H139.858ZM136.85 126.951H138.858V124.951H136.85V126.951ZM137.858 125.951V129.967H139.858V125.951H137.858ZM138.858 130.967H144.883V128.967H138.858V130.967ZM145.883 129.967V125.951H143.883V129.967H145.883ZM144.883 126.951H146.891V124.951H144.883V126.951ZM145.891 125.951V131.976H147.891V125.951H145.891ZM146.891 130.976H138.858V132.976H146.891V130.976ZM137.858 131.976V135.992H139.858V131.976H137.858ZM138.858 134.992H136.85V136.992H138.858V134.992ZM137.85 135.992V125.951H135.85V135.992H137.85ZM138.858 124.943H144.883V122.943H138.858V124.943ZM143.883 123.943V125.951H145.883V123.943H143.883ZM144.883 124.951H138.858V126.951H144.883V124.951ZM139.858 125.951V123.943H137.858V125.951H139.858ZM158.939 123.943V122.943H157.939V123.943H158.939ZM162.956 123.943H163.956V122.943H162.956V123.943ZM162.956 125.951V126.951H163.956V125.951H162.956ZM158.939 125.951H157.939V126.951H158.939V125.951ZM156.931 125.951V124.951H155.931V125.951H156.931ZM158.939 125.951H159.939V124.951H158.939V125.951ZM158.939 127.959V128.959H159.939V127.959H158.939ZM156.931 127.959H155.931V128.959H156.931V127.959ZM152.915 123.943V122.943H151.915V123.943H152.915ZM154.923 123.943H155.923V122.943H154.923V123.943ZM154.923 127.959H153.923V128.959H154.923V127.959ZM156.931 127.959H157.931V126.959H156.931V127.959ZM156.931 129.967V130.967H157.931V129.967H156.931ZM154.923 129.967V128.967H153.923V129.967H154.923ZM154.923 138V139H155.923V138H154.923ZM152.915 138H151.915V139H152.915V138ZM158.939 124.943H162.956V122.943H158.939V124.943ZM161.956 123.943V125.951H163.956V123.943H161.956ZM162.956 124.951H158.939V126.951H162.956V124.951ZM159.939 125.951V123.943H157.939V125.951H159.939ZM156.931 126.951H158.939V124.951H156.931V126.951ZM157.939 125.951V127.959H159.939V125.951H157.939ZM158.939 126.959H156.931V128.959H158.939V126.959ZM157.931 127.959V125.951H155.931V127.959H157.931ZM152.915 124.943H154.923V122.943H152.915V124.943ZM153.923 123.943V127.959H155.923V123.943H153.923ZM154.923 128.959H156.931V126.959H154.923V128.959ZM155.931 127.959V129.967H157.931V127.959H155.931ZM156.931 128.967H154.923V130.967H156.931V128.967ZM153.923 129.967V138H155.923V129.967H153.923ZM154.923 137H152.915V139H154.923V137ZM153.915 138V123.943H151.915V138H153.915ZM193.078 121.935V120.935H192.078V121.935H193.078ZM195.086 121.935H196.086V120.935H195.086V121.935ZM195.086 127.959V128.959H196.086V127.959H195.086ZM193.078 127.959H192.078V128.959H193.078V127.959ZM185.045 119.927V118.927H184.045V119.927H185.045ZM193.078 119.927H194.078V118.927H193.078V119.927ZM193.078 121.935V122.935H194.078V121.935H193.078ZM187.053 121.935V120.935H186.053V121.935H187.053ZM187.053 127.959H186.053V128.959H187.053V127.959ZM193.078 127.959H194.078V126.959H193.078V127.959ZM193.078 129.967V130.967H194.078V129.967H193.078ZM187.053 129.967V128.967H186.053V129.967H187.053ZM187.053 138V139H188.053V138H187.053ZM185.045 138H184.045V139H185.045V138ZM193.078 122.935H195.086V120.935H193.078V122.935ZM194.086 121.935V127.959H196.086V121.935H194.086ZM195.086 126.959H193.078V128.959H195.086V126.959ZM194.078 127.959V121.935H192.078V127.959H194.078ZM185.045 120.927H193.078V118.927H185.045V120.927ZM192.078 119.927V121.935H194.078V119.927H192.078ZM193.078 120.935H187.053V122.935H193.078V120.935ZM186.053 121.935V127.959H188.053V121.935H186.053ZM187.053 128.959H193.078V126.959H187.053V128.959ZM192.078 127.959V129.967H194.078V127.959H192.078ZM193.078 128.967H187.053V130.967H193.078V128.967ZM186.053 129.967V138H188.053V129.967H186.053ZM187.053 137H185.045V139H187.053V137ZM186.045 138V119.927H184.045V138H186.045ZM209.143 133.984V132.984H208.143V133.984H209.143ZM211.151 133.984H212.151V132.984H211.151V133.984ZM211.151 135.992V136.992H212.151V135.992H211.151ZM209.143 135.992H208.143V136.992H209.143V135.992ZM203.118 135.992V134.992H202.118V135.992H203.118ZM209.143 135.992H210.143V134.992H209.143V135.992ZM209.143 138V139H210.143V138H209.143ZM203.118 138H202.118V139H203.118V138ZM201.11 125.951V124.951H200.11V125.951H201.11ZM203.118 125.951H204.118V124.951H203.118V125.951ZM203.118 129.967H202.118V130.967H203.118V129.967ZM209.143 129.967V130.967H210.143V129.967H209.143ZM209.143 125.951V124.951H208.143V125.951H209.143ZM211.151 125.951H212.151V124.951H211.151V125.951ZM211.151 131.976V132.976H212.151V131.976H211.151ZM203.118 131.976V130.976H202.118V131.976H203.118ZM203.118 135.992V136.992H204.118V135.992H203.118ZM201.11 135.992H200.11V136.992H201.11V135.992ZM203.118 123.943V122.943H202.118V123.943H203.118ZM209.143 123.943H210.143V122.943H209.143V123.943ZM209.143 125.951V126.951H210.143V125.951H209.143ZM203.118 125.951H202.118V126.951H203.118V125.951ZM209.143 134.984H211.151V132.984H209.143V134.984ZM210.151 133.984V135.992H212.151V133.984H210.151ZM211.151 134.992H209.143V136.992H211.151V134.992ZM210.143 135.992V133.984H208.143V135.992H210.143ZM203.118 136.992H209.143V134.992H203.118V136.992ZM208.143 135.992V138H210.143V135.992H208.143ZM209.143 137H203.118V139H209.143V137ZM204.118 138V135.992H202.118V138H204.118ZM201.11 126.951H203.118V124.951H201.11V126.951ZM202.118 125.951V129.967H204.118V125.951H202.118ZM203.118 130.967H209.143V128.967H203.118V130.967ZM210.143 129.967V125.951H208.143V129.967H210.143ZM209.143 126.951H211.151V124.951H209.143V126.951ZM210.151 125.951V131.976H212.151V125.951H210.151ZM211.151 130.976H203.118V132.976H211.151V130.976ZM202.118 131.976V135.992H204.118V131.976H202.118ZM203.118 134.992H201.11V136.992H203.118V134.992ZM202.11 135.992V125.951H200.11V135.992H202.11ZM203.118 124.943H209.143V122.943H203.118V124.943ZM208.143 123.943V125.951H210.143V123.943H208.143ZM209.143 124.951H203.118V126.951H209.143V124.951ZM204.118 125.951V123.943H202.118V125.951H204.118ZM223.199 123.943V122.943H222.199V123.943H223.199ZM227.216 123.943H228.216V122.943H227.216V123.943ZM227.216 125.951V126.951H228.216V125.951H227.216ZM223.199 125.951H222.199V126.951H223.199V125.951ZM221.191 125.951V124.951H220.191V125.951H221.191ZM223.199 125.951H224.199V124.951H223.199V125.951ZM223.199 127.959V128.959H224.199V127.959H223.199ZM221.191 127.959H220.191V128.959H221.191V127.959ZM217.175 123.943V122.943H216.175V123.943H217.175ZM219.183 123.943H220.183V122.943H219.183V123.943ZM219.183 127.959H218.183V128.959H219.183V127.959ZM221.191 127.959H222.191V126.959H221.191V127.959ZM221.191 129.967V130.967H222.191V129.967H221.191ZM219.183 129.967V128.967H218.183V129.967H219.183ZM219.183 138V139H220.183V138H219.183ZM217.175 138H216.175V139H217.175V138ZM223.199 124.943H227.216V122.943H223.199V124.943ZM226.216 123.943V125.951H228.216V123.943H226.216ZM227.216 124.951H223.199V126.951H227.216V124.951ZM224.199 125.951V123.943H222.199V125.951H224.199ZM221.191 126.951H223.199V124.951H221.191V126.951ZM222.199 125.951V127.959H224.199V125.951H222.199ZM223.199 126.959H221.191V128.959H223.199V126.959ZM222.191 127.959V125.951H220.191V127.959H222.191ZM217.175 124.943H219.183V122.943H217.175V124.943ZM218.183 123.943V127.959H220.183V123.943H218.183ZM219.183 128.959H221.191V126.959H219.183V128.959ZM220.191 127.959V129.967H222.191V127.959H220.191ZM221.191 128.967H219.183V130.967H221.191V128.967ZM218.183 129.967V138H220.183V129.967H218.183ZM219.183 137H217.175V139H219.183V137ZM218.175 138V123.943H216.175V138H218.175ZM233.24 125.951V124.951H232.24V125.951H233.24ZM235.248 125.951H236.248V124.951H235.248V125.951ZM235.248 129.967V130.967H236.248V129.967H235.248ZM233.24 129.967H232.24V130.967H233.24V129.967ZM241.273 131.976V130.976H240.273V131.976H241.273ZM243.281 131.976H244.281V130.976H243.281V131.976ZM243.281 135.992V136.992H244.281V135.992H243.281ZM241.273 135.992H240.273V136.992H241.273V135.992ZM235.248 135.992V134.992H234.248V135.992H235.248ZM241.273 135.992H242.273V134.992H241.273V135.992ZM241.273 138V139H242.273V138H241.273ZM235.248 138H234.248V139H235.248V138ZM233.24 133.984V132.984H232.24V133.984H233.24ZM235.248 133.984H236.248V132.984H235.248V133.984ZM235.248 135.992V136.992H236.248V135.992H235.248ZM233.24 135.992H232.24V136.992H233.24V135.992ZM235.248 129.967V128.967H234.248V129.967H235.248ZM241.273 129.967H242.273V128.967H241.273V129.967ZM241.273 131.976V132.976H242.273V131.976H241.273ZM235.248 131.976H234.248V132.976H235.248V131.976ZM241.273 125.951V124.951H240.273V125.951H241.273ZM243.281 125.951H244.281V124.951H243.281V125.951ZM243.281 127.959V128.959H244.281V127.959H243.281ZM241.273 127.959H240.273V128.959H241.273V127.959ZM235.248 123.943V122.943H234.248V123.943H235.248ZM241.273 123.943H242.273V122.943H241.273V123.943ZM241.273 125.951V126.951H242.273V125.951H241.273ZM235.248 125.951H234.248V126.951H235.248V125.951ZM233.24 126.951H235.248V124.951H233.24V126.951ZM234.248 125.951V129.967H236.248V125.951H234.248ZM235.248 128.967H233.24V130.967H235.248V128.967ZM234.24 129.967V125.951H232.24V129.967H234.24ZM241.273 132.976H243.281V130.976H241.273V132.976ZM242.281 131.976V135.992H244.281V131.976H242.281ZM243.281 134.992H241.273V136.992H243.281V134.992ZM242.273 135.992V131.976H240.273V135.992H242.273ZM235.248 136.992H241.273V134.992H235.248V136.992ZM240.273 135.992V138H242.273V135.992H240.273ZM241.273 137H235.248V139H241.273V137ZM236.248 138V135.992H234.248V138H236.248ZM233.24 134.984H235.248V132.984H233.24V134.984ZM234.248 133.984V135.992H236.248V133.984H234.248ZM235.248 134.992H233.24V136.992H235.248V134.992ZM234.24 135.992V133.984H232.24V135.992H234.24ZM235.248 130.967H241.273V128.967H235.248V130.967ZM240.273 129.967V131.976H242.273V129.967H240.273ZM241.273 130.976H235.248V132.976H241.273V130.976ZM236.248 131.976V129.967H234.248V131.976H236.248ZM241.273 126.951H243.281V124.951H241.273V126.951ZM242.281 125.951V127.959H244.281V125.951H242.281ZM243.281 126.959H241.273V128.959H243.281V126.959ZM242.273 127.959V125.951H240.273V127.959H242.273ZM235.248 124.943H241.273V122.943H235.248V124.943ZM240.273 123.943V125.951H242.273V123.943H240.273ZM241.273 124.951H235.248V126.951H241.273V124.951ZM236.248 125.951V123.943H234.248V125.951H236.248ZM257.338 125.951V124.951H256.338V125.951H257.338ZM259.346 125.951H260.346V124.951H259.346V125.951ZM259.346 135.992V136.992H260.346V135.992H259.346ZM257.338 135.992H256.338V136.992H257.338V135.992ZM251.313 135.992V134.992H250.313V135.992H251.313ZM257.338 135.992H258.338V134.992H257.338V135.992ZM257.338 138V139H258.338V138H257.338ZM251.313 138H250.313V139H251.313V138ZM249.305 125.951V124.951H248.305V125.951H249.305ZM251.313 125.951H252.313V124.951H251.313V125.951ZM251.313 135.992V136.992H252.313V135.992H251.313ZM249.305 135.992H248.305V136.992H249.305V135.992ZM251.313 123.943V122.943H250.313V123.943H251.313ZM257.338 123.943H258.338V122.943H257.338V123.943ZM257.338 125.951V126.951H258.338V125.951H257.338ZM251.313 125.951H250.313V126.951H251.313V125.951ZM257.338 126.951H259.346V124.951H257.338V126.951ZM258.346 125.951V135.992H260.346V125.951H258.346ZM259.346 134.992H257.338V136.992H259.346V134.992ZM258.338 135.992V125.951H256.338V135.992H258.338ZM251.313 136.992H257.338V134.992H251.313V136.992ZM256.338 135.992V138H258.338V135.992H256.338ZM257.338 137H251.313V139H257.338V137ZM252.313 138V135.992H250.313V138H252.313ZM249.305 126.951H251.313V124.951H249.305V126.951ZM250.313 125.951V135.992H252.313V125.951H250.313ZM251.313 134.992H249.305V136.992H251.313V134.992ZM250.305 135.992V125.951H248.305V135.992H250.305ZM251.313 124.943H257.338V122.943H251.313V124.943ZM256.338 123.943V125.951H258.338V123.943H256.338ZM257.338 124.951H251.313V126.951H257.338V124.951ZM252.313 125.951V123.943H250.313V125.951H252.313ZM273.403 125.951V124.951H272.403V125.951H273.403ZM275.411 125.951H276.411V124.951H275.411V125.951ZM275.411 138V139H276.411V138H275.411ZM273.403 138H272.403V139H273.403V138ZM265.37 123.943V122.943H264.37V123.943H265.37ZM273.403 123.943H274.403V122.943H273.403V123.943ZM273.403 125.951V126.951H274.403V125.951H273.403ZM267.378 125.951V124.951H266.378V125.951H267.378ZM267.378 138V139H268.378V138H267.378ZM265.37 138H264.37V139H265.37V138ZM273.403 126.951H275.411V124.951H273.403V126.951ZM274.411 125.951V138H276.411V125.951H274.411ZM275.411 137H273.403V139H275.411V137ZM274.403 138V125.951H272.403V138H274.403ZM265.37 124.943H273.403V122.943H265.37V124.943ZM272.403 123.943V125.951H274.403V123.943H272.403ZM273.403 124.951H267.378V126.951H273.403V124.951ZM266.378 125.951V138H268.378V125.951H266.378ZM267.378 137H265.37V139H267.378V137ZM266.37 138V123.943H264.37V138H266.37Z" fill="black" mask="url(#path-1-outside-1_1_112)"/>
<rect x="87.5" y="0.5" width="278" height="12" stroke="#42CF71"/>
<path d="M0.5 0.5H79.5V12.5H0.5V0.5Z" fill="#42CF71" stroke="#42CF71"/>
</svg>
