<svg width="299" height="146" viewBox="0 0 299 146" fill="none" xmlns="http://www.w3.org/2000/svg">
<mask id="path-1-outside-1_16_2" maskUnits="userSpaceOnUse" x="2.26776" y="32" width="292" height="107" fill="black">
<rect fill="white" x="2.26776" y="32" width="292" height="107"/>
<path d="M7.33839 61.8588H11.409V65.9294H7.33839V61.8588ZM15.4796 33.3644H35.8328V37.435H31.7621V65.9294H27.6915V70H11.409V65.9294H23.6209V37.435H15.4796V33.3644ZM43.974 33.3644H60.2565V37.435H64.3271V70H56.1859V57.7881H48.0446V70H39.9034V37.435H43.974V33.3644ZM56.1859 37.435H48.0446V53.7175H56.1859V37.435ZM72.4684 33.3644H80.6096V41.5056H84.6803V45.5763H88.7509V49.6469H92.8215V33.3644H96.8921V70H92.8215V57.7881H88.7509V53.7175H84.6803V49.6469H80.6096V70H72.4684V33.3644ZM137.598 37.435H141.669V41.5056H137.598V37.435ZM141.669 33.3644H157.952V37.435H162.022V45.5763H157.952V49.6469H153.881V53.7175H149.81V57.7881H145.74V65.9294H162.022V70H137.598V57.7881H141.669V53.7175H145.74V49.6469H149.81V45.5763H153.881V37.435H141.669V33.3644ZM170.163 61.8588H174.234V65.9294H170.163V61.8588ZM170.163 33.3644H194.587V37.435H178.305V45.5763H190.517V49.6469H194.587V65.9294H190.517V70H174.234V65.9294H186.446V49.6469H170.163V33.3644ZM206.799 49.6469H223.081V53.7175H206.799V49.6469ZM235.293 37.435H239.364V41.5056H235.293V37.435ZM239.364 33.3644H255.646V37.435H259.717V45.5763H255.646V49.6469H251.576V53.7175H247.505V57.7881H243.435V65.9294H259.717V70H235.293V57.7881H239.364V53.7175H243.435V49.6469H247.505V45.5763H251.576V37.435H239.364V33.3644ZM288.211 37.435H292.282V41.5056H288.211V37.435ZM271.929 33.3644H288.211V37.435H276V49.6469H288.211V53.7175H292.282V65.9294H288.211V70H271.929V65.9294H267.858V37.435H271.929V33.3644ZM284.141 53.7175H276V65.9294H284.141V53.7175Z"/>
<path d="M7.28401 91.9512H9.29214V97.9756H7.28401V91.9512ZM9.29214 89.9431H13.3084V97.9756H15.3165V99.9837H9.29214V97.9756H11.3003V91.9512H9.29214V89.9431ZM15.3165 87.935H17.3246V97.9756H15.3165V87.935ZM5.27589 101.992H15.3165V104H5.27589V101.992ZM3.26776 87.935H5.27589V101.992H3.26776V87.935ZM5.27589 85.9269H15.3165V87.935H5.27589V85.9269ZM21.3409 87.935H23.349V93.9594H21.3409V87.935ZM29.3734 95.9675H31.3815V101.992H29.3734V95.9675ZM23.349 101.992H29.3734V104H23.349V101.992ZM21.3409 99.9837H23.349V101.992H21.3409V99.9837ZM23.349 93.9594H29.3734V95.9675H23.349V93.9594ZM29.3734 87.935H31.3815V89.9431H29.3734V87.935ZM23.349 85.9269H29.3734V87.935H23.349V85.9269ZM37.4059 87.935H39.414V93.9594H37.4059V87.935ZM45.4384 95.9675H47.4465V101.992H45.4384V95.9675ZM39.414 101.992H45.4384V104H39.414V101.992ZM37.4059 99.9837H39.414V101.992H37.4059V99.9837ZM39.414 93.9594H45.4384V95.9675H39.414V93.9594ZM45.4384 87.935H47.4465V89.9431H45.4384V87.935ZM39.414 85.9269H45.4384V87.935H39.414V85.9269ZM53.4709 85.9269H55.479V101.992H63.5115V104H53.4709V85.9269ZM71.544 97.9756H73.5521V104H71.544V97.9756ZM73.5521 91.9512H75.5603V97.9756H73.5521V91.9512ZM75.5603 85.9269H77.5684V91.9512H75.5603V85.9269ZM93.6334 85.9269H95.6415V104H93.6334V97.9756H91.6253V95.9675H93.6334V85.9269ZM89.6171 93.9594H91.6253V95.9675H89.6171V93.9594ZM85.6009 85.9269H87.609V91.9512H89.6171V93.9594H87.609V104H85.6009V85.9269ZM101.666 87.935H103.674V93.9594H101.666V87.935ZM109.698 95.9675H111.707V101.992H109.698V95.9675ZM103.674 101.992H109.698V104H103.674V101.992ZM101.666 99.9837H103.674V101.992H101.666V99.9837ZM103.674 93.9594H109.698V95.9675H103.674V93.9594ZM109.698 87.935H111.707V89.9431H109.698V87.935ZM103.674 85.9269H109.698V87.935H103.674V85.9269ZM117.731 85.9269H119.739V101.992H127.772V104H117.731V85.9269ZM11.8786 138L5.80603 127.397V125.983H6.51289C7.64815 125.983 8.60134 125.876 9.37246 125.662C10.165 125.448 10.7862 125.094 11.236 124.602C11.6858 124.109 11.9536 123.434 12.0393 122.578H5.80603V120.521H12.0071C11.8572 119.729 11.5573 119.086 11.1075 118.593C10.6577 118.079 10.0472 117.705 9.27607 117.469C8.52637 117.233 7.60531 117.115 6.51289 117.115H5.80603V115.059H19.1079V117.115H13.0353C13.5279 117.522 13.9349 118.004 14.2562 118.561C14.5775 119.118 14.781 119.772 14.8667 120.521H19.1079V122.578H14.931C14.781 124.141 14.1813 125.362 13.1317 126.24C12.1035 127.097 10.7326 127.643 9.01903 127.879L15.1559 138H11.8786ZM23.6628 133.984H25.6709V135.992H23.6628V133.984ZM25.6709 135.992H31.6953V138H25.6709V135.992ZM31.6953 127.959H33.7034V135.992H31.6953V127.959ZM23.6628 119.927H33.7034V121.935H25.6709V125.951H31.6953V127.959H23.6628V119.927ZM41.7359 135.992H47.7603V138H41.7359V135.992ZM47.7603 121.935H49.7684V135.992H47.7603V127.959H45.7522V125.951H47.7603V121.935ZM43.744 127.959H45.7522V129.967H43.744V127.959ZM39.7278 121.935H41.7359V129.967H43.744V131.976H41.7359V135.992H39.7278V121.935ZM41.7359 119.927H47.7603V121.935H41.7359V119.927ZM57.8009 131.976H59.809V138H57.8009V131.976ZM59.809 125.951H61.8172V131.976H59.809V125.951ZM61.8172 119.927H63.8253V125.951H61.8172V119.927ZM73.8659 127.959H81.8984V129.967H73.8659V127.959ZM112.02 121.935H114.028V127.959H112.02V121.935ZM103.988 119.927H112.02V121.935H105.996V127.959H112.02V129.967H105.996V138H103.988V119.927ZM128.085 133.984H130.093V135.992H128.085V133.984ZM122.061 135.992H128.085V138H122.061V135.992ZM120.053 125.951H122.061V129.967H128.085V125.951H130.093V131.976H122.061V135.992H120.053V125.951ZM122.061 123.943H128.085V125.951H122.061V123.943ZM142.142 123.943H146.158V125.951H142.142V123.943ZM140.134 125.951H142.142V127.959H140.134V125.951ZM136.118 123.943H138.126V127.959H140.134V129.967H138.126V138H136.118V123.943ZM176.28 121.935H178.288V127.959H176.28V121.935ZM168.248 119.927H176.28V121.935H170.256V127.959H176.28V129.967H170.256V138H168.248V119.927ZM192.345 133.984H194.353V135.992H192.345V133.984ZM186.321 135.992H192.345V138H186.321V135.992ZM184.313 125.951H186.321V129.967H192.345V125.951H194.353V131.976H186.321V135.992H184.313V125.951ZM186.321 123.943H192.345V125.951H186.321V123.943ZM206.402 123.943H210.418V125.951H206.402V123.943ZM204.394 125.951H206.402V127.959H204.394V125.951ZM200.378 123.943H202.386V127.959H204.394V129.967H202.386V138H200.378V123.943ZM216.443 125.951H218.451V129.967H216.443V125.951ZM224.475 131.976H226.483V135.992H224.475V131.976ZM218.451 135.992H224.475V138H218.451V135.992ZM216.443 133.984H218.451V135.992H216.443V133.984ZM218.451 129.967H224.475V131.976H218.451V129.967ZM224.475 125.951H226.483V127.959H224.475V125.951ZM218.451 123.943H224.475V125.951H218.451V123.943ZM240.54 125.951H242.548V135.992H240.54V125.951ZM234.516 135.992H240.54V138H234.516V135.992ZM232.508 125.951H234.516V135.992H232.508V125.951ZM234.516 123.943H240.54V125.951H234.516V123.943ZM256.605 125.951H258.613V138H256.605V125.951ZM248.573 123.943H256.605V125.951H250.581V138H248.573V123.943Z"/>
</mask>
<path d="M7.33839 61.8588H11.409V65.9294H7.33839V61.8588ZM15.4796 33.3644H35.8328V37.435H31.7621V65.9294H27.6915V70H11.409V65.9294H23.6209V37.435H15.4796V33.3644ZM43.974 33.3644H60.2565V37.435H64.3271V70H56.1859V57.7881H48.0446V70H39.9034V37.435H43.974V33.3644ZM56.1859 37.435H48.0446V53.7175H56.1859V37.435ZM72.4684 33.3644H80.6096V41.5056H84.6803V45.5763H88.7509V49.6469H92.8215V33.3644H96.8921V70H92.8215V57.7881H88.7509V53.7175H84.6803V49.6469H80.6096V70H72.4684V33.3644ZM137.598 37.435H141.669V41.5056H137.598V37.435ZM141.669 33.3644H157.952V37.435H162.022V45.5763H157.952V49.6469H153.881V53.7175H149.81V57.7881H145.74V65.9294H162.022V70H137.598V57.7881H141.669V53.7175H145.74V49.6469H149.81V45.5763H153.881V37.435H141.669V33.3644ZM170.163 61.8588H174.234V65.9294H170.163V61.8588ZM170.163 33.3644H194.587V37.435H178.305V45.5763H190.517V49.6469H194.587V65.9294H190.517V70H174.234V65.9294H186.446V49.6469H170.163V33.3644ZM206.799 49.6469H223.081V53.7175H206.799V49.6469ZM235.293 37.435H239.364V41.5056H235.293V37.435ZM239.364 33.3644H255.646V37.435H259.717V45.5763H255.646V49.6469H251.576V53.7175H247.505V57.7881H243.435V65.9294H259.717V70H235.293V57.7881H239.364V53.7175H243.435V49.6469H247.505V45.5763H251.576V37.435H239.364V33.3644ZM288.211 37.435H292.282V41.5056H288.211V37.435ZM271.929 33.3644H288.211V37.435H276V49.6469H288.211V53.7175H292.282V65.9294H288.211V70H271.929V65.9294H267.858V37.435H271.929V33.3644ZM284.141 53.7175H276V65.9294H284.141V53.7175Z" fill="#D9D9D9"/>
<path d="M7.28401 91.9512H9.29214V97.9756H7.28401V91.9512ZM9.29214 89.9431H13.3084V97.9756H15.3165V99.9837H9.29214V97.9756H11.3003V91.9512H9.29214V89.9431ZM15.3165 87.935H17.3246V97.9756H15.3165V87.935ZM5.27589 101.992H15.3165V104H5.27589V101.992ZM3.26776 87.935H5.27589V101.992H3.26776V87.935ZM5.27589 85.9269H15.3165V87.935H5.27589V85.9269ZM21.3409 87.935H23.349V93.9594H21.3409V87.935ZM29.3734 95.9675H31.3815V101.992H29.3734V95.9675ZM23.349 101.992H29.3734V104H23.349V101.992ZM21.3409 99.9837H23.349V101.992H21.3409V99.9837ZM23.349 93.9594H29.3734V95.9675H23.349V93.9594ZM29.3734 87.935H31.3815V89.9431H29.3734V87.935ZM23.349 85.9269H29.3734V87.935H23.349V85.9269ZM37.4059 87.935H39.414V93.9594H37.4059V87.935ZM45.4384 95.9675H47.4465V101.992H45.4384V95.9675ZM39.414 101.992H45.4384V104H39.414V101.992ZM37.4059 99.9837H39.414V101.992H37.4059V99.9837ZM39.414 93.9594H45.4384V95.9675H39.414V93.9594ZM45.4384 87.935H47.4465V89.9431H45.4384V87.935ZM39.414 85.9269H45.4384V87.935H39.414V85.9269ZM53.4709 85.9269H55.479V101.992H63.5115V104H53.4709V85.9269ZM71.544 97.9756H73.5521V104H71.544V97.9756ZM73.5521 91.9512H75.5603V97.9756H73.5521V91.9512ZM75.5603 85.9269H77.5684V91.9512H75.5603V85.9269ZM93.6334 85.9269H95.6415V104H93.6334V97.9756H91.6253V95.9675H93.6334V85.9269ZM89.6171 93.9594H91.6253V95.9675H89.6171V93.9594ZM85.6009 85.9269H87.609V91.9512H89.6171V93.9594H87.609V104H85.6009V85.9269ZM101.666 87.935H103.674V93.9594H101.666V87.935ZM109.698 95.9675H111.707V101.992H109.698V95.9675ZM103.674 101.992H109.698V104H103.674V101.992ZM101.666 99.9837H103.674V101.992H101.666V99.9837ZM103.674 93.9594H109.698V95.9675H103.674V93.9594ZM109.698 87.935H111.707V89.9431H109.698V87.935ZM103.674 85.9269H109.698V87.935H103.674V85.9269ZM117.731 85.9269H119.739V101.992H127.772V104H117.731V85.9269ZM11.8786 138L5.80603 127.397V125.983H6.51289C7.64815 125.983 8.60134 125.876 9.37246 125.662C10.165 125.448 10.7862 125.094 11.236 124.602C11.6858 124.109 11.9536 123.434 12.0393 122.578H5.80603V120.521H12.0071C11.8572 119.729 11.5573 119.086 11.1075 118.593C10.6577 118.079 10.0472 117.705 9.27607 117.469C8.52637 117.233 7.60531 117.115 6.51289 117.115H5.80603V115.059H19.1079V117.115H13.0353C13.5279 117.522 13.9349 118.004 14.2562 118.561C14.5775 119.118 14.781 119.772 14.8667 120.521H19.1079V122.578H14.931C14.781 124.141 14.1813 125.362 13.1317 126.24C12.1035 127.097 10.7326 127.643 9.01903 127.879L15.1559 138H11.8786ZM23.6628 133.984H25.6709V135.992H23.6628V133.984ZM25.6709 135.992H31.6953V138H25.6709V135.992ZM31.6953 127.959H33.7034V135.992H31.6953V127.959ZM23.6628 119.927H33.7034V121.935H25.6709V125.951H31.6953V127.959H23.6628V119.927ZM41.7359 135.992H47.7603V138H41.7359V135.992ZM47.7603 121.935H49.7684V135.992H47.7603V127.959H45.7522V125.951H47.7603V121.935ZM43.744 127.959H45.7522V129.967H43.744V127.959ZM39.7278 121.935H41.7359V129.967H43.744V131.976H41.7359V135.992H39.7278V121.935ZM41.7359 119.927H47.7603V121.935H41.7359V119.927ZM57.8009 131.976H59.809V138H57.8009V131.976ZM59.809 125.951H61.8172V131.976H59.809V125.951ZM61.8172 119.927H63.8253V125.951H61.8172V119.927ZM73.8659 127.959H81.8984V129.967H73.8659V127.959ZM112.02 121.935H114.028V127.959H112.02V121.935ZM103.988 119.927H112.02V121.935H105.996V127.959H112.02V129.967H105.996V138H103.988V119.927ZM128.085 133.984H130.093V135.992H128.085V133.984ZM122.061 135.992H128.085V138H122.061V135.992ZM120.053 125.951H122.061V129.967H128.085V125.951H130.093V131.976H122.061V135.992H120.053V125.951ZM122.061 123.943H128.085V125.951H122.061V123.943ZM142.142 123.943H146.158V125.951H142.142V123.943ZM140.134 125.951H142.142V127.959H140.134V125.951ZM136.118 123.943H138.126V127.959H140.134V129.967H138.126V138H136.118V123.943ZM176.28 121.935H178.288V127.959H176.28V121.935ZM168.248 119.927H176.28V121.935H170.256V127.959H176.28V129.967H170.256V138H168.248V119.927ZM192.345 133.984H194.353V135.992H192.345V133.984ZM186.321 135.992H192.345V138H186.321V135.992ZM184.313 125.951H186.321V129.967H192.345V125.951H194.353V131.976H186.321V135.992H184.313V125.951ZM186.321 123.943H192.345V125.951H186.321V123.943ZM206.402 123.943H210.418V125.951H206.402V123.943ZM204.394 125.951H206.402V127.959H204.394V125.951ZM200.378 123.943H202.386V127.959H204.394V129.967H202.386V138H200.378V123.943ZM216.443 125.951H218.451V129.967H216.443V125.951ZM224.475 131.976H226.483V135.992H224.475V131.976ZM218.451 135.992H224.475V138H218.451V135.992ZM216.443 133.984H218.451V135.992H216.443V133.984ZM218.451 129.967H224.475V131.976H218.451V129.967ZM224.475 125.951H226.483V127.959H224.475V125.951ZM218.451 123.943H224.475V125.951H218.451V123.943ZM240.54 125.951H242.548V135.992H240.54V125.951ZM234.516 135.992H240.54V138H234.516V135.992ZM232.508 125.951H234.516V135.992H232.508V125.951ZM234.516 123.943H240.54V125.951H234.516V123.943ZM256.605 125.951H258.613V138H256.605V125.951ZM248.573 123.943H256.605V125.951H250.581V138H248.573V123.943Z" fill="white"/>
<path d="M7.33839 61.8588V60.8588H6.33839V61.8588H7.33839ZM11.409 61.8588H12.409V60.8588H11.409V61.8588ZM11.409 65.9294V66.9294H12.409V65.9294H11.409ZM7.33839 65.9294H6.33839V66.9294H7.33839V65.9294ZM15.4796 33.3644V32.3644H14.4796V33.3644H15.4796ZM35.8328 33.3644H36.8328V32.3644H35.8328V33.3644ZM35.8328 37.435V38.435H36.8328V37.435H35.8328ZM31.7621 37.435V36.435H30.7621V37.435H31.7621ZM31.7621 65.9294V66.9294H32.7621V65.9294H31.7621ZM27.6915 65.9294V64.9294H26.6915V65.9294H27.6915ZM27.6915 70V71H28.6915V70H27.6915ZM11.409 70H10.409V71H11.409V70ZM11.409 65.9294V64.9294H10.409V65.9294H11.409ZM23.6209 65.9294V66.9294H24.6209V65.9294H23.6209ZM23.6209 37.435H24.6209V36.435H23.6209V37.435ZM15.4796 37.435H14.4796V38.435H15.4796V37.435ZM7.33839 62.8588H11.409V60.8588H7.33839V62.8588ZM10.409 61.8588V65.9294H12.409V61.8588H10.409ZM11.409 64.9294H7.33839V66.9294H11.409V64.9294ZM8.33839 65.9294V61.8588H6.33839V65.9294H8.33839ZM15.4796 34.3644H35.8328V32.3644H15.4796V34.3644ZM34.8328 33.3644V37.435H36.8328V33.3644H34.8328ZM35.8328 36.435H31.7621V38.435H35.8328V36.435ZM30.7621 37.435V65.9294H32.7621V37.435H30.7621ZM31.7621 64.9294H27.6915V66.9294H31.7621V64.9294ZM26.6915 65.9294V70H28.6915V65.9294H26.6915ZM27.6915 69H11.409V71H27.6915V69ZM12.409 70V65.9294H10.409V70H12.409ZM11.409 66.9294H23.6209V64.9294H11.409V66.9294ZM24.6209 65.9294V37.435H22.6209V65.9294H24.6209ZM23.6209 36.435H15.4796V38.435H23.6209V36.435ZM16.4796 37.435V33.3644H14.4796V37.435H16.4796ZM43.974 33.3644V32.3644H42.974V33.3644H43.974ZM60.2565 33.3644H61.2565V32.3644H60.2565V33.3644ZM60.2565 37.435H59.2565V38.435H60.2565V37.435ZM64.3271 37.435H65.3271V36.435H64.3271V37.435ZM64.3271 70V71H65.3271V70H64.3271ZM56.1859 70H55.1859V71H56.1859V70ZM56.1859 57.7881H57.1859V56.7881H56.1859V57.7881ZM48.0446 57.7881V56.7881H47.0446V57.7881H48.0446ZM48.0446 70V71H49.0446V70H48.0446ZM39.9034 70H38.9034V71H39.9034V70ZM39.9034 37.435V36.435H38.9034V37.435H39.9034ZM43.974 37.435V38.435H44.974V37.435H43.974ZM56.1859 37.435H57.1859V36.435H56.1859V37.435ZM48.0446 37.435V36.435H47.0446V37.435H48.0446ZM48.0446 53.7175H47.0446V54.7175H48.0446V53.7175ZM56.1859 53.7175V54.7175H57.1859V53.7175H56.1859ZM43.974 34.3644H60.2565V32.3644H43.974V34.3644ZM59.2565 33.3644V37.435H61.2565V33.3644H59.2565ZM60.2565 38.435H64.3271V36.435H60.2565V38.435ZM63.3271 37.435V70H65.3271V37.435H63.3271ZM64.3271 69H56.1859V71H64.3271V69ZM57.1859 70V57.7881H55.1859V70H57.1859ZM56.1859 56.7881H48.0446V58.7881H56.1859V56.7881ZM47.0446 57.7881V70H49.0446V57.7881H47.0446ZM48.0446 69H39.9034V71H48.0446V69ZM40.9034 70V37.435H38.9034V70H40.9034ZM39.9034 38.435H43.974V36.435H39.9034V38.435ZM44.974 37.435V33.3644H42.974V37.435H44.974ZM56.1859 36.435H48.0446V38.435H56.1859V36.435ZM47.0446 37.435V53.7175H49.0446V37.435H47.0446ZM48.0446 54.7175H56.1859V52.7175H48.0446V54.7175ZM57.1859 53.7175V37.435H55.1859V53.7175H57.1859ZM72.4684 33.3644V32.3644H71.4684V33.3644H72.4684ZM80.6096 33.3644H81.6096V32.3644H80.6096V33.3644ZM80.6096 41.5056H79.6096V42.5056H80.6096V41.5056ZM84.6803 41.5056H85.6803V40.5056H84.6803V41.5056ZM84.6803 45.5763H83.6803V46.5763H84.6803V45.5763ZM88.7509 45.5763H89.7509V44.5763H88.7509V45.5763ZM88.7509 49.6469H87.7509V50.6469H88.7509V49.6469ZM92.8215 49.6469V50.6469H93.8215V49.6469H92.8215ZM92.8215 33.3644V32.3644H91.8215V33.3644H92.8215ZM96.8921 33.3644H97.8921V32.3644H96.8921V33.3644ZM96.8921 70V71H97.8921V70H96.8921ZM92.8215 70H91.8215V71H92.8215V70ZM92.8215 57.7881H93.8215V56.7881H92.8215V57.7881ZM88.7509 57.7881H87.7509V58.7881H88.7509V57.7881ZM88.7509 53.7175H89.7509V52.7175H88.7509V53.7175ZM84.6803 53.7175H83.6803V54.7175H84.6803V53.7175ZM84.6803 49.6469H85.6803V48.6469H84.6803V49.6469ZM80.6096 49.6469V48.6469H79.6096V49.6469H80.6096ZM80.6096 70V71H81.6096V70H80.6096ZM72.4684 70H71.4684V71H72.4684V70ZM72.4684 34.3644H80.6096V32.3644H72.4684V34.3644ZM79.6096 33.3644V41.5056H81.6096V33.3644H79.6096ZM80.6096 42.5056H84.6803V40.5056H80.6096V42.5056ZM83.6803 41.5056V45.5763H85.6803V41.5056H83.6803ZM84.6803 46.5763H88.7509V44.5763H84.6803V46.5763ZM87.7509 45.5763V49.6469H89.7509V45.5763H87.7509ZM88.7509 50.6469H92.8215V48.6469H88.7509V50.6469ZM93.8215 49.6469V33.3644H91.8215V49.6469H93.8215ZM92.8215 34.3644H96.8921V32.3644H92.8215V34.3644ZM95.8921 33.3644V70H97.8921V33.3644H95.8921ZM96.8921 69H92.8215V71H96.8921V69ZM93.8215 70V57.7881H91.8215V70H93.8215ZM92.8215 56.7881H88.7509V58.7881H92.8215V56.7881ZM89.7509 57.7881V53.7175H87.7509V57.7881H89.7509ZM88.7509 52.7175H84.6803V54.7175H88.7509V52.7175ZM85.6803 53.7175V49.6469H83.6803V53.7175H85.6803ZM84.6803 48.6469H80.6096V50.6469H84.6803V48.6469ZM79.6096 49.6469V70H81.6096V49.6469H79.6096ZM80.6096 69H72.4684V71H80.6096V69ZM73.4684 70V33.3644H71.4684V70H73.4684ZM137.598 37.435V36.435H136.598V37.435H137.598ZM141.669 37.435H142.669V36.435H141.669V37.435ZM141.669 41.5056V42.5056H142.669V41.5056H141.669ZM137.598 41.5056H136.598V42.5056H137.598V41.5056ZM141.669 33.3644V32.3644H140.669V33.3644H141.669ZM157.952 33.3644H158.952V32.3644H157.952V33.3644ZM157.952 37.435H156.952V38.435H157.952V37.435ZM162.022 37.435H163.022V36.435H162.022V37.435ZM162.022 45.5763V46.5763H163.022V45.5763H162.022ZM157.952 45.5763V44.5763H156.952V45.5763H157.952ZM157.952 49.6469V50.6469H158.952V49.6469H157.952ZM153.881 49.6469V48.6469H152.881V49.6469H153.881ZM153.881 53.7175V54.7175H154.881V53.7175H153.881ZM149.81 53.7175V52.7175H148.81V53.7175H149.81ZM149.81 57.7881V58.7881H150.81V57.7881H149.81ZM145.74 57.7881V56.7881H144.74V57.7881H145.74ZM145.74 65.9294H144.74V66.9294H145.74V65.9294ZM162.022 65.9294H163.022V64.9294H162.022V65.9294ZM162.022 70V71H163.022V70H162.022ZM137.598 70H136.598V71H137.598V70ZM137.598 57.7881V56.7881H136.598V57.7881H137.598ZM141.669 57.7881V58.7881H142.669V57.7881H141.669ZM141.669 53.7175V52.7175H140.669V53.7175H141.669ZM145.74 53.7175V54.7175H146.74V53.7175H145.74ZM145.74 49.6469V48.6469H144.74V49.6469H145.74ZM149.81 49.6469V50.6469H150.81V49.6469H149.81ZM149.81 45.5763V44.5763H148.81V45.5763H149.81ZM153.881 45.5763V46.5763H154.881V45.5763H153.881ZM153.881 37.435H154.881V36.435H153.881V37.435ZM141.669 37.435H140.669V38.435H141.669V37.435ZM137.598 38.435H141.669V36.435H137.598V38.435ZM140.669 37.435V41.5056H142.669V37.435H140.669ZM141.669 40.5056H137.598V42.5056H141.669V40.5056ZM138.598 41.5056V37.435H136.598V41.5056H138.598ZM141.669 34.3644H157.952V32.3644H141.669V34.3644ZM156.952 33.3644V37.435H158.952V33.3644H156.952ZM157.952 38.435H162.022V36.435H157.952V38.435ZM161.022 37.435V45.5763H163.022V37.435H161.022ZM162.022 44.5763H157.952V46.5763H162.022V44.5763ZM156.952 45.5763V49.6469H158.952V45.5763H156.952ZM157.952 48.6469H153.881V50.6469H157.952V48.6469ZM152.881 49.6469V53.7175H154.881V49.6469H152.881ZM153.881 52.7175H149.81V54.7175H153.881V52.7175ZM148.81 53.7175V57.7881H150.81V53.7175H148.81ZM149.81 56.7881H145.74V58.7881H149.81V56.7881ZM144.74 57.7881V65.9294H146.74V57.7881H144.74ZM145.74 66.9294H162.022V64.9294H145.74V66.9294ZM161.022 65.9294V70H163.022V65.9294H161.022ZM162.022 69H137.598V71H162.022V69ZM138.598 70V57.7881H136.598V70H138.598ZM137.598 58.7881H141.669V56.7881H137.598V58.7881ZM142.669 57.7881V53.7175H140.669V57.7881H142.669ZM141.669 54.7175H145.74V52.7175H141.669V54.7175ZM146.74 53.7175V49.6469H144.74V53.7175H146.74ZM145.74 50.6469H149.81V48.6469H145.74V50.6469ZM150.81 49.6469V45.5763H148.81V49.6469H150.81ZM149.81 46.5763H153.881V44.5763H149.81V46.5763ZM154.881 45.5763V37.435H152.881V45.5763H154.881ZM153.881 36.435H141.669V38.435H153.881V36.435ZM142.669 37.435V33.3644H140.669V37.435H142.669ZM170.163 61.8588V60.8588H169.163V61.8588H170.163ZM174.234 61.8588H175.234V60.8588H174.234V61.8588ZM174.234 65.9294V66.9294H175.234V65.9294H174.234ZM170.163 65.9294H169.163V66.9294H170.163V65.9294ZM170.163 33.3644V32.3644H169.163V33.3644H170.163ZM194.587 33.3644H195.587V32.3644H194.587V33.3644ZM194.587 37.435V38.435H195.587V37.435H194.587ZM178.305 37.435V36.435H177.305V37.435H178.305ZM178.305 45.5763H177.305V46.5763H178.305V45.5763ZM190.517 45.5763H191.517V44.5763H190.517V45.5763ZM190.517 49.6469H189.517V50.6469H190.517V49.6469ZM194.587 49.6469H195.587V48.6469H194.587V49.6469ZM194.587 65.9294V66.9294H195.587V65.9294H194.587ZM190.517 65.9294V64.9294H189.517V65.9294H190.517ZM190.517 70V71H191.517V70H190.517ZM174.234 70H173.234V71H174.234V70ZM174.234 65.9294V64.9294H173.234V65.9294H174.234ZM186.446 65.9294V66.9294H187.446V65.9294H186.446ZM186.446 49.6469H187.446V48.6469H186.446V49.6469ZM170.163 49.6469H169.163V50.6469H170.163V49.6469ZM170.163 62.8588H174.234V60.8588H170.163V62.8588ZM173.234 61.8588V65.9294H175.234V61.8588H173.234ZM174.234 64.9294H170.163V66.9294H174.234V64.9294ZM171.163 65.9294V61.8588H169.163V65.9294H171.163ZM170.163 34.3644H194.587V32.3644H170.163V34.3644ZM193.587 33.3644V37.435H195.587V33.3644H193.587ZM194.587 36.435H178.305V38.435H194.587V36.435ZM177.305 37.435V45.5763H179.305V37.435H177.305ZM178.305 46.5763H190.517V44.5763H178.305V46.5763ZM189.517 45.5763V49.6469H191.517V45.5763H189.517ZM190.517 50.6469H194.587V48.6469H190.517V50.6469ZM193.587 49.6469V65.9294H195.587V49.6469H193.587ZM194.587 64.9294H190.517V66.9294H194.587V64.9294ZM189.517 65.9294V70H191.517V65.9294H189.517ZM190.517 69H174.234V71H190.517V69ZM175.234 70V65.9294H173.234V70H175.234ZM174.234 66.9294H186.446V64.9294H174.234V66.9294ZM187.446 65.9294V49.6469H185.446V65.9294H187.446ZM186.446 48.6469H170.163V50.6469H186.446V48.6469ZM171.163 49.6469V33.3644H169.163V49.6469H171.163ZM206.799 49.6469V48.6469H205.799V49.6469H206.799ZM223.081 49.6469H224.081V48.6469H223.081V49.6469ZM223.081 53.7175V54.7175H224.081V53.7175H223.081ZM206.799 53.7175H205.799V54.7175H206.799V53.7175ZM206.799 50.6469H223.081V48.6469H206.799V50.6469ZM222.081 49.6469V53.7175H224.081V49.6469H222.081ZM223.081 52.7175H206.799V54.7175H223.081V52.7175ZM207.799 53.7175V49.6469H205.799V53.7175H207.799ZM235.293 37.435V36.435H234.293V37.435H235.293ZM239.364 37.435H240.364V36.435H239.364V37.435ZM239.364 41.5056V42.5056H240.364V41.5056H239.364ZM235.293 41.5056H234.293V42.5056H235.293V41.5056ZM239.364 33.3644V32.3644H238.364V33.3644H239.364ZM255.646 33.3644H256.646V32.3644H255.646V33.3644ZM255.646 37.435H254.646V38.435H255.646V37.435ZM259.717 37.435H260.717V36.435H259.717V37.435ZM259.717 45.5763V46.5763H260.717V45.5763H259.717ZM255.646 45.5763V44.5763H254.646V45.5763H255.646ZM255.646 49.6469V50.6469H256.646V49.6469H255.646ZM251.576 49.6469V48.6469H250.576V49.6469H251.576ZM251.576 53.7175V54.7175H252.576V53.7175H251.576ZM247.505 53.7175V52.7175H246.505V53.7175H247.505ZM247.505 57.7881V58.7881H248.505V57.7881H247.505ZM243.435 57.7881V56.7881H242.435V57.7881H243.435ZM243.435 65.9294H242.435V66.9294H243.435V65.9294ZM259.717 65.9294H260.717V64.9294H259.717V65.9294ZM259.717 70V71H260.717V70H259.717ZM235.293 70H234.293V71H235.293V70ZM235.293 57.7881V56.7881H234.293V57.7881H235.293ZM239.364 57.7881V58.7881H240.364V57.7881H239.364ZM239.364 53.7175V52.7175H238.364V53.7175H239.364ZM243.435 53.7175V54.7175H244.435V53.7175H243.435ZM243.435 49.6469V48.6469H242.435V49.6469H243.435ZM247.505 49.6469V50.6469H248.505V49.6469H247.505ZM247.505 45.5763V44.5763H246.505V45.5763H247.505ZM251.576 45.5763V46.5763H252.576V45.5763H251.576ZM251.576 37.435H252.576V36.435H251.576V37.435ZM239.364 37.435H238.364V38.435H239.364V37.435ZM235.293 38.435H239.364V36.435H235.293V38.435ZM238.364 37.435V41.5056H240.364V37.435H238.364ZM239.364 40.5056H235.293V42.5056H239.364V40.5056ZM236.293 41.5056V37.435H234.293V41.5056H236.293ZM239.364 34.3644H255.646V32.3644H239.364V34.3644ZM254.646 33.3644V37.435H256.646V33.3644H254.646ZM255.646 38.435H259.717V36.435H255.646V38.435ZM258.717 37.435V45.5763H260.717V37.435H258.717ZM259.717 44.5763H255.646V46.5763H259.717V44.5763ZM254.646 45.5763V49.6469H256.646V45.5763H254.646ZM255.646 48.6469H251.576V50.6469H255.646V48.6469ZM250.576 49.6469V53.7175H252.576V49.6469H250.576ZM251.576 52.7175H247.505V54.7175H251.576V52.7175ZM246.505 53.7175V57.7881H248.505V53.7175H246.505ZM247.505 56.7881H243.435V58.7881H247.505V56.7881ZM242.435 57.7881V65.9294H244.435V57.7881H242.435ZM243.435 66.9294H259.717V64.9294H243.435V66.9294ZM258.717 65.9294V70H260.717V65.9294H258.717ZM259.717 69H235.293V71H259.717V69ZM236.293 70V57.7881H234.293V70H236.293ZM235.293 58.7881H239.364V56.7881H235.293V58.7881ZM240.364 57.7881V53.7175H238.364V57.7881H240.364ZM239.364 54.7175H243.435V52.7175H239.364V54.7175ZM244.435 53.7175V49.6469H242.435V53.7175H244.435ZM243.435 50.6469H247.505V48.6469H243.435V50.6469ZM248.505 49.6469V45.5763H246.505V49.6469H248.505ZM247.505 46.5763H251.576V44.5763H247.505V46.5763ZM252.576 45.5763V37.435H250.576V45.5763H252.576ZM251.576 36.435H239.364V38.435H251.576V36.435ZM240.364 37.435V33.3644H238.364V37.435H240.364ZM288.211 37.435V36.435H287.211V37.435H288.211ZM292.282 37.435H293.282V36.435H292.282V37.435ZM292.282 41.5056V42.5056H293.282V41.5056H292.282ZM288.211 41.5056H287.211V42.5056H288.211V41.5056ZM271.929 33.3644V32.3644H270.929V33.3644H271.929ZM288.211 33.3644H289.211V32.3644H288.211V33.3644ZM288.211 37.435V38.435H289.211V37.435H288.211ZM276 37.435V36.435H275V37.435H276ZM276 49.6469H275V50.6469H276V49.6469ZM288.211 49.6469H289.211V48.6469H288.211V49.6469ZM288.211 53.7175H287.211V54.7175H288.211V53.7175ZM292.282 53.7175H293.282V52.7175H292.282V53.7175ZM292.282 65.9294V66.9294H293.282V65.9294H292.282ZM288.211 65.9294V64.9294H287.211V65.9294H288.211ZM288.211 70V71H289.211V70H288.211ZM271.929 70H270.929V71H271.929V70ZM271.929 65.9294H272.929V64.9294H271.929V65.9294ZM267.858 65.9294H266.858V66.9294H267.858V65.9294ZM267.858 37.435V36.435H266.858V37.435H267.858ZM271.929 37.435V38.435H272.929V37.435H271.929ZM284.141 53.7175H285.141V52.7175H284.141V53.7175ZM276 53.7175V52.7175H275V53.7175H276ZM276 65.9294H275V66.9294H276V65.9294ZM284.141 65.9294V66.9294H285.141V65.9294H284.141ZM288.211 38.435H292.282V36.435H288.211V38.435ZM291.282 37.435V41.5056H293.282V37.435H291.282ZM292.282 40.5056H288.211V42.5056H292.282V40.5056ZM289.211 41.5056V37.435H287.211V41.5056H289.211ZM271.929 34.3644H288.211V32.3644H271.929V34.3644ZM287.211 33.3644V37.435H289.211V33.3644H287.211ZM288.211 36.435H276V38.435H288.211V36.435ZM275 37.435V49.6469H277V37.435H275ZM276 50.6469H288.211V48.6469H276V50.6469ZM287.211 49.6469V53.7175H289.211V49.6469H287.211ZM288.211 54.7175H292.282V52.7175H288.211V54.7175ZM291.282 53.7175V65.9294H293.282V53.7175H291.282ZM292.282 64.9294H288.211V66.9294H292.282V64.9294ZM287.211 65.9294V70H289.211V65.9294H287.211ZM288.211 69H271.929V71H288.211V69ZM272.929 70V65.9294H270.929V70H272.929ZM271.929 64.9294H267.858V66.9294H271.929V64.9294ZM268.858 65.9294V37.435H266.858V65.9294H268.858ZM267.858 38.435H271.929V36.435H267.858V38.435ZM272.929 37.435V33.3644H270.929V37.435H272.929ZM284.141 52.7175H276V54.7175H284.141V52.7175ZM275 53.7175V65.9294H277V53.7175H275ZM276 66.9294H284.141V64.9294H276V66.9294ZM285.141 65.9294V53.7175H283.141V65.9294H285.141ZM7.28401 91.9512V90.9512H6.28401V91.9512H7.28401ZM9.29214 91.9512H10.2921V90.9512H9.29214V91.9512ZM9.29214 97.9756V98.9756H10.2921V97.9756H9.29214ZM7.28401 97.9756H6.28401V98.9756H7.28401V97.9756ZM9.29214 89.9431V88.9431H8.29214V89.9431H9.29214ZM13.3084 89.9431H14.3084V88.9431H13.3084V89.9431ZM13.3084 97.9756H12.3084V98.9756H13.3084V97.9756ZM15.3165 97.9756H16.3165V96.9756H15.3165V97.9756ZM15.3165 99.9837V100.984H16.3165V99.9837H15.3165ZM9.29214 99.9837H8.29214V100.984H9.29214V99.9837ZM9.29214 97.9756V96.9756H8.29214V97.9756H9.29214ZM11.3003 97.9756V98.9756H12.3003V97.9756H11.3003ZM11.3003 91.9512H12.3003V90.9512H11.3003V91.9512ZM9.29214 91.9512H8.29214V92.9512H9.29214V91.9512ZM15.3165 87.935V86.935H14.3165V87.935H15.3165ZM17.3246 87.935H18.3246V86.935H17.3246V87.935ZM17.3246 97.9756V98.9756H18.3246V97.9756H17.3246ZM15.3165 97.9756H14.3165V98.9756H15.3165V97.9756ZM5.27589 101.992V100.992H4.27589V101.992H5.27589ZM15.3165 101.992H16.3165V100.992H15.3165V101.992ZM15.3165 104V105H16.3165V104H15.3165ZM5.27589 104H4.27589V105H5.27589V104ZM3.26776 87.935V86.935H2.26776V87.935H3.26776ZM5.27589 87.935H6.27589V86.935H5.27589V87.935ZM5.27589 101.992V102.992H6.27589V101.992H5.27589ZM3.26776 101.992H2.26776V102.992H3.26776V101.992ZM5.27589 85.9269V84.9269H4.27589V85.9269H5.27589ZM15.3165 85.9269H16.3165V84.9269H15.3165V85.9269ZM15.3165 87.935V88.935H16.3165V87.935H15.3165ZM5.27589 87.935H4.27589V88.935H5.27589V87.935ZM7.28401 92.9512H9.29214V90.9512H7.28401V92.9512ZM8.29214 91.9512V97.9756H10.2921V91.9512H8.29214ZM9.29214 96.9756H7.28401V98.9756H9.29214V96.9756ZM8.28401 97.9756V91.9512H6.28401V97.9756H8.28401ZM9.29214 90.9431H13.3084V88.9431H9.29214V90.9431ZM12.3084 89.9431V97.9756H14.3084V89.9431H12.3084ZM13.3084 98.9756H15.3165V96.9756H13.3084V98.9756ZM14.3165 97.9756V99.9837H16.3165V97.9756H14.3165ZM15.3165 98.9837H9.29214V100.984H15.3165V98.9837ZM10.2921 99.9837V97.9756H8.29214V99.9837H10.2921ZM9.29214 98.9756H11.3003V96.9756H9.29214V98.9756ZM12.3003 97.9756V91.9512H10.3003V97.9756H12.3003ZM11.3003 90.9512H9.29214V92.9512H11.3003V90.9512ZM10.2921 91.9512V89.9431H8.29214V91.9512H10.2921ZM15.3165 88.935H17.3246V86.935H15.3165V88.935ZM16.3246 87.935V97.9756H18.3246V87.935H16.3246ZM17.3246 96.9756H15.3165V98.9756H17.3246V96.9756ZM16.3165 97.9756V87.935H14.3165V97.9756H16.3165ZM5.27589 102.992H15.3165V100.992H5.27589V102.992ZM14.3165 101.992V104H16.3165V101.992H14.3165ZM15.3165 103H5.27589V105H15.3165V103ZM6.27589 104V101.992H4.27589V104H6.27589ZM3.26776 88.935H5.27589V86.935H3.26776V88.935ZM4.27589 87.935V101.992H6.27589V87.935H4.27589ZM5.27589 100.992H3.26776V102.992H5.27589V100.992ZM4.26776 101.992V87.935H2.26776V101.992H4.26776ZM5.27589 86.9269H15.3165V84.9269H5.27589V86.9269ZM14.3165 85.9269V87.935H16.3165V85.9269H14.3165ZM15.3165 86.935H5.27589V88.935H15.3165V86.935ZM6.27589 87.935V85.9269H4.27589V87.935H6.27589ZM21.3409 87.935V86.935H20.3409V87.935H21.3409ZM23.349 87.935H24.349V86.935H23.349V87.935ZM23.349 93.9594V94.9594H24.349V93.9594H23.349ZM21.3409 93.9594H20.3409V94.9594H21.3409V93.9594ZM29.3734 95.9675V94.9675H28.3734V95.9675H29.3734ZM31.3815 95.9675H32.3815V94.9675H31.3815V95.9675ZM31.3815 101.992V102.992H32.3815V101.992H31.3815ZM29.3734 101.992H28.3734V102.992H29.3734V101.992ZM23.349 101.992V100.992H22.349V101.992H23.349ZM29.3734 101.992H30.3734V100.992H29.3734V101.992ZM29.3734 104V105H30.3734V104H29.3734ZM23.349 104H22.349V105H23.349V104ZM21.3409 99.9837V98.9837H20.3409V99.9837H21.3409ZM23.349 99.9837H24.349V98.9837H23.349V99.9837ZM23.349 101.992V102.992H24.349V101.992H23.349ZM21.3409 101.992H20.3409V102.992H21.3409V101.992ZM23.349 93.9594V92.9594H22.349V93.9594H23.349ZM29.3734 93.9594H30.3734V92.9594H29.3734V93.9594ZM29.3734 95.9675V96.9675H30.3734V95.9675H29.3734ZM23.349 95.9675H22.349V96.9675H23.349V95.9675ZM29.3734 87.935V86.935H28.3734V87.935H29.3734ZM31.3815 87.935H32.3815V86.935H31.3815V87.935ZM31.3815 89.9431V90.9431H32.3815V89.9431H31.3815ZM29.3734 89.9431H28.3734V90.9431H29.3734V89.9431ZM23.349 85.9269V84.9269H22.349V85.9269H23.349ZM29.3734 85.9269H30.3734V84.9269H29.3734V85.9269ZM29.3734 87.935V88.935H30.3734V87.935H29.3734ZM23.349 87.935H22.349V88.935H23.349V87.935ZM21.3409 88.935H23.349V86.935H21.3409V88.935ZM22.349 87.935V93.9594H24.349V87.935H22.349ZM23.349 92.9594H21.3409V94.9594H23.349V92.9594ZM22.3409 93.9594V87.935H20.3409V93.9594H22.3409ZM29.3734 96.9675H31.3815V94.9675H29.3734V96.9675ZM30.3815 95.9675V101.992H32.3815V95.9675H30.3815ZM31.3815 100.992H29.3734V102.992H31.3815V100.992ZM30.3734 101.992V95.9675H28.3734V101.992H30.3734ZM23.349 102.992H29.3734V100.992H23.349V102.992ZM28.3734 101.992V104H30.3734V101.992H28.3734ZM29.3734 103H23.349V105H29.3734V103ZM24.349 104V101.992H22.349V104H24.349ZM21.3409 100.984H23.349V98.9837H21.3409V100.984ZM22.349 99.9837V101.992H24.349V99.9837H22.349ZM23.349 100.992H21.3409V102.992H23.349V100.992ZM22.3409 101.992V99.9837H20.3409V101.992H22.3409ZM23.349 94.9594H29.3734V92.9594H23.349V94.9594ZM28.3734 93.9594V95.9675H30.3734V93.9594H28.3734ZM29.3734 94.9675H23.349V96.9675H29.3734V94.9675ZM24.349 95.9675V93.9594H22.349V95.9675H24.349ZM29.3734 88.935H31.3815V86.935H29.3734V88.935ZM30.3815 87.935V89.9431H32.3815V87.935H30.3815ZM31.3815 88.9431H29.3734V90.9431H31.3815V88.9431ZM30.3734 89.9431V87.935H28.3734V89.9431H30.3734ZM23.349 86.9269H29.3734V84.9269H23.349V86.9269ZM28.3734 85.9269V87.935H30.3734V85.9269H28.3734ZM29.3734 86.935H23.349V88.935H29.3734V86.935ZM24.349 87.935V85.9269H22.349V87.935H24.349ZM37.4059 87.935V86.935H36.4059V87.935H37.4059ZM39.414 87.935H40.414V86.935H39.414V87.935ZM39.414 93.9594V94.9594H40.414V93.9594H39.414ZM37.4059 93.9594H36.4059V94.9594H37.4059V93.9594ZM45.4384 95.9675V94.9675H44.4384V95.9675H45.4384ZM47.4465 95.9675H48.4465V94.9675H47.4465V95.9675ZM47.4465 101.992V102.992H48.4465V101.992H47.4465ZM45.4384 101.992H44.4384V102.992H45.4384V101.992ZM39.414 101.992V100.992H38.414V101.992H39.414ZM45.4384 101.992H46.4384V100.992H45.4384V101.992ZM45.4384 104V105H46.4384V104H45.4384ZM39.414 104H38.414V105H39.414V104ZM37.4059 99.9837V98.9837H36.4059V99.9837H37.4059ZM39.414 99.9837H40.414V98.9837H39.414V99.9837ZM39.414 101.992V102.992H40.414V101.992H39.414ZM37.4059 101.992H36.4059V102.992H37.4059V101.992ZM39.414 93.9594V92.9594H38.414V93.9594H39.414ZM45.4384 93.9594H46.4384V92.9594H45.4384V93.9594ZM45.4384 95.9675V96.9675H46.4384V95.9675H45.4384ZM39.414 95.9675H38.414V96.9675H39.414V95.9675ZM45.4384 87.935V86.935H44.4384V87.935H45.4384ZM47.4465 87.935H48.4465V86.935H47.4465V87.935ZM47.4465 89.9431V90.9431H48.4465V89.9431H47.4465ZM45.4384 89.9431H44.4384V90.9431H45.4384V89.9431ZM39.414 85.9269V84.9269H38.414V85.9269H39.414ZM45.4384 85.9269H46.4384V84.9269H45.4384V85.9269ZM45.4384 87.935V88.935H46.4384V87.935H45.4384ZM39.414 87.935H38.414V88.935H39.414V87.935ZM37.4059 88.935H39.414V86.935H37.4059V88.935ZM38.414 87.935V93.9594H40.414V87.935H38.414ZM39.414 92.9594H37.4059V94.9594H39.414V92.9594ZM38.4059 93.9594V87.935H36.4059V93.9594H38.4059ZM45.4384 96.9675H47.4465V94.9675H45.4384V96.9675ZM46.4465 95.9675V101.992H48.4465V95.9675H46.4465ZM47.4465 100.992H45.4384V102.992H47.4465V100.992ZM46.4384 101.992V95.9675H44.4384V101.992H46.4384ZM39.414 102.992H45.4384V100.992H39.414V102.992ZM44.4384 101.992V104H46.4384V101.992H44.4384ZM45.4384 103H39.414V105H45.4384V103ZM40.414 104V101.992H38.414V104H40.414ZM37.4059 100.984H39.414V98.9837H37.4059V100.984ZM38.414 99.9837V101.992H40.414V99.9837H38.414ZM39.414 100.992H37.4059V102.992H39.414V100.992ZM38.4059 101.992V99.9837H36.4059V101.992H38.4059ZM39.414 94.9594H45.4384V92.9594H39.414V94.9594ZM44.4384 93.9594V95.9675H46.4384V93.9594H44.4384ZM45.4384 94.9675H39.414V96.9675H45.4384V94.9675ZM40.414 95.9675V93.9594H38.414V95.9675H40.414ZM45.4384 88.935H47.4465V86.935H45.4384V88.935ZM46.4465 87.935V89.9431H48.4465V87.935H46.4465ZM47.4465 88.9431H45.4384V90.9431H47.4465V88.9431ZM46.4384 89.9431V87.935H44.4384V89.9431H46.4384ZM39.414 86.9269H45.4384V84.9269H39.414V86.9269ZM44.4384 85.9269V87.935H46.4384V85.9269H44.4384ZM45.4384 86.935H39.414V88.935H45.4384V86.935ZM40.414 87.935V85.9269H38.414V87.935H40.414ZM53.4709 85.9269V84.9269H52.4709V85.9269H53.4709ZM55.479 85.9269H56.479V84.9269H55.479V85.9269ZM55.479 101.992H54.479V102.992H55.479V101.992ZM63.5115 101.992H64.5115V100.992H63.5115V101.992ZM63.5115 104V105H64.5115V104H63.5115ZM53.4709 104H52.4709V105H53.4709V104ZM53.4709 86.9269H55.479V84.9269H53.4709V86.9269ZM54.479 85.9269V101.992H56.479V85.9269H54.479ZM55.479 102.992H63.5115V100.992H55.479V102.992ZM62.5115 101.992V104H64.5115V101.992H62.5115ZM63.5115 103H53.4709V105H63.5115V103ZM54.4709 104V85.9269H52.4709V104H54.4709ZM71.544 97.9756V96.9756H70.544V97.9756H71.544ZM73.5521 97.9756H74.5521V96.9756H73.5521V97.9756ZM73.5521 104V105H74.5521V104H73.5521ZM71.544 104H70.544V105H71.544V104ZM73.5521 91.9512V90.9512H72.5521V91.9512H73.5521ZM75.5603 91.9512H76.5603V90.9512H75.5603V91.9512ZM75.5603 97.9756V98.9756H76.5603V97.9756H75.5603ZM73.5521 97.9756H72.5521V98.9756H73.5521V97.9756ZM75.5603 85.9269V84.9269H74.5603V85.9269H75.5603ZM77.5684 85.9269H78.5684V84.9269H77.5684V85.9269ZM77.5684 91.9512V92.9512H78.5684V91.9512H77.5684ZM75.5603 91.9512H74.5603V92.9512H75.5603V91.9512ZM71.544 98.9756H73.5521V96.9756H71.544V98.9756ZM72.5521 97.9756V104H74.5521V97.9756H72.5521ZM73.5521 103H71.544V105H73.5521V103ZM72.544 104V97.9756H70.544V104H72.544ZM73.5521 92.9512H75.5603V90.9512H73.5521V92.9512ZM74.5603 91.9512V97.9756H76.5603V91.9512H74.5603ZM75.5603 96.9756H73.5521V98.9756H75.5603V96.9756ZM74.5521 97.9756V91.9512H72.5521V97.9756H74.5521ZM75.5603 86.9269H77.5684V84.9269H75.5603V86.9269ZM76.5684 85.9269V91.9512H78.5684V85.9269H76.5684ZM77.5684 90.9512H75.5603V92.9512H77.5684V90.9512ZM76.5603 91.9512V85.9269H74.5603V91.9512H76.5603ZM93.6334 85.9269V84.9269H92.6334V85.9269H93.6334ZM95.6415 85.9269H96.6415V84.9269H95.6415V85.9269ZM95.6415 104V105H96.6415V104H95.6415ZM93.6334 104H92.6334V105H93.6334V104ZM93.6334 97.9756H94.6334V96.9756H93.6334V97.9756ZM91.6253 97.9756H90.6253V98.9756H91.6253V97.9756ZM91.6253 95.9675V94.9675H90.6253V95.9675H91.6253ZM93.6334 95.9675V96.9675H94.6334V95.9675H93.6334ZM89.6171 93.9594V92.9594H88.6171V93.9594H89.6171ZM91.6253 93.9594H92.6253V92.9594H91.6253V93.9594ZM91.6253 95.9675V96.9675H92.6253V95.9675H91.6253ZM89.6171 95.9675H88.6171V96.9675H89.6171V95.9675ZM85.6009 85.9269V84.9269H84.6009V85.9269H85.6009ZM87.609 85.9269H88.609V84.9269H87.609V85.9269ZM87.609 91.9512H86.609V92.9512H87.609V91.9512ZM89.6171 91.9512H90.6171V90.9512H89.6171V91.9512ZM89.6171 93.9594V94.9594H90.6171V93.9594H89.6171ZM87.609 93.9594V92.9594H86.609V93.9594H87.609ZM87.609 104V105H88.609V104H87.609ZM85.6009 104H84.6009V105H85.6009V104ZM93.6334 86.9269H95.6415V84.9269H93.6334V86.9269ZM94.6415 85.9269V104H96.6415V85.9269H94.6415ZM95.6415 103H93.6334V105H95.6415V103ZM94.6334 104V97.9756H92.6334V104H94.6334ZM93.6334 96.9756H91.6253V98.9756H93.6334V96.9756ZM92.6253 97.9756V95.9675H90.6253V97.9756H92.6253ZM91.6253 96.9675H93.6334V94.9675H91.6253V96.9675ZM94.6334 95.9675V85.9269H92.6334V95.9675H94.6334ZM89.6171 94.9594H91.6253V92.9594H89.6171V94.9594ZM90.6253 93.9594V95.9675H92.6253V93.9594H90.6253ZM91.6253 94.9675H89.6171V96.9675H91.6253V94.9675ZM90.6171 95.9675V93.9594H88.6171V95.9675H90.6171ZM85.6009 86.9269H87.609V84.9269H85.6009V86.9269ZM86.609 85.9269V91.9512H88.609V85.9269H86.609ZM87.609 92.9512H89.6171V90.9512H87.609V92.9512ZM88.6171 91.9512V93.9594H90.6171V91.9512H88.6171ZM89.6171 92.9594H87.609V94.9594H89.6171V92.9594ZM86.609 93.9594V104H88.609V93.9594H86.609ZM87.609 103H85.6009V105H87.609V103ZM86.6009 104V85.9269H84.6009V104H86.6009ZM101.666 87.935V86.935H100.666V87.935H101.666ZM103.674 87.935H104.674V86.935H103.674V87.935ZM103.674 93.9594V94.9594H104.674V93.9594H103.674ZM101.666 93.9594H100.666V94.9594H101.666V93.9594ZM109.698 95.9675V94.9675H108.698V95.9675H109.698ZM111.707 95.9675H112.707V94.9675H111.707V95.9675ZM111.707 101.992V102.992H112.707V101.992H111.707ZM109.698 101.992H108.698V102.992H109.698V101.992ZM103.674 101.992V100.992H102.674V101.992H103.674ZM109.698 101.992H110.698V100.992H109.698V101.992ZM109.698 104V105H110.698V104H109.698ZM103.674 104H102.674V105H103.674V104ZM101.666 99.9837V98.9837H100.666V99.9837H101.666ZM103.674 99.9837H104.674V98.9837H103.674V99.9837ZM103.674 101.992V102.992H104.674V101.992H103.674ZM101.666 101.992H100.666V102.992H101.666V101.992ZM103.674 93.9594V92.9594H102.674V93.9594H103.674ZM109.698 93.9594H110.698V92.9594H109.698V93.9594ZM109.698 95.9675V96.9675H110.698V95.9675H109.698ZM103.674 95.9675H102.674V96.9675H103.674V95.9675ZM109.698 87.935V86.935H108.698V87.935H109.698ZM111.707 87.935H112.707V86.935H111.707V87.935ZM111.707 89.9431V90.9431H112.707V89.9431H111.707ZM109.698 89.9431H108.698V90.9431H109.698V89.9431ZM103.674 85.9269V84.9269H102.674V85.9269H103.674ZM109.698 85.9269H110.698V84.9269H109.698V85.9269ZM109.698 87.935V88.935H110.698V87.935H109.698ZM103.674 87.935H102.674V88.935H103.674V87.935ZM101.666 88.935H103.674V86.935H101.666V88.935ZM102.674 87.935V93.9594H104.674V87.935H102.674ZM103.674 92.9594H101.666V94.9594H103.674V92.9594ZM102.666 93.9594V87.935H100.666V93.9594H102.666ZM109.698 96.9675H111.707V94.9675H109.698V96.9675ZM110.707 95.9675V101.992H112.707V95.9675H110.707ZM111.707 100.992H109.698V102.992H111.707V100.992ZM110.698 101.992V95.9675H108.698V101.992H110.698ZM103.674 102.992H109.698V100.992H103.674V102.992ZM108.698 101.992V104H110.698V101.992H108.698ZM109.698 103H103.674V105H109.698V103ZM104.674 104V101.992H102.674V104H104.674ZM101.666 100.984H103.674V98.9837H101.666V100.984ZM102.674 99.9837V101.992H104.674V99.9837H102.674ZM103.674 100.992H101.666V102.992H103.674V100.992ZM102.666 101.992V99.9837H100.666V101.992H102.666ZM103.674 94.9594H109.698V92.9594H103.674V94.9594ZM108.698 93.9594V95.9675H110.698V93.9594H108.698ZM109.698 94.9675H103.674V96.9675H109.698V94.9675ZM104.674 95.9675V93.9594H102.674V95.9675H104.674ZM109.698 88.935H111.707V86.935H109.698V88.935ZM110.707 87.935V89.9431H112.707V87.935H110.707ZM111.707 88.9431H109.698V90.9431H111.707V88.9431ZM110.698 89.9431V87.935H108.698V89.9431H110.698ZM103.674 86.9269H109.698V84.9269H103.674V86.9269ZM108.698 85.9269V87.935H110.698V85.9269H108.698ZM109.698 86.935H103.674V88.935H109.698V86.935ZM104.674 87.935V85.9269H102.674V87.935H104.674ZM117.731 85.9269V84.9269H116.731V85.9269H117.731ZM119.739 85.9269H120.739V84.9269H119.739V85.9269ZM119.739 101.992H118.739V102.992H119.739V101.992ZM127.772 101.992H128.772V100.992H127.772V101.992ZM127.772 104V105H128.772V104H127.772ZM117.731 104H116.731V105H117.731V104ZM117.731 86.9269H119.739V84.9269H117.731V86.9269ZM118.739 85.9269V101.992H120.739V85.9269H118.739ZM119.739 102.992H127.772V100.992H119.739V102.992ZM126.772 101.992V104H128.772V101.992H126.772ZM127.772 103H117.731V105H127.772V103ZM118.731 104V85.9269H116.731V104H118.731ZM11.8786 138L11.0108 138.497L11.2989 139H11.8786V138ZM5.80603 127.397H4.80603V127.663L4.93827 127.894L5.80603 127.397ZM5.80603 125.983V124.983H4.80603V125.983H5.80603ZM9.37246 125.662L9.11155 124.697L9.10482 124.699L9.37246 125.662ZM11.236 124.602L10.4975 123.928L10.4975 123.928L11.236 124.602ZM12.0393 122.578L13.0343 122.677L13.1442 121.578H12.0393V122.578ZM5.80603 122.578H4.80603V123.578H5.80603V122.578ZM5.80603 120.521V119.521H4.80603V120.521H5.80603ZM12.0071 120.521V121.521H13.2141L12.9897 120.335L12.0071 120.521ZM11.1075 118.593L10.3549 119.252L10.3619 119.26L10.369 119.268L11.1075 118.593ZM9.27607 117.469L8.97624 118.423L8.98385 118.425L9.27607 117.469ZM5.80603 117.115H4.80603V118.115H5.80603V117.115ZM5.80603 115.059V114.059H4.80603V115.059H5.80603ZM19.1079 115.059H20.1079V114.059H19.1079V115.059ZM19.1079 117.115V118.115H20.1079V117.115H19.1079ZM13.0353 117.115V116.115H10.2546L12.3984 117.886L13.0353 117.115ZM14.2562 118.561L13.39 119.061L13.39 119.061L14.2562 118.561ZM14.8667 120.521L13.8732 120.635L13.9745 121.521H14.8667V120.521ZM19.1079 120.521H20.1079V119.521H19.1079V120.521ZM19.1079 122.578V123.578H20.1079V122.578H19.1079ZM14.931 122.578V121.578H14.0223L13.9355 122.482L14.931 122.578ZM13.1317 126.24L13.7719 127.009L13.7734 127.007L13.1317 126.24ZM9.01903 127.879L8.88281 126.888L7.37461 127.096L8.16394 128.398L9.01903 127.879ZM15.1559 138V139H16.9317L16.011 137.482L15.1559 138ZM12.7464 137.503L6.67379 126.9L4.93827 127.894L11.0108 138.497L12.7464 137.503ZM6.80603 127.397V125.983H4.80603V127.397H6.80603ZM5.80603 126.983H6.51289V124.983H5.80603V126.983ZM6.51289 126.983C7.70413 126.983 8.7539 126.872 9.64011 126.626L9.10482 124.699C8.44878 124.881 7.59217 124.983 6.51289 124.983V126.983ZM9.63337 126.627C10.5671 126.375 11.3697 125.938 11.9745 125.276L10.4975 123.928C10.2027 124.25 9.76289 124.521 9.11155 124.697L9.63337 126.627ZM11.9745 125.276C12.6068 124.584 12.9334 123.686 13.0343 122.677L11.0442 122.478C10.9737 123.183 10.7649 123.635 10.4975 123.928L11.9745 125.276ZM12.0393 121.578H5.80603V123.578H12.0393V121.578ZM6.80603 122.578V120.521H4.80603V122.578H6.80603ZM5.80603 121.521H12.0071V119.521H5.80603V121.521ZM12.9897 120.335C12.8125 119.399 12.4448 118.575 11.846 117.919L10.369 119.268C10.6698 119.597 10.9019 120.059 11.0246 120.707L12.9897 120.335ZM11.8601 117.935C11.2669 117.257 10.4851 116.793 9.56829 116.513L8.98385 118.425C9.60932 118.616 10.0484 118.902 10.3549 119.252L11.8601 117.935ZM9.5759 116.515C8.69959 116.24 7.67048 116.115 6.51289 116.115V118.115C7.54014 118.115 8.35316 118.227 8.97625 118.423L9.5759 116.515ZM6.51289 116.115H5.80603V118.115H6.51289V116.115ZM6.80603 117.115V115.059H4.80603V117.115H6.80603ZM5.80603 116.059H19.1079V114.059H5.80603V116.059ZM18.1079 115.059V117.115H20.1079V115.059H18.1079ZM19.1079 116.115H13.0353V118.115H19.1079V116.115ZM12.3984 117.886C12.7985 118.217 13.128 118.607 13.39 119.061L15.1224 118.062C14.7418 117.402 14.2574 116.828 13.6722 116.345L12.3984 117.886ZM13.39 119.061C13.6321 119.481 13.8004 119.998 13.8732 120.635L15.8602 120.408C15.7617 119.545 15.523 118.756 15.1224 118.062L13.39 119.061ZM14.8667 121.521H19.1079V119.521H14.8667V121.521ZM18.1079 120.521V122.578H20.1079V120.521H18.1079ZM19.1079 121.578H14.931V123.578H19.1079V121.578ZM13.9355 122.482C13.8066 123.826 13.3079 124.789 12.4899 125.473L13.7734 127.007C15.0546 125.935 15.7554 124.456 15.9264 122.673L13.9355 122.482ZM12.4915 125.472C11.6436 126.179 10.4643 126.671 8.88281 126.888L9.15525 128.87C11.001 128.616 12.5634 128.016 13.7719 127.009L12.4915 125.472ZM8.16394 128.398L14.3008 138.518L16.011 137.482L9.87412 127.361L8.16394 128.398ZM15.1559 137H11.8786V139H15.1559V137ZM23.6628 133.984V132.984H22.6628V133.984H23.6628ZM25.6709 133.984H26.6709V132.984H25.6709V133.984ZM25.6709 135.992V136.992H26.6709V135.992H25.6709ZM23.6628 135.992H22.6628V136.992H23.6628V135.992ZM25.6709 135.992V134.992H24.6709V135.992H25.6709ZM31.6953 135.992H32.6953V134.992H31.6953V135.992ZM31.6953 138V139H32.6953V138H31.6953ZM25.6709 138H24.6709V139H25.6709V138ZM31.6953 127.959V126.959H30.6953V127.959H31.6953ZM33.7034 127.959H34.7034V126.959H33.7034V127.959ZM33.7034 135.992V136.992H34.7034V135.992H33.7034ZM31.6953 135.992H30.6953V136.992H31.6953V135.992ZM23.6628 119.927V118.927H22.6628V119.927H23.6628ZM33.7034 119.927H34.7034V118.927H33.7034V119.927ZM33.7034 121.935V122.935H34.7034V121.935H33.7034ZM25.6709 121.935V120.935H24.6709V121.935H25.6709ZM25.6709 125.951H24.6709V126.951H25.6709V125.951ZM31.6953 125.951H32.6953V124.951H31.6953V125.951ZM31.6953 127.959V128.959H32.6953V127.959H31.6953ZM23.6628 127.959H22.6628V128.959H23.6628V127.959ZM23.6628 134.984H25.6709V132.984H23.6628V134.984ZM24.6709 133.984V135.992H26.6709V133.984H24.6709ZM25.6709 134.992H23.6628V136.992H25.6709V134.992ZM24.6628 135.992V133.984H22.6628V135.992H24.6628ZM25.6709 136.992H31.6953V134.992H25.6709V136.992ZM30.6953 135.992V138H32.6953V135.992H30.6953ZM31.6953 137H25.6709V139H31.6953V137ZM26.6709 138V135.992H24.6709V138H26.6709ZM31.6953 128.959H33.7034V126.959H31.6953V128.959ZM32.7034 127.959V135.992H34.7034V127.959H32.7034ZM33.7034 134.992H31.6953V136.992H33.7034V134.992ZM32.6953 135.992V127.959H30.6953V135.992H32.6953ZM23.6628 120.927H33.7034V118.927H23.6628V120.927ZM32.7034 119.927V121.935H34.7034V119.927H32.7034ZM33.7034 120.935H25.6709V122.935H33.7034V120.935ZM24.6709 121.935V125.951H26.6709V121.935H24.6709ZM25.6709 126.951H31.6953V124.951H25.6709V126.951ZM30.6953 125.951V127.959H32.6953V125.951H30.6953ZM31.6953 126.959H23.6628V128.959H31.6953V126.959ZM24.6628 127.959V119.927H22.6628V127.959H24.6628ZM41.7359 135.992V134.992H40.7359V135.992H41.7359ZM47.7603 135.992H48.7603V134.992H47.7603V135.992ZM47.7603 138V139H48.7603V138H47.7603ZM41.7359 138H40.7359V139H41.7359V138ZM47.7603 121.935V120.935H46.7603V121.935H47.7603ZM49.7684 121.935H50.7684V120.935H49.7684V121.935ZM49.7684 135.992V136.992H50.7684V135.992H49.7684ZM47.7603 135.992H46.7603V136.992H47.7603V135.992ZM47.7603 127.959H48.7603V126.959H47.7603V127.959ZM45.7522 127.959H44.7522V128.959H45.7522V127.959ZM45.7522 125.951V124.951H44.7522V125.951H45.7522ZM47.7603 125.951V126.951H48.7603V125.951H47.7603ZM43.744 127.959V126.959H42.744V127.959H43.744ZM45.7522 127.959H46.7522V126.959H45.7522V127.959ZM45.7522 129.967V130.967H46.7522V129.967H45.7522ZM43.744 129.967H42.744V130.967H43.744V129.967ZM39.7278 121.935V120.935H38.7278V121.935H39.7278ZM41.7359 121.935H42.7359V120.935H41.7359V121.935ZM41.7359 129.967H40.7359V130.967H41.7359V129.967ZM43.744 129.967H44.744V128.967H43.744V129.967ZM43.744 131.976V132.976H44.744V131.976H43.744ZM41.7359 131.976V130.976H40.7359V131.976H41.7359ZM41.7359 135.992V136.992H42.7359V135.992H41.7359ZM39.7278 135.992H38.7278V136.992H39.7278V135.992ZM41.7359 119.927V118.927H40.7359V119.927H41.7359ZM47.7603 119.927H48.7603V118.927H47.7603V119.927ZM47.7603 121.935V122.935H48.7603V121.935H47.7603ZM41.7359 121.935H40.7359V122.935H41.7359V121.935ZM41.7359 136.992H47.7603V134.992H41.7359V136.992ZM46.7603 135.992V138H48.7603V135.992H46.7603ZM47.7603 137H41.7359V139H47.7603V137ZM42.7359 138V135.992H40.7359V138H42.7359ZM47.7603 122.935H49.7684V120.935H47.7603V122.935ZM48.7684 121.935V135.992H50.7684V121.935H48.7684ZM49.7684 134.992H47.7603V136.992H49.7684V134.992ZM48.7603 135.992V127.959H46.7603V135.992H48.7603ZM47.7603 126.959H45.7522V128.959H47.7603V126.959ZM46.7522 127.959V125.951H44.7522V127.959H46.7522ZM45.7522 126.951H47.7603V124.951H45.7522V126.951ZM48.7603 125.951V121.935H46.7603V125.951H48.7603ZM43.744 128.959H45.7522V126.959H43.744V128.959ZM44.7522 127.959V129.967H46.7522V127.959H44.7522ZM45.7522 128.967H43.744V130.967H45.7522V128.967ZM44.744 129.967V127.959H42.744V129.967H44.744ZM39.7278 122.935H41.7359V120.935H39.7278V122.935ZM40.7359 121.935V129.967H42.7359V121.935H40.7359ZM41.7359 130.967H43.744V128.967H41.7359V130.967ZM42.744 129.967V131.976H44.744V129.967H42.744ZM43.744 130.976H41.7359V132.976H43.744V130.976ZM40.7359 131.976V135.992H42.7359V131.976H40.7359ZM41.7359 134.992H39.7278V136.992H41.7359V134.992ZM40.7278 135.992V121.935H38.7278V135.992H40.7278ZM41.7359 120.927H47.7603V118.927H41.7359V120.927ZM46.7603 119.927V121.935H48.7603V119.927H46.7603ZM47.7603 120.935H41.7359V122.935H47.7603V120.935ZM42.7359 121.935V119.927H40.7359V121.935H42.7359ZM57.8009 131.976V130.976H56.8009V131.976H57.8009ZM59.809 131.976H60.809V130.976H59.809V131.976ZM59.809 138V139H60.809V138H59.809ZM57.8009 138H56.8009V139H57.8009V138ZM59.809 125.951V124.951H58.809V125.951H59.809ZM61.8172 125.951H62.8172V124.951H61.8172V125.951ZM61.8172 131.976V132.976H62.8172V131.976H61.8172ZM59.809 131.976H58.809V132.976H59.809V131.976ZM61.8172 119.927V118.927H60.8172V119.927H61.8172ZM63.8253 119.927H64.8253V118.927H63.8253V119.927ZM63.8253 125.951V126.951H64.8253V125.951H63.8253ZM61.8172 125.951H60.8172V126.951H61.8172V125.951ZM57.8009 132.976H59.809V130.976H57.8009V132.976ZM58.809 131.976V138H60.809V131.976H58.809ZM59.809 137H57.8009V139H59.809V137ZM58.8009 138V131.976H56.8009V138H58.8009ZM59.809 126.951H61.8172V124.951H59.809V126.951ZM60.8172 125.951V131.976H62.8172V125.951H60.8172ZM61.8172 130.976H59.809V132.976H61.8172V130.976ZM60.809 131.976V125.951H58.809V131.976H60.809ZM61.8172 120.927H63.8253V118.927H61.8172V120.927ZM62.8253 119.927V125.951H64.8253V119.927H62.8253ZM63.8253 124.951H61.8172V126.951H63.8253V124.951ZM62.8172 125.951V119.927H60.8172V125.951H62.8172ZM73.8659 127.959V126.959H72.8659V127.959H73.8659ZM81.8984 127.959H82.8984V126.959H81.8984V127.959ZM81.8984 129.967V130.967H82.8984V129.967H81.8984ZM73.8659 129.967H72.8659V130.967H73.8659V129.967ZM73.8659 128.959H81.8984V126.959H73.8659V128.959ZM80.8984 127.959V129.967H82.8984V127.959H80.8984ZM81.8984 128.967H73.8659V130.967H81.8984V128.967ZM74.8659 129.967V127.959H72.8659V129.967H74.8659ZM112.02 121.935V120.935H111.02V121.935H112.02ZM114.028 121.935H115.028V120.935H114.028V121.935ZM114.028 127.959V128.959H115.028V127.959H114.028ZM112.02 127.959H111.02V128.959H112.02V127.959ZM103.988 119.927V118.927H102.988V119.927H103.988ZM112.02 119.927H113.02V118.927H112.02V119.927ZM112.02 121.935V122.935H113.02V121.935H112.02ZM105.996 121.935V120.935H104.996V121.935H105.996ZM105.996 127.959H104.996V128.959H105.996V127.959ZM112.02 127.959H113.02V126.959H112.02V127.959ZM112.02 129.967V130.967H113.02V129.967H112.02ZM105.996 129.967V128.967H104.996V129.967H105.996ZM105.996 138V139H106.996V138H105.996ZM103.988 138H102.988V139H103.988V138ZM112.02 122.935H114.028V120.935H112.02V122.935ZM113.028 121.935V127.959H115.028V121.935H113.028ZM114.028 126.959H112.02V128.959H114.028V126.959ZM113.02 127.959V121.935H111.02V127.959H113.02ZM103.988 120.927H112.02V118.927H103.988V120.927ZM111.02 119.927V121.935H113.02V119.927H111.02ZM112.02 120.935H105.996V122.935H112.02V120.935ZM104.996 121.935V127.959H106.996V121.935H104.996ZM105.996 128.959H112.02V126.959H105.996V128.959ZM111.02 127.959V129.967H113.02V127.959H111.02ZM112.02 128.967H105.996V130.967H112.02V128.967ZM104.996 129.967V138H106.996V129.967H104.996ZM105.996 137H103.988V139H105.996V137ZM104.988 138V119.927H102.988V138H104.988ZM128.085 133.984V132.984H127.085V133.984H128.085ZM130.093 133.984H131.093V132.984H130.093V133.984ZM130.093 135.992V136.992H131.093V135.992H130.093ZM128.085 135.992H127.085V136.992H128.085V135.992ZM122.061 135.992V134.992H121.061V135.992H122.061ZM128.085 135.992H129.085V134.992H128.085V135.992ZM128.085 138V139H129.085V138H128.085ZM122.061 138H121.061V139H122.061V138ZM120.053 125.951V124.951H119.053V125.951H120.053ZM122.061 125.951H123.061V124.951H122.061V125.951ZM122.061 129.967H121.061V130.967H122.061V129.967ZM128.085 129.967V130.967H129.085V129.967H128.085ZM128.085 125.951V124.951H127.085V125.951H128.085ZM130.093 125.951H131.093V124.951H130.093V125.951ZM130.093 131.976V132.976H131.093V131.976H130.093ZM122.061 131.976V130.976H121.061V131.976H122.061ZM122.061 135.992V136.992H123.061V135.992H122.061ZM120.053 135.992H119.053V136.992H120.053V135.992ZM122.061 123.943V122.943H121.061V123.943H122.061ZM128.085 123.943H129.085V122.943H128.085V123.943ZM128.085 125.951V126.951H129.085V125.951H128.085ZM122.061 125.951H121.061V126.951H122.061V125.951ZM128.085 134.984H130.093V132.984H128.085V134.984ZM129.093 133.984V135.992H131.093V133.984H129.093ZM130.093 134.992H128.085V136.992H130.093V134.992ZM129.085 135.992V133.984H127.085V135.992H129.085ZM122.061 136.992H128.085V134.992H122.061V136.992ZM127.085 135.992V138H129.085V135.992H127.085ZM128.085 137H122.061V139H128.085V137ZM123.061 138V135.992H121.061V138H123.061ZM120.053 126.951H122.061V124.951H120.053V126.951ZM121.061 125.951V129.967H123.061V125.951H121.061ZM122.061 130.967H128.085V128.967H122.061V130.967ZM129.085 129.967V125.951H127.085V129.967H129.085ZM128.085 126.951H130.093V124.951H128.085V126.951ZM129.093 125.951V131.976H131.093V125.951H129.093ZM130.093 130.976H122.061V132.976H130.093V130.976ZM121.061 131.976V135.992H123.061V131.976H121.061ZM122.061 134.992H120.053V136.992H122.061V134.992ZM121.053 135.992V125.951H119.053V135.992H121.053ZM122.061 124.943H128.085V122.943H122.061V124.943ZM127.085 123.943V125.951H129.085V123.943H127.085ZM128.085 124.951H122.061V126.951H128.085V124.951ZM123.061 125.951V123.943H121.061V125.951H123.061ZM142.142 123.943V122.943H141.142V123.943H142.142ZM146.158 123.943H147.158V122.943H146.158V123.943ZM146.158 125.951V126.951H147.158V125.951H146.158ZM142.142 125.951H141.142V126.951H142.142V125.951ZM140.134 125.951V124.951H139.134V125.951H140.134ZM142.142 125.951H143.142V124.951H142.142V125.951ZM142.142 127.959V128.959H143.142V127.959H142.142ZM140.134 127.959H139.134V128.959H140.134V127.959ZM136.118 123.943V122.943H135.118V123.943H136.118ZM138.126 123.943H139.126V122.943H138.126V123.943ZM138.126 127.959H137.126V128.959H138.126V127.959ZM140.134 127.959H141.134V126.959H140.134V127.959ZM140.134 129.967V130.967H141.134V129.967H140.134ZM138.126 129.967V128.967H137.126V129.967H138.126ZM138.126 138V139H139.126V138H138.126ZM136.118 138H135.118V139H136.118V138ZM142.142 124.943H146.158V122.943H142.142V124.943ZM145.158 123.943V125.951H147.158V123.943H145.158ZM146.158 124.951H142.142V126.951H146.158V124.951ZM143.142 125.951V123.943H141.142V125.951H143.142ZM140.134 126.951H142.142V124.951H140.134V126.951ZM141.142 125.951V127.959H143.142V125.951H141.142ZM142.142 126.959H140.134V128.959H142.142V126.959ZM141.134 127.959V125.951H139.134V127.959H141.134ZM136.118 124.943H138.126V122.943H136.118V124.943ZM137.126 123.943V127.959H139.126V123.943H137.126ZM138.126 128.959H140.134V126.959H138.126V128.959ZM139.134 127.959V129.967H141.134V127.959H139.134ZM140.134 128.967H138.126V130.967H140.134V128.967ZM137.126 129.967V138H139.126V129.967H137.126ZM138.126 137H136.118V139H138.126V137ZM137.118 138V123.943H135.118V138H137.118ZM176.28 121.935V120.935H175.28V121.935H176.28ZM178.288 121.935H179.288V120.935H178.288V121.935ZM178.288 127.959V128.959H179.288V127.959H178.288ZM176.28 127.959H175.28V128.959H176.28V127.959ZM168.248 119.927V118.927H167.248V119.927H168.248ZM176.28 119.927H177.28V118.927H176.28V119.927ZM176.28 121.935V122.935H177.28V121.935H176.28ZM170.256 121.935V120.935H169.256V121.935H170.256ZM170.256 127.959H169.256V128.959H170.256V127.959ZM176.28 127.959H177.28V126.959H176.28V127.959ZM176.28 129.967V130.967H177.28V129.967H176.28ZM170.256 129.967V128.967H169.256V129.967H170.256ZM170.256 138V139H171.256V138H170.256ZM168.248 138H167.248V139H168.248V138ZM176.28 122.935H178.288V120.935H176.28V122.935ZM177.288 121.935V127.959H179.288V121.935H177.288ZM178.288 126.959H176.28V128.959H178.288V126.959ZM177.28 127.959V121.935H175.28V127.959H177.28ZM168.248 120.927H176.28V118.927H168.248V120.927ZM175.28 119.927V121.935H177.28V119.927H175.28ZM176.28 120.935H170.256V122.935H176.28V120.935ZM169.256 121.935V127.959H171.256V121.935H169.256ZM170.256 128.959H176.28V126.959H170.256V128.959ZM175.28 127.959V129.967H177.28V127.959H175.28ZM176.28 128.967H170.256V130.967H176.28V128.967ZM169.256 129.967V138H171.256V129.967H169.256ZM170.256 137H168.248V139H170.256V137ZM169.248 138V119.927H167.248V138H169.248ZM192.345 133.984V132.984H191.345V133.984H192.345ZM194.353 133.984H195.353V132.984H194.353V133.984ZM194.353 135.992V136.992H195.353V135.992H194.353ZM192.345 135.992H191.345V136.992H192.345V135.992ZM186.321 135.992V134.992H185.321V135.992H186.321ZM192.345 135.992H193.345V134.992H192.345V135.992ZM192.345 138V139H193.345V138H192.345ZM186.321 138H185.321V139H186.321V138ZM184.313 125.951V124.951H183.313V125.951H184.313ZM186.321 125.951H187.321V124.951H186.321V125.951ZM186.321 129.967H185.321V130.967H186.321V129.967ZM192.345 129.967V130.967H193.345V129.967H192.345ZM192.345 125.951V124.951H191.345V125.951H192.345ZM194.353 125.951H195.353V124.951H194.353V125.951ZM194.353 131.976V132.976H195.353V131.976H194.353ZM186.321 131.976V130.976H185.321V131.976H186.321ZM186.321 135.992V136.992H187.321V135.992H186.321ZM184.313 135.992H183.313V136.992H184.313V135.992ZM186.321 123.943V122.943H185.321V123.943H186.321ZM192.345 123.943H193.345V122.943H192.345V123.943ZM192.345 125.951V126.951H193.345V125.951H192.345ZM186.321 125.951H185.321V126.951H186.321V125.951ZM192.345 134.984H194.353V132.984H192.345V134.984ZM193.353 133.984V135.992H195.353V133.984H193.353ZM194.353 134.992H192.345V136.992H194.353V134.992ZM193.345 135.992V133.984H191.345V135.992H193.345ZM186.321 136.992H192.345V134.992H186.321V136.992ZM191.345 135.992V138H193.345V135.992H191.345ZM192.345 137H186.321V139H192.345V137ZM187.321 138V135.992H185.321V138H187.321ZM184.313 126.951H186.321V124.951H184.313V126.951ZM185.321 125.951V129.967H187.321V125.951H185.321ZM186.321 130.967H192.345V128.967H186.321V130.967ZM193.345 129.967V125.951H191.345V129.967H193.345ZM192.345 126.951H194.353V124.951H192.345V126.951ZM193.353 125.951V131.976H195.353V125.951H193.353ZM194.353 130.976H186.321V132.976H194.353V130.976ZM185.321 131.976V135.992H187.321V131.976H185.321ZM186.321 134.992H184.313V136.992H186.321V134.992ZM185.313 135.992V125.951H183.313V135.992H185.313ZM186.321 124.943H192.345V122.943H186.321V124.943ZM191.345 123.943V125.951H193.345V123.943H191.345ZM192.345 124.951H186.321V126.951H192.345V124.951ZM187.321 125.951V123.943H185.321V125.951H187.321ZM206.402 123.943V122.943H205.402V123.943H206.402ZM210.418 123.943H211.418V122.943H210.418V123.943ZM210.418 125.951V126.951H211.418V125.951H210.418ZM206.402 125.951H205.402V126.951H206.402V125.951ZM204.394 125.951V124.951H203.394V125.951H204.394ZM206.402 125.951H207.402V124.951H206.402V125.951ZM206.402 127.959V128.959H207.402V127.959H206.402ZM204.394 127.959H203.394V128.959H204.394V127.959ZM200.378 123.943V122.943H199.378V123.943H200.378ZM202.386 123.943H203.386V122.943H202.386V123.943ZM202.386 127.959H201.386V128.959H202.386V127.959ZM204.394 127.959H205.394V126.959H204.394V127.959ZM204.394 129.967V130.967H205.394V129.967H204.394ZM202.386 129.967V128.967H201.386V129.967H202.386ZM202.386 138V139H203.386V138H202.386ZM200.378 138H199.378V139H200.378V138ZM206.402 124.943H210.418V122.943H206.402V124.943ZM209.418 123.943V125.951H211.418V123.943H209.418ZM210.418 124.951H206.402V126.951H210.418V124.951ZM207.402 125.951V123.943H205.402V125.951H207.402ZM204.394 126.951H206.402V124.951H204.394V126.951ZM205.402 125.951V127.959H207.402V125.951H205.402ZM206.402 126.959H204.394V128.959H206.402V126.959ZM205.394 127.959V125.951H203.394V127.959H205.394ZM200.378 124.943H202.386V122.943H200.378V124.943ZM201.386 123.943V127.959H203.386V123.943H201.386ZM202.386 128.959H204.394V126.959H202.386V128.959ZM203.394 127.959V129.967H205.394V127.959H203.394ZM204.394 128.967H202.386V130.967H204.394V128.967ZM201.386 129.967V138H203.386V129.967H201.386ZM202.386 137H200.378V139H202.386V137ZM201.378 138V123.943H199.378V138H201.378ZM216.443 125.951V124.951H215.443V125.951H216.443ZM218.451 125.951H219.451V124.951H218.451V125.951ZM218.451 129.967V130.967H219.451V129.967H218.451ZM216.443 129.967H215.443V130.967H216.443V129.967ZM224.475 131.976V130.976H223.475V131.976H224.475ZM226.483 131.976H227.483V130.976H226.483V131.976ZM226.483 135.992V136.992H227.483V135.992H226.483ZM224.475 135.992H223.475V136.992H224.475V135.992ZM218.451 135.992V134.992H217.451V135.992H218.451ZM224.475 135.992H225.475V134.992H224.475V135.992ZM224.475 138V139H225.475V138H224.475ZM218.451 138H217.451V139H218.451V138ZM216.443 133.984V132.984H215.443V133.984H216.443ZM218.451 133.984H219.451V132.984H218.451V133.984ZM218.451 135.992V136.992H219.451V135.992H218.451ZM216.443 135.992H215.443V136.992H216.443V135.992ZM218.451 129.967V128.967H217.451V129.967H218.451ZM224.475 129.967H225.475V128.967H224.475V129.967ZM224.475 131.976V132.976H225.475V131.976H224.475ZM218.451 131.976H217.451V132.976H218.451V131.976ZM224.475 125.951V124.951H223.475V125.951H224.475ZM226.483 125.951H227.483V124.951H226.483V125.951ZM226.483 127.959V128.959H227.483V127.959H226.483ZM224.475 127.959H223.475V128.959H224.475V127.959ZM218.451 123.943V122.943H217.451V123.943H218.451ZM224.475 123.943H225.475V122.943H224.475V123.943ZM224.475 125.951V126.951H225.475V125.951H224.475ZM218.451 125.951H217.451V126.951H218.451V125.951ZM216.443 126.951H218.451V124.951H216.443V126.951ZM217.451 125.951V129.967H219.451V125.951H217.451ZM218.451 128.967H216.443V130.967H218.451V128.967ZM217.443 129.967V125.951H215.443V129.967H217.443ZM224.475 132.976H226.483V130.976H224.475V132.976ZM225.483 131.976V135.992H227.483V131.976H225.483ZM226.483 134.992H224.475V136.992H226.483V134.992ZM225.475 135.992V131.976H223.475V135.992H225.475ZM218.451 136.992H224.475V134.992H218.451V136.992ZM223.475 135.992V138H225.475V135.992H223.475ZM224.475 137H218.451V139H224.475V137ZM219.451 138V135.992H217.451V138H219.451ZM216.443 134.984H218.451V132.984H216.443V134.984ZM217.451 133.984V135.992H219.451V133.984H217.451ZM218.451 134.992H216.443V136.992H218.451V134.992ZM217.443 135.992V133.984H215.443V135.992H217.443ZM218.451 130.967H224.475V128.967H218.451V130.967ZM223.475 129.967V131.976H225.475V129.967H223.475ZM224.475 130.976H218.451V132.976H224.475V130.976ZM219.451 131.976V129.967H217.451V131.976H219.451ZM224.475 126.951H226.483V124.951H224.475V126.951ZM225.483 125.951V127.959H227.483V125.951H225.483ZM226.483 126.959H224.475V128.959H226.483V126.959ZM225.475 127.959V125.951H223.475V127.959H225.475ZM218.451 124.943H224.475V122.943H218.451V124.943ZM223.475 123.943V125.951H225.475V123.943H223.475ZM224.475 124.951H218.451V126.951H224.475V124.951ZM219.451 125.951V123.943H217.451V125.951H219.451ZM240.54 125.951V124.951H239.54V125.951H240.54ZM242.548 125.951H243.548V124.951H242.548V125.951ZM242.548 135.992V136.992H243.548V135.992H242.548ZM240.54 135.992H239.54V136.992H240.54V135.992ZM234.516 135.992V134.992H233.516V135.992H234.516ZM240.54 135.992H241.54V134.992H240.54V135.992ZM240.54 138V139H241.54V138H240.54ZM234.516 138H233.516V139H234.516V138ZM232.508 125.951V124.951H231.508V125.951H232.508ZM234.516 125.951H235.516V124.951H234.516V125.951ZM234.516 135.992V136.992H235.516V135.992H234.516ZM232.508 135.992H231.508V136.992H232.508V135.992ZM234.516 123.943V122.943H233.516V123.943H234.516ZM240.54 123.943H241.54V122.943H240.54V123.943ZM240.54 125.951V126.951H241.54V125.951H240.54ZM234.516 125.951H233.516V126.951H234.516V125.951ZM240.54 126.951H242.548V124.951H240.54V126.951ZM241.548 125.951V135.992H243.548V125.951H241.548ZM242.548 134.992H240.54V136.992H242.548V134.992ZM241.54 135.992V125.951H239.54V135.992H241.54ZM234.516 136.992H240.54V134.992H234.516V136.992ZM239.54 135.992V138H241.54V135.992H239.54ZM240.54 137H234.516V139H240.54V137ZM235.516 138V135.992H233.516V138H235.516ZM232.508 126.951H234.516V124.951H232.508V126.951ZM233.516 125.951V135.992H235.516V125.951H233.516ZM234.516 134.992H232.508V136.992H234.516V134.992ZM233.508 135.992V125.951H231.508V135.992H233.508ZM234.516 124.943H240.54V122.943H234.516V124.943ZM239.54 123.943V125.951H241.54V123.943H239.54ZM240.54 124.951H234.516V126.951H240.54V124.951ZM235.516 125.951V123.943H233.516V125.951H235.516ZM256.605 125.951V124.951H255.605V125.951H256.605ZM258.613 125.951H259.613V124.951H258.613V125.951ZM258.613 138V139H259.613V138H258.613ZM256.605 138H255.605V139H256.605V138ZM248.573 123.943V122.943H247.573V123.943H248.573ZM256.605 123.943H257.605V122.943H256.605V123.943ZM256.605 125.951V126.951H257.605V125.951H256.605ZM250.581 125.951V124.951H249.581V125.951H250.581ZM250.581 138V139H251.581V138H250.581ZM248.573 138H247.573V139H248.573V138ZM256.605 126.951H258.613V124.951H256.605V126.951ZM257.613 125.951V138H259.613V125.951H257.613ZM258.613 137H256.605V139H258.613V137ZM257.605 138V125.951H255.605V138H257.605ZM248.573 124.943H256.605V122.943H248.573V124.943ZM255.605 123.943V125.951H257.605V123.943H255.605ZM256.605 124.951H250.581V126.951H256.605V124.951ZM249.581 125.951V138H251.581V125.951H249.581ZM250.581 137H248.573V139H250.581V137ZM249.573 138V123.943H247.573V138H249.573Z" fill="black" mask="url(#path-1-outside-1_16_2)"/>
<rect x="71.5738" y="0.5" width="226.926" height="12" stroke="#42CF71"/>
<path d="M0.5 0.5H64.8552V12.5H0.5V0.5Z" fill="#42CF71" stroke="#42CF71"/>
</svg>
