<svg width="674" height="80" viewBox="0 0 674 80" fill="none" xmlns="http://www.w3.org/2000/svg">
<mask id="path-1-outside-1_1_189" maskUnits="userSpaceOnUse" x="6" y="3" width="664" height="73" fill="black">
<rect fill="white" x="6" y="3" width="664" height="73"/>
<path d="M46.75 12H54.625V19.875H46.75V12ZM46.75 59.25H54.625V67.125H46.75V59.25ZM15.25 4.125H46.75V12H23.125V67.125H46.75V75H15.25V67.125H7.375V12H15.25V4.125ZM78.25 4.125H109.75V12H117.625V67.125H109.75V75H78.25V67.125H70.375V12H78.25V4.125ZM101.875 12H86.125V67.125H101.875V12ZM133.375 4.125H172.75V12H180.625V67.125H172.75V75H133.375V4.125ZM164.875 12H149.125V67.125H164.875V12ZM196.375 4.125H243.625V12H212.125V35.625H227.875V43.5H212.125V67.125H243.625V75H196.375V4.125ZM275.125 67.125H290.875V75H275.125V67.125ZM322.375 4.125H369.625V12H353.875V67.125H369.625V75H322.375V67.125H338.125V12H322.375V4.125ZM385.375 4.125H401.125V19.875H409V27.75H416.875V35.625H424.75V4.125H432.625V75H424.75V51.375H416.875V43.5H409V35.625H401.125V75H385.375V4.125ZM448.375 4.125H495.625V12H479.875V67.125H495.625V75H448.375V67.125H464.125V12H448.375V4.125ZM511.375 4.125H558.625V12H542.875V75H527.125V12H511.375V4.125ZM605.875 4.125H621.625V12H613.75V19.875H605.875V59.25H613.75V67.125H621.625V75H605.875V67.125H598V59.25H590.125V19.875H598V12H605.875V4.125ZM637.375 4.125H653.125V12H661V19.875H668.875V59.25H661V67.125H653.125V75H637.375V67.125H645.25V59.25H653.125V19.875H645.25V12H637.375V4.125Z"/>
</mask>
<path d="M46.75 12V11H45.75V12H46.75ZM54.625 12H55.625V11H54.625V12ZM54.625 19.875V20.875H55.625V19.875H54.625ZM46.75 19.875H45.75V20.875H46.75V19.875ZM46.75 59.25V58.25H45.75V59.25H46.75ZM54.625 59.25H55.625V58.25H54.625V59.25ZM54.625 67.125V68.125H55.625V67.125H54.625ZM46.75 67.125H45.75V68.125H46.75V67.125ZM15.25 4.125V3.125H14.25V4.125H15.25ZM46.75 4.125H47.75V3.125H46.75V4.125ZM46.75 12V13H47.75V12H46.75ZM23.125 12V11H22.125V12H23.125ZM23.125 67.125H22.125V68.125H23.125V67.125ZM46.75 67.125H47.75V66.125H46.75V67.125ZM46.75 75V76H47.75V75H46.75ZM15.25 75H14.25V76H15.25V75ZM15.25 67.125H16.25V66.125H15.25V67.125ZM7.375 67.125H6.375V68.125H7.375V67.125ZM7.375 12V11H6.375V12H7.375ZM15.25 12V13H16.25V12H15.25ZM46.75 13H54.625V11H46.75V13ZM53.625 12V19.875H55.625V12H53.625ZM54.625 18.875H46.75V20.875H54.625V18.875ZM47.75 19.875V12H45.75V19.875H47.75ZM46.75 60.25H54.625V58.25H46.75V60.25ZM53.625 59.25V67.125H55.625V59.25H53.625ZM54.625 66.125H46.75V68.125H54.625V66.125ZM47.75 67.125V59.25H45.75V67.125H47.75ZM15.25 5.125H46.75V3.125H15.25V5.125ZM45.75 4.125V12H47.75V4.125H45.75ZM46.75 11H23.125V13H46.75V11ZM22.125 12V67.125H24.125V12H22.125ZM23.125 68.125H46.75V66.125H23.125V68.125ZM45.75 67.125V75H47.75V67.125H45.75ZM46.75 74H15.25V76H46.75V74ZM16.25 75V67.125H14.25V75H16.25ZM15.25 66.125H7.375V68.125H15.25V66.125ZM8.375 67.125V12H6.375V67.125H8.375ZM7.375 13H15.25V11H7.375V13ZM16.25 12V4.125H14.25V12H16.25ZM78.25 4.125V3.125H77.25V4.125H78.25ZM109.75 4.125H110.75V3.125H109.75V4.125ZM109.75 12H108.75V13H109.75V12ZM117.625 12H118.625V11H117.625V12ZM117.625 67.125V68.125H118.625V67.125H117.625ZM109.75 67.125V66.125H108.75V67.125H109.75ZM109.75 75V76H110.75V75H109.75ZM78.25 75H77.25V76H78.25V75ZM78.25 67.125H79.25V66.125H78.25V67.125ZM70.375 67.125H69.375V68.125H70.375V67.125ZM70.375 12V11H69.375V12H70.375ZM78.25 12V13H79.25V12H78.25ZM101.875 12H102.875V11H101.875V12ZM86.125 12V11H85.125V12H86.125ZM86.125 67.125H85.125V68.125H86.125V67.125ZM101.875 67.125V68.125H102.875V67.125H101.875ZM78.25 5.125H109.75V3.125H78.25V5.125ZM108.75 4.125V12H110.75V4.125H108.75ZM109.75 13H117.625V11H109.75V13ZM116.625 12V67.125H118.625V12H116.625ZM117.625 66.125H109.75V68.125H117.625V66.125ZM108.75 67.125V75H110.75V67.125H108.75ZM109.75 74H78.25V76H109.75V74ZM79.25 75V67.125H77.25V75H79.25ZM78.25 66.125H70.375V68.125H78.25V66.125ZM71.375 67.125V12H69.375V67.125H71.375ZM70.375 13H78.25V11H70.375V13ZM79.25 12V4.125H77.25V12H79.25ZM101.875 11H86.125V13H101.875V11ZM85.125 12V67.125H87.125V12H85.125ZM86.125 68.125H101.875V66.125H86.125V68.125ZM102.875 67.125V12H100.875V67.125H102.875ZM133.375 4.125V3.125H132.375V4.125H133.375ZM172.75 4.125H173.75V3.125H172.75V4.125ZM172.75 12H171.75V13H172.75V12ZM180.625 12H181.625V11H180.625V12ZM180.625 67.125V68.125H181.625V67.125H180.625ZM172.75 67.125V66.125H171.75V67.125H172.75ZM172.75 75V76H173.75V75H172.75ZM133.375 75H132.375V76H133.375V75ZM164.875 12H165.875V11H164.875V12ZM149.125 12V11H148.125V12H149.125ZM149.125 67.125H148.125V68.125H149.125V67.125ZM164.875 67.125V68.125H165.875V67.125H164.875ZM133.375 5.125H172.75V3.125H133.375V5.125ZM171.75 4.125V12H173.75V4.125H171.75ZM172.75 13H180.625V11H172.75V13ZM179.625 12V67.125H181.625V12H179.625ZM180.625 66.125H172.75V68.125H180.625V66.125ZM171.75 67.125V75H173.75V67.125H171.75ZM172.75 74H133.375V76H172.75V74ZM134.375 75V4.125H132.375V75H134.375ZM164.875 11H149.125V13H164.875V11ZM148.125 12V67.125H150.125V12H148.125ZM149.125 68.125H164.875V66.125H149.125V68.125ZM165.875 67.125V12H163.875V67.125H165.875ZM196.375 4.125V3.125H195.375V4.125H196.375ZM243.625 4.125H244.625V3.125H243.625V4.125ZM243.625 12V13H244.625V12H243.625ZM212.125 12V11H211.125V12H212.125ZM212.125 35.625H211.125V36.625H212.125V35.625ZM227.875 35.625H228.875V34.625H227.875V35.625ZM227.875 43.5V44.5H228.875V43.5H227.875ZM212.125 43.5V42.5H211.125V43.5H212.125ZM212.125 67.125H211.125V68.125H212.125V67.125ZM243.625 67.125H244.625V66.125H243.625V67.125ZM243.625 75V76H244.625V75H243.625ZM196.375 75H195.375V76H196.375V75ZM196.375 5.125H243.625V3.125H196.375V5.125ZM242.625 4.125V12H244.625V4.125H242.625ZM243.625 11H212.125V13H243.625V11ZM211.125 12V35.625H213.125V12H211.125ZM212.125 36.625H227.875V34.625H212.125V36.625ZM226.875 35.625V43.5H228.875V35.625H226.875ZM227.875 42.5H212.125V44.5H227.875V42.5ZM211.125 43.5V67.125H213.125V43.5H211.125ZM212.125 68.125H243.625V66.125H212.125V68.125ZM242.625 67.125V75H244.625V67.125H242.625ZM243.625 74H196.375V76H243.625V74ZM197.375 75V4.125H195.375V75H197.375ZM275.125 67.125V66.125H274.125V67.125H275.125ZM290.875 67.125H291.875V66.125H290.875V67.125ZM290.875 75V76H291.875V75H290.875ZM275.125 75H274.125V76H275.125V75ZM275.125 68.125H290.875V66.125H275.125V68.125ZM289.875 67.125V75H291.875V67.125H289.875ZM290.875 74H275.125V76H290.875V74ZM276.125 75V67.125H274.125V75H276.125ZM322.375 4.125V3.125H321.375V4.125H322.375ZM369.625 4.125H370.625V3.125H369.625V4.125ZM369.625 12V13H370.625V12H369.625ZM353.875 12V11H352.875V12H353.875ZM353.875 67.125H352.875V68.125H353.875V67.125ZM369.625 67.125H370.625V66.125H369.625V67.125ZM369.625 75V76H370.625V75H369.625ZM322.375 75H321.375V76H322.375V75ZM322.375 67.125V66.125H321.375V67.125H322.375ZM338.125 67.125V68.125H339.125V67.125H338.125ZM338.125 12H339.125V11H338.125V12ZM322.375 12H321.375V13H322.375V12ZM322.375 5.125H369.625V3.125H322.375V5.125ZM368.625 4.125V12H370.625V4.125H368.625ZM369.625 11H353.875V13H369.625V11ZM352.875 12V67.125H354.875V12H352.875ZM353.875 68.125H369.625V66.125H353.875V68.125ZM368.625 67.125V75H370.625V67.125H368.625ZM369.625 74H322.375V76H369.625V74ZM323.375 75V67.125H321.375V75H323.375ZM322.375 68.125H338.125V66.125H322.375V68.125ZM339.125 67.125V12H337.125V67.125H339.125ZM338.125 11H322.375V13H338.125V11ZM323.375 12V4.125H321.375V12H323.375ZM385.375 4.125V3.125H384.375V4.125H385.375ZM401.125 4.125H402.125V3.125H401.125V4.125ZM401.125 19.875H400.125V20.875H401.125V19.875ZM409 19.875H410V18.875H409V19.875ZM409 27.75H408V28.75H409V27.75ZM416.875 27.75H417.875V26.75H416.875V27.75ZM416.875 35.625H415.875V36.625H416.875V35.625ZM424.75 35.625V36.625H425.75V35.625H424.75ZM424.75 4.125V3.125H423.75V4.125H424.75ZM432.625 4.125H433.625V3.125H432.625V4.125ZM432.625 75V76H433.625V75H432.625ZM424.75 75H423.75V76H424.75V75ZM424.75 51.375H425.75V50.375H424.75V51.375ZM416.875 51.375H415.875V52.375H416.875V51.375ZM416.875 43.5H417.875V42.5H416.875V43.5ZM409 43.5H408V44.5H409V43.5ZM409 35.625H410V34.625H409V35.625ZM401.125 35.625V34.625H400.125V35.625H401.125ZM401.125 75V76H402.125V75H401.125ZM385.375 75H384.375V76H385.375V75ZM385.375 5.125H401.125V3.125H385.375V5.125ZM400.125 4.125V19.875H402.125V4.125H400.125ZM401.125 20.875H409V18.875H401.125V20.875ZM408 19.875V27.75H410V19.875H408ZM409 28.75H416.875V26.75H409V28.75ZM415.875 27.75V35.625H417.875V27.75H415.875ZM416.875 36.625H424.75V34.625H416.875V36.625ZM425.75 35.625V4.125H423.75V35.625H425.75ZM424.75 5.125H432.625V3.125H424.75V5.125ZM431.625 4.125V75H433.625V4.125H431.625ZM432.625 74H424.75V76H432.625V74ZM425.75 75V51.375H423.75V75H425.75ZM424.75 50.375H416.875V52.375H424.75V50.375ZM417.875 51.375V43.5H415.875V51.375H417.875ZM416.875 42.5H409V44.5H416.875V42.5ZM410 43.5V35.625H408V43.5H410ZM409 34.625H401.125V36.625H409V34.625ZM400.125 35.625V75H402.125V35.625H400.125ZM401.125 74H385.375V76H401.125V74ZM386.375 75V4.125H384.375V75H386.375ZM448.375 4.125V3.125H447.375V4.125H448.375ZM495.625 4.125H496.625V3.125H495.625V4.125ZM495.625 12V13H496.625V12H495.625ZM479.875 12V11H478.875V12H479.875ZM479.875 67.125H478.875V68.125H479.875V67.125ZM495.625 67.125H496.625V66.125H495.625V67.125ZM495.625 75V76H496.625V75H495.625ZM448.375 75H447.375V76H448.375V75ZM448.375 67.125V66.125H447.375V67.125H448.375ZM464.125 67.125V68.125H465.125V67.125H464.125ZM464.125 12H465.125V11H464.125V12ZM448.375 12H447.375V13H448.375V12ZM448.375 5.125H495.625V3.125H448.375V5.125ZM494.625 4.125V12H496.625V4.125H494.625ZM495.625 11H479.875V13H495.625V11ZM478.875 12V67.125H480.875V12H478.875ZM479.875 68.125H495.625V66.125H479.875V68.125ZM494.625 67.125V75H496.625V67.125H494.625ZM495.625 74H448.375V76H495.625V74ZM449.375 75V67.125H447.375V75H449.375ZM448.375 68.125H464.125V66.125H448.375V68.125ZM465.125 67.125V12H463.125V67.125H465.125ZM464.125 11H448.375V13H464.125V11ZM449.375 12V4.125H447.375V12H449.375ZM511.375 4.125V3.125H510.375V4.125H511.375ZM558.625 4.125H559.625V3.125H558.625V4.125ZM558.625 12V13H559.625V12H558.625ZM542.875 12V11H541.875V12H542.875ZM542.875 75V76H543.875V75H542.875ZM527.125 75H526.125V76H527.125V75ZM527.125 12H528.125V11H527.125V12ZM511.375 12H510.375V13H511.375V12ZM511.375 5.125H558.625V3.125H511.375V5.125ZM557.625 4.125V12H559.625V4.125H557.625ZM558.625 11H542.875V13H558.625V11ZM541.875 12V75H543.875V12H541.875ZM542.875 74H527.125V76H542.875V74ZM528.125 75V12H526.125V75H528.125ZM527.125 11H511.375V13H527.125V11ZM512.375 12V4.125H510.375V12H512.375ZM605.875 4.125V3.125H604.875V4.125H605.875ZM621.625 4.125H622.625V3.125H621.625V4.125ZM621.625 12V13H622.625V12H621.625ZM613.75 12V11H612.75V12H613.75ZM613.75 19.875V20.875H614.75V19.875H613.75ZM605.875 19.875V18.875H604.875V19.875H605.875ZM605.875 59.25H604.875V60.25H605.875V59.25ZM613.75 59.25H614.75V58.25H613.75V59.25ZM613.75 67.125H612.75V68.125H613.75V67.125ZM621.625 67.125H622.625V66.125H621.625V67.125ZM621.625 75V76H622.625V75H621.625ZM605.875 75H604.875V76H605.875V75ZM605.875 67.125H606.875V66.125H605.875V67.125ZM598 67.125H597V68.125H598V67.125ZM598 59.25H599V58.25H598V59.25ZM590.125 59.25H589.125V60.25H590.125V59.25ZM590.125 19.875V18.875H589.125V19.875H590.125ZM598 19.875V20.875H599V19.875H598ZM598 12V11H597V12H598ZM605.875 12V13H606.875V12H605.875ZM605.875 5.125H621.625V3.125H605.875V5.125ZM620.625 4.125V12H622.625V4.125H620.625ZM621.625 11H613.75V13H621.625V11ZM612.75 12V19.875H614.75V12H612.75ZM613.75 18.875H605.875V20.875H613.75V18.875ZM604.875 19.875V59.25H606.875V19.875H604.875ZM605.875 60.25H613.75V58.25H605.875V60.25ZM612.75 59.25V67.125H614.75V59.25H612.75ZM613.75 68.125H621.625V66.125H613.75V68.125ZM620.625 67.125V75H622.625V67.125H620.625ZM621.625 74H605.875V76H621.625V74ZM606.875 75V67.125H604.875V75H606.875ZM605.875 66.125H598V68.125H605.875V66.125ZM599 67.125V59.25H597V67.125H599ZM598 58.25H590.125V60.25H598V58.25ZM591.125 59.25V19.875H589.125V59.25H591.125ZM590.125 20.875H598V18.875H590.125V20.875ZM599 19.875V12H597V19.875H599ZM598 13H605.875V11H598V13ZM606.875 12V4.125H604.875V12H606.875ZM637.375 4.125V3.125H636.375V4.125H637.375ZM653.125 4.125H654.125V3.125H653.125V4.125ZM653.125 12H652.125V13H653.125V12ZM661 12H662V11H661V12ZM661 19.875H660V20.875H661V19.875ZM668.875 19.875H669.875V18.875H668.875V19.875ZM668.875 59.25V60.25H669.875V59.25H668.875ZM661 59.25V58.25H660V59.25H661ZM661 67.125V68.125H662V67.125H661ZM653.125 67.125V66.125H652.125V67.125H653.125ZM653.125 75V76H654.125V75H653.125ZM637.375 75H636.375V76H637.375V75ZM637.375 67.125V66.125H636.375V67.125H637.375ZM645.25 67.125V68.125H646.25V67.125H645.25ZM645.25 59.25V58.25H644.25V59.25H645.25ZM653.125 59.25V60.25H654.125V59.25H653.125ZM653.125 19.875H654.125V18.875H653.125V19.875ZM645.25 19.875H644.25V20.875H645.25V19.875ZM645.25 12H646.25V11H645.25V12ZM637.375 12H636.375V13H637.375V12ZM637.375 5.125H653.125V3.125H637.375V5.125ZM652.125 4.125V12H654.125V4.125H652.125ZM653.125 13H661V11H653.125V13ZM660 12V19.875H662V12H660ZM661 20.875H668.875V18.875H661V20.875ZM667.875 19.875V59.25H669.875V19.875H667.875ZM668.875 58.25H661V60.25H668.875V58.25ZM660 59.25V67.125H662V59.25H660ZM661 66.125H653.125V68.125H661V66.125ZM652.125 67.125V75H654.125V67.125H652.125ZM653.125 74H637.375V76H653.125V74ZM638.375 75V67.125H636.375V75H638.375ZM637.375 68.125H645.25V66.125H637.375V68.125ZM646.25 67.125V59.25H644.25V67.125H646.25ZM645.25 60.25H653.125V58.25H645.25V60.25ZM654.125 59.25V19.875H652.125V59.25H654.125ZM653.125 18.875H645.25V20.875H653.125V18.875ZM646.25 19.875V12H644.25V19.875H646.25ZM645.25 11H637.375V13H645.25V11ZM638.375 12V4.125H636.375V12H638.375Z" fill="#42CF71" mask="url(#path-1-outside-1_1_189)"/>
</svg>
