<svg width="674" height="73" viewBox="0 0 674 73" fill="none" xmlns="http://www.w3.org/2000/svg">
<g clip-path="url(#clip0_1_188)">
<path d="M46.75 9H54.625V16.875H46.75V9ZM46.75 56.25H54.625V64.125H46.75V56.25ZM15.25 1.125H46.75V9H23.125V64.125H46.75V72H15.25V64.125H7.375V9H15.25V1.125ZM78.25 1.125H109.75V9H117.625V64.125H109.75V72H78.25V64.125H70.375V9H78.25V1.125ZM101.875 9H86.125V64.125H101.875V9ZM133.375 1.125H172.75V9H180.625V64.125H172.75V72H133.375V1.125ZM164.875 9H149.125V64.125H164.875V9ZM196.375 1.125H243.625V9H212.125V32.625H227.875V40.5H212.125V64.125H243.625V72H196.375V1.125ZM275.125 64.125H290.875V72H275.125V64.125ZM322.375 1.125H369.625V9H353.875V64.125H369.625V72H322.375V64.125H338.125V9H322.375V1.125ZM385.375 1.125H401.125V16.875H409V24.75H416.875V32.625H424.75V1.125H432.625V72H424.75V48.375H416.875V40.5H409V32.625H401.125V72H385.375V1.125ZM448.375 1.125H495.625V9H479.875V64.125H495.625V72H448.375V64.125H464.125V9H448.375V1.125ZM511.375 1.125H558.625V9H542.875V72H527.125V9H511.375V1.125ZM605.875 1.125H621.625V9H613.75V16.875H605.875V56.25H613.75V64.125H621.625V72H605.875V64.125H598V56.25H590.125V16.875H598V9H605.875V1.125ZM637.375 1.125H653.125V9H661V16.875H668.875V56.25H661V64.125H653.125V72H637.375V64.125H645.25V56.25H653.125V16.875H645.25V9H637.375V1.125Z" fill="#42CF71"/>
</g>
<defs>
<clipPath id="clip0_1_188">
<rect width="674" height="73" fill="white"/>
</clipPath>
</defs>
</svg>
