<svg width="232" height="136" viewBox="0 0 232 136" fill="none" xmlns="http://www.w3.org/2000/svg">
<rect x="16.5" y="17.5" width="205" height="113" fill="#42CF71" stroke="#42CF71"/>
<rect x="10.5" y="11.5" width="205" height="113" fill="#1C1C1C" stroke="#42CF71"/>
<path d="M37.7778 37.7778H45.3334V45.3334H37.7778V37.7778ZM37.7778 90.6667H45.3334V98.2223H37.7778V90.6667ZM90.6667 37.7778H98.2223V45.3334H90.6667V37.7778Z" fill="#1C1C1C"/>
<path d="M22.6667 22.6666H113.333V113.333H22.6667V22.6666Z" fill="#42CF71" stroke="#1C1C1C" stroke-width="4.52778" stroke-linejoin="round"/>
<path d="M37.7781 37.7778H45.3336V45.3334H37.7781V37.7778ZM37.7781 90.6667H45.3336V98.2223H37.7781V90.6667ZM90.667 37.7778H98.2225V45.3334H90.667V37.7778Z" fill="#3F3F3F" stroke="#1C1C1C" stroke-width="4.52778" stroke-linejoin="round"/>
<path d="M34 77.4444C35.0432 77.4444 35.8889 76.5987 35.8889 75.5555C35.8889 74.5123 35.0432 73.6666 34 73.6666C32.9568 73.6666 32.1111 74.5123 32.1111 75.5555C32.1111 76.5987 32.9568 77.4444 34 77.4444Z" fill="#1C1C1C"/>
<path d="M30.2221 73.6667C31.2653 73.6667 32.111 72.821 32.111 71.7778C32.111 70.7346 31.2653 69.8889 30.2221 69.8889C29.1789 69.8889 28.3333 70.7346 28.3333 71.7778C28.3333 72.821 29.1789 73.6667 30.2221 73.6667Z" fill="#1C1C1C"/>
<path d="M37.7778 73.6667C38.821 73.6667 39.6667 72.821 39.6667 71.7778C39.6667 70.7346 38.821 69.8889 37.7778 69.8889C36.7346 69.8889 35.8889 70.7346 35.8889 71.7778C35.8889 72.821 36.7346 73.6667 37.7778 73.6667Z" fill="#1C1C1C"/>
<path d="M64.2221 88.7778C65.2653 88.7778 66.111 87.9321 66.111 86.8889C66.111 85.8457 65.2653 85 64.2221 85C63.1789 85 62.3333 85.8457 62.3333 86.8889C62.3333 87.9321 63.1789 88.7778 64.2221 88.7778Z" fill="#1C1C1C"/>
<path d="M75.5556 73.6667C76.5988 73.6667 77.4445 72.821 77.4445 71.7778C77.4445 70.7346 76.5988 69.8889 75.5556 69.8889C74.5124 69.8889 73.6667 70.7346 73.6667 71.7778C73.6667 72.821 74.5124 73.6667 75.5556 73.6667Z" fill="#1C1C1C"/>
<path d="M75.5556 54.7778C76.5988 54.7778 77.4445 53.9321 77.4445 52.8889C77.4445 51.8457 76.5988 51 75.5556 51C74.5124 51 73.6667 51.8457 73.6667 52.8889C73.6667 53.9321 74.5124 54.7778 75.5556 54.7778Z" fill="#1C1C1C"/>
<path d="M60.4446 32.1112C61.4878 32.1112 62.3334 31.2655 62.3334 30.2223C62.3334 29.1791 61.4878 28.3334 60.4446 28.3334C59.4013 28.3334 58.5557 29.1791 58.5557 30.2223C58.5557 31.2655 59.4013 32.1112 60.4446 32.1112Z" fill="#1C1C1C"/>
<path d="M86.8889 62.3333C87.9321 62.3333 88.7778 61.4876 88.7778 60.4444C88.7778 59.4012 87.9321 58.5555 86.8889 58.5555C85.8457 58.5555 85 59.4012 85 60.4444C85 61.4876 85.8457 62.3333 86.8889 62.3333Z" fill="#1C1C1C"/>
<path d="M98.2221 62.3333C99.2653 62.3333 100.111 61.4876 100.111 60.4444C100.111 59.4012 99.2653 58.5555 98.2221 58.5555C97.1789 58.5555 96.3333 59.4012 96.3333 60.4444C96.3333 61.4876 97.1789 62.3333 98.2221 62.3333Z" fill="#1C1C1C"/>
<path d="M98.2221 84.9999C99.2653 84.9999 100.111 84.1543 100.111 83.1111C100.111 82.0679 99.2653 81.2222 98.2221 81.2222C97.1789 81.2222 96.3333 82.0679 96.3333 83.1111C96.3333 84.1543 97.1789 84.9999 98.2221 84.9999Z" fill="#1C1C1C"/>
<path d="M102 92.5556C103.043 92.5556 103.889 91.7099 103.889 90.6667C103.889 89.6235 103.043 88.7778 102 88.7778C100.957 88.7778 100.111 89.6235 100.111 90.6667C100.111 91.7099 100.957 92.5556 102 92.5556Z" fill="#1C1C1C"/>
<path d="M105.778 107.667C106.821 107.667 107.667 106.821 107.667 105.778C107.667 104.735 106.821 103.889 105.778 103.889C104.735 103.889 103.889 104.735 103.889 105.778C103.889 106.821 104.735 107.667 105.778 107.667Z" fill="#1C1C1C"/>
<path d="M60.4446 107.667C61.4878 107.667 62.3334 106.821 62.3334 105.778C62.3334 104.735 61.4878 103.889 60.4446 103.889C59.4013 103.889 58.5557 104.735 58.5557 105.778C58.5557 106.821 59.4013 107.667 60.4446 107.667Z" fill="#1C1C1C"/>
<path d="M83.1111 107.667C84.1543 107.667 84.9999 106.821 84.9999 105.778C84.9999 104.735 84.1543 103.889 83.1111 103.889C82.0679 103.889 81.2222 104.735 81.2222 105.778C81.2222 106.821 82.0679 107.667 83.1111 107.667Z" fill="#1C1C1C"/>
<path d="M86.8889 103.889C87.9321 103.889 88.7778 103.043 88.7778 102C88.7778 100.957 87.9321 100.111 86.8889 100.111C85.8457 100.111 85 100.957 85 102C85 103.043 85.8457 103.889 86.8889 103.889Z" fill="#1C1C1C"/>
<path d="M83.1111 100.111C84.1543 100.111 84.9999 99.2655 84.9999 98.2223C84.9999 97.1791 84.1543 96.3334 83.1111 96.3334C82.0679 96.3334 81.2222 97.1791 81.2222 98.2223C81.2222 99.2655 82.0679 100.111 83.1111 100.111Z" fill="#1C1C1C"/>
<path d="M30.2221 62.3333C31.2653 62.3333 32.111 61.4876 32.111 60.4444C32.111 59.4012 31.2653 58.5555 30.2221 58.5555C29.1789 58.5555 28.3333 59.4012 28.3333 60.4444C28.3333 61.4876 29.1789 62.3333 30.2221 62.3333Z" fill="#1C1C1C"/>
<path d="M75.5556 103.889C76.5988 103.889 77.4445 103.043 77.4445 102C77.4445 100.957 76.5988 100.111 75.5556 100.111C74.5124 100.111 73.6667 100.957 73.6667 102C73.6667 103.043 74.5124 103.889 75.5556 103.889Z" fill="#1C1C1C"/>
<path d="M22.6667 22.6666H113.333V113.333H22.6667V22.6666Z" stroke="#1C1C1C" stroke-width="4.52778" stroke-linejoin="round"/>
<path d="M30.2222 30.2222H52.8888V52.8888H30.2222V30.2222Z" stroke="#1C1C1C" stroke-width="4.52778" stroke-linejoin="round"/>
<path d="M37.7777 37.7778H45.3333V45.3334H37.7777V37.7778ZM30.2222 83.1112H52.8888V105.778H30.2222V83.1112Z" stroke="#1C1C1C" stroke-width="4.52778" stroke-linejoin="round"/>
<path d="M37.7778 90.6666H45.3334V98.2222H37.7778V90.6666ZM83.1112 30.2222H105.778V52.8888H83.1112V30.2222Z" stroke="#1C1C1C" stroke-width="4.52778" stroke-linejoin="round"/>
<path d="M90.6667 37.7778H98.2223V45.3334H90.6667V37.7778Z" stroke="#1C1C1C" stroke-width="4.52778" stroke-linejoin="round"/>
<path d="M34 67.9999V64.2222H49.1111M37.7778 64.2222V60.4444M45.3333 64.2222V75.5555M45.3333 71.7777H49.1111M71.7778 60.4444V56.6666M105.778 64.2222H102M79.3333 79.3333H83.1111V75.5555M52.8889 60.4444H56.6667M64.2222 60.4444H75.5556M71.7778 30.2222V37.7777H68M68 37.7777V52.8888M68 37.7777H60.4444M68 49.1111H60.4444V52.8888" stroke="#1C1C1C" stroke-width="4.52778" stroke-linecap="round" stroke-linejoin="round"/>
<path d="M68 41.5556H64.2222V34M52.8889 68H68M56.6667 68V75.5556H52.8889M64.2222 68V71.7778M60.4445 83.1111V79.3333H71.7778V90.6667H79.3334V86.8889H94.4445V105.778" stroke="#1C1C1C" stroke-width="4.52778" stroke-linecap="round" stroke-linejoin="round"/>
<path d="M67.9999 75.5555V83.1111H79.3332M86.8888 75.5555H79.3332V90.6667H83.111M90.6666 64.2222V71.7778H94.4443M94.4443 71.7778V79.3333H90.6666V86.8889M94.4443 71.7778V68H98.2221M98.2221 94.4444H90.6666V98.2222M60.4443 98.2222H64.2221V102H67.9999V94.4444M105.778 60.4444V71.7778H102M83.111 68V64.2222M105.778 79.3333V83.1111M102 98.2222H105.778M75.5554 41.5555V45.3333" stroke="#1C1C1C" stroke-width="4.52778" stroke-linecap="round" stroke-linejoin="round"/>
<path d="M132.653 79.9164V79.6822C132.653 79.5149 132.684 79.395 132.745 79.3226C132.812 79.2501 132.899 79.2138 133.005 79.2138C133.111 79.2138 133.194 79.2501 133.256 79.3226C133.322 79.395 133.356 79.5149 133.356 79.6822V81.4722C133.356 81.6395 133.322 81.7593 133.256 81.8318C133.194 81.9043 133.111 81.9406 133.005 81.9406C132.904 81.9406 132.821 81.9071 132.754 81.8402C132.692 81.7733 132.659 81.6645 132.653 81.514C132.625 81.0456 132.383 80.6246 131.926 80.251C131.474 79.8774 130.88 79.6906 130.144 79.6906C129.369 79.6906 128.753 79.8913 128.296 80.2928C127.838 80.6887 127.61 81.1571 127.61 81.698C127.61 81.9768 127.674 82.2305 127.802 82.4592C127.93 82.6878 128.1 82.8746 128.312 83.0196C128.524 83.159 128.764 83.2733 129.032 83.3625C129.299 83.4461 129.717 83.5354 130.286 83.6301C131.24 83.7863 131.898 83.9452 132.26 84.1069C132.745 84.3244 133.111 84.6255 133.356 85.0102C133.607 85.395 133.732 85.8495 133.732 86.3736C133.732 87.1766 133.412 87.8625 132.77 88.4312C132.129 88.9944 131.265 89.276 130.177 89.276C128.956 89.276 127.98 88.8941 127.25 88.1301V88.5316C127.25 88.6989 127.217 88.8188 127.15 88.8913C127.088 88.9638 127.005 89 126.899 89C126.798 89 126.715 88.9638 126.648 88.8913C126.581 88.8188 126.547 88.6989 126.547 88.5316V86.5911C126.547 86.4182 126.578 86.2956 126.639 86.2231C126.706 86.1506 126.793 86.1143 126.899 86.1143C126.999 86.1143 127.08 86.1478 127.141 86.2147C127.208 86.2816 127.244 86.3904 127.25 86.5409C127.278 87.0539 127.551 87.5223 128.07 87.9461C128.594 88.3643 129.296 88.5734 130.177 88.5734C131.059 88.5734 131.753 88.3532 132.26 87.9126C132.773 87.4721 133.03 86.9508 133.03 86.3485C133.03 85.9805 132.932 85.6543 132.737 85.3699C132.542 85.08 132.252 84.8513 131.867 84.684C131.599 84.5669 131.042 84.4359 130.194 84.2909C129.029 84.0958 128.19 83.7974 127.677 83.3959C127.164 82.9945 126.907 82.4229 126.907 81.6813C126.907 80.9452 127.2 80.3123 127.785 79.7826C128.376 79.2529 129.154 78.988 130.119 78.988C131.1 78.988 131.945 79.2975 132.653 79.9164ZM143.36 82.4675V82.2333C143.36 82.0605 143.393 81.9378 143.46 81.8653C143.527 81.7928 143.61 81.7566 143.711 81.7566C143.817 81.7566 143.903 81.7928 143.97 81.8653C144.037 81.9378 144.071 82.0605 144.071 82.2333V83.8225C144.065 83.9954 144.029 84.1181 143.962 84.1906C143.9 84.263 143.817 84.2993 143.711 84.2993C143.616 84.2993 143.535 84.2686 143.468 84.2073C143.407 84.1404 143.371 84.0316 143.36 83.8811C143.326 83.4852 143.064 83.1088 142.573 82.7519C142.088 82.395 141.433 82.2166 140.608 82.2166C139.565 82.2166 138.773 82.5428 138.232 83.1952C137.691 83.8476 137.421 84.5948 137.421 85.4368C137.421 86.3457 137.719 87.0957 138.316 87.6868C138.913 88.2779 139.685 88.5734 140.633 88.5734C141.179 88.5734 141.734 88.4731 142.297 88.2723C142.866 88.0716 143.379 87.7481 143.836 87.3021C143.953 87.1905 144.057 87.1348 144.146 87.1348C144.241 87.1348 144.319 87.1682 144.38 87.2351C144.447 87.2965 144.48 87.3745 144.48 87.4693C144.48 87.7091 144.199 88.013 143.636 88.381C142.727 88.9777 141.715 89.276 140.599 89.276C139.467 89.276 138.536 88.9164 137.806 88.197C137.081 87.4721 136.718 86.5548 136.718 85.4452C136.718 84.3132 137.089 83.3736 137.831 82.6264C138.578 81.8792 139.518 81.5056 140.65 81.5056C141.726 81.5056 142.629 81.8263 143.36 82.4675ZM152.736 89V87.9879C151.715 88.8467 150.625 89.276 149.465 89.276C148.623 89.276 147.965 89.0641 147.491 88.6403C147.018 88.211 146.781 87.6868 146.781 87.0679C146.781 86.3876 147.093 85.7937 147.717 85.2863C148.342 84.7788 149.254 84.5251 150.452 84.5251C150.776 84.5251 151.127 84.5474 151.506 84.592C151.886 84.6311 152.295 84.6952 152.736 84.7844V83.6469C152.736 83.2621 152.557 82.9275 152.201 82.6432C151.844 82.3588 151.308 82.2166 150.595 82.2166C150.048 82.2166 149.281 82.3755 148.294 82.6933C148.116 82.7491 148.002 82.777 147.952 82.777C147.862 82.777 147.784 82.7435 147.717 82.6766C147.656 82.6097 147.625 82.5261 147.625 82.4257C147.625 82.3309 147.653 82.2556 147.709 82.1999C147.787 82.1162 148.102 82.0019 148.654 81.8569C149.524 81.6227 150.182 81.5056 150.628 81.5056C151.515 81.5056 152.206 81.7259 152.702 82.1664C153.199 82.6013 153.447 83.0948 153.447 83.6469V88.2974H154.384C154.556 88.2974 154.679 88.3309 154.752 88.3978C154.824 88.4591 154.86 88.5428 154.86 88.6487C154.86 88.7491 154.824 88.8327 154.752 88.8996C154.679 88.9665 154.556 89 154.384 89H152.736ZM152.736 85.5037C152.407 85.4089 152.058 85.3392 151.69 85.2946C151.322 85.25 150.935 85.2277 150.528 85.2277C149.507 85.2277 148.71 85.448 148.136 85.8885C147.701 86.2175 147.483 86.6106 147.483 87.0679C147.483 87.4916 147.648 87.8485 147.977 88.1385C148.311 88.4284 148.796 88.5734 149.432 88.5734C150.04 88.5734 150.603 88.4535 151.122 88.2138C151.646 87.9684 152.184 87.5809 152.736 87.0511V85.5037ZM158.733 81.7566V82.8188C159.224 82.3225 159.667 81.9796 160.063 81.79C160.459 81.6004 160.905 81.5056 161.401 81.5056C161.937 81.5056 162.424 81.6199 162.865 81.8486C163.177 82.0158 163.459 82.2947 163.71 82.685C163.966 83.0697 164.095 83.4656 164.095 83.8727V88.2974H164.688C164.856 88.2974 164.976 88.3309 165.048 88.3978C165.121 88.4591 165.157 88.5428 165.157 88.6487C165.157 88.7491 165.121 88.8327 165.048 88.8996C164.976 88.9665 164.856 89 164.688 89H162.806C162.634 89 162.511 88.9665 162.438 88.8996C162.366 88.8327 162.33 88.7491 162.33 88.6487C162.33 88.5428 162.366 88.4591 162.438 88.3978C162.511 88.3309 162.634 88.2974 162.806 88.2974H163.392V83.9898C163.392 83.4935 163.211 83.0753 162.848 82.7352C162.486 82.3894 162.001 82.2166 161.393 82.2166C160.93 82.2166 160.529 82.3114 160.188 82.501C159.848 82.685 159.363 83.1478 158.733 83.8894V88.2974H159.528C159.695 88.2974 159.815 88.3309 159.887 88.3978C159.96 88.4591 159.996 88.5428 159.996 88.6487C159.996 88.7491 159.96 88.8327 159.887 88.8996C159.815 88.9665 159.695 89 159.528 89H157.236C157.069 89 156.949 88.9665 156.876 88.8996C156.804 88.8327 156.767 88.7491 156.767 88.6487C156.767 88.5428 156.804 88.4591 156.876 88.3978C156.949 88.3309 157.069 88.2974 157.236 88.2974H158.03V82.4675H157.437C157.269 82.4675 157.149 82.4341 157.077 82.3671C157.004 82.3002 156.968 82.2138 156.968 82.1079C156.968 82.0075 157.004 81.9238 157.077 81.8569C157.149 81.79 157.269 81.7566 157.437 81.7566H158.733ZM183.6 89V87.9879C182.58 88.8467 181.489 89.276 180.33 89.276C179.488 89.276 178.83 89.0641 178.356 88.6403C177.882 88.211 177.645 87.6868 177.645 87.0679C177.645 86.3876 177.957 85.7937 178.581 85.2863C179.206 84.7788 180.118 84.5251 181.317 84.5251C181.64 84.5251 181.991 84.5474 182.37 84.592C182.75 84.6311 183.159 84.6952 183.6 84.7844V83.6469C183.6 83.2621 183.422 82.9275 183.065 82.6432C182.708 82.3588 182.172 82.2166 181.459 82.2166C180.912 82.2166 180.146 82.3755 179.159 82.6933C178.98 82.7491 178.866 82.777 178.816 82.777C178.726 82.777 178.648 82.7435 178.581 82.6766C178.52 82.6097 178.489 82.5261 178.489 82.4257C178.489 82.3309 178.517 82.2556 178.573 82.1999C178.651 82.1162 178.966 82.0019 179.518 81.8569C180.388 81.6227 181.046 81.5056 181.492 81.5056C182.379 81.5056 183.07 81.7259 183.567 82.1664C184.063 82.6013 184.311 83.0948 184.311 83.6469V88.2974H185.248C185.421 88.2974 185.543 88.3309 185.616 88.3978C185.688 88.4591 185.725 88.5428 185.725 88.6487C185.725 88.7491 185.688 88.8327 185.616 88.8996C185.543 88.9665 185.421 89 185.248 89H183.6ZM183.6 85.5037C183.271 85.4089 182.922 85.3392 182.554 85.2946C182.186 85.25 181.799 85.2277 181.392 85.2277C180.371 85.2277 179.574 85.448 179 85.8885C178.565 86.2175 178.347 86.6106 178.347 87.0679C178.347 87.4916 178.512 87.8485 178.841 88.1385C179.175 88.4284 179.66 88.5734 180.296 88.5734C180.904 88.5734 181.467 88.4535 181.986 88.2138C182.51 87.9684 183.048 87.5809 183.6 87.0511V85.5037ZM189.597 81.7566V82.8188C190.088 82.3225 190.531 81.9796 190.927 81.79C191.323 81.6004 191.769 81.5056 192.265 81.5056C192.801 81.5056 193.289 81.6199 193.729 81.8486C194.041 82.0158 194.323 82.2947 194.574 82.685C194.83 83.0697 194.959 83.4656 194.959 83.8727V88.2974H195.553C195.72 88.2974 195.84 88.3309 195.912 88.3978C195.985 88.4591 196.021 88.5428 196.021 88.6487C196.021 88.7491 195.985 88.8327 195.912 88.8996C195.84 88.9665 195.72 89 195.553 89H193.671C193.498 89 193.375 88.9665 193.303 88.8996C193.23 88.8327 193.194 88.7491 193.194 88.6487C193.194 88.5428 193.23 88.4591 193.303 88.3978C193.375 88.3309 193.498 88.2974 193.671 88.2974H194.256V83.9898C194.256 83.4935 194.075 83.0753 193.712 82.7352C193.35 82.3894 192.865 82.2166 192.257 82.2166C191.794 82.2166 191.393 82.3114 191.053 82.501C190.712 82.685 190.227 83.1478 189.597 83.8894V88.2974H190.392C190.559 88.2974 190.679 88.3309 190.751 88.3978C190.824 88.4591 190.86 88.5428 190.86 88.6487C190.86 88.7491 190.824 88.8327 190.751 88.8996C190.679 88.9665 190.559 89 190.392 89H188.1C187.933 89 187.813 88.9665 187.74 88.8996C187.668 88.8327 187.632 88.7491 187.632 88.6487C187.632 88.5428 187.668 88.4591 187.74 88.3978C187.813 88.3309 187.933 88.2974 188.1 88.2974H188.895V82.4675H188.301C188.133 82.4675 188.014 82.4341 187.941 82.3671C187.869 82.3002 187.832 82.2138 187.832 82.1079C187.832 82.0075 187.869 81.9238 187.941 81.8569C188.014 81.79 188.133 81.7566 188.301 81.7566H189.597ZM205.598 78.5029V88.2974H206.535C206.708 88.2974 206.83 88.3309 206.903 88.3978C206.975 88.4591 207.012 88.5428 207.012 88.6487C207.012 88.7491 206.975 88.8327 206.903 88.8996C206.83 88.9665 206.708 89 206.535 89H204.887V87.6032C204.073 88.7184 203.039 89.276 201.784 89.276C201.148 89.276 200.538 89.1087 199.952 88.7742C199.372 88.434 198.912 87.9517 198.572 87.3271C198.237 86.7026 198.07 86.0586 198.07 85.395C198.07 84.7259 198.237 84.0818 198.572 83.4629C198.912 82.8383 199.372 82.356 199.952 82.0158C200.538 81.6757 201.151 81.5056 201.792 81.5056C203.019 81.5056 204.051 82.0632 204.887 83.1785V79.2138H203.95C203.777 79.2138 203.655 79.1804 203.582 79.1134C203.51 79.0465 203.473 78.9601 203.473 78.8542C203.473 78.7538 203.51 78.6701 203.582 78.6032C203.655 78.5363 203.777 78.5029 203.95 78.5029H205.598ZM204.887 85.395C204.887 84.5028 204.586 83.75 203.984 83.1367C203.381 82.5233 202.665 82.2166 201.834 82.2166C200.998 82.2166 200.278 82.5233 199.676 83.1367C199.074 83.75 198.773 84.5028 198.773 85.395C198.773 86.2816 199.074 87.0344 199.676 87.6534C200.278 88.2667 200.998 88.5734 201.834 88.5734C202.665 88.5734 203.381 88.2667 203.984 87.6534C204.586 87.0344 204.887 86.2816 204.887 85.395ZM127.852 103.634V107.297H129.149C129.322 107.297 129.444 107.331 129.517 107.398C129.589 107.459 129.625 107.543 129.625 107.649C129.625 107.749 129.589 107.833 129.517 107.9C129.444 107.967 129.322 108 129.149 108H126.204C126.037 108 125.917 107.967 125.845 107.9C125.772 107.833 125.736 107.749 125.736 107.649C125.736 107.543 125.772 107.459 125.845 107.398C125.917 107.331 126.037 107.297 126.204 107.297H127.15V98.9164H126.204C126.037 98.9164 125.917 98.8857 125.845 98.8244C125.772 98.7575 125.736 98.6711 125.736 98.5651C125.736 98.4592 125.772 98.3755 125.845 98.3142C125.917 98.2473 126.037 98.2138 126.204 98.2138H130.453C131.329 98.2138 132.065 98.4926 132.662 99.0502C133.264 99.6023 133.565 100.227 133.565 100.924C133.565 101.426 133.378 101.9 133.005 102.346C132.637 102.786 132.018 103.154 131.148 103.45C131.65 103.796 132.079 104.186 132.436 104.621C132.793 105.056 133.364 105.948 134.15 107.297H134.686C134.853 107.297 134.973 107.331 135.045 107.398C135.118 107.459 135.154 107.543 135.154 107.649C135.154 107.749 135.118 107.833 135.045 107.9C134.973 107.967 134.853 108 134.686 108H133.749C132.879 106.444 132.204 105.402 131.725 104.872C131.251 104.342 130.704 103.929 130.085 103.634H127.852ZM127.852 102.931H129.768C130.381 102.931 130.936 102.82 131.432 102.597C131.934 102.374 132.296 102.112 132.519 101.81C132.748 101.509 132.862 101.203 132.862 100.89C132.862 100.422 132.625 99.9759 132.151 99.5521C131.683 99.1283 131.111 98.9164 130.437 98.9164H127.852V102.931ZM144.229 104.546H137.07C137.192 105.454 137.571 106.188 138.207 106.745C138.848 107.297 139.64 107.573 140.583 107.573C141.107 107.573 141.656 107.487 142.23 107.314C142.805 107.141 143.273 106.913 143.636 106.628C143.742 106.545 143.834 106.503 143.912 106.503C144.001 106.503 144.079 106.539 144.146 106.612C144.213 106.678 144.246 106.759 144.246 106.854C144.246 106.949 144.202 107.041 144.112 107.13C143.845 107.409 143.368 107.671 142.682 107.916C142.002 108.156 141.302 108.276 140.583 108.276C139.378 108.276 138.372 107.883 137.563 107.097C136.76 106.305 136.359 105.349 136.359 104.228C136.359 103.207 136.735 102.332 137.488 101.601C138.246 100.871 139.183 100.506 140.298 100.506C141.447 100.506 142.392 100.882 143.134 101.635C143.875 102.382 144.241 103.352 144.229 104.546ZM143.518 103.835C143.379 103.06 143.011 102.429 142.414 101.944C141.823 101.459 141.118 101.217 140.298 101.217C139.479 101.217 138.773 101.456 138.182 101.936C137.591 102.415 137.223 103.048 137.078 103.835H143.518ZM153.079 102.045V100.757H154.727C154.894 100.757 155.014 100.79 155.086 100.857C155.159 100.924 155.195 101.01 155.195 101.116C155.195 101.217 155.159 101.3 155.086 101.367C155.014 101.434 154.894 101.468 154.727 101.468H153.781V108.485C153.781 108.954 153.681 109.372 153.48 109.74C153.346 109.985 153.123 110.239 152.811 110.501C152.499 110.763 152.215 110.95 151.958 111.061C151.701 111.173 151.359 111.229 150.929 111.229H148.939C148.771 111.229 148.651 111.195 148.579 111.128C148.506 111.067 148.47 110.983 148.47 110.877C148.47 110.771 148.506 110.685 148.579 110.618C148.651 110.551 148.771 110.518 148.939 110.518L150.954 110.526C151.367 110.526 151.738 110.42 152.067 110.208C152.401 109.996 152.677 109.687 152.895 109.28C153.017 109.046 153.079 108.747 153.079 108.385V106.277C152.326 107.309 151.356 107.824 150.168 107.824C149.203 107.824 148.37 107.467 147.667 106.754C146.97 106.034 146.622 105.17 146.622 104.161C146.622 103.152 146.97 102.29 147.667 101.576C148.37 100.863 149.203 100.506 150.168 100.506C151.356 100.506 152.326 101.019 153.079 102.045ZM153.079 104.161C153.079 103.336 152.794 102.639 152.226 102.07C151.662 101.501 150.988 101.217 150.202 101.217C149.415 101.217 148.741 101.504 148.177 102.078C147.614 102.647 147.333 103.341 147.333 104.161C147.333 104.986 147.614 105.686 148.177 106.26C148.741 106.829 149.415 107.113 150.202 107.113C150.988 107.113 151.662 106.829 152.226 106.26C152.794 105.686 153.079 104.986 153.079 104.161ZM161.351 97.1516V98.9666H160.314V97.1516H161.351ZM161.376 100.757V107.297H164.136C164.309 107.297 164.432 107.331 164.504 107.398C164.577 107.459 164.613 107.543 164.613 107.649C164.613 107.749 164.577 107.833 164.504 107.9C164.432 107.967 164.309 108 164.136 108H157.913C157.746 108 157.626 107.967 157.554 107.9C157.481 107.833 157.445 107.749 157.445 107.649C157.445 107.543 157.481 107.459 157.554 107.398C157.626 107.331 157.746 107.297 157.913 107.297H160.674V101.468H158.624C158.457 101.468 158.334 101.434 158.256 101.367C158.184 101.3 158.148 101.217 158.148 101.116C158.148 101.01 158.184 100.924 158.256 100.857C158.329 100.79 158.451 100.757 158.624 100.757H161.376ZM173.613 101.217C173.613 101.055 173.647 100.938 173.713 100.865C173.78 100.793 173.864 100.757 173.964 100.757C174.07 100.757 174.157 100.793 174.224 100.865C174.291 100.938 174.324 101.06 174.324 101.233V102.438C174.324 102.605 174.291 102.725 174.224 102.797C174.157 102.87 174.07 102.906 173.964 102.906C173.87 102.906 173.789 102.875 173.722 102.814C173.66 102.753 173.624 102.652 173.613 102.513C173.58 102.178 173.407 101.902 173.094 101.685C172.637 101.373 172.032 101.217 171.279 101.217C170.493 101.217 169.883 101.376 169.448 101.693C169.119 101.933 168.954 102.201 168.954 102.496C168.954 102.831 169.149 103.11 169.54 103.333C169.807 103.489 170.315 103.609 171.062 103.692C172.038 103.798 172.715 103.918 173.094 104.052C173.635 104.247 174.037 104.518 174.299 104.863C174.567 105.209 174.7 105.583 174.7 105.984C174.7 106.581 174.413 107.113 173.839 107.582C173.265 108.045 172.423 108.276 171.313 108.276C170.203 108.276 169.294 107.994 168.586 107.431C168.586 107.621 168.575 107.743 168.553 107.799C168.53 107.855 168.489 107.902 168.427 107.941C168.371 107.98 168.307 108 168.235 108C168.134 108 168.051 107.964 167.984 107.891C167.917 107.819 167.884 107.699 167.884 107.532V106.085C167.884 105.917 167.914 105.797 167.976 105.725C168.042 105.652 168.129 105.616 168.235 105.616C168.335 105.616 168.419 105.652 168.486 105.725C168.558 105.792 168.595 105.884 168.595 106.001C168.595 106.257 168.659 106.472 168.787 106.645C168.982 106.913 169.292 107.136 169.715 107.314C170.145 107.487 170.669 107.573 171.288 107.573C172.202 107.573 172.883 107.403 173.329 107.063C173.775 106.723 173.998 106.363 173.998 105.984C173.998 105.549 173.772 105.201 173.32 104.939C172.863 104.677 172.197 104.501 171.321 104.412C170.451 104.323 169.827 104.205 169.448 104.06C169.068 103.915 168.773 103.698 168.561 103.408C168.349 103.118 168.243 102.806 168.243 102.471C168.243 101.869 168.539 101.392 169.13 101.041C169.721 100.684 170.426 100.506 171.246 100.506C172.216 100.506 173.005 100.743 173.613 101.217ZM180.137 100.757H183.951C184.119 100.757 184.238 100.79 184.311 100.857C184.383 100.924 184.42 101.01 184.42 101.116C184.42 101.217 184.383 101.3 184.311 101.367C184.238 101.434 184.119 101.468 183.951 101.468H180.137V106.143C180.137 106.55 180.299 106.89 180.622 107.164C180.951 107.437 181.431 107.573 182.061 107.573C182.535 107.573 183.048 107.504 183.6 107.364C184.152 107.219 184.581 107.058 184.888 106.879C185 106.807 185.092 106.77 185.164 106.77C185.253 106.77 185.331 106.807 185.398 106.879C185.465 106.946 185.499 107.027 185.499 107.122C185.499 107.205 185.462 107.283 185.39 107.356C185.211 107.54 184.777 107.741 184.085 107.958C183.399 108.17 182.741 108.276 182.111 108.276C181.291 108.276 180.639 108.084 180.154 107.699C179.669 107.314 179.426 106.796 179.426 106.143V101.468H178.13C177.962 101.468 177.843 101.434 177.77 101.367C177.698 101.3 177.661 101.214 177.661 101.108C177.661 101.007 177.698 100.924 177.77 100.857C177.843 100.79 177.962 100.757 178.13 100.757H179.426V98.6822C179.426 98.5149 179.46 98.395 179.527 98.3226C179.594 98.2501 179.677 98.2138 179.778 98.2138C179.883 98.2138 179.97 98.2501 180.037 98.3226C180.104 98.395 180.137 98.5149 180.137 98.6822V100.757ZM195.67 104.546H188.51C188.632 105.454 189.012 106.188 189.647 106.745C190.289 107.297 191.08 107.573 192.023 107.573C192.547 107.573 193.096 107.487 193.671 107.314C194.245 107.141 194.713 106.913 195.076 106.628C195.182 106.545 195.274 106.503 195.352 106.503C195.441 106.503 195.519 106.539 195.586 106.612C195.653 106.678 195.686 106.759 195.686 106.854C195.686 106.949 195.642 107.041 195.553 107.13C195.285 107.409 194.808 107.671 194.122 107.916C193.442 108.156 192.742 108.276 192.023 108.276C190.818 108.276 189.812 107.883 189.003 107.097C188.2 106.305 187.799 105.349 187.799 104.228C187.799 103.207 188.175 102.332 188.928 101.601C189.686 100.871 190.623 100.506 191.738 100.506C192.887 100.506 193.832 100.882 194.574 101.635C195.316 102.382 195.681 103.352 195.67 104.546ZM194.959 103.835C194.819 103.06 194.451 102.429 193.855 101.944C193.263 101.459 192.558 101.217 191.738 101.217C190.919 101.217 190.213 101.456 189.622 101.936C189.031 102.415 188.663 103.048 188.518 103.835H194.959ZM201.315 100.757V102.53C202.23 101.705 202.913 101.175 203.365 100.941C203.822 100.701 204.243 100.581 204.628 100.581C205.046 100.581 205.433 100.723 205.79 101.007C206.153 101.286 206.334 101.498 206.334 101.643C206.334 101.749 206.298 101.838 206.225 101.911C206.158 101.978 206.072 102.011 205.966 102.011C205.91 102.011 205.863 102.003 205.824 101.986C205.785 101.964 205.712 101.9 205.606 101.794C205.411 101.599 205.241 101.465 205.096 101.392C204.951 101.32 204.809 101.284 204.67 101.284C204.363 101.284 203.992 101.406 203.557 101.652C203.128 101.897 202.381 102.496 201.315 103.45V107.297H204.427C204.6 107.297 204.723 107.331 204.795 107.398C204.868 107.459 204.904 107.543 204.904 107.649C204.904 107.749 204.868 107.833 204.795 107.9C204.723 107.967 204.6 108 204.427 108H198.915C198.748 108 198.628 107.969 198.555 107.908C198.483 107.841 198.447 107.757 198.447 107.657C198.447 107.562 198.48 107.484 198.547 107.423C198.619 107.356 198.742 107.322 198.915 107.322H200.613V101.468H199.316C199.149 101.468 199.029 101.434 198.957 101.367C198.884 101.3 198.848 101.214 198.848 101.108C198.848 101.007 198.881 100.924 198.948 100.857C199.021 100.79 199.144 100.757 199.316 100.757H201.315Z" fill="white"/>
</svg>
