<svg width="222" height="136" viewBox="0 0 222 136" fill="none" xmlns="http://www.w3.org/2000/svg">
<rect x="16.5" y="17.5" width="205" height="113" fill="#42CF71" stroke="#42CF71"/>
<rect x="10.5" y="11.5" width="205" height="113" fill="#1C1C1C" stroke="#42CF71"/>
<path d="M37.7778 37.7778H45.3333V45.3333H37.7778V37.7778ZM37.7778 90.6667H45.3333V98.2222H37.7778V90.6667ZM90.6667 37.7778H98.2222V45.3333H90.6667V37.7778Z" fill="#1C1C1C"/>
<path d="M22.6667 22.6667H113.333V113.333H22.6667V22.6667Z" fill="#42CF71" stroke="#1C1C1C" stroke-width="4.52778" stroke-linejoin="round"/>
<path d="M37.778 37.7778H45.3335V45.3334H37.778V37.7778ZM37.778 90.6667H45.3335V98.2222H37.778V90.6667ZM90.6668 37.7778H98.2224V45.3334H90.6668V37.7778Z" fill="#3F3F3F" stroke="#1C1C1C" stroke-width="4.52778" stroke-linejoin="round"/>
<path d="M34 77.4444C35.0432 77.4444 35.8889 76.5987 35.8889 75.5555C35.8889 74.5123 35.0432 73.6667 34 73.6667C32.9568 73.6667 32.1111 74.5123 32.1111 75.5555C32.1111 76.5987 32.9568 77.4444 34 77.4444Z" fill="#1C1C1C"/>
<path d="M30.2222 73.6667C31.2654 73.6667 32.1111 72.821 32.1111 71.7778C32.1111 70.7346 31.2654 69.8889 30.2222 69.8889C29.179 69.8889 28.3333 70.7346 28.3333 71.7778C28.3333 72.821 29.179 73.6667 30.2222 73.6667Z" fill="#1C1C1C"/>
<path d="M37.7778 73.6667C38.821 73.6667 39.6667 72.821 39.6667 71.7778C39.6667 70.7346 38.821 69.8889 37.7778 69.8889C36.7346 69.8889 35.8889 70.7346 35.8889 71.7778C35.8889 72.821 36.7346 73.6667 37.7778 73.6667Z" fill="#1C1C1C"/>
<path d="M64.2222 88.7778C65.2654 88.7778 66.1111 87.9321 66.1111 86.8889C66.1111 85.8457 65.2654 85 64.2222 85C63.179 85 62.3333 85.8457 62.3333 86.8889C62.3333 87.9321 63.179 88.7778 64.2222 88.7778Z" fill="#1C1C1C"/>
<path d="M75.5556 73.6667C76.5988 73.6667 77.4445 72.821 77.4445 71.7778C77.4445 70.7346 76.5988 69.8889 75.5556 69.8889C74.5124 69.8889 73.6667 70.7346 73.6667 71.7778C73.6667 72.821 74.5124 73.6667 75.5556 73.6667Z" fill="#1C1C1C"/>
<path d="M75.5556 54.7778C76.5988 54.7778 77.4445 53.9321 77.4445 52.8889C77.4445 51.8457 76.5988 51 75.5556 51C74.5124 51 73.6667 51.8457 73.6667 52.8889C73.6667 53.9321 74.5124 54.7778 75.5556 54.7778Z" fill="#1C1C1C"/>
<path d="M60.4444 32.1111C61.4876 32.1111 62.3333 31.2654 62.3333 30.2222C62.3333 29.179 61.4876 28.3333 60.4444 28.3333C59.4012 28.3333 58.5555 29.179 58.5555 30.2222C58.5555 31.2654 59.4012 32.1111 60.4444 32.1111Z" fill="#1C1C1C"/>
<path d="M86.8889 62.3333C87.9321 62.3333 88.7778 61.4876 88.7778 60.4444C88.7778 59.4012 87.9321 58.5555 86.8889 58.5555C85.8457 58.5555 85 59.4012 85 60.4444C85 61.4876 85.8457 62.3333 86.8889 62.3333Z" fill="#1C1C1C"/>
<path d="M98.2222 62.3333C99.2654 62.3333 100.111 61.4876 100.111 60.4444C100.111 59.4012 99.2654 58.5555 98.2222 58.5555C97.179 58.5555 96.3333 59.4012 96.3333 60.4444C96.3333 61.4876 97.179 62.3333 98.2222 62.3333Z" fill="#1C1C1C"/>
<path d="M98.2222 85C99.2654 85 100.111 84.1543 100.111 83.1111C100.111 82.0679 99.2654 81.2222 98.2222 81.2222C97.179 81.2222 96.3333 82.0679 96.3333 83.1111C96.3333 84.1543 97.179 85 98.2222 85Z" fill="#1C1C1C"/>
<path d="M102 92.5555C103.043 92.5555 103.889 91.7099 103.889 90.6667C103.889 89.6235 103.043 88.7778 102 88.7778C100.957 88.7778 100.111 89.6235 100.111 90.6667C100.111 91.7099 100.957 92.5555 102 92.5555Z" fill="#1C1C1C"/>
<path d="M105.778 107.667C106.821 107.667 107.667 106.821 107.667 105.778C107.667 104.735 106.821 103.889 105.778 103.889C104.735 103.889 103.889 104.735 103.889 105.778C103.889 106.821 104.735 107.667 105.778 107.667Z" fill="#1C1C1C"/>
<path d="M60.4444 107.667C61.4876 107.667 62.3333 106.821 62.3333 105.778C62.3333 104.735 61.4876 103.889 60.4444 103.889C59.4012 103.889 58.5555 104.735 58.5555 105.778C58.5555 106.821 59.4012 107.667 60.4444 107.667Z" fill="#1C1C1C"/>
<path d="M83.1111 107.667C84.1543 107.667 85 106.821 85 105.778C85 104.735 84.1543 103.889 83.1111 103.889C82.0679 103.889 81.2222 104.735 81.2222 105.778C81.2222 106.821 82.0679 107.667 83.1111 107.667Z" fill="#1C1C1C"/>
<path d="M86.8889 103.889C87.9321 103.889 88.7778 103.043 88.7778 102C88.7778 100.957 87.9321 100.111 86.8889 100.111C85.8457 100.111 85 100.957 85 102C85 103.043 85.8457 103.889 86.8889 103.889Z" fill="#1C1C1C"/>
<path d="M83.1111 100.111C84.1543 100.111 85 99.2654 85 98.2222C85 97.179 84.1543 96.3333 83.1111 96.3333C82.0679 96.3333 81.2222 97.179 81.2222 98.2222C81.2222 99.2654 82.0679 100.111 83.1111 100.111Z" fill="#1C1C1C"/>
<path d="M30.2222 62.3333C31.2654 62.3333 32.1111 61.4876 32.1111 60.4444C32.1111 59.4012 31.2654 58.5555 30.2222 58.5555C29.179 58.5555 28.3333 59.4012 28.3333 60.4444C28.3333 61.4876 29.179 62.3333 30.2222 62.3333Z" fill="#1C1C1C"/>
<path d="M75.5556 103.889C76.5988 103.889 77.4445 103.043 77.4445 102C77.4445 100.957 76.5988 100.111 75.5556 100.111C74.5124 100.111 73.6667 100.957 73.6667 102C73.6667 103.043 74.5124 103.889 75.5556 103.889Z" fill="#1C1C1C"/>
<path d="M22.6667 22.6667H113.333V113.333H22.6667V22.6667Z" stroke="#1C1C1C" stroke-width="4.52778" stroke-linejoin="round"/>
<path d="M30.2222 30.2222H52.8889V52.8889H30.2222V30.2222Z" stroke="#1C1C1C" stroke-width="4.52778" stroke-linejoin="round"/>
<path d="M37.7778 37.7778H45.3333V45.3333H37.7778V37.7778ZM30.2222 83.1111H52.8889V105.778H30.2222V83.1111Z" stroke="#1C1C1C" stroke-width="4.52778" stroke-linejoin="round"/>
<path d="M37.7778 90.6667H45.3333V98.2222H37.7778V90.6667ZM83.1111 30.2222H105.778V52.8889H83.1111V30.2222Z" stroke="#1C1C1C" stroke-width="4.52778" stroke-linejoin="round"/>
<path d="M90.6667 37.7778H98.2222V45.3333H90.6667V37.7778Z" stroke="#1C1C1C" stroke-width="4.52778" stroke-linejoin="round"/>
<path d="M34 68V64.2222H49.1111M37.7778 64.2222V60.4445M45.3333 64.2222V75.5556M45.3333 71.7778H49.1111M71.7778 60.4445V56.6667M105.778 64.2222H102M79.3333 79.3333H83.1111V75.5556M52.8889 60.4445H56.6667M64.2222 60.4445H75.5556M71.7778 30.2222V37.7778H68M68 37.7778V52.8889M68 37.7778H60.4444M68 49.1111H60.4444V52.8889" stroke="#1C1C1C" stroke-width="4.52778" stroke-linecap="round" stroke-linejoin="round"/>
<path d="M68 41.5556H64.2222V34M52.8889 68H68M56.6667 68V75.5556H52.8889M64.2222 68V71.7778M60.4445 83.1111V79.3333H71.7778V90.6667H79.3334V86.8889H94.4445V105.778" stroke="#1C1C1C" stroke-width="4.52778" stroke-linecap="round" stroke-linejoin="round"/>
<path d="M68 75.5555V83.1111H79.3333M86.8889 75.5555H79.3333V90.6667H83.1111M90.6667 64.2222V71.7778H94.4445M94.4445 71.7778V79.3333H90.6667V86.8889M94.4445 71.7778V68H98.2222M98.2222 94.4444H90.6667V98.2222M60.4445 98.2222H64.2222V102H68V94.4444M105.778 60.4444V71.7778H102M83.1111 68V64.2222M105.778 79.3333V83.1111M102 98.2222H105.778M75.5556 41.5555V45.3333" stroke="#1C1C1C" stroke-width="4.52778" stroke-linecap="round" stroke-linejoin="round"/>
<path d="M129.653 35.9164V35.6822C129.653 35.5149 129.684 35.395 129.745 35.3226C129.812 35.2501 129.899 35.2138 130.005 35.2138C130.111 35.2138 130.194 35.2501 130.256 35.3226C130.322 35.395 130.356 35.5149 130.356 35.6822V37.4722C130.356 37.6395 130.322 37.7593 130.256 37.8318C130.194 37.9043 130.111 37.9406 130.005 37.9406C129.904 37.9406 129.821 37.9071 129.754 37.8402C129.692 37.7733 129.659 37.6645 129.653 37.514C129.625 37.0456 129.383 36.6246 128.926 36.251C128.474 35.8774 127.88 35.6906 127.144 35.6906C126.369 35.6906 125.753 35.8913 125.296 36.2928C124.838 36.6887 124.61 37.1571 124.61 37.698C124.61 37.9768 124.674 38.2305 124.802 38.4592C124.93 38.6878 125.1 38.8746 125.312 39.0196C125.524 39.159 125.764 39.2733 126.032 39.3625C126.299 39.4461 126.717 39.5354 127.286 39.6301C128.24 39.7863 128.898 39.9452 129.26 40.1069C129.745 40.3244 130.111 40.6255 130.356 41.0102C130.607 41.395 130.732 41.8495 130.732 42.3736C130.732 43.1766 130.412 43.8625 129.77 44.4312C129.129 44.9944 128.265 45.276 127.177 45.276C125.956 45.276 124.98 44.8941 124.25 44.1301V44.5316C124.25 44.6989 124.217 44.8188 124.15 44.8913C124.088 44.9638 124.005 45 123.899 45C123.798 45 123.715 44.9638 123.648 44.8913C123.581 44.8188 123.547 44.6989 123.547 44.5316V42.5911C123.547 42.4182 123.578 42.2956 123.639 42.2231C123.706 42.1506 123.793 42.1143 123.899 42.1143C123.999 42.1143 124.08 42.1478 124.141 42.2147C124.208 42.2816 124.244 42.3904 124.25 42.5409C124.278 43.0539 124.551 43.5223 125.07 43.9461C125.594 44.3643 126.296 44.5734 127.177 44.5734C128.059 44.5734 128.753 44.3532 129.26 43.9126C129.773 43.4721 130.03 42.9508 130.03 42.3485C130.03 41.9805 129.932 41.6543 129.737 41.3699C129.542 41.08 129.252 40.8513 128.867 40.684C128.599 40.5669 128.042 40.4359 127.194 40.2909C126.029 40.0958 125.19 39.7974 124.677 39.3959C124.164 38.9945 123.907 38.4229 123.907 37.6813C123.907 36.9452 124.2 36.3123 124.785 35.7826C125.376 35.2529 126.154 34.988 127.119 34.988C128.1 34.988 128.945 35.2975 129.653 35.9164ZM140.36 38.4675V38.2333C140.36 38.0605 140.393 37.9378 140.46 37.8653C140.527 37.7928 140.61 37.7566 140.711 37.7566C140.817 37.7566 140.903 37.7928 140.97 37.8653C141.037 37.9378 141.071 38.0605 141.071 38.2333V39.8225C141.065 39.9954 141.029 40.1181 140.962 40.1906C140.9 40.263 140.817 40.2993 140.711 40.2993C140.616 40.2993 140.535 40.2686 140.468 40.2073C140.407 40.1404 140.371 40.0316 140.36 39.8811C140.326 39.4852 140.064 39.1088 139.573 38.7519C139.088 38.395 138.433 38.2166 137.608 38.2166C136.565 38.2166 135.773 38.5428 135.232 39.1952C134.691 39.8476 134.421 40.5948 134.421 41.4368C134.421 42.3457 134.719 43.0957 135.316 43.6868C135.913 44.2779 136.685 44.5734 137.633 44.5734C138.179 44.5734 138.734 44.4731 139.297 44.2723C139.866 44.0716 140.379 43.7481 140.836 43.3021C140.953 43.1905 141.057 43.1348 141.146 43.1348C141.241 43.1348 141.319 43.1682 141.38 43.2351C141.447 43.2965 141.48 43.3745 141.48 43.4693C141.48 43.7091 141.199 44.013 140.636 44.381C139.727 44.9777 138.715 45.276 137.599 45.276C136.467 45.276 135.536 44.9164 134.806 44.197C134.081 43.4721 133.718 42.5548 133.718 41.4452C133.718 40.3132 134.089 39.3736 134.831 38.6264C135.578 37.8792 136.518 37.5056 137.65 37.5056C138.726 37.5056 139.629 37.8263 140.36 38.4675ZM149.736 45V43.9879C148.715 44.8467 147.625 45.276 146.465 45.276C145.623 45.276 144.965 45.0641 144.491 44.6403C144.018 44.211 143.781 43.6868 143.781 43.0679C143.781 42.3876 144.093 41.7937 144.717 41.2863C145.342 40.7788 146.254 40.5251 147.452 40.5251C147.776 40.5251 148.127 40.5474 148.506 40.592C148.886 40.6311 149.295 40.6952 149.736 40.7844V39.6469C149.736 39.2621 149.557 38.9275 149.201 38.6432C148.844 38.3588 148.308 38.2166 147.595 38.2166C147.048 38.2166 146.281 38.3755 145.294 38.6933C145.116 38.7491 145.002 38.777 144.952 38.777C144.862 38.777 144.784 38.7435 144.717 38.6766C144.656 38.6097 144.625 38.5261 144.625 38.4257C144.625 38.3309 144.653 38.2556 144.709 38.1999C144.787 38.1162 145.102 38.0019 145.654 37.8569C146.524 37.6227 147.182 37.5056 147.628 37.5056C148.515 37.5056 149.206 37.7259 149.702 38.1664C150.199 38.6013 150.447 39.0948 150.447 39.6469V44.2974H151.384C151.556 44.2974 151.679 44.3309 151.752 44.3978C151.824 44.4591 151.86 44.5428 151.86 44.6487C151.86 44.7491 151.824 44.8327 151.752 44.8996C151.679 44.9665 151.556 45 151.384 45H149.736ZM149.736 41.5037C149.407 41.4089 149.058 41.3392 148.69 41.2946C148.322 41.25 147.935 41.2277 147.528 41.2277C146.507 41.2277 145.71 41.448 145.136 41.8885C144.701 42.2175 144.483 42.6106 144.483 43.0679C144.483 43.4916 144.648 43.8485 144.977 44.1385C145.311 44.4284 145.796 44.5734 146.432 44.5734C147.04 44.5734 147.603 44.4535 148.122 44.2138C148.646 43.9684 149.184 43.5809 149.736 43.0511V41.5037ZM155.733 37.7566V38.8188C156.224 38.3225 156.667 37.9796 157.063 37.79C157.459 37.6004 157.905 37.5056 158.401 37.5056C158.937 37.5056 159.424 37.6199 159.865 37.8486C160.177 38.0158 160.459 38.2947 160.71 38.685C160.966 39.0697 161.095 39.4656 161.095 39.8727V44.2974H161.688C161.856 44.2974 161.976 44.3309 162.048 44.3978C162.121 44.4591 162.157 44.5428 162.157 44.6487C162.157 44.7491 162.121 44.8327 162.048 44.8996C161.976 44.9665 161.856 45 161.688 45H159.806C159.634 45 159.511 44.9665 159.438 44.8996C159.366 44.8327 159.33 44.7491 159.33 44.6487C159.33 44.5428 159.366 44.4591 159.438 44.3978C159.511 44.3309 159.634 44.2974 159.806 44.2974H160.392V39.9898C160.392 39.4935 160.211 39.0753 159.848 38.7352C159.486 38.3894 159.001 38.2166 158.393 38.2166C157.93 38.2166 157.529 38.3114 157.188 38.501C156.848 38.685 156.363 39.1478 155.733 39.8894V44.2974H156.528C156.695 44.2974 156.815 44.3309 156.887 44.3978C156.96 44.4591 156.996 44.5428 156.996 44.6487C156.996 44.7491 156.96 44.8327 156.887 44.8996C156.815 44.9665 156.695 45 156.528 45H154.236C154.069 45 153.949 44.9665 153.876 44.8996C153.804 44.8327 153.767 44.7491 153.767 44.6487C153.767 44.5428 153.804 44.4591 153.876 44.3978C153.949 44.3309 154.069 44.2974 154.236 44.2974H155.03V38.4675H154.437C154.269 38.4675 154.149 38.4341 154.077 38.3671C154.004 38.3002 153.968 38.2138 153.968 38.1079C153.968 38.0075 154.004 37.9238 154.077 37.8569C154.149 37.79 154.269 37.7566 154.437 37.7566H155.733ZM182.507 41.395C182.507 42.4656 182.122 43.3801 181.353 44.1385C180.589 44.8968 179.666 45.276 178.584 45.276C177.491 45.276 176.563 44.8968 175.799 44.1385C175.035 43.3745 174.653 42.4601 174.653 41.395C174.653 40.3244 175.035 39.4099 175.799 38.6515C176.563 37.8876 177.491 37.5056 178.584 37.5056C179.666 37.5056 180.589 37.8848 181.353 38.6432C182.122 39.4015 182.507 40.3188 182.507 41.395ZM181.796 41.395C181.796 40.514 181.481 39.764 180.851 39.145C180.226 38.5261 179.468 38.2166 178.576 38.2166C177.684 38.2166 176.923 38.5289 176.292 39.1534C175.668 39.7723 175.356 40.5195 175.356 41.395C175.356 42.2649 175.668 43.0121 176.292 43.6366C176.923 44.2612 177.684 44.5734 178.576 44.5734C179.468 44.5734 180.226 44.2639 180.851 43.645C181.481 43.0205 181.796 42.2705 181.796 41.395ZM188.027 37.7566V39.5298C188.942 38.7045 189.625 38.1748 190.077 37.9406C190.534 37.7008 190.955 37.5809 191.34 37.5809C191.758 37.5809 192.145 37.7231 192.502 38.0075C192.865 38.2863 193.046 38.4982 193.046 38.6432C193.046 38.7491 193.01 38.8383 192.937 38.9108C192.87 38.9777 192.784 39.0112 192.678 39.0112C192.622 39.0112 192.575 39.0028 192.536 38.9861C192.497 38.9638 192.424 38.8997 192.318 38.7937C192.123 38.5986 191.953 38.4647 191.808 38.3922C191.663 38.3197 191.521 38.2835 191.382 38.2835C191.075 38.2835 190.704 38.4062 190.269 38.6515C189.84 38.8969 189.092 39.4963 188.027 40.4498V44.2974H191.139C191.312 44.2974 191.434 44.3309 191.507 44.3978C191.579 44.4591 191.616 44.5428 191.616 44.6487C191.616 44.7491 191.579 44.8327 191.507 44.8996C191.434 44.9665 191.312 45 191.139 45H185.627C185.46 45 185.34 44.9693 185.267 44.908C185.195 44.8411 185.159 44.7574 185.159 44.6571C185.159 44.5623 185.192 44.4842 185.259 44.4229C185.331 44.356 185.454 44.3225 185.627 44.3225H187.325V38.4675H186.028C185.861 38.4675 185.741 38.4341 185.669 38.3671C185.596 38.3002 185.56 38.2138 185.56 38.1079C185.56 38.0075 185.593 37.9238 185.66 37.8569C185.733 37.79 185.856 37.7566 186.028 37.7566H188.027ZM130.072 57.4675V57.2333C130.072 57.0605 130.105 56.9378 130.172 56.8653C130.239 56.7928 130.322 56.7566 130.423 56.7566C130.529 56.7566 130.615 56.7928 130.682 56.8653C130.749 56.9378 130.782 57.0605 130.782 57.2333V58.8225C130.777 58.9954 130.741 59.1181 130.674 59.1906C130.612 59.263 130.529 59.2993 130.423 59.2993C130.328 59.2993 130.247 59.2686 130.18 59.2073C130.119 59.1404 130.083 59.0316 130.072 58.8811C130.038 58.4852 129.776 58.1088 129.285 57.7519C128.8 57.395 128.145 57.2166 127.32 57.2166C126.277 57.2166 125.485 57.5428 124.944 58.1952C124.403 58.8476 124.133 59.5948 124.133 60.4368C124.133 61.3457 124.431 62.0957 125.028 62.6868C125.625 63.2779 126.397 63.5734 127.345 63.5734C127.891 63.5734 128.446 63.4731 129.009 63.2723C129.578 63.0716 130.091 62.7481 130.548 62.3021C130.665 62.1905 130.769 62.1348 130.858 62.1348C130.953 62.1348 131.031 62.1682 131.092 62.2351C131.159 62.2965 131.192 62.3745 131.192 62.4693C131.192 62.7091 130.911 63.013 130.348 63.381C129.439 63.9777 128.427 64.276 127.311 64.276C126.179 64.276 125.248 63.9164 124.518 63.197C123.793 62.4721 123.43 61.5548 123.43 60.4452C123.43 59.3132 123.801 58.3736 124.543 57.6264C125.29 56.8792 126.23 56.5056 127.361 56.5056C128.438 56.5056 129.341 56.8263 130.072 57.4675ZM137.783 53.5029V63.2974H140.544C140.716 63.2974 140.839 63.3309 140.912 63.3978C140.984 63.4591 141.02 63.5428 141.02 63.6487C141.02 63.7491 140.984 63.8327 140.912 63.8996C140.839 63.9665 140.716 64 140.544 64H134.321C134.153 64 134.033 63.9665 133.961 63.8996C133.888 63.8327 133.852 63.7491 133.852 63.6487C133.852 63.5428 133.888 63.4591 133.961 63.3978C134.033 63.3309 134.153 63.2974 134.321 63.2974H137.081V54.2138H135.057C134.889 54.2138 134.767 54.1804 134.689 54.1134C134.616 54.0465 134.58 53.9601 134.58 53.8542C134.58 53.7538 134.616 53.6701 134.689 53.6032C134.761 53.5363 134.884 53.5029 135.057 53.5029H137.783ZM148.063 53.1516V54.9666H147.026V53.1516H148.063ZM148.088 56.7566V63.2974H150.848C151.021 63.2974 151.144 63.3309 151.216 63.3978C151.289 63.4591 151.325 63.5428 151.325 63.6487C151.325 63.7491 151.289 63.8327 151.216 63.8996C151.144 63.9665 151.021 64 150.848 64H144.625C144.458 64 144.338 63.9665 144.266 63.8996C144.193 63.8327 144.157 63.7491 144.157 63.6487C144.157 63.5428 144.193 63.4591 144.266 63.3978C144.338 63.3309 144.458 63.2974 144.625 63.2974H147.386V57.4675H145.336C145.169 57.4675 145.046 57.4341 144.968 57.3671C144.896 57.3002 144.86 57.2166 144.86 57.1162C144.86 57.0103 144.896 56.9238 144.968 56.8569C145.041 56.79 145.163 56.7566 145.336 56.7566H148.088ZM160.936 57.4675V57.2333C160.936 57.0605 160.969 56.9378 161.036 56.8653C161.103 56.7928 161.187 56.7566 161.287 56.7566C161.393 56.7566 161.479 56.7928 161.546 56.8653C161.613 56.9378 161.647 57.0605 161.647 57.2333V58.8225C161.641 58.9954 161.605 59.1181 161.538 59.1906C161.477 59.263 161.393 59.2993 161.287 59.2993C161.192 59.2993 161.111 59.2686 161.044 59.2073C160.983 59.1404 160.947 59.0316 160.936 58.8811C160.902 58.4852 160.64 58.1088 160.149 57.7519C159.664 57.395 159.009 57.2166 158.184 57.2166C157.141 57.2166 156.349 57.5428 155.808 58.1952C155.267 58.8476 154.997 59.5948 154.997 60.4368C154.997 61.3457 155.295 62.0957 155.892 62.6868C156.489 63.2779 157.261 63.5734 158.209 63.5734C158.755 63.5734 159.31 63.4731 159.873 63.2723C160.442 63.0716 160.955 62.7481 161.412 62.3021C161.529 62.1905 161.633 62.1348 161.722 62.1348C161.817 62.1348 161.895 62.1682 161.956 62.2351C162.023 62.2965 162.056 62.3745 162.056 62.4693C162.056 62.7091 161.775 63.013 161.212 63.381C160.303 63.9777 159.291 64.276 158.175 64.276C157.043 64.276 156.112 63.9164 155.382 63.197C154.657 62.4721 154.294 61.5548 154.294 60.4452C154.294 59.3132 154.665 58.3736 155.407 57.6264C156.154 56.8792 157.094 56.5056 158.226 56.5056C159.302 56.5056 160.205 56.8263 160.936 57.4675ZM166.866 60.8718V64H165.218C165.051 64 164.931 63.9665 164.858 63.8996C164.786 63.8327 164.75 63.7491 164.75 63.6487C164.75 63.5428 164.786 63.4591 164.858 63.3978C164.931 63.3309 165.051 63.2974 165.218 63.2974H166.163V54.2138H165.218C165.051 54.2138 164.931 54.1804 164.858 54.1134C164.786 54.0465 164.75 53.9601 164.75 53.8542C164.75 53.7538 164.786 53.6701 164.858 53.6032C164.931 53.5363 165.051 53.5029 165.218 53.5029H166.866V59.9768L169.852 57.4675H169.492C169.325 57.4675 169.205 57.4341 169.133 57.3671C169.06 57.3002 169.024 57.2166 169.024 57.1162C169.024 57.0103 169.06 56.9238 169.133 56.8569C169.205 56.79 169.325 56.7566 169.492 56.7566H171.742C171.915 56.7566 172.038 56.79 172.11 56.8569C172.183 56.9238 172.219 57.0103 172.219 57.1162C172.219 57.2166 172.183 57.3002 172.11 57.3671C172.038 57.4341 171.915 57.4675 171.742 57.4675H170.931L168.187 59.7593L171.659 63.2974H172.47C172.643 63.2974 172.765 63.3309 172.838 63.3978C172.91 63.4591 172.947 63.5428 172.947 63.6487C172.947 63.7491 172.91 63.8327 172.838 63.8996C172.765 63.9665 172.643 64 172.47 64H170.195C170.028 64 169.908 63.9665 169.835 63.8996C169.763 63.8327 169.726 63.7491 169.726 63.6487C169.726 63.5428 169.763 63.4591 169.835 63.3978C169.908 63.3309 170.028 63.2974 170.195 63.2974H170.688L167.669 60.1943L166.866 60.8718ZM124.827 72.5029V76.8272C125.273 76.3421 125.7 76.0019 126.107 75.8067C126.519 75.606 126.98 75.5056 127.487 75.5056C128.033 75.5056 128.496 75.6032 128.875 75.7984C129.26 75.988 129.581 76.2835 129.837 76.685C130.094 77.0809 130.222 77.4991 130.222 77.9396V82.2974H131.008C131.181 82.2974 131.301 82.3309 131.368 82.3978C131.44 82.4591 131.477 82.5428 131.477 82.6487C131.477 82.7491 131.44 82.8327 131.368 82.8996C131.301 82.9665 131.181 83 131.008 83H128.725C128.552 83 128.429 82.9665 128.357 82.8996C128.284 82.8327 128.248 82.7491 128.248 82.6487C128.248 82.5428 128.284 82.4591 128.357 82.3978C128.429 82.3309 128.552 82.2974 128.725 82.2974H129.511V77.9898C129.511 77.4824 129.327 77.0586 128.959 76.7184C128.597 76.3783 128.089 76.2082 127.437 76.2082C126.924 76.2082 126.486 76.3337 126.124 76.5846C125.861 76.7631 125.429 77.1841 124.827 77.8476V82.2974H125.622C125.789 82.2974 125.909 82.3309 125.981 82.3978C126.054 82.4591 126.09 82.5428 126.09 82.6487C126.09 82.7491 126.054 82.8327 125.981 82.8996C125.909 82.9665 125.789 83 125.622 83H123.33C123.163 83 123.043 82.9665 122.97 82.8996C122.898 82.8327 122.862 82.7491 122.862 82.6487C122.862 82.5428 122.898 82.4591 122.97 82.3978C123.043 82.3309 123.163 82.2974 123.33 82.2974H124.125V73.2138H123.179C123.012 73.2138 122.892 73.1804 122.82 73.1134C122.747 73.0465 122.711 72.9601 122.711 72.8542C122.711 72.7538 122.747 72.6701 122.82 72.6032C122.892 72.5363 123.012 72.5029 123.179 72.5029H124.827ZM141.229 79.5456H134.07C134.192 80.4545 134.571 81.1877 135.207 81.7454C135.848 82.2974 136.64 82.5734 137.583 82.5734C138.107 82.5734 138.656 82.487 139.23 82.3141C139.805 82.1413 140.273 81.9126 140.636 81.6283C140.742 81.5446 140.834 81.5028 140.912 81.5028C141.001 81.5028 141.079 81.539 141.146 81.6115C141.213 81.6784 141.246 81.7593 141.246 81.8541C141.246 81.9489 141.202 82.0409 141.112 82.1301C140.845 82.4089 140.368 82.671 139.682 82.9164C139.002 83.1561 138.302 83.276 137.583 83.276C136.378 83.276 135.372 82.8829 134.563 82.0967C133.76 81.3048 133.359 80.3485 133.359 79.2277C133.359 78.2073 133.735 77.3318 134.488 76.6013C135.246 75.8709 136.183 75.5056 137.298 75.5056C138.447 75.5056 139.392 75.882 140.134 76.6348C140.875 77.382 141.241 78.3523 141.229 79.5456ZM140.518 78.8346C140.379 78.0595 140.011 77.4294 139.414 76.9443C138.823 76.4592 138.118 76.2166 137.298 76.2166C136.479 76.2166 135.773 76.4564 135.182 76.9359C134.591 77.4155 134.223 78.0484 134.078 78.8346H140.518ZM146.875 75.7566V77.5298C147.79 76.7045 148.473 76.1748 148.925 75.9406C149.382 75.7008 149.803 75.5809 150.188 75.5809C150.606 75.5809 150.993 75.7231 151.35 76.0075C151.713 76.2863 151.894 76.4982 151.894 76.6432C151.894 76.7491 151.858 76.8383 151.785 76.9108C151.718 76.9777 151.632 77.0112 151.526 77.0112C151.47 77.0112 151.423 77.0028 151.384 76.9861C151.345 76.9638 151.272 76.8997 151.166 76.7937C150.971 76.5986 150.801 76.4647 150.656 76.3922C150.511 76.3197 150.369 76.2835 150.229 76.2835C149.923 76.2835 149.552 76.4062 149.117 76.6515C148.688 76.8969 147.94 77.4963 146.875 78.4498V82.2974H149.987C150.16 82.2974 150.282 82.3309 150.355 82.3978C150.427 82.4591 150.464 82.5428 150.464 82.6487C150.464 82.7491 150.427 82.8327 150.355 82.8996C150.282 82.9665 150.16 83 149.987 83H144.475C144.307 83 144.188 82.9693 144.115 82.908C144.043 82.8411 144.006 82.7574 144.006 82.6571C144.006 82.5623 144.04 82.4842 144.107 82.4229C144.179 82.356 144.302 82.3225 144.475 82.3225H146.173V76.4675H144.876C144.709 76.4675 144.589 76.4341 144.517 76.3671C144.444 76.3002 144.408 76.2138 144.408 76.1079C144.408 76.0075 144.441 75.9238 144.508 75.8569C144.581 75.79 144.703 75.7566 144.876 75.7566H146.875ZM161.806 79.5456H154.646C154.768 80.4545 155.148 81.1877 155.783 81.7454C156.424 82.2974 157.216 82.5734 158.159 82.5734C158.683 82.5734 159.232 82.487 159.806 82.3141C160.381 82.1413 160.849 81.9126 161.212 81.6283C161.318 81.5446 161.41 81.5028 161.488 81.5028C161.577 81.5028 161.655 81.539 161.722 81.6115C161.789 81.6784 161.822 81.7593 161.822 81.8541C161.822 81.9489 161.778 82.0409 161.688 82.1301C161.421 82.4089 160.944 82.671 160.258 82.9164C159.578 83.1561 158.878 83.276 158.159 83.276C156.954 83.276 155.948 82.8829 155.139 82.0967C154.336 81.3048 153.935 80.3485 153.935 79.2277C153.935 78.2073 154.311 77.3318 155.064 76.6013C155.822 75.8709 156.759 75.5056 157.874 75.5056C159.023 75.5056 159.968 75.882 160.71 76.6348C161.451 77.382 161.817 78.3523 161.806 79.5456ZM161.095 78.8346C160.955 78.0595 160.587 77.4294 159.99 76.9443C159.399 76.4592 158.694 76.2166 157.874 76.2166C157.055 76.2166 156.349 76.4564 155.758 76.9359C155.167 77.4155 154.799 78.0484 154.654 78.8346H161.095ZM177.137 75.7566H180.951C181.119 75.7566 181.238 75.79 181.311 75.8569C181.383 75.9238 181.42 76.0103 181.42 76.1162C181.42 76.2166 181.383 76.3002 181.311 76.3671C181.238 76.4341 181.119 76.4675 180.951 76.4675H177.137V81.1431C177.137 81.5502 177.299 81.8903 177.622 82.1636C177.951 82.4368 178.431 82.5734 179.061 82.5734C179.535 82.5734 180.048 82.5037 180.6 82.3643C181.152 82.2193 181.581 82.0576 181.888 81.8792C182 81.8067 182.092 81.7705 182.164 81.7705C182.253 81.7705 182.331 81.8067 182.398 81.8792C182.465 81.9461 182.499 82.027 182.499 82.1218C182.499 82.2054 182.462 82.2835 182.39 82.356C182.211 82.54 181.777 82.7407 181.085 82.9582C180.399 83.1701 179.741 83.276 179.111 83.276C178.291 83.276 177.639 83.0836 177.154 82.6989C176.669 82.3141 176.426 81.7955 176.426 81.1431V76.4675H175.13C174.962 76.4675 174.843 76.4341 174.77 76.3671C174.698 76.3002 174.661 76.2138 174.661 76.1079C174.661 76.0075 174.698 75.9238 174.77 75.8569C174.843 75.79 174.962 75.7566 175.13 75.7566H176.426V73.6822C176.426 73.5149 176.46 73.395 176.527 73.3226C176.594 73.2501 176.677 73.2138 176.778 73.2138C176.883 73.2138 176.97 73.2501 177.037 73.3226C177.104 73.395 177.137 73.5149 177.137 73.6822V75.7566ZM192.795 79.395C192.795 80.4656 192.41 81.3801 191.641 82.1385C190.877 82.8968 189.954 83.276 188.872 83.276C187.779 83.276 186.851 82.8968 186.087 82.1385C185.323 81.3745 184.941 80.4601 184.941 79.395C184.941 78.3244 185.323 77.4099 186.087 76.6515C186.851 75.8876 187.779 75.5056 188.872 75.5056C189.954 75.5056 190.877 75.8848 191.641 76.6432C192.41 77.4015 192.795 78.3188 192.795 79.395ZM192.084 79.395C192.084 78.514 191.769 77.764 191.139 77.145C190.514 76.5261 189.756 76.2166 188.864 76.2166C187.972 76.2166 187.211 76.5289 186.58 77.1534C185.956 77.7723 185.644 78.5195 185.644 79.395C185.644 80.2649 185.956 81.0121 186.58 81.6366C187.211 82.2612 187.972 82.5734 188.864 82.5734C189.756 82.5734 190.514 82.2639 191.139 81.645C191.769 81.0205 192.084 80.2705 192.084 79.395ZM126.299 94.7566V96.5298C127.214 95.7045 127.897 95.1748 128.348 94.9406C128.806 94.7008 129.227 94.5809 129.611 94.5809C130.03 94.5809 130.417 94.7231 130.774 95.0075C131.137 95.2863 131.318 95.4982 131.318 95.6432C131.318 95.7491 131.282 95.8383 131.209 95.9108C131.142 95.9777 131.056 96.0112 130.95 96.0112C130.894 96.0112 130.847 96.0028 130.808 95.9861C130.769 95.9638 130.696 95.8997 130.59 95.7937C130.395 95.5986 130.225 95.4647 130.08 95.3922C129.935 95.3197 129.793 95.2835 129.653 95.2835C129.347 95.2835 128.976 95.4062 128.541 95.6515C128.111 95.8969 127.364 96.4963 126.299 97.4498V101.297H129.411C129.584 101.297 129.706 101.331 129.779 101.398C129.851 101.459 129.887 101.543 129.887 101.649C129.887 101.749 129.851 101.833 129.779 101.9C129.706 101.967 129.584 102 129.411 102H123.899C123.731 102 123.612 101.969 123.539 101.908C123.467 101.841 123.43 101.757 123.43 101.657C123.43 101.562 123.464 101.484 123.531 101.423C123.603 101.356 123.726 101.322 123.899 101.322H125.597V95.4675H124.3C124.133 95.4675 124.013 95.4341 123.941 95.3671C123.868 95.3002 123.832 95.2138 123.832 95.1079C123.832 95.0075 123.865 94.9238 123.932 94.8569C124.005 94.79 124.127 94.7566 124.3 94.7566H126.299ZM141.229 98.5456H134.07C134.192 99.4545 134.571 100.188 135.207 100.745C135.848 101.297 136.64 101.573 137.583 101.573C138.107 101.573 138.656 101.487 139.23 101.314C139.805 101.141 140.273 100.913 140.636 100.628C140.742 100.545 140.834 100.503 140.912 100.503C141.001 100.503 141.079 100.539 141.146 100.612C141.213 100.678 141.246 100.759 141.246 100.854C141.246 100.949 141.202 101.041 141.112 101.13C140.845 101.409 140.368 101.671 139.682 101.916C139.002 102.156 138.302 102.276 137.583 102.276C136.378 102.276 135.372 101.883 134.563 101.097C133.76 100.305 133.359 99.3485 133.359 98.2277C133.359 97.2073 133.735 96.3318 134.488 95.6013C135.246 94.8709 136.183 94.5056 137.298 94.5056C138.447 94.5056 139.392 94.882 140.134 95.6348C140.875 96.382 141.241 97.3523 141.229 98.5456ZM140.518 97.8346C140.379 97.0595 140.011 96.4294 139.414 95.9443C138.823 95.4592 138.118 95.2166 137.298 95.2166C136.479 95.2166 135.773 95.4564 135.182 95.9359C134.591 96.4155 134.223 97.0484 134.078 97.8346H140.518ZM150.079 96.0446V94.7566H151.727C151.894 94.7566 152.014 94.79 152.086 94.8569C152.159 94.9238 152.195 95.0103 152.195 95.1162C152.195 95.2166 152.159 95.3002 152.086 95.3671C152.014 95.4341 151.894 95.4675 151.727 95.4675H150.781V102.485C150.781 102.954 150.681 103.372 150.48 103.74C150.346 103.985 150.123 104.239 149.811 104.501C149.499 104.763 149.215 104.95 148.958 105.061C148.701 105.173 148.359 105.229 147.929 105.229H145.939C145.771 105.229 145.651 105.195 145.579 105.128C145.506 105.067 145.47 104.983 145.47 104.877C145.47 104.771 145.506 104.685 145.579 104.618C145.651 104.551 145.771 104.518 145.939 104.518L147.954 104.526C148.367 104.526 148.738 104.42 149.067 104.208C149.401 103.996 149.677 103.687 149.895 103.28C150.017 103.046 150.079 102.747 150.079 102.385V100.277C149.326 101.309 148.356 101.824 147.168 101.824C146.203 101.824 145.37 101.467 144.667 100.754C143.97 100.034 143.622 99.1701 143.622 98.1608C143.622 97.1515 143.97 96.29 144.667 95.5763C145.37 94.8625 146.203 94.5056 147.168 94.5056C148.356 94.5056 149.326 95.0186 150.079 96.0446ZM150.079 98.1608C150.079 97.3355 149.794 96.6385 149.226 96.0697C148.662 95.501 147.988 95.2166 147.202 95.2166C146.415 95.2166 145.741 95.5038 145.177 96.0781C144.614 96.6469 144.333 97.3411 144.333 98.1608C144.333 98.9861 144.614 99.6859 145.177 100.26C145.741 100.829 146.415 101.113 147.202 101.113C147.988 101.113 148.662 100.829 149.226 100.26C149.794 99.6859 150.079 98.9861 150.079 98.1608ZM158.351 91.1516V92.9666H157.314V91.1516H158.351ZM158.376 94.7566V101.297H161.136C161.309 101.297 161.432 101.331 161.504 101.398C161.577 101.459 161.613 101.543 161.613 101.649C161.613 101.749 161.577 101.833 161.504 101.9C161.432 101.967 161.309 102 161.136 102H154.913C154.746 102 154.626 101.967 154.554 101.9C154.481 101.833 154.445 101.749 154.445 101.649C154.445 101.543 154.481 101.459 154.554 101.398C154.626 101.331 154.746 101.297 154.913 101.297H157.674V95.4675H155.624C155.457 95.4675 155.334 95.4341 155.256 95.3671C155.184 95.3002 155.148 95.2166 155.148 95.1162C155.148 95.0103 155.184 94.9238 155.256 94.8569C155.329 94.79 155.451 94.7566 155.624 94.7566H158.376ZM170.613 95.2166C170.613 95.0549 170.647 94.9378 170.713 94.8653C170.78 94.7928 170.864 94.7566 170.964 94.7566C171.07 94.7566 171.157 94.7928 171.224 94.8653C171.291 94.9378 171.324 95.0605 171.324 95.2333V96.4378C171.324 96.6051 171.291 96.7249 171.224 96.7974C171.157 96.8699 171.07 96.9062 170.964 96.9062C170.87 96.9062 170.789 96.8755 170.722 96.8142C170.66 96.7528 170.624 96.6525 170.613 96.513C170.58 96.1785 170.407 95.9025 170.094 95.685C169.637 95.3727 169.032 95.2166 168.279 95.2166C167.493 95.2166 166.883 95.3755 166.448 95.6933C166.119 95.9331 165.954 96.2008 165.954 96.4963C165.954 96.8309 166.149 97.1097 166.54 97.3327C166.807 97.4889 167.315 97.6088 168.062 97.6924C169.038 97.7984 169.715 97.9182 170.094 98.0521C170.635 98.2472 171.037 98.5177 171.299 98.8634C171.567 99.2091 171.7 99.5827 171.7 99.9842C171.7 100.581 171.413 101.113 170.839 101.582C170.265 102.045 169.423 102.276 168.313 102.276C167.203 102.276 166.294 101.994 165.586 101.431C165.586 101.621 165.575 101.743 165.553 101.799C165.53 101.855 165.489 101.902 165.427 101.941C165.371 101.98 165.307 102 165.235 102C165.134 102 165.051 101.964 164.984 101.891C164.917 101.819 164.884 101.699 164.884 101.532V100.085C164.884 99.9173 164.914 99.7974 164.976 99.7249C165.042 99.6524 165.129 99.6162 165.235 99.6162C165.335 99.6162 165.419 99.6524 165.486 99.7249C165.558 99.7918 165.595 99.8838 165.595 100.001C165.595 100.257 165.659 100.472 165.787 100.645C165.982 100.913 166.292 101.136 166.715 101.314C167.145 101.487 167.669 101.573 168.288 101.573C169.202 101.573 169.883 101.403 170.329 101.063C170.775 100.723 170.998 100.363 170.998 99.9842C170.998 99.5493 170.772 99.2008 170.32 98.9387C169.863 98.6766 169.197 98.501 168.321 98.4117C167.451 98.3225 166.827 98.2054 166.448 98.0604C166.068 97.9155 165.773 97.698 165.561 97.408C165.349 97.1181 165.243 96.8058 165.243 96.4712C165.243 95.869 165.539 95.3922 166.13 95.0409C166.721 94.6841 167.426 94.5056 168.246 94.5056C169.216 94.5056 170.005 94.7426 170.613 95.2166ZM177.137 94.7566H180.951C181.119 94.7566 181.238 94.79 181.311 94.8569C181.383 94.9238 181.42 95.0103 181.42 95.1162C181.42 95.2166 181.383 95.3002 181.311 95.3671C181.238 95.4341 181.119 95.4675 180.951 95.4675H177.137V100.143C177.137 100.55 177.299 100.89 177.622 101.164C177.951 101.437 178.431 101.573 179.061 101.573C179.535 101.573 180.048 101.504 180.6 101.364C181.152 101.219 181.581 101.058 181.888 100.879C182 100.807 182.092 100.77 182.164 100.77C182.253 100.77 182.331 100.807 182.398 100.879C182.465 100.946 182.499 101.027 182.499 101.122C182.499 101.205 182.462 101.283 182.39 101.356C182.211 101.54 181.777 101.741 181.085 101.958C180.399 102.17 179.741 102.276 179.111 102.276C178.291 102.276 177.639 102.084 177.154 101.699C176.669 101.314 176.426 100.796 176.426 100.143V95.4675H175.13C174.962 95.4675 174.843 95.4341 174.77 95.3671C174.698 95.3002 174.661 95.2138 174.661 95.1079C174.661 95.0075 174.698 94.9238 174.77 94.8569C174.843 94.79 174.962 94.7566 175.13 94.7566H176.426V92.6822C176.426 92.5149 176.46 92.395 176.527 92.3226C176.594 92.2501 176.677 92.2138 176.778 92.2138C176.883 92.2138 176.97 92.2501 177.037 92.3226C177.104 92.395 177.137 92.5149 177.137 92.6822V94.7566ZM192.67 98.5456H185.51C185.632 99.4545 186.012 100.188 186.647 100.745C187.289 101.297 188.08 101.573 189.023 101.573C189.547 101.573 190.096 101.487 190.671 101.314C191.245 101.141 191.713 100.913 192.076 100.628C192.182 100.545 192.274 100.503 192.352 100.503C192.441 100.503 192.519 100.539 192.586 100.612C192.653 100.678 192.686 100.759 192.686 100.854C192.686 100.949 192.642 101.041 192.553 101.13C192.285 101.409 191.808 101.671 191.122 101.916C190.442 102.156 189.742 102.276 189.023 102.276C187.818 102.276 186.812 101.883 186.003 101.097C185.2 100.305 184.799 99.3485 184.799 98.2277C184.799 97.2073 185.175 96.3318 185.928 95.6013C186.686 94.8709 187.623 94.5056 188.738 94.5056C189.887 94.5056 190.832 94.882 191.574 95.6348C192.316 96.382 192.681 97.3523 192.67 98.5456ZM191.959 97.8346C191.819 97.0595 191.451 96.4294 190.855 95.9443C190.263 95.4592 189.558 95.2166 188.738 95.2166C187.919 95.2166 187.213 95.4564 186.622 95.9359C186.031 96.4155 185.663 97.0484 185.518 97.8346H191.959ZM198.315 94.7566V96.5298C199.23 95.7045 199.913 95.1748 200.365 94.9406C200.822 94.7008 201.243 94.5809 201.628 94.5809C202.046 94.5809 202.433 94.7231 202.79 95.0075C203.153 95.2863 203.334 95.4982 203.334 95.6432C203.334 95.7491 203.298 95.8383 203.225 95.9108C203.158 95.9777 203.072 96.0112 202.966 96.0112C202.91 96.0112 202.863 96.0028 202.824 95.9861C202.785 95.9638 202.712 95.8997 202.606 95.7937C202.411 95.5986 202.241 95.4647 202.096 95.3922C201.951 95.3197 201.809 95.2835 201.67 95.2835C201.363 95.2835 200.992 95.4062 200.557 95.6515C200.128 95.8969 199.381 96.4963 198.315 97.4498V101.297H201.427C201.6 101.297 201.723 101.331 201.795 101.398C201.868 101.459 201.904 101.543 201.904 101.649C201.904 101.749 201.868 101.833 201.795 101.9C201.723 101.967 201.6 102 201.427 102H195.915C195.748 102 195.628 101.969 195.555 101.908C195.483 101.841 195.447 101.757 195.447 101.657C195.447 101.562 195.48 101.484 195.547 101.423C195.619 101.356 195.742 101.322 195.915 101.322H197.613V95.4675H196.316C196.149 95.4675 196.029 95.4341 195.957 95.3671C195.884 95.3002 195.848 95.2138 195.848 95.1079C195.848 95.0075 195.881 94.9238 195.948 94.8569C196.021 94.79 196.144 94.7566 196.316 94.7566H198.315Z" fill="white"/>
</svg>
